<svg xmlns="http://www.w3.org/2000/svg" width="250" height="250" viewBox="0 0 250 250">
  <g id="Group_37735" data-name="Group 37735" transform="translate(-14459 5192)">
    <g id="Group_37730" data-name="Group 37730" transform="translate(14459 -5192)">
      <g id="Group_33878" data-name="Group 33878" transform="translate(0)">
        <rect id="process-01" width="250" height="250" rx="7" fill="#1d1e27"/>
      </g>
    </g>
    <g id="icon-custom-quality-assurance-0bfe08b5b70b1cd4201b251c658b5292765065bd9133b5f192d3af1ce068e76a" transform="translate(14523.662 -5120.035)">
      <path id="Path_44074" data-name="Path 44074" d="M55.926,36.172a.935.935,0,1,0-.935-.935.935.935,0,0,0,.935.935Zm8.017,0a.935.935,0,1,0-.935-.935.935.935,0,0,0,.935.935Z" fill="#d94427" fill-rule="evenodd"/>
      <g id="Group_37725" data-name="Group 37725">
        <path id="Path_44075" data-name="Path 44075" d="M52.837.5a1,1,0,0,1,.275,1.98,51.188,51.188,0,0,0-7.645,1.668,1,1,0,0,1-.574-1.916A53.057,53.057,0,0,1,52.837.5ZM70.052.969a1,1,0,1,1-.383,1.963,50.266,50.266,0,0,0-7.77-.9,1,1,0,1,1,.075-2,52.394,52.394,0,0,1,8.078.933ZM86.193,6.985A1,1,0,0,1,85.2,8.72a50.96,50.96,0,0,0-7.068-3.357A1,1,0,1,1,78.848,3.5a52.96,52.96,0,0,1,7.346,3.489Zm13.4,10.937a1,1,0,1,1-1.5,1.32,50.564,50.564,0,0,0-5.6-5.458,1,1,0,1,1,1.28-1.536,52.563,52.563,0,0,1,5.827,5.674Zm9.058,14.562a1,1,0,1,1-1.848.765,50.47,50.47,0,0,0-3.54-6.977,1,1,0,1,1,1.707-1.04,52.469,52.469,0,0,1,3.681,7.252Zm3.922,16.805a1,1,0,1,1-2,.13,50.76,50.76,0,0,0-1.112-7.742,1,1,0,0,1,1.952-.436A52.614,52.614,0,0,1,112.57,49.289Zm-1.729,17.155a1,1,0,1,1-1.93-.524,50.5,50.5,0,0,0,1.463-7.686,1,1,0,1,1,1.988.22,52.717,52.717,0,0,1-1.52,7.99Zm-7.167,15.661a1,1,0,1,1-1.659-1.117,50.972,50.972,0,0,0,3.86-6.808,1,1,0,1,1,1.81.85,52.973,52.973,0,0,1-4.01,7.075ZM91.78,94.683a1,1,0,1,1-1.206-1.6,50.408,50.408,0,0,0,5.853-5.19,1,1,0,0,1,1.439,1.39,52.408,52.408,0,0,1-6.086,5.395Zm-15.17,7.962a1,1,0,1,1-.63-1.9A50.841,50.841,0,0,0,83.2,97.722a1,1,0,0,1,.913,1.78,52.842,52.842,0,0,1-7.5,3.143Zm-17.04,2.7a1,1,0,1,1,.016-2,50.366,50.366,0,0,0,7.8-.545,1,1,0,1,1,.293,1.978A52.391,52.391,0,0,1,59.57,105.341Zm-17-2.978a1,1,0,0,1,.664-1.887A50.666,50.666,0,0,0,50.8,102.5a1,1,0,1,1-.366,1.966,52.665,52.665,0,0,1-7.857-2.1Zm-15.1-8.278a1,1,0,0,1,1.234-1.574,50.919,50.919,0,0,0,6.51,4.341,1,1,0,1,1-.977,1.744,52.919,52.919,0,0,1-6.767-4.51ZM15.873,81.416a1,1,0,0,1,1.676-1.09,50.294,50.294,0,0,0,4.764,6.205,1,1,0,1,1-1.487,1.337,52.294,52.294,0,0,1-4.953-6.452ZM8.957,65.58a1,1,0,0,1,1.939-.492,51.223,51.223,0,0,0,2.5,7.436,1,1,0,1,1-1.841.781,53.225,53.225,0,0,1-2.6-7.725ZM7.51,48.41a1,1,0,1,1,1.993.162,50.257,50.257,0,0,0-.026,7.822,1,1,0,1,1-1.994.149,52.257,52.257,0,0,1,.027-8.134Zm4.2-16.719a1,1,0,1,1,1.834.8,50.815,50.815,0,0,0-2.56,7.395,1,1,0,0,1-1.935-.506,52.815,52.815,0,0,1,2.66-7.687Zm9.357-14.476a1,1,0,1,1,1.48,1.345,50.808,50.808,0,0,0-4.8,6.18,1,1,0,1,1-1.67-1.1,52.807,52.807,0,0,1,4.99-6.422ZM34.54,6.569a1,1,0,0,1,.966,1.752,50.263,50.263,0,0,0-6.537,4.3,1,1,0,1,1-1.225-1.58,52.262,52.262,0,0,1,6.8-4.47ZM44.885,2.232a1,1,0,0,1,.574,1.915q-.937.282-1.861.6a1,1,0,1,1-.647-1.892Q43.911,2.524,44.885,2.232Z" fill="#d0d0d0"/>
        <path id="Path_44076" data-name="Path 44076" d="M33.99,72.943,8.966,98.923a4.426,4.426,0,0,0,.118,6.258l.016.016a4.461,4.461,0,0,0,6.292-.134L40.166,79.34a1,1,0,0,0-1.44-1.387L13.95,103.675a2.461,2.461,0,0,1-3.472.075l-.009-.01a2.426,2.426,0,0,1-.064-3.429L35.43,74.331a1,1,0,1,0-1.44-1.388Z" fill="#d0d0d0"/>
        <path id="Path_44077" data-name="Path 44077" d="M35.83,29.5a33.488,33.488,0,1,0,47.348-1.01A33.485,33.485,0,0,0,35.83,29.5ZM82.744,74.457a31.488,31.488,0,1,1-.95-44.52A31.486,31.486,0,0,1,82.744,74.457Z" fill="#d0d0d0"/>
        <path id="Path_44078" data-name="Path 44078" d="M63.285,34.342v1.065a1.237,1.237,0,0,0-1.241,1.233v1.9a3.232,3.232,0,0,1,1.16,2.48v2.006a3.211,3.211,0,0,1-.166,1.023,6.755,6.755,0,0,1,3.3,4.877l4.822-3.217V41.788a.533.533,0,0,1,1.065,0v4.2a.533.533,0,0,1-.237.443L66.4,50.16v2.91h5.96a.533.533,0,1,1,0,1.066H66.4v3.153L71.86,59.1a.533.533,0,0,1,.364.506v5.967a.533.533,0,1,1-1.065,0V59.991L66.4,58.411v2.414a6.926,6.926,0,0,1-13.847,0V58.378L47.78,59.99v5.585a.533.533,0,1,1-1.065,0V59.608a.533.533,0,0,1,.362-.505l5.475-1.848V54.137H46.6a.533.533,0,1,1,0-1.066h5.955V50.106l-5.6-3.67a.533.533,0,0,1-.24-.445v-4.2a.533.533,0,0,1,1.065,0V45.7l4.842,3.175a6.755,6.755,0,0,1,3.292-4.832,3.21,3.21,0,0,1-.167-1.023V41.017a3.242,3.242,0,0,1,1.5-2.732V36.64a1.237,1.237,0,0,0-1.241-1.233V34.342a2.3,2.3,0,0,1,2.306,2.3v1.2a3.36,3.36,0,0,1,.736-.081H59.9a3.353,3.353,0,0,1,1.079.177v-1.3a2.3,2.3,0,0,1,2.306-2.3Zm-.749,10.645A3.317,3.317,0,0,1,59.9,46.28h-.847a3.318,3.318,0,0,1-2.636-1.293,5.665,5.665,0,0,0-2.79,4.55c-.005.13-.01.257-.01.386v10.9a5.741,5.741,0,0,0,4.734,5.588V59.636a1,1,0,0,1,1.994-.116l.007.116v6.82a5.747,5.747,0,0,0,4.983-5.63v-.368c.007-.116.01-.233.01-.351V49.923A5.8,5.8,0,0,0,65.272,49a5.693,5.693,0,0,0-2.736-4.017Zm-3.184,5.021a1,1,0,0,1,.993.884l.007.116V52.7a1,1,0,0,1-1.994.116l-.006-.116V51.008A1,1,0,0,1,59.352,50.008Zm.13-5.858h-.006a6,6,0,0,0-2.065.363,2.255,2.255,0,0,0,1.642.7H59.9a2.25,2.25,0,0,0,1.641-.7,5.955,5.955,0,0,0-2.06-.363Zm.418-5.326h-.847a2.216,2.216,0,0,0-2.24,2.193v2.006a2.121,2.121,0,0,0,.072.55,7.118,7.118,0,0,1,5.183,0,2.129,2.129,0,0,0,.071-.551V41.017a2.216,2.216,0,0,0-2.24-2.193Z" fill="#d94427" stroke="#d94427" stroke-linecap="round" stroke-width="0.8"/>
      </g>
    </g>
  </g>
</svg>
