<svg xmlns="http://www.w3.org/2000/svg" width="250" height="250" viewBox="0 0 250 250">
  <g id="Group_37736" data-name="Group 37736" transform="translate(-14459 4899)">
    <g id="Group_37731" data-name="Group 37731" transform="translate(14459 -4899)">
      <g id="Group_33878" data-name="Group 33878" transform="translate(0)">
        <rect id="process-01" width="250" height="250" rx="7" fill="#1d1e27"/>
      </g>
    </g>
    <g id="icon-custom-ux-strategy-1d1731b073297268e9c7141bc29cad3c57e5ca531dde2efd64d056322499dbaa" transform="translate(14524.01 -4822.991)">
      <path id="Path_44086" data-name="Path 44086" d="M12.615.211l.094.084L26.356,14.019a48.055,48.055,0,0,1,79.7,22.571A48.584,48.584,0,0,1,94.869,82.04l14.2,14.285a1,1,0,0,1-1.324,1.494l-.094-.084-14.17-14.25a48.005,48.005,0,0,1-66.963.893L12.91,98.068a1,1,0,0,1-1.5-1.315l.083-.1L25.1,82.975a48.643,48.643,0,0,1-.158-67.542L11.29,1.705A1,1,0,0,1,12.616.211ZM47.6,4.278a45.882,45.882,0,0,0-19.831,11.16L47.985,35.772V26.187a1,1,0,0,1,.884-.993l.117-.007a1,1,0,0,1,.993.884l.007.116V38.2a1,1,0,0,1-.884.993l-.116.006H37.044a1,1,0,0,1-.116-1.993l.116-.007H46.58L26.35,16.851a46.645,46.645,0,0,0,.159,64.706L46.58,61.368H37.045a1,1,0,0,1-.994-.883l-.006-.117a1,1,0,0,1,1-1H48.986a1,1,0,0,1,1,1v12.01a1,1,0,0,1-2,0V62.79L27.933,82.96a46,46,0,0,0,64.141-.9L72.752,62.634v9.585a1,1,0,0,1-.883.993l-.117.007a1,1,0,0,1-.993-.883l-.007-.117V60.209a1,1,0,0,1,.883-.993l.117-.007h11.94a1,1,0,0,1,.117,1.993l-.116.007H74.156l19.3,19.411A46.41,46.41,0,0,0,47.6,4.278Z" fill="#d0d0d0"/>
      <path id="Path_44087" data-name="Path 44087" d="M59.805,8.683h.016l.041,0-.057,0a1.009,1.009,0,0,1,.5.135L86.2,19.8a1,1,0,0,1,0,1.84L60.8,32.416v12.77a5.833,5.833,0,1,1-2,0l0-13.22a1.018,1.018,0,0,1-.02-.2V9.683a1,1,0,0,1,1-1h.018Zm1,38.55v3.725a1,1,0,0,1-1.993.117l-.007-.117V47.232a3.832,3.832,0,1,0,2,0Zm0-36.031v19.04l22.44-9.52Z" fill="#d94427"/>
    </g>
  </g>
</svg>
