<svg xmlns="http://www.w3.org/2000/svg" width="250" height="250" viewBox="0 0 250 250">
  <g id="Group_37733" data-name="Group 37733" transform="translate(-14459 5762)">
    <g id="Group_37728" data-name="Group 37728" transform="translate(14459 -5762)">
      <g id="Group_33878" data-name="Group 33878" transform="translate(0)">
        <rect id="process-01" width="250" height="250" rx="7" fill="#1d1e27"/>
      </g>
    </g>
    <g id="icon-custom-post-release-support-b35358ab3a9f9800c1437f94a8b2a3e93fb28bfd9899617050291a08a1feedb0" transform="translate(14524.703 -5693.999)">
      <path id="Path_44072" data-name="Path 44072" d="M111,55.81a1,1,0,0,0-1,1,50.208,50.208,0,0,1-40.039,49.161l3.807-6.744a1,1,0,0,0-1.741-.983l-4.87,8.622a1,1,0,0,0,.359,1.35l8.387,5.006a1,1,0,1,0,1.025-1.717l-6.139-3.664A52.208,52.208,0,0,0,112,56.811a1,1,0,0,0-1-1ZM8.178,64.472l-.07.1L3.44,72.394a1,1,0,0,0,1.652,1.122l.065-.1,3.41-5.712A52.208,52.208,0,0,0,59.637,109.1a1,1,0,0,0,0-2A50.206,50.206,0,0,1,10.482,67.091L16.515,70.5A1,1,0,0,0,17.6,68.82l-.1-.063-8.04-4.54a1,1,0,0,0-1.281.255ZM42.435.487a1,1,0,0,0,.25,1.306l.1.066L49.055,5.6A52.208,52.208,0,0,0,7.347,56.738a1,1,0,1,0,2,0A50.208,50.208,0,0,1,49.565,7.54l-3.657,6.476A1,1,0,0,0,47.587,15.1l.063-.1,4.827-8.546a1,1,0,0,0-.256-1.28l-.1-.07L43.806.14a1,1,0,0,0-1.37.346ZM59.708,4.45a1,1,0,0,0,0,2A50.206,50.206,0,0,1,108.871,46.5l-6.29-3.552a1,1,0,0,0-1.081,1.678l.1.063,8.168,4.614a1,1,0,0,0,1.28-.256l.07-.1L115.859,41a1,1,0,0,0-1.652-1.121l-.066.1-3.4,5.7A52.205,52.205,0,0,0,59.709,4.45Z" fill="#d0d0d0"/>
      <path id="Path_44073" data-name="Path 44073" d="M60.152,24.026,88.4,36.868a4,4,0,0,1,2.345,3.642V72.95a4,4,0,0,1-2.264,3.6L61.937,89.349a4,4,0,0,1-3.376.045L29.967,76.544a4,4,0,0,1-2.36-3.649V40.472a4,4,0,0,1,2.28-3.611l26.89-12.805a4,4,0,0,1,3.375-.03ZM29.607,40.472V72.9a2,2,0,0,0,1.18,1.824l28.457,12.79V53.371a4,4,0,0,1-.684-.236l-28.925-13a2.077,2.077,0,0,0-.028.336Zm59.115-.29L61.937,53.091a4,4,0,0,1-.692.258V87.462L87.617,74.753a2,2,0,0,0,1.132-1.8V40.51a2.1,2.1,0,0,0-.027-.328ZM57.637,25.862l-26.65,12.69L59.38,51.312a2,2,0,0,0,1.526.047l.162-.07L87.39,38.6,59.324,25.847a2,2,0,0,0-1.687.015Z" fill="#d94427"/>
    </g>
  </g>
</svg>
