<svg xmlns="http://www.w3.org/2000/svg" width="250" height="250" viewBox="0 0 250 250">
  <g id="Group_37732" data-name="Group 37732" transform="translate(-14459 6047)">
    <g id="Group_37727" data-name="Group 37727" transform="translate(14459 -6047)">
      <g id="Group_33878" data-name="Group 33878" transform="translate(0)">
        <rect id="process-01" width="250" height="250" rx="7" fill="#1d1e27"/>
      </g>
    </g>
    <g id="icon-custom-requirements-analysis-aa8deab7a0fb6ca7d1c59f17f6e3906e5040253025d96d749ae7467ebe7b5527" transform="translate(14523.002 -5978.999)">
      <path id="Path_44079" data-name="Path 44079" d="M45.28,1.306a.978.978,0,0,1,.851-.3L46.14,1H96a6,6,0,0,1,6,6V107a6,6,0,0,1-6,6H25a6,6,0,0,1-6-6l0-77.989v-.06l0-.59,7.775-7.84ZM96,3H47V27.849A2.154,2.154,0,0,1,44.955,30l-.16,0H21v77a4,4,0,0,0,3.8,3.995L25,111H96a4,4,0,0,0,4-4V7A4,4,0,0,0,96,3ZM45,4.989,28.219,21.906,22.351,28H44.795c.14,0,.205-.064.205-.151V4.989Z" fill="#d0d0d0"/>
      <path id="Path_44080" data-name="Path 44080" d="M60.475,35l1.056,0a21.552,21.552,0,0,1,9.57,2.931l.434.263.01.006c10.657,6.78,12.614,22.256,4.306,32.259-3.608,4.33-6.538,8.907-7.853,12.825L68,89h-.123A5.654,5.654,0,0,1,62.3,93H58.581a5.483,5.483,0,0,1-5.5-4H53V83h.228C51.84,79.287,48.92,74.926,45.2,70.464c-8.367-9.949-6.408-25.444,4.192-32.254a19.428,19.428,0,0,1,9.62-3.19l.468-.02h.994Zm5.29,54H55.172a3.653,3.653,0,0,0,3.41,2H62.3A3.819,3.819,0,0,0,65.765,89ZM66,85H55v2H66ZM59.512,37a17.407,17.407,0,0,0-9.03,2.887c-9.574,6.15-11.356,20.247-3.748,29.293,3.944,4.731,7.017,9.341,8.466,13.389l.149.431H60V66.314l-5.7-5.6a1,1,0,1,1,1.4-1.427l6,5.894a1,1,0,0,1,.3.713V83h3.988c1.356-4.292,4.468-9.19,8.326-13.818,7.552-9.094,5.774-23.17-3.837-29.29a19.545,19.545,0,0,0-8.512-2.854L61.47,37Zm2.664,12.372.076.108,1.954,3.212,2-3.023a1,1,0,0,1,1.668,0l.062.11,1.727,3.495,2.607-2.741a1,1,0,0,1,1.53,1.282l-.08.1-3.594,3.778a1,1,0,0,1-1.562-.141l-.06-.1-1.591-3.22L65,55.108a1,1,0,0,1-1.615.072l-.073-.1-1.884-3.1L59.7,55.046a1,1,0,0,1-1.616.177l-.079-.1-1.993-2.9-1.515,3.2a1,1,0,0,1-1.54.345l-.089-.083-3.594-3.778a1,1,0,0,1,1.357-1.464l.093.086,2.588,2.721,1.636-3.46a1,1,0,0,1,1.65-.237l.078.1,2.07,3.012,1.78-3.159a1,1,0,0,1,1.649-.137Z" fill="#d94427"/>
    </g>
  </g>
</svg>
