<svg xmlns="http://www.w3.org/2000/svg" width="250" height="250" viewBox="0 0 250 250">
  <g id="Group_37734" data-name="Group 37734" transform="translate(-14459 5476)">
    <g id="Group_37729" data-name="Group 37729" transform="translate(14459 -5476)">
      <g id="Group_33878" data-name="Group 33878" transform="translate(0)">
        <rect id="process-01" width="250" height="250" rx="7" fill="#1d1e27"/>
      </g>
    </g>
    <g id="icon-custom-development-d8527872c621c0cedafba575394f2230a862466bec86f17502f14521cd84769d" transform="translate(14523.534 -5396.517)">
      <path id="Path_44070" data-name="Path 44070" d="M40.123,90.786a1,1,0,0,1,0-2h12.57V69.453H9.467a6,6,0,0,1-6-5.774l0-.224V6.517a6,6,0,0,1,5.776-6l.225,0H111.8a6,6,0,0,1,6,5.775l0,.225V63.454a6,6,0,0,1-5.775,6l-.225,0H68.57V88.786H81.14a1,1,0,0,1,.993.884l.007.116a1,1,0,0,1-1,1H40.123ZM66.57,69.453H54.693V88.787H66.57ZM111.8,2.517H9.466a4,4,0,0,0-3.994,3.8l-.005.2V63.454a4,4,0,0,0,3.8,3.995l.2,0H52.693v-.069a6,6,0,0,1,5.774-5.995l.226-.005H62.57a6,6,0,0,1,6,5.775l0,.225v.069H111.8a4,4,0,0,0,3.995-3.8l.005-.2V6.518a4,4,0,0,0-4-4ZM62.57,63.384H58.693a4,4,0,0,0-3.995,3.8l-.005.2v.069H66.57v-.069a4,4,0,0,0-3.8-3.995l-.2-.005Z" fill="#d0d0d0"/>
      <path id="Path_44071" data-name="Path 44071" d="M34.388,23.036a1,1,0,0,1,.072,1.32l-.084.095-9.112,8.971,9.113,8.973A1,1,0,0,1,33.068,43.9l-.1-.083-9.836-9.685a1,1,0,0,1-.085-1.33l.085-.1,9.836-9.685a1,1,0,0,1,1.415.011Zm55.965-.093.1.082,9.837,9.685a1,1,0,0,1,.085,1.33l-.085.1L90.448,43.82a1,1,0,0,1-1.487-1.331l.084-.094,9.113-8.973-9.113-8.971a1,1,0,0,1,1.308-1.508Zm-33.035-.08a1,1,0,0,1,.44,1.254l-.05.106L47.338,42.937a1,1,0,0,1-1.8-.864l.05-.106,10.37-18.714a1,1,0,0,1,1.36-.39Zm7.344,16.37a1.453,1.453,0,1,1-1.476,1.453,1.463,1.463,0,0,1,1.476-1.453Zm6.886,0a1.453,1.453,0,1,1-1.475,1.453,1.464,1.464,0,0,1,1.475-1.453Zm6.886,0a1.453,1.453,0,1,1-1.475,1.453,1.464,1.464,0,0,1,1.475-1.453Z" fill="#d94427"/>
    </g>
  </g>
</svg>
