<svg xmlns="http://www.w3.org/2000/svg" width="70.143" height="70.143" viewBox="0 0 70.143 70.143">
  <g id="ic-choose-5" transform="translate(-0.057 -0.8)">
    <path id="Path_42571" data-name="Path 42571" d="M40.029,42.286H67.686A2.514,2.514,0,0,0,70.2,39.771V3.314A2.514,2.514,0,0,0,67.686.8H31.229a2.514,2.514,0,0,0-2.514,2.514V23.429h2.514V3.314H67.686V39.771H40.029Z" fill="#d0d0d0" fill-rule="evenodd"/>
    <path id="Path_42572" data-name="Path 42572" d="M37.514,30.971H3.571a2.514,2.514,0,0,0-2.514,2.514V67.429a2.514,2.514,0,0,0,2.514,2.514H37.514a2.514,2.514,0,0,0,2.514-2.514V33.486A2.514,2.514,0,0,0,37.514,30.971Z" fill="none" stroke="#d0d0d0" stroke-linecap="round" stroke-linejoin="round" stroke-width="2"/>
    <path id="Path_42573" data-name="Path 42573" d="M54.486,16.514H44.429V26.571H54.486Z" fill="#d94427"/>
    <path id="Path_42574" data-name="Path 42574" d="M54.486,16.514H44.429V26.571H54.486Z" fill="none" stroke="#d94427" stroke-linecap="round" stroke-linejoin="round" stroke-width="2"/>
    <path id="Path_42575" data-name="Path 42575" d="M8.261,57.711l9.328-9.328,6.173,3.9,9.064-9.366" fill="none" stroke="#d0d0d0" stroke-linecap="round" stroke-linejoin="round" stroke-width="2"/>
    <path id="Path_42576" data-name="Path 42576" d="M27.193,21.543l2.715,2.7,2.653-2.653" fill="none" stroke="#d0d0d0" stroke-linecap="round" stroke-linejoin="round" stroke-width="3"/>
  </g>
</svg>
