<svg xmlns="http://www.w3.org/2000/svg" width="70.143" height="70.143" viewBox="0 0 70.143 70.143">
  <g id="ic-choose-6" transform="translate(-0.057 -0.057)">
    <path id="Path_42577" data-name="Path 42577" d="M37.64,28.714H49.495A20.693,20.693,0,0,1,70.2,49.419v.076A20.693,20.693,0,0,1,49.495,70.2h-.075A20.705,20.705,0,0,1,28.714,49.495V47.571h2.514v1.886A18.229,18.229,0,1,0,49.457,31.229H37.64Z" fill="#d0d0d0" fill-rule="evenodd"/>
    <path id="Path_42578" data-name="Path 42578" d="M49.457,54.486a5.029,5.029,0,1,0-5.029-5.029A5.029,5.029,0,0,0,49.457,54.486Z" fill="#ff3b1d"/>
    <path id="Path_42579" data-name="Path 42579" d="M49.457,54.486a5.029,5.029,0,1,0-5.029-5.029A5.029,5.029,0,0,0,49.457,54.486Z" fill="none" stroke="#ff3b1d" stroke-linecap="round" stroke-linejoin="round" stroke-width="2"/>
    <path id="Path_42580" data-name="Path 42580" d="M32.687,49.457l-2.715-2.7-2.653,2.653" fill="none" stroke="#d0d1d0" stroke-linecap="round" stroke-linejoin="round" stroke-width="3"/>
    <path id="Path_42581" data-name="Path 42581" d="M20.543,40.029A19.486,19.486,0,1,0,1.057,20.543,19.486,19.486,0,0,0,20.543,40.029Z" fill="none" stroke="#d0d0d0" stroke-linecap="round" stroke-linejoin="round" stroke-width="2"/>
    <path id="Path_42582" data-name="Path 42582" d="M20.543,21.171a5.029,5.029,0,1,0-5.028-5.028A5.029,5.029,0,0,0,20.543,21.171Z" fill="none" stroke="#d0d0d0" stroke-width="2"/>
    <path id="Path_42583" data-name="Path 42583" d="M29.343,29.971a8.8,8.8,0,1,0-17.6,0" fill="none" stroke="#d0d0d0" stroke-linecap="round" stroke-width="2"/>
  </g>
</svg>
