<svg xmlns="http://www.w3.org/2000/svg" width="289.996" height="290.334" viewBox="0 0 289.996 290.334">
  <g id="Group_34948" data-name="Group 34948" transform="translate(-1500 12789.771)">
    <g id="Vector-_2_" data-name="Vector-(2)" transform="translate(1500 -12789.771)">
      <g id="Group_34775" data-name="Group 34775">
        <path id="Path" d="M146.107.5c46.549-3.062,96.939,7.546,125.238,43.479,27.8,35.293,19.11,83.132,8.483,126.312-10.453,42.471-26,86.556-65.88,106.9-41.3,21.065-91.364,15.024-132.963-5.474-40.44-19.926-71-55.855-79.223-99.077C-6.085,131.416,13.238,91.7,40.522,59.16,67.435,27.064,103.519,3.3,146.107.5Z" transform="translate(0 0)" fill="#712df2" fill-rule="evenodd"/>
        <path id="Path-Copy-10" d="M118.114,37.6c26.071-1.678,54.292,4.135,70.142,23.827,15.567,19.341,10.7,45.556,4.751,69.219-5.854,23.274-14.561,47.433-36.9,58.581-23.129,11.543-51.17,8.233-74.468-3C58.993,175.3,41.88,155.615,37.271,131.929c-4.4-22.591,6.427-44.356,21.708-62.187C74.052,52.154,94.261,39.131,118.114,37.6Z" transform="translate(27.505 28.293)" fill="#6e2fe4" fill-rule="evenodd"/>
        <path id="Path-Copy-11" d="M95.847,65.479c10.374-.961,21.6,2.369,27.912,13.649,6.195,11.08,4.259,26.1,1.891,39.653-2.33,13.333-5.794,27.173-14.682,33.559-9.2,6.613-20.362,4.716-29.633-1.718-9.013-6.255-15.823-17.535-17.656-31.1-1.749-12.941,2.557-25.41,8.638-35.625C78.313,73.819,86.355,66.359,95.847,65.479Z" transform="translate(49.399 34.272)" fill="#6c2de3" fill-rule="evenodd"/>
      </g>
    </g>
    <g id="Group_34783" data-name="Group 34783" transform="translate(1587.082 -12703.563)">
      <ellipse id="Ellipse_521" data-name="Ellipse 521" cx="58.5" cy="59" rx="58.5" ry="59" transform="translate(-0.39 -0.437)" fill="#fff"/>
      <g id="service" transform="translate(25.691 28.92)">
        <g id="Group_34780" data-name="Group 34780">
          <path id="Path_38608" data-name="Path 38608" d="M64.522,45.213l-3.571-.335a18.575,18.575,0,0,0-1.743-4.124l2.263-2.732a1.673,1.673,0,0,0-.1-2.246l-4.459-4.509a1.677,1.677,0,0,0-2.263-.117l-2.732,2.263a19.267,19.267,0,0,0-4.107-1.743l-.335-3.554A1.676,1.676,0,0,0,45.8,26.605H40.232V21.576a1.676,1.676,0,0,0-3.353,0v8.382H30.543a8.727,8.727,0,0,0-6.907,3.42l-6.907,9.1L5.113,45.649A6.946,6.946,0,0,0,0,52.337v4.442a6.95,6.95,0,0,0,6.957,6.907h.905a8.761,8.761,0,0,0,16.914,0h12.1V77.6a1.676,1.676,0,1,0,3.353,0V73.576H45.8a1.678,1.678,0,0,0,1.676-1.525l.335-3.571a19.343,19.343,0,0,0,4.124-1.727l2.732,2.263a1.672,1.672,0,0,0,2.246-.1l4.509-4.509a1.694,1.694,0,0,0,.1-2.263l-2.263-2.732A19.635,19.635,0,0,0,61,55.3l3.52-.335a1.691,1.691,0,0,0,1.525-1.676v-6.42A1.687,1.687,0,0,0,64.522,45.213ZM16.311,66.821a5.415,5.415,0,1,1,5.415-5.415A5.423,5.423,0,0,1,16.311,66.821Zm20.569-6.5H25.011a8.764,8.764,0,0,0-17.4,0H6.94a3.577,3.577,0,0,1-3.6-3.554V52.337a3.621,3.621,0,0,1,2.649-3.453l12.17-3.319a1.636,1.636,0,0,0,.888-.6l7.275-9.538a5.328,5.328,0,0,1,4.241-2.1h6.32Zm3.353-17.35a7.5,7.5,0,1,1,0,14.232ZM62.7,51.75h0l-3.185.3a1.676,1.676,0,0,0-1.475,1.308,15.889,15.889,0,0,1-2.23,5.264,1.663,1.663,0,0,0,.117,1.978l2.045,2.481-2.347,2.347L53.14,63.4a1.661,1.661,0,0,0-1.995-.1A15.291,15.291,0,0,1,45.9,65.513a1.656,1.656,0,0,0-1.308,1.475l-.3,3.219H40.232V60.669A10.853,10.853,0,0,0,44.943,39.48a10.638,10.638,0,0,0-4.711,0v-9.5h4.04l.319,3.2A1.676,1.676,0,0,0,45.9,34.652a16.21,16.21,0,0,1,5.264,2.213,1.663,1.663,0,0,0,1.978-.117L55.6,34.7l2.313,2.33-2.062,2.5a1.661,1.661,0,0,0-.1,1.995,15.291,15.291,0,0,1,2.213,5.247,1.675,1.675,0,0,0,1.492,1.308L62.7,48.4Z" transform="translate(0 -19.9)" fill="#6236ff"/>
        </g>
      </g>
    </g>
  </g>
</svg>
