<svg xmlns="http://www.w3.org/2000/svg" width="297.418" height="307.39" viewBox="0 0 297.418 307.39">
  <g id="Group_34953" data-name="Group 34953" transform="translate(-1909.39 12802.783)">
    <g id="Vector-_2_" data-name="Vector-(2)" transform="translate(1909.39 -12802.783)">
      <g id="Group_34777" data-name="Group 34777">
        <path id="Path" d="M149.847.528c47.741-3.242,99.42,7.99,128.444,46.033,28.507,37.367,19.6,88.015,8.7,133.733-10.721,44.966-26.664,91.641-67.566,113.179-42.354,22.3-93.7,15.907-136.366-5.8-41.475-21.1-72.812-59.137-81.251-104.9-8.049-43.645,11.769-85.7,39.751-120.146C69.161,28.654,106.168,3.494,149.847.528Z" transform="translate(0 0)" fill="#ff7549" fill-rule="evenodd"/>
        <path id="Path-Copy-10" d="M149.952,37.724c36.214-2.463,75.416,6.07,97.433,34.972,21.624,28.388,14.867,66.866,6.6,101.6-8.132,34.161-20.226,69.621-51.253,85.983-32.128,16.943-71.079,12.084-103.442-4.4-31.461-16.027-55.233-44.927-61.634-79.691-6.105-33.158,8.928-65.1,30.154-91.276C88.747,59.091,116.819,39.977,149.952,37.724Z" transform="translate(-0.38 -0.391)" fill="#fe8255" fill-rule="evenodd"/>
        <path id="Path-Copy-11" d="M150.031,65.629c27.637-1.878,57.555,4.63,74.357,26.674,16.5,21.652,11.346,51,5.037,77.49-6.206,26.055-15.436,53.1-39.114,65.58-24.519,12.923-54.244,9.217-78.943-3.358-24.01-12.224-42.151-34.266-47.036-60.781-4.659-25.29,6.813-49.656,23.012-69.617C103.322,81.926,124.745,67.347,150.031,65.629Z" transform="translate(-0.663 -0.685)" fill="#ff8a60" fill-rule="evenodd"/>
      </g>
    </g>
    <g id="Group_34833" data-name="Group 34833" transform="translate(1999.159 -12707.283)">
      <circle id="Ellipse_520" data-name="Ellipse 520" cx="58.5" cy="58.5" r="58.5" transform="translate(-0.467 0.284)" fill="#fff"/>
      <path id="health-a039f9aa3810341f036752863e29fb5e" d="M55.182,37.164a2.126,2.126,0,0,1,.487,2.967C51.158,46.415,44.1,52.57,36.008,57.415a4.346,4.346,0,0,1-4.365.028C23.515,52.63,16.428,46.454,11.9,40.128a2.126,2.126,0,1,1,3.458-2.473C19.376,43.267,25.7,48.848,33.012,53.309l.833.5a.133.133,0,0,1-.038-.031c7.627-4.567,14.254-10.342,18.408-16.126a2.126,2.126,0,0,1,2.966-.487Zm-28.1-16.428.113.2,7.016,14.029,3.6-4.492a2.152,2.152,0,0,1,1.431-.785l.23-.014h25.5a2.126,2.126,0,0,1,.205,4.241l-.205.011H40.493l-5.031,6.288a2.132,2.132,0,0,1-3.452-.184l-.111-.193L25.174,26.387l-3.7,6.466a2.143,2.143,0,0,1-1.635,1.06l-.21.011h-17a2.126,2.126,0,0,1-.205-4.241l.205-.01H18.4l5.058-8.843A2.131,2.131,0,0,1,27.087,20.736ZM44,7A17.426,17.426,0,0,1,61.429,23.987l.006.439,0,.339a2.126,2.126,0,0,1-4.244.133l-.007-.2,0-.278A13.181,13.181,0,0,0,35.218,14.6a2.126,2.126,0,0,1-2.834,0A13.181,13.181,0,0,0,10.425,24.04l-.006.373,0,.275a2.126,2.126,0,0,1-4.251.067l0-.344.006-.432A17.434,17.434,0,0,1,33.8,10.295l.451-.316A17.372,17.372,0,0,1,44,7Z" transform="translate(25.481 25.87)" fill="#ff5245"/>
    </g>
  </g>
</svg>
