<svg xmlns="http://www.w3.org/2000/svg" width="301.756" height="290.334" viewBox="0 0 301.756 290.334">
  <g id="Group_34952" data-name="Group 34952" transform="translate(-2326.787 12793.774)">
    <g id="Кляксы" transform="translate(2326.787 -12793.774)">
      <g id="Group_34778" data-name="Group 34778" transform="translate(0 0)">
        <path id="Path" d="M150.4.034c41.253-.811,81.834,12.943,109.577,45.111,30.126,34.93,49.6,81.9,39.653,127.917-9.954,46.034-47.818,77.119-88.348,97.284-40.073,19.936-85.528,28.273-126.056,9.385-42.076-19.609-75-59.19-83.158-106.885-7.78-45.5,14.331-89.2,43.764-123.493A139.954,139.954,0,0,1,150.4.034Z" transform="translate(-0.5 0)" fill="#4359f3" fill-rule="evenodd"/>
        <path id="Path-Copy-6" d="M160.193,40.026c31.838-.636,63.158,10.152,84.57,35.383,23.251,27.4,38.282,64.243,30.6,100.334-7.682,36.107-36.905,60.49-68.185,76.306-30.927,15.637-66.009,22.176-97.287,7.362-32.474-15.381-57.886-46.427-64.18-83.837-6-35.685,11.06-69.967,33.776-96.864A107.331,107.331,0,0,1,160.193,40.026Z" transform="translate(-10.067 -8.697)" fill="#3d53ea" fill-rule="evenodd"/>
        <path id="Path-Copy-7" d="M170.65,83.019c21.782-.448,43.209,7.152,57.857,24.926,15.907,19.3,26.19,45.257,20.937,70.682S224.2,221.24,202.8,232.382C181.637,243.4,157.637,248,136.238,237.568A80.8,80.8,0,0,1,92.33,178.508c-4.108-25.139,7.567-49.289,23.108-68.237C129.666,92.924,149.438,83.455,170.65,83.019Z" transform="translate(-20.286 -18.047)" fill="#364ce8" fill-rule="evenodd"/>
      </g>
    </g>
    <g id="Group_34781" data-name="Group 34781" transform="translate(2419.609 -12707.283)">
      <ellipse id="Ellipse_522" data-name="Ellipse 522" cx="58" cy="58.5" rx="58" ry="58.5" transform="translate(0.083 0.284)" fill="#fff"/>
      <g id="bank-building" transform="translate(33.306 33.843)">
        <g id="Layer_1_78_">
          <g id="Group_34779" data-name="Group 34779">
            <path id="Path_38605" data-name="Path 38605" d="M46.886,42.718H2.233a2.233,2.233,0,1,0,0,4.466H46.885a2.233,2.233,0,0,0,0-4.466Z" transform="translate(0 1.932)" fill="#364ce8"/>
            <path id="Path_38606" data-name="Path 38606" d="M4.9,38.137a2.234,2.234,0,0,0,0,4.468H43.973a2.234,2.234,0,0,0,0-4.468h-.557V18.042h.557a1.116,1.116,0,0,0,0-2.231H4.9a1.116,1.116,0,1,0,0,2.231h.558V38.136H4.9ZM38.95,18.042V38.136h-6.7V18.042Zm-11.164,0V38.136h-6.7V18.042Zm-17.861,0h6.7V38.136h-6.7Z" transform="translate(0.122 0.708)" fill="#364ce8"/>
            <path id="Path_38607" data-name="Path 38607" d="M2.233,14.523H46.907a2.234,2.234,0,0,0,.725-4.346L25.477.208a2.237,2.237,0,0,0-1.832,0L1.317,10.254a2.233,2.233,0,0,0,.916,4.269Z" transform="translate(0 -0.012)" fill="#364ce8"/>
          </g>
        </g>
      </g>
    </g>
  </g>
</svg>
