<svg id="Group_34947" data-name="Group 34947" xmlns="http://www.w3.org/2000/svg" width="297.418" height="307.39" viewBox="0 0 297.418 307.39">
  <g id="Vector-_2_" data-name="Vector-(2)">
    <g id="Group_34777" data-name="Group 34777">
      <path id="Path" d="M149.847.528c47.741-3.242,99.42,7.99,128.444,46.033,28.507,37.367,19.6,88.015,8.7,133.733-10.721,44.966-26.664,91.641-67.566,113.179-42.354,22.3-93.7,15.907-136.366-5.8-41.475-21.1-72.812-59.137-81.251-104.9-8.049-43.645,11.769-85.7,39.751-120.146C69.161,28.654,106.168,3.494,149.847.528Z" transform="translate(0 0)" fill="#f74c90" fill-rule="evenodd"/>
      <path id="Path-Copy-10" d="M149.952,37.724c36.214-2.463,75.416,6.07,97.433,34.972,21.624,28.388,14.867,66.866,6.6,101.6-8.132,34.161-20.226,69.621-51.253,85.983-32.128,16.943-71.079,12.084-103.442-4.4-31.461-16.027-55.233-44.927-61.634-79.691-6.105-33.158,8.928-65.1,30.154-91.276C88.747,59.091,116.819,39.977,149.952,37.724Z" transform="translate(-0.38 -0.391)" fill="#f54474" fill-rule="evenodd"/>
      <path id="Path-Copy-11" d="M150.031,65.629c27.637-1.878,57.555,4.63,74.357,26.674,16.5,21.652,11.346,51,5.037,77.49-6.206,26.055-15.436,53.1-39.114,65.58-24.519,12.923-54.244,9.217-78.943-3.358-24.01-12.224-42.151-34.266-47.036-60.781-4.659-25.29,6.813-49.656,23.012-69.617C103.322,81.926,124.745,67.347,150.031,65.629Z" transform="translate(-0.663 -0.685)" fill="#f33d5c" fill-rule="evenodd"/>
    </g>
  </g>
  <g id="Group_34833" data-name="Group 34833" transform="translate(89.769 95.5)">
    <circle id="Ellipse_520" data-name="Ellipse 520" cx="58.5" cy="58.5" r="58.5" transform="translate(-0.467 0.284)" fill="#fff"/>
    <g id="shield" transform="translate(30.791 21.731)">
      <path id="Path_38881" data-name="Path 38881" d="M220.441,226.821h3.609v3.609a.886.886,0,1,0,1.771,0v-3.609h3.609a.886.886,0,0,0,0-1.771h-3.609v-3.609a.886.886,0,0,0-1.771,0v3.609h-3.609a.886.886,0,0,0,0,1.771Z" transform="translate(-196.444 -188.883)" fill="#f43d59"/>
      <path id="Path_38882" data-name="Path 38882" d="M114.069,36.993,90.413,50.183a.854.854,0,0,0-.418.774V68.748a34.961,34.961,0,0,0,20.989,32.094s-.01,0-.006.005l2.818,1.182a.862.862,0,0,0,.337.068.875.875,0,0,0,.35-.074l3.106-1.347A34.937,34.937,0,0,0,139,68.385V50.957a.854.854,0,0,0-.418-.774l-23.673-13.19A.851.851,0,0,0,114.069,36.993Zm-.819,62.892-1.565-.67A33.19,33.19,0,0,1,91.766,68.748V51.478l21.875-12.2-.1,15.234a14.895,14.895,0,0,0-.2,29.712Zm2.1-60.616,21.888,12.209V68.385a33.146,33.146,0,0,1-20.357,30.662l-1.862.812.1-15.6A14.895,14.895,0,0,0,115.3,54.5Zm12.273,30.106A13.119,13.119,0,1,1,114.5,56.251,13.119,13.119,0,0,1,127.618,69.375Z" transform="translate(-86.008 -32.323)" fill="#f43d59"/>
      <path id="Path_38883" data-name="Path 38883" d="M119.554,21.519,91.9,6.112a.869.869,0,0,0-.853,0L63.41,21.519a.851.851,0,0,0-.416.774V42.426A38.946,38.946,0,0,0,86.4,78.184l4.413,1.852a.839.839,0,0,0,.333.069.865.865,0,0,0,.348-.074l4.625-2.007a38.922,38.922,0,0,0,23.851-35.962V22.293a.855.855,0,0,0-.42-.774ZM118.2,42.062A37.132,37.132,0,0,1,95.41,76.4l-4.283,1.861-4.032-1.7a37.167,37.167,0,0,1-22.33-34.129V22.814L91.484,7.9,118.2,22.814Z" transform="translate(-62.993 -6.001)" fill="#f43d59"/>
      <path id="Path_38884" data-name="Path 38884" d="M120.771,206.9v-4.77a.886.886,0,1,0-1.771,0v4.77a35.093,35.093,0,0,0,4.358,16.929.886.886,0,0,0,1.551-.856,33.317,33.317,0,0,1-4.138-16.073Z" transform="translate(-110.732 -172.42)" fill="#f43d59"/>
      <path id="Path_38885" data-name="Path 38885" d="M119.886,172.86a.886.886,0,0,0,.886-.886v-.823a.886.886,0,1,0-1.771,0v.823A.886.886,0,0,0,119.886,172.86Z" transform="translate(-110.732 -146.017)" fill="#f43d59"/>
    </g>
  </g>
</svg>
