<svg xmlns="http://www.w3.org/2000/svg" width="315" height="319" viewBox="0 0 315 319">
  <g id="Group_35576" data-name="Group 35576" transform="translate(-0.017)">
    <g id="Group_33888" data-name="Group 33888" transform="translate(0.017)">
      <g id="Group_33878" data-name="Group 33878" transform="translate(0)">
        <rect id="process-01" width="315" height="319" rx="7" fill="#1d1e27"/>
      </g>
    </g>
    <g id="Group_34979" data-name="Group 34979" transform="translate(18.017 59)">
      <path id="Path_38971" data-name="Path 38971" d="M479.112,56.875a2.085,2.085,0,0,1-.395,2.922q-44.607,33.958-59.852,53.112-12.137,15.171-17.372,39.2a8.342,8.342,0,0,0,8.152,10.1H589.487a2.085,2.085,0,1,1,0,4.171H409.644a12.513,12.513,0,0,1-12.229-15.154q5.357-24.785,18.191-40.919,15.858-19.824,60.584-53.825A2.084,2.084,0,0,1,479.112,56.875Zm38.723.843a2.083,2.083,0,0,1,2.9-.5c.311.218.614.434.915.647,5.534,3.91,9.825,6.945,14.9,10.857a2.085,2.085,0,1,1-2.548,3.3c-5-3.858-9.228-6.846-14.779-10.768l-.893-.633A2.082,2.082,0,0,1,517.835,57.718Z" transform="translate(-397.134 35.261)" fill="#6bbab7" fill-rule="evenodd"/>
      <path id="Path_38972" data-name="Path 38972" d="M468.5,22.3A45.216,45.216,0,1,0,513.718,67.52,45.215,45.215,0,0,0,468.5,22.3ZM419.116,67.52A49.386,49.386,0,1,1,468.5,116.906,49.386,49.386,0,0,1,419.116,67.52Z" transform="translate(-366.18 -18.134)" fill="#d94427" fill-rule="evenodd"/>
      <path id="Path_38973" data-name="Path 38973" d="M510.282,56.875a2.085,2.085,0,0,1-.395,2.922q-44.607,33.958-59.852,53.112Q437.9,128.08,432.663,152.1a8.342,8.342,0,0,0,8.152,10.1H620.657a8.245,8.245,0,0,0,1.866-.212,8.338,8.338,0,0,0,6.261-10q-4.754-20.708-19.7-39.075-19.492-23.917-59.582-52.3a2.085,2.085,0,1,1,2.406-3.405q40.37,28.54,60.411,53.07,15.507,19.032,20.529,40.776a12.511,12.511,0,0,1-12.192,15.311H440.814a12.514,12.514,0,0,1-12.229-15.154q5.357-24.785,18.191-40.919,15.858-19.824,60.584-53.825A2.084,2.084,0,0,1,510.282,56.875Z" transform="translate(-353.242 35.261)" fill="#e8e8e8" fill-rule="evenodd"/>
      <path id="Path_38974" data-name="Path 38974" d="M499.672,22.3A45.216,45.216,0,1,0,544.888,67.52,45.215,45.215,0,0,0,499.672,22.3ZM450.286,67.52a49.386,49.386,0,1,1,49.386,49.386A49.386,49.386,0,0,1,450.286,67.52Z" transform="translate(-322.288 -18.134)" fill="#d94427" fill-rule="evenodd"/>
      <path id="Path_38975" data-name="Path 38975" d="M558.4,66.711a2.406,2.406,0,0,1-.01,3.406L505.8,122.374,470.711,87.5a2.408,2.408,0,0,1,3.4-3.416l31.7,31.5L555,66.7A2.408,2.408,0,0,1,558.4,66.711Z" transform="translate(-294.529 49.268)" fill="#d94427" fill-rule="evenodd"/>
    </g>
  </g>
</svg>
