<svg xmlns="http://www.w3.org/2000/svg" width="316" height="319" viewBox="0 0 316 319">
  <g id="Group_35577" data-name="Group 35577" transform="translate(-842 0.301)">
    <g id="Group_33886" data-name="Group 33886" transform="translate(842 -0.301)">
      <g id="Group_33880" data-name="Group 33880" transform="translate(0)">
        <g id="Group_33878" data-name="Group 33878">
          <rect id="process-01" width="316" height="319" rx="7" transform="translate(0)" fill="#1d1e27"/>
        </g>
      </g>
    </g>
    <g id="Group_34983" data-name="Group 34983" transform="translate(891.634 50.833)">
      <path id="Path_38964" data-name="Path 38964" d="M116.14,51.811A13.245,13.245,0,1,1,102.9,38.566,13.245,13.245,0,0,1,116.14,51.811Zm4.816,0a18.062,18.062,0,0,1-35.963,2.408H60V49.4H84.993a18.062,18.062,0,0,1,35.963,2.408ZM84.993,142.267H60v-4.816H84.993a18.061,18.061,0,1,1,0,4.816Zm31.147-2.408A13.245,13.245,0,1,1,102.9,126.614,13.245,13.245,0,0,1,116.14,139.859Zm4.816-29.65a13.245,13.245,0,1,0-13.245-13.245A13.245,13.245,0,0,0,120.956,110.209Zm0,4.816a18.061,18.061,0,1,0-17.9-20.469H60v4.816h43.054A18.065,18.065,0,0,0,120.956,115.025Z" transform="translate(48.367 11.403)" fill="#d94427" fill-rule="evenodd"/>
      <path id="Path_38965" data-name="Path 38965" d="M95.185,19.816a31.306,31.306,0,0,1,31.306,31.306v4.447a7.341,7.341,0,0,0,6.738,7.274,34.7,34.7,0,0,1,24.278,55.934,7.449,7.449,0,0,0,0,9.178,34.7,34.7,0,0,1-24.278,55.934,7.341,7.341,0,0,0-6.738,7.274v4.447a31.306,31.306,0,0,1-62.612,0V51.122A31.306,31.306,0,0,1,95.185,19.816Zm0-4.816a36.122,36.122,0,0,1,36.122,36.122v4.447a2.525,2.525,0,0,0,2.339,2.476,39.514,39.514,0,0,1,27.653,63.7,2.627,2.627,0,0,0,0,3.238,39.514,39.514,0,0,1-27.653,63.7,2.525,2.525,0,0,0-2.339,2.476v4.447a36.122,36.122,0,0,1-72.244,0V51.122A36.122,36.122,0,0,1,95.185,15Z" transform="translate(47.046 -15)" fill="#e8e8e8" fill-rule="evenodd"/>
      <path id="Path_38966" data-name="Path 38966" d="M89.5,19.816A31.306,31.306,0,0,0,58.2,51.122v4.447a7.251,7.251,0,0,1-.355,2.256c13.5,1.1,26.129,8.968,33.533,21.792A2.408,2.408,0,0,1,87.2,82.026C79.745,69.108,66.509,61.936,52.96,62.553a7.362,7.362,0,0,1-1.5.291A34.7,34.7,0,0,0,27.18,118.777a7.449,7.449,0,0,1,0,9.178,34.7,34.7,0,0,0,24.278,55.934,7.362,7.362,0,0,1,1.456.277c20.152-.333,35.469-15.825,36.212-36.054a2.408,2.408,0,0,1,4.813.177c-.774,21.093-15.78,37.8-36.189,40.358a7.228,7.228,0,0,1,.446,2.516v4.447a31.306,31.306,0,0,0,62.612,0V51.122A31.306,31.306,0,0,0,89.5,19.816ZM52.033,188.978a2.477,2.477,0,0,1,1.347,2.185v4.447a36.122,36.122,0,0,0,72.244,0V51.122a36.122,36.122,0,0,0-72.244,0v4.447a2.479,2.479,0,0,1-1.387,2.205,41.161,41.161,0,0,0-16.672,4.765,2.4,2.4,0,0,0-.909.842,39.519,39.519,0,0,0-11.023,58.366,2.632,2.632,0,0,1,0,3.238,39.513,39.513,0,0,0,27.652,63.7l.054.005A2.387,2.387,0,0,0,52.033,188.978Z" transform="translate(-15 -15)" fill="#6bbab7" fill-rule="evenodd"/>
    </g>
  </g>
</svg>
