<svg xmlns="http://www.w3.org/2000/svg" width="316" height="319" viewBox="0 0 316 319">
  <g id="Group_35578" data-name="Group 35578" transform="translate(-842 -14.699)">
    <g id="Group_33886" data-name="Group 33886" transform="translate(842 14.699)">
      <g id="Group_33880" data-name="Group 33880" transform="translate(0)">
        <g id="Group_33878" data-name="Group 33878">
          <rect id="process-01" width="316" height="319" rx="7" transform="translate(0)" fill="#1d1e27"/>
        </g>
      </g>
    </g>
    <g id="project-based-5efcc00e2e63a0013fd910c5427dd3264145845a493e94288528d248834c9e97" transform="translate(872 69.699)">
      <g id="Group_34982" data-name="Group 34982" transform="translate(0 0)">
        <path id="Path_39005" data-name="Path 39005" d="M258.356,39.7v7.693h1.4V39h-1.4Zm0,12.588V59.98h1.4V51.588h-1.4Zm0,12.588v7.693h1.4V64.176h-1.4Zm0,12.588v7.693h1.4V76.764h-1.4Zm0,12.588v7.693h1.4V89.352h-1.4Zm0,12.588v7.693h1.4v-8.392h-1.4Zm0,12.588v7.693h1.4v-8.392h-1.4Zm0,12.588v7.693h1.4v-8.392h-1.4Zm0,12.588V148.1h1.4V139.7h-1.4Zm0,12.588v7.693h1.4v-8.392h-1.4Zm0,12.588v7.693h1.4v-8.392h-1.4Zm0,12.588v7.693h1.4v-8.392h-1.4Zm0,12.588v7.693h1.4v-8.392h-1.4Zm0,12.588v7.693h1.4v-8.392h-1.4Zm0,12.588v7.693h1.4V215.23h-1.4ZM195.067,41.8V49.49h1.4V41.1h-1.4Zm0,12.588v7.693h1.4V53.686h-1.4Zm0,12.588v7.693h1.4V66.274h-1.4Zm0,12.588v7.693h1.4V78.862h-1.4Zm0,12.588v7.693h1.4V91.45h-1.4Zm0,12.588v7.693h1.4v-8.392h-1.4Zm0,12.588v7.693h1.4v-8.392h-1.4Zm0,12.588v7.693h1.4v-8.392h-1.4Zm0,12.588v7.693h1.4V141.8h-1.4Zm0,12.588v7.693h1.4v-8.392h-1.4Zm0,12.588v4.9h1.4v-5.595h-1.4Zm0,32.868v7.693h1.4v-8.392h-1.4Zm0,12.588v7.693h1.4v-8.392h-1.4ZM131.428,41.8V49.49h1.4V41.1h-1.4Zm0,12.588v7.693h1.4V53.686h-1.4Zm0,12.588v2.1h1.4v-2.8h-1.4Zm0,30.77v7.693h1.4V97.044h-1.4Zm0,12.588v7.693h1.4v-8.392h-1.4Zm0,39.162v7.693h1.4v-8.392h-1.4Zm0,12.588v7.693h1.4v-8.392h-1.4Zm0,12.588v7.693h1.4V173.97h-1.4Zm0,12.588v7.693h1.4v-8.392h-1.4Zm0,12.588v7.693h1.4v-8.392h-1.4Zm0,12.588v7.693h1.4v-8.392h-1.4ZM67.789,41.8V49.49h1.4V41.1h-1.4Zm0,12.588v7.693h1.4V53.686h-1.4Zm0,12.588v2.1h1.4v-2.8h-1.4Zm0,29.372v7.693h1.4V95.646h-1.4Zm0,12.588v7.693h1.4v-8.392h-1.4Zm0,12.588v7.693h1.4v-8.392h-1.4Zm0,12.588V141.8h1.4v-8.392h-1.4Zm0,12.588v7.693h1.4V146h-1.4Zm0,12.588v7.693h1.4v-8.392h-1.4Zm0,12.588v7.693h1.4v-8.392h-1.4Zm0,12.588v7.693h1.4v-8.392h-1.4Zm0,12.588v7.693h1.4v-8.392h-1.4Zm0,12.588v7.693h1.4v-8.392h-1.4Zm0,12.588v2.13h1.4v-2.829h-1.4ZM4.5,40.4v7.693H5.9V39.7H4.5Zm0,12.588v7.693H5.9V52.287H4.5Zm0,12.588v7.693H5.9V64.875H4.5Zm0,12.588v7.693H5.9V77.463H4.5Zm0,12.588v7.693H5.9V90.051H4.5Zm0,12.588v7.693H5.9v-8.392H4.5Zm0,12.588v7.693H5.9v-8.392H4.5Zm0,12.588v7.693H5.9v-8.392H4.5Zm0,12.588v7.693H5.9V140.4H4.5Zm0,12.588v7.693H5.9V152.99H4.5Zm0,12.588v7.693H5.9v-8.392H4.5Zm0,12.588v7.693H5.9v-8.392H4.5Zm0,12.588v7.693H5.9v-8.392H4.5Zm0,12.588v7.693H5.9v-8.392H4.5Zm0,12.588v7.693H5.9V215.93H4.5Z" transform="translate(-4.5 -14.524)" fill="#f6f6f6"/>
        <path id="Path_39006" data-name="Path 39006" d="M48.487,80a13.987,13.987,0,1,0,0,27.973H159.68a13.987,13.987,0,1,0,0-27.973Zm0,1.4H159.68a12.588,12.588,0,0,1,0,25.176H48.487a12.588,12.588,0,1,1,0-25.176Z" transform="translate(-13.52 -26.851)" fill="#e8e8e8"/>
        <path id="Path_39007" data-name="Path 39007" d="M4.5,213.83H259.755v-1.4H4.5ZM4.5,4V31.973H259.755V4ZM5.9,5.4H258.356V30.574H5.9Z" transform="translate(-4.5 -4)" fill="#e8e8e8"/>
        <path id="Path_39008" data-name="Path 39008" d="M140.487,156a13.987,13.987,0,1,0,0,27.973h65.038a13.987,13.987,0,1,0,0-27.973Zm0,1.4h65.038a12.588,12.588,0,0,1,0,25.176H140.487a12.588,12.588,0,1,1,0-25.176Z" transform="translate(-41.182 -49.702)" fill="#d94427"/>
        <path id="Path_39009" data-name="Path 39009" d="M221.487,228a13.987,13.987,0,1,0,0,27.973h65.038a13.987,13.987,0,1,0,0-27.973Zm0,1.4h65.038a12.588,12.588,0,0,1,0,25.176H221.487a12.588,12.588,0,1,1,0-25.176Z" transform="translate(-65.536 -71.351)" fill="#6bbab7"/>
      </g>
    </g>
  </g>
</svg>
