<svg id="Group_33888" data-name="Group 33888" xmlns="http://www.w3.org/2000/svg" width="315" height="319" viewBox="0 0 315 319">
  <g id="Group_33878" data-name="Group 33878" transform="translate(0)">
    <rect id="process-01" width="315" height="319" rx="7" fill="#1d1e27"/>
  </g>
  <g id="Group_34981" data-name="Group 34981" transform="translate(59 61)">
    <path id="Path_38988" data-name="Path 38988" d="M1284.177,23.816l-2.167,15.152a9.874,9.874,0,0,1-6.574,7.865,75.475,75.475,0,0,0-8.646,3.58,9.814,9.814,0,0,1-10.21-.911l-12.257-9.187-22.01,22.019,9.2,12.25A9.811,9.811,0,0,1,1232.4,84.8a76.356,76.356,0,0,0-3.564,8.63,9.821,9.821,0,0,1-7.875,6.573l-15.147,2.165V133.3l15.147,2.165a9.82,9.82,0,0,1,7.875,6.573,76.352,76.352,0,0,0,3.564,8.631,9.812,9.812,0,0,1-.891,10.213l-9.2,12.248,22.034,22.019,12.233-9.186a9.814,9.814,0,0,1,10.21-.911,73.837,73.837,0,0,0,8.646,3.578,9.806,9.806,0,0,1,6.55,7.864l2.167,15.153h31.137l2.167-15.151a9.874,9.874,0,0,1,6.574-7.865,75.437,75.437,0,0,0,8.646-3.58,9.815,9.815,0,0,1,10.211.911l12.257,9.186,22.01-22.019-9.2-12.249a9.812,9.812,0,0,1-.891-10.213,76.367,76.367,0,0,0,3.564-8.631,9.821,9.821,0,0,1,7.875-6.573l15.147-2.164V102.164L1378.5,100a9.82,9.82,0,0,1-7.875-6.573,76.379,76.379,0,0,0-3.564-8.633,9.813,9.813,0,0,1,.891-10.213l9.2-12.247-22.034-22.019L1342.888,49.5a9.815,9.815,0,0,1-10.211.911,73.793,73.793,0,0,0-8.646-3.578,9.806,9.806,0,0,1-6.55-7.864l-2.167-15.152Zm0-4.816a4.806,4.806,0,0,0-4.768,4.135l-2.167,15.151a5,5,0,0,1-3.372,3.99,79.413,79.413,0,0,0-9.2,3.811,5,5,0,0,1-5.2-.439l-12.258-9.187a4.8,4.8,0,0,0-6.285.447l-22.01,22.019a4.792,4.792,0,0,0-.458,6.3l9.2,12.25a5.059,5.059,0,0,1,.434,5.2,76.741,76.741,0,0,0-3.8,9.189,5.043,5.043,0,0,1-4,3.367L1205.142,97.4a4.812,4.812,0,0,0-4.142,4.768V133.3a4.813,4.813,0,0,0,4.142,4.768l15.147,2.165a5.043,5.043,0,0,1,4,3.367,80.924,80.924,0,0,0,3.8,9.189,5.059,5.059,0,0,1-.434,5.2l-9.2,12.248a4.792,4.792,0,0,0,.458,6.3l22.01,22.019a4.833,4.833,0,0,0,6.309.447l12.234-9.186a5,5,0,0,1,5.2-.439,79.488,79.488,0,0,0,9.2,3.809,5.077,5.077,0,0,1,3.372,3.989l2.143,15.153a4.825,4.825,0,0,0,4.768,4.135h31.137a4.807,4.807,0,0,0,4.768-4.135l2.167-15.151a5,5,0,0,1,3.371-3.99,79.352,79.352,0,0,0,9.2-3.812,5,5,0,0,1,5.2.439l12.258,9.186a4.8,4.8,0,0,0,6.285-.447l22.01-22.019a4.792,4.792,0,0,0,.458-6.3l-9.2-12.249a5.059,5.059,0,0,1-.434-5.2,72.968,72.968,0,0,0,3.8-9.189,5.044,5.044,0,0,1,4-3.367l15.147-2.164a4.812,4.812,0,0,0,4.142-4.768V102.164a4.812,4.812,0,0,0-4.142-4.768l-15.147-2.164a5.043,5.043,0,0,1-4-3.367,73.012,73.012,0,0,0-3.8-9.191,5.059,5.059,0,0,1,.434-5.2l9.2-12.247a4.792,4.792,0,0,0-.458-6.3l-22.01-22.019a4.834,4.834,0,0,0-6.31-.447L1340,45.647a5,5,0,0,1-5.2.439,79.425,79.425,0,0,0-9.2-3.809,5.077,5.077,0,0,1-3.371-3.99l-2.144-15.152A4.824,4.824,0,0,0,1315.315,19Z" transform="translate(-1201 -19)" fill="#e8e8e8" fill-rule="evenodd"/>
    <path id="Path_38999" data-name="Path 38999" d="M1229.72,48.664a51.837,51.837,0,0,1,69.186,76.046,2.4,2.4,0,1,1-3.661-3.119,47.03,47.03,0,0,0-62.78-68.98,2.4,2.4,0,1,1-2.745-3.947Z" transform="translate(-1162.027 9.651)" fill="#d94427" fill-rule="evenodd"/>
    <path id="Path_39002" data-name="Path 39002" d="M1302.112,123.052a51.847,51.847,0,0,1-69.21-76.046,2.414,2.414,0,0,1,3.684,3.119,47.02,47.02,0,0,0,62.757,68.98,2.411,2.411,0,1,1,2.769,3.947Z" transform="translate(-1173.372 19.241)" fill="#6bbab7" fill-rule="evenodd"/>
  </g>
</svg>
