<svg id="Group_33888" data-name="Group 33888" xmlns="http://www.w3.org/2000/svg" width="315" height="319" viewBox="0 0 315 319">
  <g id="Group_33878" data-name="Group 33878" transform="translate(0)">
    <rect id="process-01" width="315" height="319" rx="7" fill="#1d1e27"/>
  </g>
  <g id="Group_34980" data-name="Group 34980" transform="translate(55 35)">
    <path id="Path_38980" data-name="Path 38980" d="M862.773,52.881a2.084,2.084,0,0,1-.26,2.937q-22.656,18.965-32.647,31.5-12.137,15.171-17.372,39.2a8.342,8.342,0,0,0,8.152,10.1h40.529a2.085,2.085,0,1,1,0,4.17H820.645a12.513,12.513,0,0,1-12.229-15.153q5.357-24.784,18.191-40.919,10.425-13.03,33.228-32.092A2.086,2.086,0,0,1,862.773,52.881Zm98.782,4.3a2.085,2.085,0,0,1,2.94-.222A224.035,224.035,0,0,1,992.15,84.7q15.511,19.033,20.53,40.776a12.509,12.509,0,0,1-12.192,15.311H961.933a2.085,2.085,0,1,1,0-4.17h38.555a8.341,8.341,0,0,0,8.13-10.207q-4.757-20.708-19.7-39.075a219.863,219.863,0,0,0-27.14-27.214A2.088,2.088,0,0,1,961.555,57.177Z" transform="translate(-808.134 51.124)" fill="#6bbab7" fill-rule="evenodd"/>
    <path id="Path_38981" data-name="Path 38981" d="M930.142,213.333V64.24a7.22,7.22,0,0,0-1.924-4.909L888.445,16.387a7.225,7.225,0,0,0-10.471-.138l-42.1,43.128a7.225,7.225,0,0,0-2.054,5.047V213.333a7.224,7.224,0,0,0,7.224,7.224h81.877A7.224,7.224,0,0,0,930.142,213.333ZM832.424,56.013A12.038,12.038,0,0,0,829,64.424V213.333a12.041,12.041,0,0,0,12.041,12.041h81.877a12.041,12.041,0,0,0,12.041-12.041V64.24a12.043,12.043,0,0,0-3.208-8.182L891.978,13.114a12.04,12.04,0,0,0-17.449-.229Z" transform="translate(-778.752 -9.255)" fill="#d94427" fill-rule="evenodd"/>
    <path id="Path_38982" data-name="Path 38982" d="M852.408,78a2.408,2.408,0,0,1,2.408,2.408v79.469a2.408,2.408,0,0,1-4.816,0V80.408A2.409,2.409,0,0,1,852.408,78Z" transform="translate(-749.181 87.547)" fill="#e8e8e8" fill-rule="evenodd"/>
    <path id="Path_38983" data-name="Path 38983" d="M863.485,47.3a17.18,17.18,0,1,0,17.18,17.18A17.18,17.18,0,0,0,863.485,47.3Zm-21.351,17.18a21.351,21.351,0,1,1,21.351,21.35A21.35,21.35,0,0,1,842.134,64.484Z" transform="translate(-760.257 38.451)" fill="#e8e8e8" fill-rule="evenodd"/>
  </g>
</svg>
