<svg id="Group_34815" data-name="Group 34815" xmlns="http://www.w3.org/2000/svg" width="236.281" height="122.704" viewBox="0 0 236.281 122.704">
  <rect id="Rectangle_18298" data-name="Rectangle 18298" width="236.281" height="122.704" rx="7.499" transform="translate(0)" fill="#04152c" opacity="0"/>
  <g id="Group_33892" data-name="Group 33892" transform="translate(8.897 32.309)">
    <path id="Path_36845" data-name="Path 36845" d="M867.638,702.626v-7.167s-.673-4.824-5.036-5.077H855.24s.222,2.93,2.692,3.722h3.855a1.961,1.961,0,0,1,2.121,2v3.542s.2,2.523,3.73,2.972" transform="translate(-658.765 -681.899)" fill="#fff"/>
    <path id="Path_36846" data-name="Path 36846" d="M872.09,675.523v7.167s.673,4.824,5.036,5.077h7.361s-.222-2.93-2.693-3.726H877.94a1.957,1.957,0,0,1-2.122-1.992v-3.562s-.2-2.523-3.729-2.972" transform="translate(-665.999 -675.516)" fill="#fff"/>
    <path id="Path_36847" data-name="Path 36847" d="M525.254,731.126a13.9,13.9,0,0,1-5.573-1.113,14.615,14.615,0,0,1-7.644-7.628,14.332,14.332,0,0,1,26.432-11.092,13.98,13.98,0,0,1,1.11,5.53v14.3Zm8.22-14.3a7.914,7.914,0,0,0-.656-3.191,8.19,8.19,0,0,0-10.739-4.34l0,0a8.172,8.172,0,0,0-.016,15.054l.016.006a7.955,7.955,0,0,0,3.2.652h8.22Z" transform="translate(-510.927 -687.113)" fill="#fff"/>
    <path id="Path_36848" data-name="Path 36848" d="M569.392,702.573v15.354a7.647,7.647,0,0,0,15.258-.7l-.054-8.9s.363-4.722,6.261-5.831v15.3s-.067,12.888-14.48,13.345c0,0-12-.32-13.263-12.916v-9.8a7.186,7.186,0,0,1,6.261-5.827" transform="translate(-533.335 -687.104)" fill="#fff"/>
    <path id="Path_36849" data-name="Path 36849" d="M715.247,711.212a14.943,14.943,0,0,0-3.11-4.656,14.752,14.752,0,0,0-16.21-3.074,14.229,14.229,0,0,0-7.651,8.022,16.047,16.047,0,0,0-1.066,5.858v27.731c6.426-.414,6.594-5.175,6.594-5.175l.055-11.014c1,.55,1.147.585,2.684,1.351a11.832,11.832,0,0,0,5.221.938,14.391,14.391,0,0,0,10.339-4.27,14.148,14.148,0,0,0,3.129-15.7ZM701.715,724.9a8.35,8.35,0,1,1,3.2-.613A8.349,8.349,0,0,1,701.715,724.9Z" transform="translate(-586.617 -687.009)" fill="#fff"/>
    <path id="Path_36850" data-name="Path 36850" d="M835.585,708.591H820.322a2.292,2.292,0,0,0-2.106,2.094,2.161,2.161,0,0,0,2.251,2.218h5.508c9.752.391,9.693,8.983,9.693,8.983-.7,9.928-9.693,9.264-9.693,9.264H809.655s.175-4.866,4.774-6.139h11.165c3.424.2,3.718-2.547,3.718-2.547a2.86,2.86,0,0,0-3.131-3.3h-5.972c-8.61-.9-8.264-8.253-8.264-8.253.294-7.874,8.143-8.319,8.143-8.319h9.545a6.263,6.263,0,0,1,5.928,5.651Z" transform="translate(-639.192 -687.141)" fill="#fff"/>
    <path id="Path_36851" data-name="Path 36851" d="M769.16,702.783v15.349a7.647,7.647,0,0,0,15.258-.7l-.056-8.893s.365-4.726,6.265-5.833v15.285s-.069,12.885-14.481,13.338c0,0-12-.32-13.263-12.916V708.61a7.179,7.179,0,0,1,6.262-5.827" transform="translate(-619.109 -687.192)" fill="#fff"/>
    <path id="Path_36852" data-name="Path 36852" d="M750.745,719.578h6.22s-.227-4.905-4.825-6.194c0,0-5.252-1.145-5.557-6.187V681.846s0-6.328-6.293-6.25v32.238s.192,10.2,10.25,11.744Z" transform="translate(-609.409 -675.55)" fill="#fff"/>
    <path id="Path_36853" data-name="Path 36853" d="M620,681.846h5.87a7.274,7.274,0,0,1-5.913,6.288l.027,2.757V707.2c.305,5.042,5.557,6.187,5.557,6.187,4.6,1.289,4.826,6.194,4.826,6.194h-6.411c-10.057-1.562-10.249-11.745-10.249-11.745V675.6C620.008,675.518,620,681.846,620,681.846Z" transform="translate(-555.058 -675.55)" fill="#fff"/>
    <path id="Path_36854" data-name="Path 36854" d="M662.585,711.488a14.571,14.571,0,1,0,.007.017l-.007-.017Zm-13.216,13.707a8.354,8.354,0,1,1,3.2-.613A8.354,8.354,0,0,1,649.369,725.195Z" transform="translate(-564.215 -687.187)" fill="#fff"/>
  </g>
</svg>
