<svg id="Group_34813" data-name="Group 34813" xmlns="http://www.w3.org/2000/svg" width="236.281" height="122.704" viewBox="0 0 236.281 122.704">
  <rect id="Rectangle_18295" data-name="Rectangle 18295" width="236.281" height="122.704" rx="7.499" fill="#04152c" opacity="0"/>
  <g id="Group_34675" data-name="Group 34675" transform="translate(19.725 12.767)">
    <g id="Group_34674" data-name="Group 34674" transform="translate(0 64.542)">
      <path id="Path_38578" data-name="Path 38578" d="M1402.849,778.957h-13.044V755.265h2.636v21.33h10.408Zm13-2.123.993-.1.068,2.02a49.134,49.134,0,0,1-6.676.548q-3.7,0-5.238-2.123-1.541-2.157-1.541-6.676,0-9,7.156-9a6.514,6.514,0,0,1,5.17,1.952q1.712,1.917,1.711,6.06l-.137,1.952h-11.3a7.019,7.019,0,0,0,1.027,4.211,4.176,4.176,0,0,0,3.561,1.37Q1413.211,777.04,1415.847,776.834Zm-.925-7.43q0-3.149-1.027-4.45a3.876,3.876,0,0,0-3.287-1.3,4.243,4.243,0,0,0-3.424,1.369,6.989,6.989,0,0,0-1.164,4.382Zm18.347-15.03v24.582h-2.534v-1.164a10.437,10.437,0,0,1-5.2,1.506,7.588,7.588,0,0,1-2.4-.342,4.916,4.916,0,0,1-1.917-1.233q-1.849-1.849-1.849-6.813,0-5,1.643-7.189,1.678-2.226,5.512-2.226a21.505,21.505,0,0,1,4.211.445v-7.567Zm-10.066,21.5a2.949,2.949,0,0,0,1.164.89,4.4,4.4,0,0,0,1.575.24,8.865,8.865,0,0,0,2.191-.308,14.049,14.049,0,0,0,1.917-.651l.685-.308V764.133a22.191,22.191,0,0,0-4.074-.411,3.907,3.907,0,0,0-3.629,1.678,9.951,9.951,0,0,0-1.027,5.135Q1422.005,774.506,1423.2,775.876ZM1443.482,787q-4.109,0-5.752-1.13-1.609-1.1-1.609-4.039a3.946,3.946,0,0,1,.616-2.294,9.842,9.842,0,0,1,2.089-1.951,2.652,2.652,0,0,1-.959-2.362,5.885,5.885,0,0,1,.856-2.157l.308-.548q-2.705-1.232-2.7-5.17,0-5.854,6.4-5.854a12.835,12.835,0,0,1,3.047.342l.514.1,5.067-.137V764l-3.253-.068a4.654,4.654,0,0,1,1.13,3.423q0,3.218-1.609,4.519-1.575,1.267-5,1.267a9.421,9.421,0,0,1-1.678-.137,7.181,7.181,0,0,0-.616,1.951q0,1.061.651,1.335a17.4,17.4,0,0,0,3.938.24,8.327,8.327,0,0,1,4.724,1.027q1.438,1.027,1.438,4.006Q1451.082,787,1443.482,787Zm-4.828-5.375a2.827,2.827,0,0,0,.993,2.5,6.917,6.917,0,0,0,3.732.719,7.509,7.509,0,0,0,3.9-.753,2.757,2.757,0,0,0,1.2-2.533q0-1.746-.856-2.26a7.325,7.325,0,0,0-3.355-.514l-3.7-.171a6.4,6.4,0,0,0-1.541,1.438A2.98,2.98,0,0,0,1438.655,781.628Zm.24-14.277a3.874,3.874,0,0,0,.89,2.876,4.36,4.36,0,0,0,3.013.856,4.22,4.22,0,0,0,2.978-.856,3.874,3.874,0,0,0,.89-2.876,3.928,3.928,0,0,0-.89-2.91,5.576,5.576,0,0,0-5.991.034A3.873,3.873,0,0,0,1438.894,767.351Zm25.837,9.484.992-.1.068,2.02a49.117,49.117,0,0,1-6.676.548q-3.7,0-5.238-2.123-1.541-2.157-1.541-6.676,0-9,7.156-9a6.515,6.515,0,0,1,5.17,1.952q1.711,1.917,1.711,6.06l-.137,1.952h-11.3a7.02,7.02,0,0,0,1.027,4.211,4.177,4.177,0,0,0,3.561,1.37Q1462.1,777.04,1464.732,776.834Zm-.924-7.43q0-3.149-1.027-4.45a3.876,3.876,0,0,0-3.287-1.3,4.243,4.243,0,0,0-3.424,1.369,6.988,6.988,0,0,0-1.164,4.382Zm5.2,9.552V761.839h2.534v2.328a16.675,16.675,0,0,1,6.266-2.7v2.6a18.957,18.957,0,0,0-3.013.856,20.225,20.225,0,0,0-2.363,1.027l-.856.445v12.565Z" transform="translate(-1389.805 -754.375)" fill="#fff"/>
      <path id="Path_38579" data-name="Path 38579" d="M1567.844,778.957H1554.8V755.265h2.636v21.33h10.408Zm13-2.123.993-.1.068,2.02a49.136,49.136,0,0,1-6.676.548q-3.7,0-5.238-2.123-1.541-2.157-1.541-6.676,0-9,7.156-9a6.515,6.515,0,0,1,5.169,1.952q1.712,1.917,1.712,6.06l-.137,1.952h-11.3a7.02,7.02,0,0,0,1.027,4.211,4.177,4.177,0,0,0,3.561,1.37Q1578.2,777.04,1580.84,776.834Zm-.924-7.43q0-3.149-1.027-4.45a3.876,3.876,0,0,0-3.286-1.3,4.243,4.243,0,0,0-3.424,1.369,6.989,6.989,0,0,0-1.164,4.382Zm4.447.959q0-4.69,1.678-6.778t5.649-2.089q4.006,0,5.649,2.089,1.678,2.089,1.678,6.778t-1.575,6.813q-1.575,2.123-5.752,2.123t-5.752-2.123Q1584.362,775.054,1584.362,770.363Zm2.636-.034q0,3.732.89,5.238.924,1.506,3.8,1.506,2.91,0,3.8-1.472.89-1.507.89-5.273t-.993-5.169q-.993-1.438-3.7-1.438-2.67,0-3.7,1.438Q1587,766.564,1587,770.329Zm14.836,16.228V761.839h2.534v1.233a9.875,9.875,0,0,1,5.136-1.575,5.377,5.377,0,0,1,4.725,2.089q1.473,2.054,1.472,6.813t-1.746,6.848q-1.712,2.054-5.718,2.054a18.2,18.2,0,0,1-3.834-.377v7.634Zm7.293-22.767a8.135,8.135,0,0,0-2.225.342,11.543,11.543,0,0,0-1.849.685l-.65.342V776.7a26.253,26.253,0,0,0,3.7.377q2.773,0,3.869-1.575,1.13-1.575,1.13-5.136t-1.027-5.067A3.3,3.3,0,0,0,1609.127,763.79Zm21.478,3.218v8.764q.1,1.267,1.986,1.506l-.1,2.02a5.528,5.528,0,0,1-4.074-1.37,15.067,15.067,0,0,1-6.163,1.37,4.651,4.651,0,0,1-3.595-1.335,5.454,5.454,0,0,1-1.233-3.835,4.753,4.753,0,0,1,1.267-3.663,6.643,6.643,0,0,1,3.972-1.472l5.375-.514v-1.472a3.445,3.445,0,0,0-.753-2.5,2.776,2.776,0,0,0-2.054-.753,49.214,49.214,0,0,0-5.684.343l-1.061.1-.1-1.952a34.508,34.508,0,0,1,6.677-.753,4.792,4.792,0,0,1,5.547,5.512Zm-10.545,6.984q0,3.15,2.6,3.15a13.852,13.852,0,0,0,4.588-.787l.787-.274v-5.649l-5.067.479a3.3,3.3,0,0,0-2.225.89A3.152,3.152,0,0,0,1620.06,773.993Zm14.243,4.964V761.839h2.533v2.328a16.675,16.675,0,0,1,6.266-2.7v2.6a18.947,18.947,0,0,0-3.013.856,20.2,20.2,0,0,0-2.363,1.027l-.856.445v12.565Zm23.178-24.582v24.582h-2.534v-1.164a10.437,10.437,0,0,1-5.2,1.506,7.582,7.582,0,0,1-2.4-.342,4.916,4.916,0,0,1-1.917-1.233q-1.849-1.849-1.849-6.813,0-5,1.643-7.189,1.678-2.226,5.512-2.226a21.505,21.505,0,0,1,4.211.445v-7.567Zm-10.065,21.5a2.953,2.953,0,0,0,1.164.89,4.395,4.395,0,0,0,1.575.24,8.863,8.863,0,0,0,2.191-.308,14.057,14.057,0,0,0,1.917-.651l.685-.308V764.133a22.194,22.194,0,0,0-4.074-.411,3.907,3.907,0,0,0-3.629,1.678,9.954,9.954,0,0,0-1.027,5.135Q1646.217,774.506,1647.415,775.876Z" transform="translate(-1460.649 -754.375)" fill="#fff"/>
    </g>
    <path id="Path_38580" data-name="Path 38580" d="M1562.966,657.552a1.926,1.926,0,0,1-1.757-2.368l-6.1-3.346a1.924,1.924,0,0,1-3.212-1.935l-2.157-1.42a1.923,1.923,0,0,1-3.126-.93h-4.754a1.923,1.923,0,0,1-3.12.935l-2.16,1.423a1.923,1.923,0,0,1-3.209,1.932l-6.109,3.348a1.926,1.926,0,0,1-1.758,2.361l-2.431,11.378a1.924,1.924,0,0,1,.635,2.88l5.194,6.915a1.929,1.929,0,0,1,1.288-.052L1536.9,668.2a1.927,1.927,0,0,1-.376-1.938l-4.925-3.5a1.923,1.923,0,0,1-3.069-.978h-1.224v-1.026h1.224a1.924,1.924,0,0,1,3.708,0h3.985a1.924,1.924,0,1,1,2.451,2.342l.088,1.937a1.907,1.907,0,0,1,.555.222l3.221-3.079a1.923,1.923,0,1,1,3.389,0l3.219,3.079a1.9,1.9,0,0,1,.557-.224l.088-1.937a1.924,1.924,0,1,1,2.451-2.342h3.985a1.924,1.924,0,0,1,3.708,0h1.224v1.026h-1.224a1.923,1.923,0,0,1-3.069.978l-4.926,3.5a1.926,1.926,0,0,1-.376,1.938l6.716,10.472a1.926,1.926,0,0,1,1.275.048l5.206-6.913a1.925,1.925,0,0,1,.636-2.878Zm.326-3.832,1.307-3.268-1.04-5.342a1.919,1.919,0,0,1-1.033-.409l-7.007,5.122a1.922,1.922,0,0,1,.124.68,1.948,1.948,0,0,1-.049.435l6.111,3.349a1.918,1.918,0,0,1,1.374-.578A2.032,2.032,0,0,1,1563.293,653.72Zm-2.106-9.31-10.8,2.681a1.914,1.914,0,0,1-.089.533l2.164,1.425a1.922,1.922,0,0,1,2.454-.054Zm-14.577,2.117a1.924,1.924,0,0,1,3.53-.432L1561.8,643.2v-.009a1.923,1.923,0,1,1,2.77,1.728l1.1,5.632-1.419,3.549a1.924,1.924,0,0,1-.276,3.237l2.431,11.377a1.924,1.924,0,1,1-.82,3.71l-5.206,6.913a1.924,1.924,0,0,1-2.438,2.866l-3.333,3.477a1.925,1.925,0,0,1-.58,2.581l.585,1.755-8.478,3.9a1.894,1.894,0,0,1,.025.31,1.923,1.923,0,1,1-3.846,0,1.964,1.964,0,0,1,.025-.31l-8.478-3.9.585-1.755a1.925,1.925,0,0,1-.583-2.577l-3.343-3.474a1.924,1.924,0,0,1-2.433-2.862l-5.2-6.922a1.924,1.924,0,1,1-.818-3.711l2.431-11.377a1.924,1.924,0,0,1-.276-3.237l-1.419-3.548,1.088-5.637a1.924,1.924,0,1,1,2.778-1.768l11.663,2.94a1.924,1.924,0,0,1,3.526.438Zm-21.437,7.193a2.025,2.025,0,0,1,.212-.011,1.918,1.918,0,0,1,1.379.583l6.108-3.347a1.952,1.952,0,0,1-.051-.442,1.922,1.922,0,0,1,.124-.68l-7.007-5.122a1.917,1.917,0,0,1-1.042.41l-1.03,5.342Zm2-9.385,6.375,4.66a1.921,1.921,0,0,1,2.46.06l2.16-1.423a1.92,1.92,0,0,1-.092-.547Zm16.071,18.592L1540.028,666a1.925,1.925,0,0,1-1.137,2.756l.169,7.193a1.926,1.926,0,0,1,1.385,1.353h7.574a1.926,1.926,0,0,1,1.386-1.353l.169-7.193a1.925,1.925,0,0,1-1.138-2.753l-3.219-3.079a1.925,1.925,0,0,1-1.971,0Zm14.171,16.3-6.717-10.472-.1.029-.169,7.192a1.924,1.924,0,1,1-1.776,3.329l-2.611,1.84a1.927,1.927,0,0,1-1.3,2.5v1.05l6.469,1.142a1.926,1.926,0,0,1,2.65-.867l3.333-3.478a1.924,1.924,0,0,1,.22-2.267Zm-26.369,0a1.924,1.924,0,0,1,.213,2.28l3.336,3.468a1.925,1.925,0,0,1,2.653.865l6.469-1.142v-1.05a1.926,1.926,0,0,1-1.3-2.5l-2.611-1.84a1.924,1.924,0,1,1-1.776-3.329l-.169-7.192-.1-.029Zm22,9.36-.1,0a1.923,1.923,0,0,1-1.914-1.741l-6.8-1.2-6.8,1.2a1.923,1.923,0,0,1-1.914,1.741l-.1,0-.294.883,7.644,3.521a1.924,1.924,0,0,1,2.939,0l7.644-3.521Zm-1.705-23.161,4.926-3.5c-.016-.047-.032-.094-.045-.142h-3.985a1.927,1.927,0,0,1-1.426,1.363l-.088,1.938A1.914,1.914,0,0,1,1551.346,665.426Zm-14.226,0a1.923,1.923,0,0,1,.618-.338l-.088-1.938a1.927,1.927,0,0,1-1.426-1.363h-3.985q-.02.072-.045.142Zm3.326,12.9c-.013.046-.027.091-.043.136l2.611,1.839a1.925,1.925,0,0,1,2.44,0l2.611-1.839c-.016-.044-.03-.09-.044-.136Zm-18.266-6.8a.9.9,0,1,0-.9-.9A.9.9,0,0,0,1522.179,671.534Zm7.437,9.875a.9.9,0,1,0-.9-.9A.9.9,0,0,0,1529.616,681.409Zm14.617,13.721a.9.9,0,1,0-.9-.9A.9.9,0,0,0,1544.233,695.13Zm14.617-13.721a.9.9,0,1,0-.9-.9A.9.9,0,0,0,1558.85,681.409Zm7.437-9.875a.9.9,0,1,0-.9-.9A.9.9,0,0,0,1566.286,671.534Zm-30.773,16.03a.9.9,0,1,0-.9-.9A.9.9,0,0,0,1535.514,687.564Zm17.437,0a.9.9,0,1,0-.9-.9A.9.9,0,0,0,1552.951,687.564Zm-22.566-25.392a.9.9,0,1,0-.9-.9A.9.9,0,0,0,1530.385,662.172Zm7.693,0a.9.9,0,1,0-.9-.9A.9.9,0,0,0,1538.078,662.172Zm.256,5.642a.9.9,0,1,0-.9-.9A.9.9,0,0,0,1538.334,667.815Zm.256,10.9a.9.9,0,1,0-.9-.9A.9.9,0,0,0,1538.591,678.716Zm19.489-16.543a.9.9,0,1,0-.9-.9A.9.9,0,0,0,1558.08,662.172Zm-7.693,0a.9.9,0,1,0-.9-.9A.9.9,0,0,0,1550.387,662.172Zm-.256,5.642a.9.9,0,1,0-.9-.9A.9.9,0,0,0,1550.131,667.815Zm-.256,10.9a.9.9,0,1,0-.9-.9A.9.9,0,0,0,1549.874,678.716Zm-5.642,3.976a.9.9,0,1,0-.9-.9A.9.9,0,0,0,1544.233,682.691Zm0-20.519a.9.9,0,1,0-.9-.9A.9.9,0,0,0,1544.233,662.172Zm-19.49-18.082a.9.9,0,1,0-.9-.9A.9.9,0,0,0,1524.743,644.091Zm.642,12.439a.9.9,0,1,0-.9-.9A.9.9,0,0,0,1525.385,656.53Zm9.36-5.13a.9.9,0,1,0-.9-.9A.9.9,0,0,0,1534.745,651.4Zm5.257-3.462a.9.9,0,1,0-.9-.9A.9.9,0,0,0,1540,647.938Zm23.72-3.847a.9.9,0,1,0-.9-.9A.9.9,0,0,0,1563.722,644.091Zm-10,7.309a.9.9,0,1,0-.9-.9A.9.9,0,0,0,1553.721,651.4Zm9.36,5.13a.9.9,0,1,0-.9-.9A.9.9,0,0,0,1563.081,656.53Zm-14.617-8.592a.9.9,0,1,0-.9-.9A.9.9,0,0,0,1548.464,647.938Z" transform="translate(-1445.817 -641.269)" fill="#fff"/>
  </g>
</svg>
