<svg id="Group_34817" data-name="Group 34817" xmlns="http://www.w3.org/2000/svg" width="236.281" height="122.704" viewBox="0 0 236.281 122.704">
  <rect id="Rectangle_18299" data-name="Rectangle 18299" width="236.281" height="122.704" rx="7.499" fill="#04152c" opacity="0"/>
  <g id="Symbols" transform="translate(57.286 13.267)">
    <g id="logos_logo__216--white" data-name="logos/logo__216--white">
      <path id="divider" d="M1457.919,994.04h114.364v-2.383H1457.919Z" transform="translate(-1457.125 -922.563)" fill="#fff"/>
      <path id="logo_numbers" data-name="logo  numbers" d="M1457.1,928.212h38.564V915.78H1476.62l9.4-9.446c5.185-5.166,8.831-10.979,8.831-17.76,0-11.382-9.074-18-19.2-18a20.229,20.229,0,0,0-19.12,12.351l10.937,6.378c1.54-3.552,4.375-6.135,8.345-6.135,3.808,0,6.076,2.422,6.076,5.974,0,3.31-2.43,6.619-5.752,10.01l-19.039,19.7Zm55.416-56.509-14.826,5.328,3.159,11.06,10.047-2.745v42.866h12.963V871.7Zm41.886,17.841c11.262.888,18.877,8.88,18.877,19.859,0,11.706-8.588,19.94-21.065,19.94-12.557,0-21.064-8.234-21.064-19.94a20.532,20.532,0,0,1,3.322-11.463L1551.8,871.7h14.907Zm-2.187,27.69c4.294,0,8.1-2.906,8.1-7.831s-3.808-7.83-8.1-7.83c-4.375,0-8.1,2.825-8.1,7.83S1547.834,917.233,1552.209,917.233Zm19.476,42.622a2.64,2.64,0,0,0-.717-1.988,3.056,3.056,0,0,0-1.773-.724l-1.095-.158a1.59,1.59,0,0,1-.86-.369.909.909,0,0,1-.273-.671c0-.645.469-1.185,1.434-1.185a2.566,2.566,0,0,1,1.9.645l1.147-1.145a3.953,3.953,0,0,0-3-1.092c-2.008,0-3.233,1.172-3.233,2.843a2.49,2.49,0,0,0,.665,1.843,3.135,3.135,0,0,0,1.8.777l1.121.158a1.378,1.378,0,0,1,.821.329,1.049,1.049,0,0,1,.287.79c0,.75-.574,1.158-1.643,1.158a3.018,3.018,0,0,1-2.242-.79l-1.173,1.185a4.335,4.335,0,0,0,3.389,1.237C1570.187,962.7,1571.686,961.672,1571.686,959.855ZM1562,956.117a1.215,1.215,0,0,0-1.316-1.238h-1.708v2.475h1.708A1.215,1.215,0,0,0,1562,956.117Zm2.19,6.5h-2.1l-1.812-3.739h-1.3v3.739h-1.812v-9.373h3.636a2.818,2.818,0,0,1,3.011,2.87,2.522,2.522,0,0,1-1.694,2.462Zm-8.8,0v-1.633h-4.3V958.71h3.663v-1.632h-3.663v-2.2h4.3v-1.632h-6.114v9.373Zm-7.692-7.741v-1.632h-6.114v9.373h1.813v-3.8h3.663v-1.633H1543.4v-2.3Zm-8.16,4.66v-6.292h-1.812v6.213c0,1.08-.573,1.606-1.459,1.606a1.476,1.476,0,0,1-1.187-.527l-1.2,1.2a3.028,3.028,0,0,0,2.386.961A3.072,3.072,0,0,0,1539.54,959.539Zm-6.779,3.08v-9.373h-1.812v9.373Zm-2.62-2.883H1528.3a1.535,1.535,0,0,1-1.565,1.33,1.426,1.426,0,0,1-1.16-.487c-.378-.408-.456-.829-.456-2.646s.078-2.237.456-2.646a1.426,1.426,0,0,1,1.16-.487,1.535,1.535,0,0,1,1.565,1.33h1.838a3.28,3.28,0,0,0-3.415-2.962,3.383,3.383,0,0,0-2.5,1.027,2.67,2.67,0,0,0-.756,1.408,17.422,17.422,0,0,0,0,4.66,2.722,2.722,0,0,0,.756,1.409,3.386,3.386,0,0,0,2.5,1.027A3.289,3.289,0,0,0,1530.141,959.737Zm-11.706,2.883v-9.373h-1.812v5.739l-3.676-5.739h-1.616v9.373h1.812v-5.753l3.676,5.753Zm-11.171-3.2-1.135-3.41-1.173,3.41Zm2.92,3.2h-1.89l-.547-1.659h-3.3l-.56,1.659H1502l3.376-9.373h1.421Zm-10.833-4.726c0-1.421-.052-2.014-.391-2.435a1.612,1.612,0,0,0-1.356-.579h-1.369v6.108h1.369a1.612,1.612,0,0,0,1.356-.579C1499.3,959.987,1499.35,959.315,1499.35,957.894Zm1.812,0c0,1.408.1,2.778-.938,3.831a3.362,3.362,0,0,1-2.451.9h-3.35v-9.373h3.35a3.36,3.36,0,0,1,2.451.9C1501.267,955.2,1501.162,956.485,1501.162,957.894Zm-13.453-1.777a1.215,1.215,0,0,0-1.316-1.238h-1.708v2.475h1.708A1.215,1.215,0,0,0,1487.709,956.117Zm2.19,6.5h-2.1l-1.812-3.739h-1.3v3.739h-1.812v-9.373h3.637a2.818,2.818,0,0,1,3.011,2.87,2.522,2.522,0,0,1-1.7,2.462Zm-8.8,0v-1.633h-4.3V958.71h3.663v-1.632H1476.8v-2.2h4.3v-1.632h-6.114v9.373Zm-7.887,0H1467.1v-9.373h6.114v1.632h-4.3v2.2h3.663v1.632h-3.663v2.277h4.3Zm-8.278,0h-1.812v-5.463l-1.773,3.554h-1.225l-1.786-3.554v5.463h-1.812v-9.373h1.785l2.425,5.068,2.412-5.068h1.786Z" transform="translate(-1456.528 -870.572)" fill="#fff" fill-rule="evenodd"/>
    </g>
  </g>
</svg>
