<svg id="Group_34811" data-name="Group 34811" xmlns="http://www.w3.org/2000/svg" xmlns:xlink="http://www.w3.org/1999/xlink" width="236.281" height="122.704" viewBox="0 0 236.281 122.704">
  <defs>
    <clipPath id="clip-path">
      <rect id="Rectangle_18294" data-name="Rectangle 18294" width="199.168" height="60.462" fill="#fff"/>
    </clipPath>
  </defs>
  <rect id="Rectangle_18293" data-name="Rectangle 18293" width="236.281" height="122.704" rx="7.499" fill="#04152c" opacity="0"/>
  <g id="Group_34672" data-name="Group 34672" transform="translate(18.556 31.121)">
    <g id="Group_34671" data-name="Group 34671">
      <g id="Group_34670" data-name="Group 34670" clip-path="url(#clip-path)">
        <g id="Group_34669" data-name="Group 34669" transform="translate(0.002 0)">
          <path id="Path_38565" data-name="Path 38565" d="M975.836,673.433s-22.109,6.1-17.356,10.254c0,0-.048,1.878,13.2.939h10.262v29.58h10.064v-29.58s99.746-2.159,164.418-7.556v-3.638c-64.672,5.4-164.418,7.583-164.418,7.583l-26.5.389,12.174-3.529-1.842-4.442s-22.109,6.1-17.356,10.254Z" transform="translate(-957.811 -673.433)" fill="#fff"/>
          <path id="Path_38566" data-name="Path 38566" d="M1059.133,717.218h-20.944a4.979,4.979,0,0,0,1.646,3.52,4.927,4.927,0,0,0,3.665,1.251,6.718,6.718,0,0,0,2.932-.669,6.457,6.457,0,0,0,1.82-1.484l10.3.82a13.912,13.912,0,0,1-5.7,5.1q-3.335,1.538-9.575,1.543a22.306,22.306,0,0,1-8.527-1.322,11.954,11.954,0,0,1-5.151-4.193,11.342,11.342,0,0,1-2.04-6.752,11.1,11.1,0,0,1,4.092-8.948q4.1-3.406,11.315-3.411a22.909,22.909,0,0,1,9.242,1.528,11.363,11.363,0,0,1,5.156,4.458,14.384,14.384,0,0,1,1.772,7.556ZM1048.5,712.9a5.684,5.684,0,0,0-1.611-3.745,5.154,5.154,0,0,0-3.48-1.128,5.013,5.013,0,0,0-4,1.706,5.718,5.718,0,0,0-1.208,3.168Z" transform="translate(-987.755 -685.985)" fill="#fff"/>
          <path id="Path_38567" data-name="Path 38567" d="M1091.5,703.177h9.785v3.837a9.525,9.525,0,0,1,2.916-3.449,6.857,6.857,0,0,1,3.711-.939,12.385,12.385,0,0,1,5.037,1.257l-3.222,6.439a9.183,9.183,0,0,0-2.927-.669,3.792,3.792,0,0,0-3.185,1.468q-1.611,2.062-1.611,7.723v7.9h-10.5Z" transform="translate(-1015.212 -685.966)" fill="#fff"/>
          <path id="Path_38568" data-name="Path 38568" d="M1131.278,720.213l10.376-.842a4.466,4.466,0,0,0,1.8,2.283,5.942,5.942,0,0,0,3.082.691,5.825,5.825,0,0,0,3.265-.777,1.681,1.681,0,0,0,.9-1.436,1.662,1.662,0,0,0-1.181-1.511,24.71,24.71,0,0,0-4.49-.934,51.559,51.559,0,0,1-7.567-1.517,7.9,7.9,0,0,1-3.571-2.358,5.594,5.594,0,0,1-1.45-3.778,5.672,5.672,0,0,1,1.568-4.01,9.457,9.457,0,0,1,4.3-2.52,26.485,26.485,0,0,1,7.374-.826,29.831,29.831,0,0,1,7.2.637,9.831,9.831,0,0,1,3.882,2,10.394,10.394,0,0,1,2.578,3.659l-9.913.842a2.937,2.937,0,0,0-1.284-1.662,5.913,5.913,0,0,0-2.981-.712,4.725,4.725,0,0,0-2.577.54,1.566,1.566,0,0,0-.812,1.316,1.436,1.436,0,0,0,.3.823,1.408,1.408,0,0,0,.725.488,19.8,19.8,0,0,0,4.467.794,34.708,34.708,0,0,1,7.761,1.419,8.507,8.507,0,0,1,3.887,2.591,5.823,5.823,0,0,1,1.349,3.708,6.608,6.608,0,0,1-1.424,3.961,9.559,9.559,0,0,1-4.5,3.076,24.373,24.373,0,0,1-8.361,1.139q-7.475,0-10.644-1.845a8.346,8.346,0,0,1-4.06-5.241Z" transform="translate(-1032.292 -685.985)" fill="#fff"/>
          <path id="Path_38569" data-name="Path 38569" d="M1220.135,717.218h-20.943a4.99,4.99,0,0,0,1.651,3.518,4.943,4.943,0,0,0,3.665,1.252,6.689,6.689,0,0,0,2.927-.669,6.436,6.436,0,0,0,1.826-1.484l10.3.82a13.9,13.9,0,0,1-5.7,5.1q-3.335,1.538-9.58,1.543a22.282,22.282,0,0,1-8.527-1.322,11.983,11.983,0,0,1-5.151-4.193,11.37,11.37,0,0,1-2.04-6.752,11.088,11.088,0,0,1,4.1-8.948q4.093-3.406,11.31-3.411a22.908,22.908,0,0,1,9.248,1.528,11.359,11.359,0,0,1,5.139,4.458,14.385,14.385,0,0,1,1.772,7.556Zm-10.627-4.318a5.712,5.712,0,0,0-1.611-3.745,5.162,5.162,0,0,0-3.48-1.128,5.021,5.021,0,0,0-4.017,1.706,5.758,5.758,0,0,0-1.208,3.157Z" transform="translate(-1056.885 -685.985)" fill="#fff"/>
          <path id="Path_38570" data-name="Path 38570" d="M1260.868,710.778l-9.994-.912a9.031,9.031,0,0,1,1.61-3.562,8.783,8.783,0,0,1,3.072-2.251,14.209,14.209,0,0,1,3.953-1.08,36.546,36.546,0,0,1,5.446-.378,50.137,50.137,0,0,1,7.55.454,10.339,10.339,0,0,1,4.748,1.9,6.6,6.6,0,0,1,2.11,2.822,9.11,9.11,0,0,1,.789,3.546v10.395a8.095,8.095,0,0,0,1.315,5.014h-9.816a8.009,8.009,0,0,1-.769-1.376,8.585,8.585,0,0,1-.36-1.5,13.865,13.865,0,0,1-4.081,2.445,19.386,19.386,0,0,1-6.444.977c-3.249,0-5.725-.653-7.406-1.954a6.036,6.036,0,0,1-.709-9.234q1.822-1.727,6.729-2.568,5.88-1.02,7.625-1.436t3.7-1.08a2.968,2.968,0,0,0-.795-2.332,4.426,4.426,0,0,0-2.8-.664,8.21,8.21,0,0,0-3.85.713A3.9,3.9,0,0,0,1260.868,710.778Zm9.065,4.744q-2.149.663-4.495,1.177a11.22,11.22,0,0,0-4.033,1.441,2.159,2.159,0,0,0-.9,1.684,2.117,2.117,0,0,0,.886,1.748,4.019,4.019,0,0,0,2.529.68,7.3,7.3,0,0,0,3.25-.74,4.887,4.887,0,0,0,2.147-1.781,5.289,5.289,0,0,0,.629-2.742Z" transform="translate(-1083.295 -685.952)" fill="#fff"/>
          <path id="Path_38571" data-name="Path 38571" d="M1112.969,769.534H999.563v3.514h113.406Z" transform="translate(-975.738 -714.696)" fill="#fff"/>
          <path id="Path_38572" data-name="Path 38572" d="M1211.726,767.941a.834.834,0,0,1,0,.178.443.443,0,0,1-.033.13.143.143,0,0,1-.054.07.089.089,0,0,1-.064,0,.471.471,0,0,1-.215-.1,3.973,3.973,0,0,0-.4-.221,3.164,3.164,0,0,0-.6-.227,2.909,2.909,0,0,0-.827-.1,2.423,2.423,0,0,0-1.025.211,2.187,2.187,0,0,0-.763.578,2.563,2.563,0,0,0-.483.874,3.629,3.629,0,0,0-.166,1.08,3.448,3.448,0,0,0,.182,1.176,2.6,2.6,0,0,0,.511.869,2.08,2.08,0,0,0,.773.54,2.671,2.671,0,0,0,.988.184,2.717,2.717,0,0,0,.644-.081,2.189,2.189,0,0,0,.608-.232V770.85H1209.2a.143.143,0,0,1-.081-.022.148.148,0,0,1-.053-.065.672.672,0,0,1-.048-.286.732.732,0,0,1,0-.173.361.361,0,0,1,.031-.119.172.172,0,0,1,.055-.065.137.137,0,0,1,.08,0h2.186a.343.343,0,0,1,.119,0,.307.307,0,0,1,.107.059.313.313,0,0,1,.07.119.46.46,0,0,1,.027.173v2.634a.681.681,0,0,1-.043.243.448.448,0,0,1-.2.173,3.3,3.3,0,0,1-.4.173,5.266,5.266,0,0,1-.51.156,4.929,4.929,0,0,1-.537.1,4.461,4.461,0,0,1-.537,0,3.809,3.809,0,0,1-1.429-.248,2.856,2.856,0,0,1-1.073-.707,3.162,3.162,0,0,1-.665-1.079,4.291,4.291,0,0,1-.226-1.431,4.2,4.2,0,0,1,.248-1.489,3.24,3.24,0,0,1,.7-1.139,3.108,3.108,0,0,1,1.074-.729,3.911,3.911,0,0,1,2.137-.189,3.843,3.843,0,0,1,.612.162,2.147,2.147,0,0,1,.457.2,1.782,1.782,0,0,1,.252.173.415.415,0,0,1,.092.162A.875.875,0,0,1,1211.726,767.941Z" transform="translate(-1064.404 -713.551)" fill="#fff"/>
          <path id="Path_38573" data-name="Path 38573" d="M1230.833,773.873a.167.167,0,0,1,0,.075.13.13,0,0,1-.07.054.864.864,0,0,1-.144,0,1.937,1.937,0,0,1-.258,0,1.477,1.477,0,0,1-.225,0,.412.412,0,0,1-.139-.032.208.208,0,0,1-.086-.065.487.487,0,0,1-.048-.108l-.634-1.619c-.075-.189-.151-.356-.231-.54a1.845,1.845,0,0,0-.285-.4,1.163,1.163,0,0,0-.386-.259,1.367,1.367,0,0,0-.537-.1h-.613v2.947a.136.136,0,0,1-.1.124l-.139.033a1.282,1.282,0,0,1-.22,0,1.288,1.288,0,0,1-.22,0l-.146-.033a.146.146,0,0,1-.075-.048.191.191,0,0,1,0-.075v-6.358a.335.335,0,0,1,.112-.291.389.389,0,0,1,.232-.087h1.9a.973.973,0,0,1,.312.032,2.445,2.445,0,0,1,.7.216,1.688,1.688,0,0,1,.537.377,1.457,1.457,0,0,1,.311.54,1.931,1.931,0,0,1,.107.653,1.875,1.875,0,0,1-.1.62,1.531,1.531,0,0,1-.264.491,2.1,2.1,0,0,1-.423.362,2.884,2.884,0,0,1-.537.264,1.436,1.436,0,0,1,.312.189,1.359,1.359,0,0,1,.252.276,2.794,2.794,0,0,1,.232.367c.068.14.137.3.209.47l.617,1.527c.048.124.08.216.1.264A.669.669,0,0,1,1230.833,773.873Zm-1.375-4.858a1.251,1.251,0,0,0-.182-.685,1.018,1.018,0,0,0-.607-.4,1.538,1.538,0,0,0-.3-.054h-1.208V770.2h.891a1.907,1.907,0,0,0,.623-.092,1.29,1.29,0,0,0,.44-.242.966.966,0,0,0,.257-.373A1.284,1.284,0,0,0,1229.458,769.015Z" transform="translate(-1073.081 -713.648)" fill="#fff"/>
          <path id="Path_38574" data-name="Path 38574" d="M1249.127,770.415a5.245,5.245,0,0,1-.2,1.511,3.157,3.157,0,0,1-.585,1.144,2.471,2.471,0,0,1-.983.729,3.38,3.38,0,0,1-1.375.254,3.494,3.494,0,0,1-1.343-.232,2.32,2.32,0,0,1-.934-.674,2.953,2.953,0,0,1-.537-1.08,5.782,5.782,0,0,1-.177-1.511,5.308,5.308,0,0,1,.193-1.484,3.138,3.138,0,0,1,.59-1.139,2.654,2.654,0,0,1,.983-.717,3.509,3.509,0,0,1,1.38-.254,3.419,3.419,0,0,1,1.322.232,2.316,2.316,0,0,1,.938.664,2.94,2.94,0,0,1,.538,1.079A5.48,5.48,0,0,1,1249.127,770.415Zm-.967.065a5.563,5.563,0,0,0-.1-1.08,2.517,2.517,0,0,0-.349-.88,1.67,1.67,0,0,0-.644-.578,2.142,2.142,0,0,0-1-.211,2.036,2.036,0,0,0-1,.227,1.928,1.928,0,0,0-.655.6,2.478,2.478,0,0,0-.36.868,5.081,5.081,0,0,0-.107,1.08,5.587,5.587,0,0,0,.1,1.122,2.437,2.437,0,0,0,.337.885,1.662,1.662,0,0,0,.639.578,2.219,2.219,0,0,0,1,.205,2.046,2.046,0,0,0,1.009-.227,1.829,1.829,0,0,0,.661-.653,2.567,2.567,0,0,0,.354-.885A5.176,5.176,0,0,0,1248.161,770.48Z" transform="translate(-1080.26 -713.591)" fill="#fff"/>
          <path id="Path_38575" data-name="Path 38575" d="M1268.669,771.439a3.227,3.227,0,0,1-.183,1.128,2.3,2.3,0,0,1-.536.837,2.2,2.2,0,0,1-.827.539,3.38,3.38,0,0,1-1.112.173,3.143,3.143,0,0,1-1.036-.162,2.194,2.194,0,0,1-.8-.491,2.151,2.151,0,0,1-.537-.81,3.262,3.262,0,0,1-.178-1.122v-4.312a.14.14,0,0,1,0-.075.166.166,0,0,1,.076-.048.594.594,0,0,1,.135-.033,1.339,1.339,0,0,1,.226,0,1.207,1.207,0,0,1,.214,0,.59.59,0,0,1,.146.033.176.176,0,0,1,.07.048.14.14,0,0,1,0,.075v4.161a2.63,2.63,0,0,0,.117.837,1.565,1.565,0,0,0,.339.593,1.289,1.289,0,0,0,.537.357,1.794,1.794,0,0,0,.7.124,1.913,1.913,0,0,0,.709-.119,1.362,1.362,0,0,0,.537-.351,1.613,1.613,0,0,0,.333-.588,2.556,2.556,0,0,0,.113-.809v-4.2a.122.122,0,0,1,0-.075.142.142,0,0,1,.075-.048.6.6,0,0,1,.14-.033,1.276,1.276,0,0,1,.22,0,1.217,1.217,0,0,1,.215,0,.588.588,0,0,1,.14.033.2.2,0,0,1,.075.048.186.186,0,0,1,0,.075Z" transform="translate(-1089.045 -713.633)" fill="#fff"/>
          <path id="Path_38576" data-name="Path 38576" d="M1287.29,769.124a2.435,2.435,0,0,1-.172.934,2.023,2.023,0,0,1-.483.712,2.218,2.218,0,0,1-.779.454,3.461,3.461,0,0,1-1.073.156H1284v2.494a.119.119,0,0,1,0,.075.149.149,0,0,1-.075.048l-.14.033a2.279,2.279,0,0,1-.44,0l-.14-.033a.128.128,0,0,1-.075-.048.122.122,0,0,1,0-.075v-6.385a.369.369,0,0,1,.022-.164.386.386,0,0,1,.09-.138.4.4,0,0,1,.248-.092h1.842a3.473,3.473,0,0,1,.488.081,1.982,1.982,0,0,1,1.073.643,1.921,1.921,0,0,1,.312.54A2.355,2.355,0,0,1,1287.29,769.124Zm-.961.07a1.492,1.492,0,0,0-.155-.7,1.2,1.2,0,0,0-.387-.426,1.281,1.281,0,0,0-.483-.173,2.9,2.9,0,0,0-.478-.038h-.848v2.774h.827a1.934,1.934,0,0,0,.688-.108,1.288,1.288,0,0,0,.462-.3,1.255,1.255,0,0,0,.279-.453A1.662,1.662,0,0,0,1286.329,769.194Z" transform="translate(-1097.49 -713.648)" fill="#fff"/>
          <path id="Path_38577" data-name="Path 38577" d="M1303.964,773.626a1.661,1.661,0,0,1,0,.167.438.438,0,0,1-.038.119.153.153,0,0,1-.065.076.183.183,0,0,1-.075,0h-3.3a.353.353,0,0,1-.23-.081.341.341,0,0,1-.088-.134.36.36,0,0,1-.021-.158v-6.147a.361.361,0,0,1,.021-.158.339.339,0,0,1,.088-.133.391.391,0,0,1,.23-.087h3.265a.132.132,0,0,1,.075,0,.138.138,0,0,1,.058.065.353.353,0,0,1,.033.124.951.951,0,0,1,0,.346.326.326,0,0,1-.033.119.163.163,0,0,1-.058.064.12.12,0,0,1-.075,0h-2.685v2.159h2.309a.129.129,0,0,1,.075,0,.152.152,0,0,1,.06.07.292.292,0,0,1,.031.119.8.8,0,0,1,0,.173.751.751,0,0,1,0,.167.283.283,0,0,1-.031.113.125.125,0,0,1-.06.059.182.182,0,0,1-.075,0h-2.309v2.472h2.728a.118.118,0,0,1,.075,0,.141.141,0,0,1,.065.064.5.5,0,0,1,.038.119A1.584,1.584,0,0,1,1303.964,773.626Z" transform="translate(-1104.799 -713.644)" fill="#fff"/>
        </g>
      </g>
    </g>
  </g>
</svg>
