<svg xmlns="http://www.w3.org/2000/svg" width="236.281" height="122.704" viewBox="0 0 236.281 122.704">
  <g id="Group_37739" data-name="Group 37739" transform="translate(12038 2311)">
    <rect id="Rectangle_19475" data-name="Rectangle 19475" width="236.281" height="122.704" rx="7.499" transform="translate(-12038 -2311)" fill="#04152c" opacity="0"/>
    <g id="Group_37742" data-name="Group 37742" transform="translate(-12239.109 -2286.42)">
      <g id="Group_37740" data-name="Group 37740" transform="translate(288.865 40.064)">
        <path id="Path_44106" data-name="Path 44106" d="M278.556,32.045l5.049,13.76h-2.217l-.615-1.773-.348-.982-2.659-7.9-2.139,6.109h2.466l.618,1.794h-3.719l-.946,2.755H271.83l5.049-13.76Z" transform="translate(-271.83 -31.969)" fill="#fff"/>
        <path id="Path_44107" data-name="Path 44107" d="M291.58,44.878a5.573,5.573,0,0,1-3.546,1.061,6.524,6.524,0,0,1-4.856-1.813l1.388-1.367a4.735,4.735,0,0,0,3.507,1.31q2.832,0,2.834-2.1a1.815,1.815,0,0,0-.54-1.427,2.832,2.832,0,0,0-1.5-.578l-1.619-.231a4.618,4.618,0,0,1-2.6-1.1,3.419,3.419,0,0,1-1-2.621,3.7,3.7,0,0,1,1.233-2.909,4.8,4.8,0,0,1,3.353-1.118,6,6,0,0,1,4.258,1.561l-1.33,1.31A4.16,4.16,0,0,0,288.17,33.8a2.636,2.636,0,0,0-1.85.618,1.932,1.932,0,0,0-.655,1.522,1.613,1.613,0,0,0,.52,1.272,2.936,2.936,0,0,0,1.543.636l1.561.231A4.977,4.977,0,0,1,291.85,39.1a3.973,3.973,0,0,1-.27,5.78Z" transform="translate(-268.513 -31.986)" fill="#fff"/>
        <path id="Path_44108" data-name="Path 44108" d="M301.751,44.878a5.573,5.573,0,0,1-3.546,1.061,6.524,6.524,0,0,1-4.856-1.813l1.388-1.367a4.733,4.733,0,0,0,3.507,1.31q2.832,0,2.834-2.1a1.815,1.815,0,0,0-.54-1.427,2.831,2.831,0,0,0-1.5-.578l-1.619-.231a4.614,4.614,0,0,1-2.6-1.1,3.419,3.419,0,0,1-1-2.621,3.7,3.7,0,0,1,1.233-2.909,4.8,4.8,0,0,1,3.352-1.118,6,6,0,0,1,4.259,1.561l-1.33,1.31A4.161,4.161,0,0,0,298.34,33.8a2.633,2.633,0,0,0-1.849.618,1.932,1.932,0,0,0-.655,1.522,1.613,1.613,0,0,0,.519,1.272,2.936,2.936,0,0,0,1.543.636l1.561.231a4.982,4.982,0,0,1,2.563,1.022,3.973,3.973,0,0,1-.27,5.78Z" transform="translate(-265.541 -31.986)" fill="#fff"/>
        <path id="Path_44109" data-name="Path 44109" d="M313.919,41.171a4.474,4.474,0,0,1-1.427,3.43,5.345,5.345,0,0,1-7.014,0,4.5,4.5,0,0,1-1.407-3.43v-9.1h2.081v9a3.026,3.026,0,0,0,.771,2.177,3.087,3.087,0,0,0,4.124,0,2.982,2.982,0,0,0,.791-2.177v-9h2.082Z" transform="translate(-262.407 -31.96)" fill="#fff"/>
        <path id="Path_44110" data-name="Path 44110" d="M320.073,38.257A3.363,3.363,0,0,0,322,37.7a1.859,1.859,0,0,0,.888-1.58,2,2,0,0,0-.656-1.58,2.4,2.4,0,0,0-1.676-.578h-3.083V45.831H315.39V32.09h5.319a4.277,4.277,0,0,1,3.1,1.137,3.788,3.788,0,0,1,1.155,2.871,3.623,3.623,0,0,1-2.737,3.661l3.161,6.071h-2.427l-2.892-5.78Z" transform="translate(-259.099 -31.956)" fill="#fff"/>
        <path id="Path_44111" data-name="Path 44111" d="M332.391,32.045l5.049,13.76h-2.218l-.615-1.773-.348-.982-2.66-7.9-2.139,6.109h2.466l.618,1.794h-3.719l-.946,2.755h-2.215l5.049-13.76Z" transform="translate(-256.096 -31.969)" fill="#fff"/>
        <path id="Path_44112" data-name="Path 44112" d="M346.092,45.8l-6.341-9.655V45.8h-2.082V32.075h1.909l6.34,9.636V32.075H348V45.8Z" transform="translate(-252.588 -31.96)" fill="#fff"/>
        <path id="Path_44113" data-name="Path 44113" d="M359,41.718a5.08,5.08,0,0,1-1.7,3.141,4.829,4.829,0,0,1-3.2,1.079,4.893,4.893,0,0,1-3.6-1.465,4.213,4.213,0,0,1-1.176-2.274,21.951,21.951,0,0,1-.154-3.237,22,22,0,0,1,.154-3.238A4.218,4.218,0,0,1,350.5,33.45a5.245,5.245,0,0,1,6.822-.385A5.053,5.053,0,0,1,359,36.207h-2.121a2.665,2.665,0,0,0-2.775-2.352,2.634,2.634,0,0,0-2.024.83q-.828.905-.828,4.277t.828,4.279a2.633,2.633,0,0,0,2.024.828,2.676,2.676,0,0,0,2.8-2.351Z" transform="translate(-249.227 -31.986)" fill="#fff"/>
        <path id="Path_44114" data-name="Path 44114" d="M359.994,45.8V32.075h8.768v1.87h-6.687v4.009h5.705V39.8h-5.705v4.125h6.687V45.8Z" transform="translate(-246.063 -31.96)" fill="#fff"/>
        <path id="Path_44115" data-name="Path 44115" d="M377.97,44.878a5.573,5.573,0,0,1-3.546,1.061,6.524,6.524,0,0,1-4.856-1.813l1.388-1.367a4.733,4.733,0,0,0,3.507,1.31q2.832,0,2.833-2.1a1.811,1.811,0,0,0-.54-1.427,2.827,2.827,0,0,0-1.5-.578l-1.619-.231a4.61,4.61,0,0,1-2.6-1.1,3.42,3.42,0,0,1-1-2.621,3.709,3.709,0,0,1,1.233-2.909,4.8,4.8,0,0,1,3.353-1.118,6,6,0,0,1,4.259,1.561l-1.33,1.31a4.161,4.161,0,0,0-2.988-1.061,2.632,2.632,0,0,0-1.849.618,1.932,1.932,0,0,0-.655,1.522,1.613,1.613,0,0,0,.52,1.272,2.931,2.931,0,0,0,1.542.636l1.561.231A4.987,4.987,0,0,1,378.24,39.1a3.548,3.548,0,0,1,1.118,2.813A3.584,3.584,0,0,1,377.97,44.878Z" transform="translate(-243.265 -31.986)" fill="#fff"/>
      </g>
      <g id="Group_37741" data-name="Group 37741" transform="translate(289.01 4.388)">
        <path id="Path_44116" data-name="Path 44116" d="M286.433,4.379l10.21,28H290.95L289.3,27.432h-.04l-4.869-14.805-3.536,10.211h3.457l1.531,4.594h-6.52l-1.689,4.948h-5.694l10.171-28Z" transform="translate(-271.942 -4.379)" fill="#fff"/>
        <path id="Path_44117" data-name="Path 44117" d="M296.163,32.371V4.41h5.457V27.5h12.686v4.869Z" transform="translate(-264.863 -4.37)" fill="#fff"/>
        <path id="Path_44118" data-name="Path 44118" d="M321.16,32.38H315.7v-28H326.54a9.189,9.189,0,0,1,6.795,2.592,8.286,8.286,0,0,1,2.475,6.165,8.24,8.24,0,0,1-2.475,6.128,9.193,9.193,0,0,1-6.795,2.591h-.392V16.948h.118a4.067,4.067,0,0,0,2.946-1.061,3.654,3.654,0,0,0,1.1-2.75,3.7,3.7,0,0,0-1.1-2.787,3.984,3.984,0,0,0-2.946-1.1H321.16Z" transform="translate(-259.152 -4.379)" fill="#fff"/>
        <path id="Path_44119" data-name="Path 44119" d="M351.837,32.371v-11.7h-9.465v11.7h-5.457V4.41h5.457V15.837h9.465V4.41h5.46V32.371Z" transform="translate(-252.953 -4.37)" fill="#fff"/>
        <path id="Path_44120" data-name="Path 44120" d="M372.435,4.379l10.21,28h-5.694L375.3,27.432h-.04l-4.869-14.805-3.536,10.211h3.457l1.531,4.594h-6.519l-1.689,4.948h-5.694l10.171-28Z" transform="translate(-246.807 -4.379)" fill="#fff"/>
      </g>
      <path id="Path_44121" data-name="Path 44121" d="M260.084,17.134,254.316,5.877l-.783-1.529H246.9l-.782,1.529L213.542,69.2h8.194l28.483-55.323,5.767,11.258L258.8,19.64Z" fill="#fff"/>
      <path id="Path_44122" data-name="Path 44122" d="M267.4,47.255,257.059,27.071l-2.813,5.49-1.285,2.506,6.247,12.189Z" transform="translate(11.521 6.641)" fill="#fff"/>
      <path id="Path_44123" data-name="Path 44123" d="M262.286,15.9l-2.661-5.191-8.7,16.858L238.381,52.041h8.2l8.446-16.482,8.7-16.859Z" transform="translate(7.26 1.858)" fill="#fff"/>
    </g>
  </g>
</svg>
