<svg xmlns="http://www.w3.org/2000/svg" width="236.281" height="122.704" viewBox="0 0 236.281 122.704">
  <g id="Group_37755" data-name="Group 37755" transform="translate(11690 2336)">
    <g id="Group_37739" data-name="Group 37739" transform="translate(348 -25)">
      <rect id="Rectangle_19475" data-name="Rectangle 19475" width="236.281" height="122.704" rx="7.499" transform="translate(-12038 -2311)" fill="#04152c" opacity="0"/>
    </g>
    <g id="Group_37754" data-name="Group 37754" transform="translate(-7 -78.7)">
      <rect id="Rectangle_20010" data-name="Rectangle 20010" width="25.009" height="12.814" transform="translate(-11671 -2208.3)" fill="#e3032e"/>
      <rect id="Rectangle_20011" data-name="Rectangle 20011" width="25.009" height="12.549" transform="translate(-11671 -2195.84)" fill="#fff"/>
      <g id="Group_37743" data-name="Group 37743" transform="translate(-11666.67 -2196.547)">
        <g id="Group_37748" data-name="Group 37748" transform="translate(0 0)">
          <g id="Group_37747" data-name="Group 37747">
            <g id="Group_37746" data-name="Group 37746">
              <g id="Group_37745" data-name="Group 37745">
                <g id="Group_37744" data-name="Group 37744">
                  <g id="Group_37743-2" data-name="Group 37743">
                    <rect id="Rectangle_20012" data-name="Rectangle 20012" width="16.26" height="1.502" fill="#d0d0d0"/>
                  </g>
                </g>
              </g>
            </g>
          </g>
        </g>
      </g>
      <g id="Group_37744-2" data-name="Group 37744" transform="translate(-11638.392 -2206.709)">
        <g id="Group_37752" data-name="Group 37752" transform="translate(0 0)">
          <g id="Group_37751" data-name="Group 37751">
            <path id="Path_44138" data-name="Path 44138" d="M228.9,11.651a9.785,9.785,0,0,0-4.065-.972c-1.856,0-2.828.442-2.828,1.149,0,2.033,8.4.442,8.4,4.86,0,1.856-1.679,3.27-5.126,3.27a11.015,11.015,0,0,1-5.479-1.414l.8-1.679a9.5,9.5,0,0,0,4.772,1.326c2.033,0,3.093-.619,3.093-1.5,0-2.3-8.4-.53-8.4-4.684,0-1.767,1.679-3,4.772-3a10.944,10.944,0,0,1,4.86,1.149Z" transform="translate(-219.8 -8.735)" fill="#fff"/>
            <path id="Path_44139" data-name="Path 44139" d="M239.9,19.935c-3.358,0-6.1-2.209-6.1-5.567,0-3.27,2.739-5.567,6.1-5.567s6.1,2.3,6.1,5.567-2.739,5.567-6.1,5.567m0-9.367a3.839,3.839,0,0,0-4.065,3.8,4.074,4.074,0,0,0,8.13,0,3.789,3.789,0,0,0-4.065-3.8" transform="translate(-221.428 -8.712)" fill="#fff"/>
            <path id="Path_44140" data-name="Path 44140" d="M255.786,19.835c-3.535,0-6.186-2.209-6.186-5.567,0-3.27,2.651-5.567,6.186-5.567a7.816,7.816,0,0,1,4.86,1.591l-1.06,1.5a6.335,6.335,0,0,0-3.8-1.326c-2.563,0-4.153,1.591-4.153,3.712s1.591,3.712,4.153,3.712a6.576,6.576,0,0,0,3.888-1.237l1.06,1.5a7.009,7.009,0,0,1-4.949,1.679" transform="translate(-223.266 -8.7)" fill="#fff"/>
            <rect id="Rectangle_20013" data-name="Rectangle 20013" width="1.944" height="10.516" transform="translate(39.59 0.442)" fill="#fff"/>
            <path id="Path_44141" data-name="Path 44141" d="M270.1,19.628V9.2h9.544v1.679h-7.6v2.563h5.921v1.767h-5.921v2.739H280v1.679Z" transform="translate(-225.65 -8.758)" fill="#fff"/>
            <path id="Path_44142" data-name="Path 44142" d="M288.686,10.879v8.749h-1.944V10.879H282.5V9.2h10.428v1.679Z" transform="translate(-227.092 -8.758)" fill="#fff"/>
            <path id="Path_44143" data-name="Path 44143" d="M296.1,19.628V9.2h9.544v1.679h-7.6v2.563h5.921v1.767h-5.921v2.739H306v1.679Z" transform="translate(-228.673 -8.758)" fill="#fff"/>
            <path id="Path_44144" data-name="Path 44144" d="M320.674,18.079a7.907,7.907,0,0,0,3-.619v-3h1.856v4.065a9.268,9.268,0,0,1-4.949,1.414c-3.535,0-6.186-2.209-6.186-5.567,0-3.27,2.651-5.567,6.186-5.567a7.815,7.815,0,0,1,4.86,1.591l-1.06,1.5a6.3,6.3,0,0,0-3.8-1.237,3.7,3.7,0,0,0-4.153,3.712c0,2.121,1.679,3.712,4.242,3.712" transform="translate(-230.802 -8.712)" fill="#fff"/>
            <path id="Path_44145" data-name="Path 44145" d="M329.9,19.628V9.2h9.544v1.679h-7.6v2.563h5.921v1.767h-5.921v2.739H339.8v1.679Z" transform="translate(-232.604 -8.758)" fill="#fff"/>
            <path id="Path_44146" data-name="Path 44146" d="M345.144,19.616H343.2V9.1h1.944l6.8,7.865h.088c-.088-1.944-.088-3.623-.088-5.125V9.1h1.944V19.616h-1.944l-6.8-7.865h0c.088,1.591.088,4.242.088,5.125l-.088,2.739Z" transform="translate(-234.151 -8.747)" fill="#fff"/>
            <path id="Path_44147" data-name="Path 44147" d="M358.4,19.628V9.2h9.544v1.679h-7.6v2.563h5.921v1.767h-5.921v2.739H368.3v1.679Z" transform="translate(-235.919 -8.758)" fill="#fff"/>
            <path id="Path_44148" data-name="Path 44148" d="M377.037,15.828h-3.093v3.888H372V9.2h6.716a3.324,3.324,0,0,1,3.623,3.358,3.276,3.276,0,0,1-3,3.27l3.093,3.888h-2.474Zm1.414-1.767c1.237,0,1.944-.619,1.944-1.5a1.511,1.511,0,0,0-1.679-1.591h-4.772v3.181h4.507Z" transform="translate(-237.5 -8.758)" fill="#fff"/>
            <path id="Path_44149" data-name="Path 44149" d="M387.858,17.053l-1.237,2.563H384.5L389.625,9.1h2.033l5.125,10.516h-2.121l-1.237-2.563Zm.8-1.679h4.065l-2.033-4.242Z" transform="translate(-238.954 -8.747)" fill="#fff"/>
            <path id="Path_44150" data-name="Path 44150" d="M400.1,19.628V9.2h1.856v8.749h7.07v1.679Z" transform="translate(-240.768 -8.758)" fill="#fff"/>
            <path id="Path_44151" data-name="Path 44151" d="M411.7,19.628V9.2h9.544v1.679h-7.6v2.563h5.921v1.767h-5.921v2.739H421.6v1.679Z" transform="translate(-242.117 -8.758)" fill="#fff"/>
          </g>
        </g>
      </g>
      <g id="Group_37745-2" data-name="Group 37745" transform="translate(-11638.479 -2191.421)">
        <path id="Path_44152" data-name="Path 44152" d="M222.881,26h.972l3.181,8.218h-1.414l-.8-2.121h-3l-.8,2.121H219.7Zm1.591,4.949-.619-1.856c-.265-.707-.353-1.06-.442-1.326h0c-.088.265-.177.619-.442,1.326l-.707,1.856Z" transform="translate(-219.7 -26)" fill="#fff"/>
        <path id="Path_44153" data-name="Path 44153" d="M228.942,33.1a3.052,3.052,0,0,0,1.591.442c.619,0,1.06-.177,1.06-.707,0-1.06-2.739-.707-2.739-2.651,0-.972.8-1.679,2.121-1.679a4.281,4.281,0,0,1,1.591.265v1.06a4.221,4.221,0,0,0-1.591-.353c-.53,0-.884.177-.884.619,0,1.06,2.74.707,2.74,2.651,0,1.237-1.06,1.767-2.3,1.767a4,4,0,0,1-2.033-.53Z" transform="translate(-220.723 -26.291)" fill="#fff"/>
        <path id="Path_44154" data-name="Path 44154" d="M234.642,33.1a3.052,3.052,0,0,0,1.591.442c.619,0,1.06-.177,1.06-.707,0-1.06-2.739-.707-2.739-2.651,0-.972.8-1.679,2.121-1.679a4.281,4.281,0,0,1,1.591.265v1.06a4.221,4.221,0,0,0-1.591-.353c-.53,0-.884.177-.884.619,0,1.06,2.739.707,2.739,2.651,0,1.237-1.06,1.767-2.3,1.767a4,4,0,0,1-2.033-.53Z" transform="translate(-221.386 -26.291)" fill="#fff"/>
        <path id="Path_44155" data-name="Path 44155" d="M240.577,33.46a3.923,3.923,0,0,1-.177-1.149V28.6h1.326v3.535a1.961,1.961,0,0,0,.088.8.887.887,0,0,0,.884.53,1.727,1.727,0,0,0,1.326-.619V28.6h1.326v4.242a6.777,6.777,0,0,0,.088,1.591h-1.149l-.177-.619a2.587,2.587,0,0,1-1.856.8A1.721,1.721,0,0,1,240.577,33.46Z" transform="translate(-222.107 -26.302)" fill="#fff"/>
        <path id="Path_44156" data-name="Path 44156" d="M247.7,28.588h1.06l.177.707a1.986,1.986,0,0,1,1.591-.8,2.58,2.58,0,0,1,.8.177l-.442,1.06a2.249,2.249,0,0,0-.619-.177,2.006,2.006,0,0,0-1.237.619v4.153H247.7Z" transform="translate(-222.956 -26.291)" fill="#fff"/>
        <path id="Path_44157" data-name="Path 44157" d="M255.823,33.791a2.263,2.263,0,0,1-1.679.707,1.833,1.833,0,0,1-1.944-1.856,1.588,1.588,0,0,1,.972-1.591,3.808,3.808,0,0,1,1.5-.265h1.06v-.265c0-.8-.442-1.06-1.149-1.06A3.052,3.052,0,0,0,253,29.9l-.442-.884a4.885,4.885,0,0,1,2.209-.619c1.414,0,2.3.707,2.3,2.121V32.73a7.7,7.7,0,0,0,.088,1.679h-1.06Zm-.972-2.121a2.728,2.728,0,0,0-.972.177.9.9,0,0,0-.442.707.862.862,0,0,0,.972.884,1.8,1.8,0,0,0,1.237-.53V31.581Z" transform="translate(-223.48 -26.279)" fill="#fff"/>
        <path id="Path_44158" data-name="Path 44158" d="M259.3,28.577h1.06l.177.707a3.045,3.045,0,0,1,2.033-.884c.884,0,1.856.53,1.856,2.121v3.888H263.1V30.963c0-.8-.177-1.414-.972-1.414a2.178,2.178,0,0,0-1.5.707v4.153H259.3Z" transform="translate(-224.305 -26.279)" fill="#fff"/>
        <path id="Path_44159" data-name="Path 44159" d="M266.4,31.593a2.949,2.949,0,0,1,3-3.093,2.856,2.856,0,0,1,1.5.353v1.06a2.67,2.67,0,0,0-1.414-.442,1.86,1.86,0,0,0-1.856,2.033,1.8,1.8,0,0,0,1.767,2.033,3.705,3.705,0,0,0,1.414-.353l.354.884a3.909,3.909,0,0,1-1.944.53A2.737,2.737,0,0,1,266.4,31.593Z" transform="translate(-225.131 -26.291)" fill="#fff"/>
        <path id="Path_44160" data-name="Path 44160" d="M272.5,31.493c0-1.767.972-3.093,2.563-3.093s2.474,1.149,2.474,3.093v.265h-3.712a1.649,1.649,0,0,0,1.767,1.679,3.761,3.761,0,0,0,1.5-.353l.354.884a3.874,3.874,0,0,1-2.033.53A2.715,2.715,0,0,1,272.5,31.493Zm3.8-.619c0-.707-.353-1.5-1.237-1.5a1.336,1.336,0,0,0-1.237,1.5Z" transform="translate(-225.84 -26.279)" fill="#fff"/>
        <path id="Path_44161" data-name="Path 44161" d="M279.442,33.1a3.052,3.052,0,0,0,1.591.442c.619,0,1.06-.177,1.06-.707,0-1.06-2.74-.707-2.74-2.651,0-.972.8-1.679,2.121-1.679a4.281,4.281,0,0,1,1.591.265v1.06a4.221,4.221,0,0,0-1.591-.353c-.53,0-.884.177-.884.619,0,1.06,2.739.707,2.739,2.651,0,1.237-1.06,1.767-2.3,1.767a4,4,0,0,1-2.033-.53Z" transform="translate(-226.596 -26.291)" fill="#fff"/>
      </g>
    </g>
  </g>
</svg>
