<svg id="Calque_1" data-name="Calque 1" xmlns="http://www.w3.org/2000/svg" viewBox="0 0 754.43 236.99"><defs><style>.cls-1{fill:#263b58;}.cls-2{fill:#d94427;}</style></defs><title>taillislabs</title><path class="cls-1" d="M620,46.52a4.59,4.59,0,1,0-4.59-4.59A4.59,4.59,0,0,0,620,46.52Z"/><path class="cls-1" d="M603.68,30.37a2.92,2.92,0,1,0-2.92-2.92A2.92,2.92,0,0,0,603.68,30.37Z"/><path class="cls-1" d="M605.67,44.2a4.32,4.32,0,1,1,1.62-8.31,4.23,4.23,0,0,1,1.94,1.58,4.28,4.28,0,0,1,.74,2.4,4.29,4.29,0,0,1-1.25,3.05,4.19,4.19,0,0,1-1.39.93,4.47,4.47,0,0,1-1.65.34Zm0-7.08a2.84,2.84,0,0,0-1.55.46,2.77,2.77,0,0,0-1,1.24,2.86,2.86,0,0,0-.17,1.61,2.82,2.82,0,0,0,.76,1.42,2.73,2.73,0,0,0,1.41.77,2.77,2.77,0,0,0,1.61-.15,2.82,2.82,0,0,0,1.25-1,2.71,2.71,0,0,0,.47-1.54,2.59,2.59,0,0,0-.19-1.06,2.72,2.72,0,0,0-.58-.91,2.76,2.76,0,0,0-.9-.61,2.92,2.92,0,0,0-1.06-.23Z"/><path class="cls-1" d="M612,34.5a2,2,0,1,0-2-2A2,2,0,0,0,612,34.5Z"/><path class="cls-1" d="M617.59,30.09a3,3,0,0,1-1.71-.52,3.08,3.08,0,0,1-.47-4.75A3,3,0,0,1,617,24a3.09,3.09,0,0,1,1.78.17,3.21,3.21,0,0,1,1.39,1.14,3,3,0,0,1,.52,1.71,3.11,3.11,0,0,1-3.09,3.09Zm0-4.63a1.55,1.55,0,0,0-.86.26,1.51,1.51,0,0,0-.65,1.58,1.53,1.53,0,0,0,1.21,1.21,1.5,1.5,0,0,0,.89-.08,1.6,1.6,0,0,0,.69-.57,1.58,1.58,0,0,0,.26-.86,1.54,1.54,0,0,0-1.54-1.54Z"/><path class="cls-1" d="M667.63,95.12A32.78,32.78,0,0,0,627,76.75l1.55,4.44a28,28,0,0,1,36.66,22.16,30.36,30.36,0,0,0-6.55-2.95,15.36,15.36,0,0,0-1.54-.42,21.26,21.26,0,0,0-34.79-7.14,22.92,22.92,0,0,0-1.54,1.73V55.36h5.56V50.73H616.12v58a37.14,37.14,0,0,1-6.86-4.75V50.67H596.81v4.62h7.71v52.56a32.83,32.83,0,1,0,63.11-12.73Zm-13.58,12.79a16.57,16.57,0,0,1-31.76,6.56,18.8,18.8,0,0,0,3,.27h.21a18.12,18.12,0,0,0,13.3-6.06,17.42,17.42,0,0,1,14.44-6,16.19,16.19,0,0,1,.83,5.21Zm-33.15,0a16.56,16.56,0,0,1,30.69-8.56,20.82,20.82,0,0,0-15.32,7.06,14.64,14.64,0,0,1-11,5,16.42,16.42,0,0,1-4.18-.6,16.77,16.77,0,0,1-.26-2.92Zm16.5,28.2a28.16,28.16,0,0,1-28.09-27.58c.4.31.8.62,1.25.91a32.37,32.37,0,0,0,6.17,3.5,21.25,21.25,0,0,0,41.92-5,21.63,21.63,0,0,0-.37-4,28.71,28.71,0,0,1,7.22,3.77V108a28.15,28.15,0,0,1-28.07,28.14Z"/><path class="cls-1" d="M510.07,126.42v14.32H468.13v-4.21h37.69v-5.77H468.13v-66H483v55.91h-4.26V69h-6.37v57.41Z"/><path class="cls-1" d="M597.52,140.74H582l-6.9-18.91H538.81l-5.38,14.7h6.43l3.25-8.87h4.63L543,140.78H527.39l8.43-23.14h42.34l6.8,18.89h6.48L566.91,69.07H558l-14,38.56h26L562.47,87,557,101.85h-4.52l10-27.32,13.58,37.38h-38l17-47.16h14.9Z"/><path class="cls-1" d="M732.73,118.8c0,14.44-11.34,21.94-27.06,21.94a51.87,51.87,0,0,1-25.85-6.9l5-13.5c6.79,3.6,14.08,6.36,20.81,6.36,8,0,12.5-2.38,12.5-7.94,0-9.57-6.39-12.16-12.7-15.57s-12.34-6.94-12.34-16.67c0-6.41,4.35-12.47,15.43-12.47a37.57,37.57,0,0,1,14.87,3.29l2.06-5.71c-4.41-2-7.87-3.22-17-3.22-11.81,0-21.59,6.16-21.59,18.17,0,10.79,6,17.06,13.67,20.53L699.16,111c-10.5-4.76-16.4-13-16.4-24.46,0-14.79,12-22.31,25.72-22.31,11.54,0,15.95,2.11,22.18,5.25L725.72,83a37.11,37.11,0,0,0-17.2-4.62c-7.38,0-11.19,3.08-11.19,8.28,0,7.71,4.79,10.12,10.21,13,6.89,3.61,14.77,7.33,14.77,19.13,0,4.52-2.14,12.11-16.65,12.11a44.52,44.52,0,0,1-18.51-4.76L685,131.85a45.53,45.53,0,0,0,20.67,4.67c7,0,12.89-1.63,16.89-4.62a15.53,15.53,0,0,0,6-13.13c0-11.21-5.25-18.65-17.2-23.56l1.4-3.94C725.69,96.57,732.73,105.1,732.73,118.8Z"/><path class="cls-1" d="M31.1,199.13l1-1.55a13.92,13.92,0,0,0,9.68,3.69c5.85,0,8.46-2.55,8.46-5.74,0-8.79-18.3-3.52-18.3-14.33,0-4.15,3.18-7.81,10.38-7.81A15.76,15.76,0,0,1,51.11,176l-.8,1.71a14.56,14.56,0,0,0-8-2.47c-5.67,0-8.23,2.62-8.23,5.88,0,8.79,18.29,3.61,18.29,14.24,0,4.14-3.31,7.71-10.5,7.71A15.29,15.29,0,0,1,31.1,199.13Z"/><path class="cls-1" d="M60.67,191.92a10.92,10.92,0,1,1,10.94,11.14,10.82,10.82,0,0,1-4.1-.69,10.63,10.63,0,0,1-6.85-9.65C60.66,192.46,60.66,192.18,60.67,191.92Zm19.7,0a8.8,8.8,0,0,0-5.74-7.81,8.82,8.82,0,0,0-9.44,2.19,8.82,8.82,0,0,0,1.53,13.42,9,9,0,0,0,4.84,1.46,8.81,8.81,0,0,0,3.51-.67,8.64,8.64,0,0,0,2.94-2,8.84,8.84,0,0,0,1.87-3A8.65,8.65,0,0,0,80.37,191.92Z"/><path class="cls-1" d="M95.67,177.81V181h7v1.82h-7v20.06H93.62V182.8H89.55V181h4.07v-3.35a5.43,5.43,0,0,1,.22-2.16,5.5,5.5,0,0,1,1-1.92,5.6,5.6,0,0,1,3.76-2,4.61,4.61,0,0,1,1.05,0,6.47,6.47,0,0,1,4.31,1.55l-.84,1.54a5,5,0,0,0-3.39-1.21C97.05,173.41,95.67,174.9,95.67,177.81Z"/><path class="cls-1" d="M121.94,201.49a6.55,6.55,0,0,1-4.47,1.54,5.44,5.44,0,0,1-4.38-1.56,5.33,5.33,0,0,1-1.27-2,5.46,5.46,0,0,1-.29-2.37V182.8h-4V181h4v-4.77h2.08V181h7v1.8h-7v14.09c0,2.81,1.31,4.36,4.06,4.36a4.92,4.92,0,0,0,3.39-1.22Z"/><path class="cls-1" d="M162.74,181l-8.28,21.88h-2l-7.36-19-7.41,19H135.8L127.51,181h2l7.29,19.53L144.26,181H146l7.43,19.46L160.83,181Z"/><path class="cls-1" d="M186.89,189v13.88h-2v-3.93A8.4,8.4,0,0,1,177,203c-4.89,0-7.87-2.53-7.87-6.18,0-3.31,2.1-6.16,8.16-6.16h7.51V188.9c0-4.08-2.22-6.25-6.57-6.25a11.21,11.21,0,0,0-7.51,2.78l-1.05-1.55a13.3,13.3,0,0,1,8.75-3.08C183.86,180.82,186.89,183.59,186.89,189Zm-2.09,7.43v-4.1h-7.46c-4.51,0-6.17,1.88-6.17,4.39,0,2.85,2.22,4.63,6.06,4.63a7.49,7.49,0,0,0,7.57-4.92Z"/><path class="cls-1" d="M210,180.81v2h-.54c-4.84,0-7.71,3.24-7.71,8.64v11.42h-2.08V181h2.08v4.78C203,182.57,205.92,180.81,210,180.81Z"/><path class="cls-1" d="M238.24,192.43H219.43a9.46,9.46,0,0,0,1.9,5,9.37,9.37,0,0,0,14.38.61l1.22,1.31a10.56,10.56,0,0,1-8.18,3.66,10.8,10.8,0,0,1-11.26-10.2V192c0-6.55,4.49-11.11,10.51-11.11s10.42,4.54,10.42,11A1,1,0,0,0,238.24,192.43Zm-18.71-1.64h16.75a8.38,8.38,0,1,0-16.75,0Z"/><path class="cls-1" d="M279.66,189v13.89h-2v-3.94a8.44,8.44,0,0,1-3.36,3.16,8.34,8.34,0,0,1-4.52.91c-4.89,0-7.88-2.53-7.88-6.17,0-3.31,2.09-6.16,8.17-6.16h7.48V188.9c0-4.08-2.22-6.25-6.49-6.25a11.33,11.33,0,0,0-7.53,2.78l-1-1.55a13.18,13.18,0,0,1,8.73-3.08C276.63,180.81,279.66,183.59,279.66,189Zm-2.1,7.42v-4.1h-7.45c-4.52,0-6.17,1.88-6.17,4.4,0,2.85,2.2,4.62,6.07,4.62a7.48,7.48,0,0,0,7.55-4.9Z"/><path class="cls-1" d="M302.78,180.81v2h-.49c-4.86,0-7.72,3.24-7.72,8.64v11.42h-2.08V181h2v4.78C295.87,182.57,298.69,180.81,302.78,180.81Z"/><path class="cls-1" d="M324.56,201.49a6.6,6.6,0,0,1-4.49,1.54,5.47,5.47,0,0,1-4.38-1.56,5.44,5.44,0,0,1-1.56-4.38V182.8h-4V181h4v-4.77h2.09V181h7v1.8h-6.94v14.09c0,2.81,1.31,4.36,4.06,4.36a5,5,0,0,0,3.41-1.22Z"/><path class="cls-1" d="M333.91,174a1.71,1.71,0,0,1,1.73-1.72,1.66,1.66,0,0,1,.93.3,1.7,1.7,0,0,1,.61.76,1.79,1.79,0,0,1,.09,1,1.74,1.74,0,0,1-1.33,1.33,1.79,1.79,0,0,1-1-.09,1.75,1.75,0,0,1-.76-.61A1.67,1.67,0,0,1,333.91,174Zm.68,7h2.08v21.88h-2.08Z"/><path class="cls-1" d="M346.47,200.22l.95-1.68a12.69,12.69,0,0,0,7.88,2.64c4.63,0,6.45-1.64,6.45-4.11,0-6.38-14.45-1.68-14.45-10.27,0-3.32,2.76-6,8.28-6a13.54,13.54,0,0,1,7.5,2.13l-1,1.67a11.27,11.27,0,0,0-6.56-2c-4.27,0-6.17,1.76-6.17,4.1,0,6.57,14.44,1.93,14.44,10.27,0,3.57-3.09,6-8.62,6A13.66,13.66,0,0,1,346.47,200.22Z"/><path class="cls-1" d="M384.71,201.49a6.6,6.6,0,0,1-4.48,1.54,5.4,5.4,0,0,1-4.37-1.57,5.32,5.32,0,0,1-1.28-2,5.42,5.42,0,0,1-.29-2.36V182.8h-4V181h4v-4.77h2.1V181h6.94v1.8h-6.94v14.09c0,2.81,1.31,4.36,4.06,4.36a5,5,0,0,0,3.38-1.22Z"/><path class="cls-1" d="M405,180.81v2h-.5c-4.86,0-7.71,3.24-7.71,8.64v11.42h-2.08V181h2v4.78C398.08,182.57,401,180.81,405,180.81Z"/><path class="cls-1" d="M433.52,181l-11.16,24.87c-1.74,4-3.95,5.24-6.82,5.24a6.89,6.89,0,0,1-2.73-.47,7,7,0,0,1-2.33-1.5l1-1.54a5.31,5.31,0,0,0,4.06,1.72c2,0,3.47-.94,4.81-3.94l1.17-2.63-9.84-21.79H414l8.75,19.57,8.75-19.57Z"/><path class="cls-1" d="M473,189v13.88h-2v-3.93a8.42,8.42,0,0,1-7.86,4.07c-4.91,0-7.89-2.53-7.89-6.17,0-3.32,2.08-6.17,8.16-6.17h7.5V188.9c0-4.08-2.22-6.25-6.49-6.25a11.25,11.25,0,0,0-7.53,2.78l-1.05-1.55a13.25,13.25,0,0,1,8.73-3.08C470,180.82,473,183.59,473,189Zm-2.09,7.42v-4.11h-7.46c-4.52,0-6.16,1.88-6.16,4.4,0,2.85,2.21,4.62,6.06,4.62a7.47,7.47,0,0,0,7.56-4.9Z"/><path class="cls-1" d="M496.64,201.49a6.6,6.6,0,0,1-4.48,1.54,5.4,5.4,0,0,1-2.36-.29,5.32,5.32,0,0,1-2-1.28,5.4,5.4,0,0,1-1.57-4.37V182.8h-4V181h4v-4.77h2.1V181h6.9v1.8h-6.94v14.09c0,2.81,1.38,4.36,4.05,4.36a5,5,0,0,0,3.39-1.22Z"/><path class="cls-1" d="M520.9,174a1.72,1.72,0,0,1,1.73-1.72,1.66,1.66,0,0,1,.93.3,1.63,1.63,0,0,1,.61.76,1.7,1.7,0,0,1,.09,1,1.72,1.72,0,0,1-.46.86,1.74,1.74,0,0,1-.86.47,1.82,1.82,0,0,1-1-.09A1.7,1.7,0,0,1,520.9,174Zm.68,7h2.1v21.88h-2.1Z"/><path class="cls-1" d="M547.51,201.49A6.57,6.57,0,0,1,543,203a5.4,5.4,0,0,1-4.38-1.57,5.3,5.3,0,0,1-1.27-2,5.42,5.42,0,0,1-.29-2.36V182.8h-4V181h4v-4.77h2.1V181h6.94v1.8H539.2v14.09c0,2.81,1.37,4.36,4,4.36a4.94,4.94,0,0,0,3.38-1.22Z"/><path class="cls-1" d="M554.3,200.22l1-1.68a12.67,12.67,0,0,0,7.88,2.64c4.63,0,6.45-1.64,6.45-4.11,0-6.38-14.44-1.68-14.44-10.27,0-3.32,2.75-6,8.28-6a13.52,13.52,0,0,1,7.5,2.13l-1,1.67a11.3,11.3,0,0,0-6.57-2c-4.26,0-6.17,1.76-6.17,4.1,0,6.57,14.44,1.93,14.44,10.27,0,3.57-3.09,6-8.61,6A13.88,13.88,0,0,1,554.3,200.22Z"/><path class="cls-1" d="M603.12,171.56a6.61,6.61,0,0,1,4.32,1.4l-.85,1.55a5,5,0,0,0-3.38-1.21c-2.73,0-4.1,1.54-4.1,4.4v3.19h7v1.91h-6.94v20.06h-2.1V182.8h-4V181h4v-3.35a5.63,5.63,0,0,1,.21-2.16,5.69,5.69,0,0,1,1-1.92,5.6,5.6,0,0,1,3.76-2A3.69,3.69,0,0,1,603.12,171.56Zm13.36,2.33a1.77,1.77,0,0,1-1.06,1.61,1.81,1.81,0,0,1-1,.1,1.73,1.73,0,0,1-1.36-1.37,1.64,1.64,0,0,1,.1-1,1.78,1.78,0,0,1,.64-.77,1.67,1.67,0,0,1,1-.28,1.54,1.54,0,0,1,.64.11,1.57,1.57,0,0,1,.55.35,1.83,1.83,0,0,1,.38.54,1.8,1.8,0,0,1,.14.64Zm-2.78,7.05h2.12v21.92h-2.18Z"/><path class="cls-1" d="M648.35,190.07v12.79h-2.09V190.24c0-4.94-2.62-7.53-7.07-7.53-5.14,0-8.29,3.3-8.29,8.5v11.65h-2.08V181h2v4.74a9,9,0,0,1,8.65-4.9C644.8,180.82,648.35,184,648.35,190.07Z"/><path class="cls-1" d="M679.65,192.43H660.86a9.37,9.37,0,0,0,6.26,8.18,9.33,9.33,0,0,0,10-2.52l1.22,1.31a10.51,10.51,0,0,1-8.25,3.57,10.82,10.82,0,0,1-11.25-10.19v-.92c0-6.56,4.48-11.11,10.51-11.11s10.4,4.53,10.4,11A5.31,5.31,0,0,0,679.65,192.43Zm-18.75-1.64h16.8a8.37,8.37,0,0,0-16.73,0Z"/><path class="cls-1" d="M687.13,200.22l1-1.68a12.81,12.81,0,0,0,7.88,2.64c4.63,0,6.45-1.64,6.45-4.11,0-6.38-14.44-1.68-14.44-10.27,0-3.32,2.76-6,8.29-6a13.51,13.51,0,0,1,7.49,2.13l-1,1.67a11.3,11.3,0,0,0-6.57-2c-4.26,0-6.17,1.76-6.17,4.1,0,6.57,14.44,1.93,14.44,10.27,0,3.57-3.09,6-8.61,6A13.9,13.9,0,0,1,687.13,200.22Z"/><path class="cls-1" d="M725.4,201.49a6.6,6.6,0,0,1-4.5,1.54,5.46,5.46,0,0,1-2.37-.29,5.36,5.36,0,0,1-2-1.28,5.18,5.18,0,0,1-1.27-2,5.42,5.42,0,0,1-.29-2.36V182.8h-4V181h4v-4.77h2.13V181H724v1.8H717.1v14.09c0,2.81,1.31,4.36,4.06,4.36a5,5,0,0,0,3.39-1.22Z"/><path class="cls-2" d="M40,82.27H29.88c-6.09,0-9.25-2.62-9.25-7.57,0-5.25,3.08-7.71,9.25-7.71h38c5.87,0,9,2.49,9,7.71,0,5-3.09,7.57-9,7.57H57.66v51.17c0,5.46-2.87,8.14-8.64,8.14-6.07,0-9.07-2.68-9.07-8.14Z"/><path class="cls-2" d="M130.61,128H102.38c-1.11,2.5-2,4.89-3,7.2a9.34,9.34,0,0,1-3.64,4.75A9.45,9.45,0,0,1,90,141.48c-6,0-8.41-3.66-8.41-7.58a10.09,10.09,0,0,1,.67-3.16l23.24-56.95A10.8,10.8,0,0,1,116.28,67,10.79,10.79,0,0,1,127,73.79C151.48,131.7,151.68,133,151.68,134c0,4.32-3.08,7.48-8.62,7.48-4.2,0-7.1-1.74-8.51-4.91Zm-22.37-15.43H124c-3.09-7.57-3.78-8.8-7.71-19Z"/><path class="cls-2" d="M165.8,74.56c0-5.26,3-7.71,8.85-7.71s9,2.5,9,7.71v59.08c0,5.24-3,7.71-9,7.71s-8.85-2.48-8.85-7.71Z"/><path class="cls-2" d="M200.34,74.56c0-5.26,3-7.71,8.73-7.71,6.17,0,9,2.5,9,7.71v51.57h27.76c6.1,0,9,2.62,9,7.57,0,5.25-2.86,7.71-9,7.71H210.52c-6.87,0-10.18-3.27-10.18-9.5Z"/><path class="cls-2" d="M267.3,74.56c0-5.26,3-7.71,8.75-7.71,6.09,0,9,2.5,9,7.71v51.57h27.77c6.07,0,9,2.62,9,7.57,0,5.25-2.89,7.71-9,7.71H277.36c-6.85,0-10.17-3.27-10.17-9.5Z"/><path class="cls-2" d="M333,74.56c0-5.26,3-7.71,8.86-7.71s9,2.5,9,7.71v59.08c0,5.24-3,7.71-9,7.71s-8.86-2.48-8.86-7.71Z"/><path class="cls-2" d="M394.25,80.7c-4.55,0-7.42,1.31-7.42,5.46,0,4.63,6.75,6.17,13.63,9,13.39,5.66,22.9,10.93,22.9,22.71,0,15.53-13.12,24.67-30.2,24.67a40.87,40.87,0,0,1-20.47-5.26c-3.44-1.91-5.11-4.41-5.11-7.57,0-5.07,2.89-7.37,8.64-7.37a14.55,14.55,0,0,1,6.57,1.54,22.66,22.66,0,0,0,10.42,2.64c6.07,0,11.4-2.79,11.4-8.25,0-3.26-3-5.46-11.82-9-11.2-4.37-24.42-9.77-24.42-22.77,0-10.8,10.4-21.75,26.12-21.75a35.1,35.1,0,0,1,19.25,5.55c3.22,2,5,4.51,5,7.49a8.58,8.58,0,0,1-8.74,8,11.56,11.56,0,0,1-7-2.38A15.37,15.37,0,0,0,394.25,80.7Z"/></svg>