<svg xmlns="http://www.w3.org/2000/svg" width="45" height="45" viewBox="0 0 45 45">
  <g id="Group_34912" data-name="Group 34912" transform="translate(54 577)">
    <rect id="Rectangle_18347" data-name="Rectangle 18347" width="45" height="45" rx="22.5" transform="translate(-54 -577)" fill="#fff"/>
    <g id="Group_34911" data-name="Group 34911" transform="translate(-40.285 -571)">
      <path id="Path_1" data-name="Path 1" d="M616.713,39.947a1.3,1.3,0,1,0-1.3-1.3A1.3,1.3,0,0,0,616.713,39.947Z" transform="translate(-610.128 -33.535)" fill="#263b58"/>
      <path id="Path_2" data-name="Path 2" d="M601.589,26.188a.829.829,0,1,0-.829-.829A.829.829,0,0,0,601.589,26.188Z" transform="translate(-599.638 -24.362)" fill="#263b58"/>
      <path id="Path_3" data-name="Path 3" d="M602.551,38.013a1.227,1.227,0,1,1,.46-2.36,1.2,1.2,0,0,1,.551.449,1.224,1.224,0,0,1-.145,1.548,1.191,1.191,0,0,1-.395.264,1.269,1.269,0,0,1-.469.1Zm0-2.01a.806.806,0,0,0-.44.131.786.786,0,0,0-.284.352.813.813,0,0,0-.048.457.8.8,0,0,0,.216.4.775.775,0,0,0,.4.219.787.787,0,0,0,.457-.043.8.8,0,0,0,.355-.284.769.769,0,0,0,.133-.437.732.732,0,0,0-.054-.3.772.772,0,0,0-.165-.258.785.785,0,0,0-.256-.173.829.829,0,0,0-.3-.065Z" transform="translate(-600.035 -32.26)" fill="#263b58"/>
      <path id="Path_4" data-name="Path 4" d="M610.568,31.636a.568.568,0,1,0-.568-.568A.568.568,0,0,0,610.568,31.636Z" transform="translate(-606.254 -28.637)" fill="#263b58"/>
      <path id="Path_5" data-name="Path 5" d="M615.379,25.686a.852.852,0,0,1-.486-.148.875.875,0,0,1-.133-1.349.851.851,0,0,1,.451-.233.877.877,0,0,1,.505.048.911.911,0,0,1,.395.324.852.852,0,0,1,.148.486.883.883,0,0,1-.877.877Zm0-1.315a.44.44,0,0,0-.244.074.429.429,0,0,0-.185.449.434.434,0,0,0,.344.344.426.426,0,0,0,.253-.023.454.454,0,0,0,.2-.162.449.449,0,0,0,.074-.244A.437.437,0,0,0,615.379,24.371Z" transform="translate(-609.479 -23.939)" fill="#263b58"/>
      <path id="Path_6" data-name="Path 6" d="M616.92,63.292a9.308,9.308,0,0,0-11.537-5.216l.44,1.261a7.951,7.951,0,0,1,10.41,6.293,8.62,8.62,0,0,0-1.86-.838,4.357,4.357,0,0,0-.437-.119,6.037,6.037,0,0,0-9.879-2.027,6.481,6.481,0,0,0-.437.491V52H605.2V50.687h-2.9v16.47a10.548,10.548,0,0,1-1.948-1.349V50.67H596.81v1.312H599V66.907a9.322,9.322,0,1,0,17.921-3.615Zm-3.856,3.632a4.705,4.705,0,0,1-9.018,1.863,5.341,5.341,0,0,0,.852.077h.06a5.146,5.146,0,0,0,3.777-1.721,4.946,4.946,0,0,1,4.1-1.7,4.6,4.6,0,0,1,.236,1.479Zm-9.413,0a4.7,4.7,0,0,1,8.715-2.431,5.912,5.912,0,0,0-4.35,2,4.157,4.157,0,0,1-3.124,1.42,4.662,4.662,0,0,1-1.187-.17,4.751,4.751,0,0,1-.074-.829Zm4.685,8.008a8,8,0,0,1-7.976-7.832c.114.088.227.176.355.258a9.19,9.19,0,0,0,1.752.994,6.034,6.034,0,0,0,11.9-1.42,6.134,6.134,0,0,0-.105-1.136,8.151,8.151,0,0,1,2.05,1.071v.082a7.993,7.993,0,0,1-7.971,7.991Z" transform="translate(-596.81 -43.08)" fill="#263b58"/>
    </g>
  </g>
</svg>
