<svg xmlns="http://www.w3.org/2000/svg" width="1879.11" height="204.896" viewBox="0 0 1879.11 204.896">
  <g id="CONTACT_US" data-name="CONTACT US" transform="translate(-844.614 676.681)" style="isolation: isolate">
    <g id="Group_34926" data-name="Group 34926" style="isolation: isolate">
      <path id="Path_38887" data-name="Path 38887" d="M946.214-471.785c-58.3,0-101.6-45-101.6-101.882v-.566c0-56.318,42.451-102.448,103.3-102.448,37.357,0,59.714,12.452,78.109,30.565l-27.734,31.979c-15.282-13.867-30.848-22.357-50.658-22.357-33.4,0-57.45,27.735-57.45,61.7v.566c0,33.961,23.49,62.261,57.45,62.261,22.641,0,36.508-9.056,52.073-23.206l27.735,28.017C1007.061-485.37,984.42-471.785,946.214-471.785Z" fill="#1d1f26"/>
      <path id="Path_38888" data-name="Path 38888" d="M1152.805-471.785c-61.129,0-104.995-45.564-104.995-101.882v-.566c0-56.318,44.431-102.448,105.56-102.448s104.995,45.564,104.995,101.882v.566C1258.365-517.915,1213.934-471.785,1152.805-471.785Zm60-102.448c0-33.96-24.905-62.261-60-62.261s-59.431,27.735-59.431,61.7v.566c0,33.961,24.9,62.261,60,62.261s59.432-27.735,59.432-61.7Z" fill="#1d1f26"/>
      <path id="Path_38889" data-name="Path 38889" d="M1436.086-475.181l-95.939-125.937v125.937h-43.016v-198.1h40.186L1430.143-551.3v-121.98h43.017v198.1Z" fill="#1d1f26"/>
      <path id="Path_38890" data-name="Path 38890" d="M1610.412-633.1v157.917h-43.583V-633.1h-60.28v-40.187h164.142V-633.1Z" fill="#1d1f26"/>
      <path id="Path_38891" data-name="Path 38891" d="M1826.058-475.181l-18.113-44.432h-83.769l-18.113,44.432h-44.431l84.9-199.519h40.187l84.9,199.519Zm-60-147.163-26.32,64.243h52.639Z" fill="#1d1f26"/>
      <path id="Path_38892" data-name="Path 38892" d="M1982.271-471.785c-58.3,0-101.6-45-101.6-101.882v-.566c0-56.318,42.451-102.448,103.3-102.448,37.356,0,59.714,12.452,78.109,30.565l-27.734,31.979c-15.282-13.867-30.848-22.357-50.658-22.357-33.4,0-57.45,27.735-57.45,61.7v.566c0,33.961,23.49,62.261,57.45,62.261,22.64,0,36.507-9.056,52.073-23.206l27.734,28.017C2043.118-485.37,2020.478-471.785,1982.271-471.785Z" fill="#1d1f26"/>
      <path id="Path_38893" data-name="Path 38893" d="M2188.011-633.1v157.917h-43.583V-633.1h-60.281v-40.187H2248.29V-633.1Z" fill="#1d1f26"/>
      <path id="Path_38894" data-name="Path 38894" d="M2449.214-472.068c-53.205,0-85.751-29.716-85.751-88.015v-113.2h43.583v112.071c0,32.262,16.131,48.96,42.733,48.96s42.735-16.132,42.735-47.545V-673.285H2536.1V-561.5C2536.1-501.5,2502.418-472.068,2449.214-472.068Z" fill="#1d1f26"/>
      <path id="Path_38895" data-name="Path 38895" d="M2650.991-472.351a126.07,126.07,0,0,1-84.052-31.7l25.753-30.848c17.829,14.716,36.508,24.056,59.149,24.056,17.829,0,28.583-7.076,28.583-18.679v-.566c0-11.038-6.792-16.7-39.9-25.188-39.9-10.187-65.658-21.225-65.658-60.562v-.566c0-35.942,28.866-59.715,69.336-59.715,28.867,0,53.489,9.056,73.581,25.188L2695.141-618.1c-17.547-12.169-34.81-19.527-51.507-19.527s-25.471,7.641-25.471,17.263v.567c0,13.018,8.49,17.263,42.733,26.036,40.187,10.471,62.828,24.9,62.828,59.43v.567C2723.724-494.425,2693.726-472.351,2650.991-472.351Z" fill="#1d1f26"/>
    </g>
  </g>
</svg>
