<svg width="95" height="90" viewBox="0 0 95 90" fill="none" xmlns="http://www.w3.org/2000/svg">
<path d="M76.2274 89.4686C79.8241 89.4686 83.3399 88.402 86.3305 86.4037C89.321 84.4053 91.6519 81.565 93.0283 78.2418C94.4047 74.9187 94.765 71.262 94.0633 67.7342C93.3616 64.2063 91.6295 60.9658 89.0862 58.4224C86.543 55.879 83.3027 54.1469 79.7751 53.4452C76.2475 52.7434 72.591 53.1036 69.2681 54.4801C65.9452 55.8566 63.105 58.1876 61.1068 61.1783C59.1086 64.1691 58.042 67.6852 58.042 71.2822C58.042 76.1055 59.9581 80.7313 63.3685 84.142C66.7789 87.5526 71.4043 89.4686 76.2274 89.4686Z" fill="#D94427"/>
<path d="M11.5688 25.4791C13.8569 25.4791 16.0935 24.8005 17.996 23.5292C19.8985 22.2579 21.3815 20.451 22.2571 18.3369C23.1327 16.2229 23.3617 13.8966 22.9153 11.6523C22.4689 9.40805 21.3671 7.34654 19.7492 5.72851C18.1313 4.11047 16.0698 3.00857 13.8257 2.56216C11.5815 2.11574 9.25551 2.34486 7.14159 3.22053C5.02766 4.09621 3.22097 5.57911 1.94977 7.48172C0.678571 9.38433 0 11.6212 0 13.9095C0 16.9779 1.21876 19.9207 3.38834 22.0904C5.55792 24.2601 8.50053 25.4791 11.5688 25.4791Z" fill="#D94427"/>
<path d="M19.453 80.2762C16.9159 80.2972 14.4059 79.7537 12.1047 78.6853C9.80342 77.6168 7.76864 76.0501 6.14728 74.0985C4.52591 72.1468 3.35852 69.8591 2.72992 67.4009C2.10132 64.9427 2.02705 62.3754 2.51253 59.885C2.998 57.3945 4.03107 55.0431 5.53693 53.0011C7.04279 50.959 8.98373 49.2772 11.2194 48.0775C13.4551 46.8779 15.9295 46.1903 18.4635 46.0645C20.9976 45.9387 23.5279 46.378 25.8713 47.3504C29.006 48.6143 31.6853 50.7966 33.5575 53.6107C35.4636 56.4159 36.4849 59.7283 36.4893 63.1199C36.5013 65.3613 36.0699 67.5829 35.22 69.6569C34.37 71.7309 33.1183 73.6163 31.5369 75.2046C29.9674 76.7905 28.0946 78.0438 26.03 78.8894C23.956 79.7488 21.7374 80.206 19.4927 80.2366L19.453 80.2762ZM19.453 52.2239C17.2727 52.2236 15.1393 52.8568 13.3121 54.0465C11.5389 55.2609 10.1613 56.9693 9.35015 58.9596C8.51597 60.9767 8.28215 63.1919 8.67668 65.3388C9.11212 67.467 10.1585 69.4222 11.6878 70.9651C13.2018 72.5193 15.1481 73.5824 17.274 74.016C19.412 74.4567 21.6329 74.2498 23.6527 73.4216C25.6515 72.607 27.3716 71.2309 28.6051 69.4594C29.8296 67.6611 30.4791 65.5333 30.4673 63.3577C30.5134 61.9204 30.2569 60.4895 29.7145 59.1577C29.197 57.8144 28.4156 56.5885 27.4165 55.5521C26.4 54.518 25.188 53.6964 23.851 53.1352C22.5203 52.5718 21.0956 52.2627 19.6511 52.2239H19.453Z" fill="#D94427"/>
<path d="M44.5323 41.8429C46.0995 41.8429 47.6315 41.3782 48.9345 40.5074C50.2376 39.6367 51.2533 38.399 51.853 36.9511C52.4528 35.5031 52.6095 33.9097 52.3038 32.3726C51.998 30.8354 51.2433 29.4234 50.1352 28.3151C49.027 27.2069 47.6153 26.4522 46.0782 26.1464C44.5411 25.8406 42.9478 25.9976 41.4999 26.5974C40.052 27.1971 38.8144 28.2128 37.9437 29.516C37.073 30.8191 36.6084 32.3512 36.6084 33.9185C36.6084 36.0202 37.4433 38.0358 38.9294 39.5219C40.4154 41.008 42.4307 41.8429 44.5323 41.8429Z" fill="#D94427"/>
<path d="M66.6799 24.3697C64.2647 24.3873 61.9014 23.6686 59.9049 22.3094C58.3962 21.3086 57.1291 19.9847 56.1954 18.4336C55.2617 16.8824 54.6848 15.143 54.5066 13.3412C54.3283 11.5395 54.5532 9.72072 55.1648 8.01667C55.7764 6.31262 56.7593 4.76601 58.0427 3.48897C59.7632 1.79047 61.9609 0.657064 64.3422 0.239976C66.708 -0.235472 69.1616 -0.00113448 71.3946 0.913549C73.623 1.8639 75.5334 3.431 76.9015 5.43045C78.2606 7.42711 78.9793 9.79047 78.9618 12.2058C78.941 15.4465 77.6445 18.5485 75.3531 20.8401C73.0617 23.1316 69.9598 24.4282 66.7193 24.449L66.6799 24.3697ZM66.6799 6.02477C65.4673 6.02423 64.2816 6.38268 63.2724 7.05494C62.2613 7.71632 61.474 8.66838 61.0143 9.78582C60.5547 10.9033 60.4443 12.1337 60.6973 13.3152C60.9278 14.5011 61.5071 15.591 62.3613 16.4452C63.2154 17.2995 64.3053 17.879 65.4911 18.1095C66.6714 18.3645 67.9014 18.2539 69.0173 17.7925C70.1248 17.3151 71.0732 16.5316 71.751 15.534C72.4169 14.5218 72.7748 13.3381 72.7812 12.1266C72.7812 10.5083 72.1384 8.95625 70.9941 7.81194C69.8499 6.66764 68.2981 6.02477 66.6799 6.02477Z" fill="#D94427"/>
</svg>
