<svg width="100" height="100" viewBox="0 0 100 100" fill="none" xmlns="http://www.w3.org/2000/svg">
<path d="M79.0211 93.5642C82.6178 93.5642 86.1336 92.4976 89.1242 90.4992C92.1147 88.5009 94.4456 85.6606 95.822 82.3374C97.1984 79.0143 97.5587 75.3576 96.857 71.8297C96.1553 68.3019 94.4232 65.0614 91.8799 62.518C89.3367 59.9746 86.0964 58.2425 82.5688 57.5407C79.0412 56.839 75.3847 57.1992 72.0618 58.5757C68.7389 59.9521 65.8987 62.2831 63.9005 65.2739C61.9023 68.2646 60.8357 71.7808 60.8357 75.3778C60.8357 80.2011 62.7518 84.8269 66.1622 88.2375C69.5726 91.6482 74.198 93.5642 79.0211 93.5642Z" fill="#D94427"/>
<path d="M14.3625 29.5749C16.6506 29.5749 18.8872 28.8963 20.7897 27.625C22.6922 26.3538 24.1752 24.5468 25.0508 22.4328C25.9264 20.3187 26.1554 17.9924 25.709 15.7482C25.2626 13.5039 24.1608 11.4424 22.5429 9.82433C20.925 8.20629 18.8635 7.1044 16.6194 6.65798C14.3752 6.21157 12.0492 6.44068 9.93529 7.31636C7.82136 8.19203 6.01467 9.67493 4.74347 11.5775C3.47227 13.4802 2.7937 15.717 2.7937 18.0053C2.7937 21.0737 4.01246 24.0165 6.18204 26.1862C8.35162 28.3559 11.2942 29.5749 14.3625 29.5749Z" fill="#D94427"/>
<path d="M48.9239 46.6309C50.4911 46.6309 52.0231 46.1661 53.3261 45.2954C54.6292 44.4246 55.6449 43.187 56.2446 41.739C56.8444 40.291 57.0011 38.6977 56.6954 37.1605C56.3896 35.6233 55.6349 34.2114 54.5268 33.1031C53.4186 31.9949 52.0069 31.2401 50.4698 30.9344C48.9327 30.6286 47.3394 30.7855 45.8915 31.3853C44.4436 31.9851 43.206 33.0008 42.3353 34.3039C41.4646 35.6071 41 37.1392 41 38.7065C41 40.8082 41.8349 42.8238 43.321 44.3099C44.807 45.796 46.8223 46.6309 48.9239 46.6309Z" fill="#D94427"/>
</svg>
