<svg xmlns="http://www.w3.org/2000/svg" width="7.287" height="6.904" viewBox="0 0 7.287 6.904">
  <g id="Group_35812" data-name="Group 35812" transform="translate(745.603 7686)">
    <path id="Path_42615" data-name="Path 42615" d="M616.814,40.147a1.4,1.4,0,1,0-1.4-1.4A1.4,1.4,0,0,0,616.814,40.147Z" transform="translate(-1356.533 -7719.242)" fill="#d94427"/>
    <path id="Path_42616" data-name="Path 42616" d="M601.653,26.316a.893.893,0,1,0-.893-.893A.893.893,0,0,0,601.653,26.316Z" transform="translate(-1346.363 -7710.349)" fill="#d94427"/>
    <path id="Path_42617" data-name="Path 42617" d="M602.646,38.2a1.321,1.321,0,1,1,.5-2.541,1.294,1.294,0,0,1,.593.483,1.318,1.318,0,0,1-.156,1.667,1.281,1.281,0,0,1-.425.284,1.367,1.367,0,0,1-.5.1Zm0-2.165a.869.869,0,0,0-.474.141.848.848,0,0,0-.306.379.875.875,0,0,0-.052.492.862.862,0,0,0,.232.434.835.835,0,0,0,.431.235.847.847,0,0,0,.492-.046.862.862,0,0,0,.382-.306.828.828,0,0,0,.144-.471.79.79,0,0,0-.058-.324.831.831,0,0,0-.177-.278.844.844,0,0,0-.275-.187.893.893,0,0,0-.324-.07Z" transform="translate(-1346.747 -7718.006)" fill="#d94427"/>
    <path id="Path_42618" data-name="Path 42618" d="M610.612,31.723a.612.612,0,1,0-.612-.612A.612.612,0,0,0,610.612,31.723Z" transform="translate(-1352.777 -7714.494)" fill="#d94427"/>
    <path id="Path_42619" data-name="Path 42619" d="M615.447,25.82a.917.917,0,0,1-.523-.159.942.942,0,0,1-.144-1.453.917.917,0,0,1,.486-.251.945.945,0,0,1,.544.052.981.981,0,0,1,.425.349.917.917,0,0,1,.159.523.951.951,0,0,1-.945.945Zm0-1.416a.474.474,0,0,0-.263.08.462.462,0,0,0-.2.483.468.468,0,0,0,.37.37.459.459,0,0,0,.272-.024.489.489,0,0,0,.211-.174.483.483,0,0,0,.079-.263A.471.471,0,0,0,615.447,24.4Z" transform="translate(-1355.903 -7709.939)" fill="#d94427"/>
  </g>
</svg>
