<svg xmlns="http://www.w3.org/2000/svg" width="48.477" height="45.931" viewBox="0 0 48.477 45.931">
  <g id="Group_35812" data-name="Group 35812" transform="translate(745.603 7686)">
    <path id="Path_42615" data-name="Path 42615" d="M624.747,56.014a9.337,9.337,0,1,0-9.337-9.337A9.337,9.337,0,0,0,624.747,56.014Z" transform="translate(-1331.21 -7696.083)" fill="#d94427"/>
    <path id="Path_42616" data-name="Path 42616" d="M606.7,36.41a5.94,5.94,0,1,0-5.939-5.94A5.94,5.94,0,0,0,606.7,36.41Z" transform="translate(-1346.363 -7709.33)" fill="#d94427"/>
    <path id="Path_42617" data-name="Path 42617" d="M610.175,53.136a8.788,8.788,0,1,1,3.3-16.9,8.6,8.6,0,0,1,3.946,3.214,8.768,8.768,0,0,1-1.037,11.087,8.525,8.525,0,0,1-2.827,1.892,9.1,9.1,0,0,1-3.357.692Zm0-14.4a5.777,5.777,0,0,0-3.153.936,5.64,5.64,0,0,0-2.034,2.522,5.824,5.824,0,0,0-.345,3.275,5.736,5.736,0,0,0,1.546,2.889,5.554,5.554,0,0,0,2.869,1.566,5.634,5.634,0,0,0,3.275-.305,5.735,5.735,0,0,0,2.543-2.034,5.508,5.508,0,0,0,.956-3.133,5.255,5.255,0,0,0-.387-2.156,5.527,5.527,0,0,0-1.18-1.851,5.617,5.617,0,0,0-1.83-1.241,5.944,5.944,0,0,0-2.157-.468Z" transform="translate(-1345.788 -7697.922)" fill="#d94427"/>
    <path id="Path_42618" data-name="Path 42618" d="M614.068,38.637A4.068,4.068,0,1,0,610,34.568,4.068,4.068,0,0,0,614.068,38.637Z" transform="translate(-1336.805 -7703.156)" fill="#d94427"/>
    <path id="Path_42619" data-name="Path 42619" d="M620.783,36.451a6.1,6.1,0,0,1-3.479-1.058,6.266,6.266,0,0,1-.956-9.663,6.1,6.1,0,0,1,3.234-1.668,6.285,6.285,0,0,1,3.621.346,6.524,6.524,0,0,1,2.828,2.319,6.1,6.1,0,0,1,1.058,3.479,6.326,6.326,0,0,1-6.286,6.286Zm0-9.419a3.153,3.153,0,0,0-1.749.529,3.07,3.07,0,0,0-1.322,3.214,3.112,3.112,0,0,0,2.461,2.461,3.053,3.053,0,0,0,1.811-.163,3.256,3.256,0,0,0,1.4-1.16,3.212,3.212,0,0,0,.529-1.749A3.133,3.133,0,0,0,620.783,27.033Z" transform="translate(-1332.151 -7709.939)" fill="#d94427"/>
  </g>
</svg>
