<svg xmlns="http://www.w3.org/2000/svg" width="217.449" height="57.156" viewBox="0 0 217.449 57.156">
  <g id="logo1" transform="translate(0 0)">
    <g id="Group_31764" data-name="Group 31764" transform="translate(175.944)">
      <path id="Path_1" data-name="Path 1" d="M616.812,40.143a1.4,1.4,0,1,0-1.4-1.4A1.4,1.4,0,0,0,616.812,40.143Z" transform="translate(-609.73 -33.248)" fill="#fff"/>
      <path id="Path_2" data-name="Path 2" d="M601.652,26.313a.892.892,0,1,0-.892-.892A.892.892,0,0,0,601.652,26.313Z" transform="translate(-599.554 -24.35)" fill="#fff"/>
      <path id="Path_3" data-name="Path 3" d="M602.644,38.2a1.319,1.319,0,1,1,.495-2.538,1.291,1.291,0,0,1,.592.482,1.316,1.316,0,0,1-.156,1.664,1.279,1.279,0,0,1-.424.284,1.365,1.365,0,0,1-.5.1Zm0-2.162a.868.868,0,0,0-.473.141.846.846,0,0,0-.305.379.873.873,0,0,0-.052.492.861.861,0,0,0,.232.434.834.834,0,0,0,.431.235.846.846,0,0,0,.492-.046.862.862,0,0,0,.382-.305.828.828,0,0,0,.143-.47.788.788,0,0,0-.058-.324.828.828,0,0,0-.177-.278.844.844,0,0,0-.275-.186.892.892,0,0,0-.324-.07Z" transform="translate(-599.939 -32.012)" fill="#fff"/>
      <path id="Path_4" data-name="Path 4" d="M610.611,31.721a.611.611,0,1,0-.611-.611A.611.611,0,0,0,610.611,31.721Z" transform="translate(-605.972 -28.497)" fill="#fff"/>
      <path id="Path_5" data-name="Path 5" d="M615.445,25.818a.916.916,0,0,1-.522-.159.94.94,0,0,1-.143-1.45.916.916,0,0,1,.485-.25.944.944,0,0,1,.544.052.98.98,0,0,1,.424.348.917.917,0,0,1,.159.522.95.95,0,0,1-.944.944Zm0-1.414a.474.474,0,0,0-.263.079.461.461,0,0,0-.2.482.467.467,0,0,0,.37.369.458.458,0,0,0,.272-.024.488.488,0,0,0,.211-.174.483.483,0,0,0,.079-.263A.47.47,0,0,0,615.445,24.4Z" transform="translate(-609.1 -23.939)" fill="#fff"/>
      <path id="Path_6" data-name="Path 6" d="M618.436,64.243a10.01,10.01,0,0,0-12.407-5.61l.473,1.356A8.55,8.55,0,0,1,617.7,66.757a9.271,9.271,0,0,0-2-.9,4.684,4.684,0,0,0-.47-.128,6.492,6.492,0,0,0-10.624-2.18,7.018,7.018,0,0,0-.47.528V52.1h1.7V50.688h-3.124V68.4a11.344,11.344,0,0,1-2.095-1.45V50.67h-3.8v1.411h2.354v16.05a10.025,10.025,0,1,0,19.271-3.887Zm-4.147,3.906a5.06,5.06,0,0,1-9.7,2,5.746,5.746,0,0,0,.916.082h.064a5.533,5.533,0,0,0,4.061-1.851,5.319,5.319,0,0,1,4.409-1.832,4.945,4.945,0,0,1,.253,1.591Zm-10.123,0a5.057,5.057,0,0,1,9.372-2.614,6.358,6.358,0,0,0-4.678,2.156,4.471,4.471,0,0,1-3.359,1.527,5.014,5.014,0,0,1-1.276-.183,5.1,5.1,0,0,1-.079-.892ZM609.2,76.76a8.6,8.6,0,0,1-8.578-8.422c.122.095.244.189.382.278a9.88,9.88,0,0,0,1.884,1.069,6.489,6.489,0,0,0,12.8-1.527,6.6,6.6,0,0,0-.113-1.221,8.766,8.766,0,0,1,2.2,1.151v.089a8.6,8.6,0,0,1-8.571,8.593Z" transform="translate(-596.81 -42.507)" fill="#fff"/>
    </g>
    <path id="Path_7" data-name="Path 7" d="M480.937,83.589v4.373H468.13V86.676h11.509V84.914H468.13V64.76h4.541V81.833h-1.3V66.055h-1.945V83.586Z" transform="translate(-331.48 -52.295)" fill="#fff"/>
    <path id="Path_8" data-name="Path 8" d="M548.805,87.955h-4.739l-2.107-5.774H530.877l-1.643,4.489H531.2l.992-2.709H533.6l-1.447,4.006H527.39l2.574-7.066h12.929l2.077,5.768h1.979l-7.49-20.6h-2.721l-4.275,11.775H540.4l-2.3-6.3-1.67,4.535h-1.38l3.054-8.343,4.147,11.414h-11.6l5.191-14.4h4.55Z" transform="translate(-372.644 -52.288)" fill="#fff"/>
    <path id="Path_9" data-name="Path 9" d="M695.977,80.894c0,4.409-3.463,6.7-8.263,6.7a15.839,15.839,0,0,1-7.894-2.107l1.527-4.122a14.248,14.248,0,0,0,6.355,1.942c2.443,0,3.817-.727,3.817-2.425,0-2.922-1.951-3.713-3.878-4.755s-3.768-2.119-3.768-5.09c0-1.957,1.328-3.808,4.712-3.808a11.473,11.473,0,0,1,4.541,1l.629-1.744a10.524,10.524,0,0,0-5.191-.983c-3.606,0-6.593,1.881-6.593,5.548a6.513,6.513,0,0,0,4.174,6.269l-.418,1.188a7.8,7.8,0,0,1-5.008-7.469c0-4.516,3.664-6.813,7.854-6.813a12.351,12.351,0,0,1,6.773,1.6l-1.508,4.129a11.332,11.332,0,0,0-5.252-1.411c-2.254,0-3.417.941-3.417,2.528,0,2.354,1.463,3.09,3.118,3.97,2.1,1.1,4.51,2.238,4.51,5.842,0,1.38-.653,3.7-5.084,3.7a13.6,13.6,0,0,1-5.652-1.454l-.656,1.744a13.9,13.9,0,0,0,6.312,1.426,8.636,8.636,0,0,0,5.158-1.411,4.742,4.742,0,0,0,1.832-4.009c0-3.423-1.6-5.7-5.252-7.194l.427-1.2C693.827,74.105,695.977,76.71,695.977,80.894Z" transform="translate(-478.527 -51.927)" fill="#fff"/>
    <path id="Path_10" data-name="Path 10" d="M31.1,181.25l.305-.473a4.251,4.251,0,0,0,2.956,1.127c1.786,0,2.583-.779,2.583-1.753,0-2.684-5.588-1.075-5.588-4.376,0-1.267.971-2.385,3.17-2.385a4.812,4.812,0,0,1,2.684.8l-.244.522a4.446,4.446,0,0,0-2.443-.754c-1.731,0-2.513.8-2.513,1.8,0,2.684,5.585,1.1,5.585,4.348,0,1.264-1.011,2.354-3.206,2.354A4.669,4.669,0,0,1,31.1,181.25Z" transform="translate(-27.903 -127.753)" fill="#fff"/>
    <path id="Path_11" data-name="Path 11" d="M60.663,184.487a3.247,3.247,0,1,1,2.089,3.191,3.246,3.246,0,0,1-2.092-2.947C60.66,184.652,60.66,184.567,60.663,184.487Zm6.016,0a2.689,2.689,0,1,0-4.168,2.382,2.748,2.748,0,0,0,1.478.446,2.691,2.691,0,0,0,1.072-.2,2.639,2.639,0,0,0,.9-.611,2.7,2.7,0,0,0,.571-.916A2.641,2.641,0,0,0,66.679,184.487Z" transform="translate(-48.436 -133.192)" fill="#fff"/>
    <path id="Path_12" data-name="Path 12" d="M91.419,173.455v.974h2.138v.556H91.419v6.126h-.626v-6.132H89.55v-.55h1.243v-1.023a1.658,1.658,0,0,1,.067-.66,1.679,1.679,0,0,1,.305-.586,1.71,1.71,0,0,1,1.148-.611,1.407,1.407,0,0,1,.321,0,1.976,1.976,0,0,1,1.316.473l-.257.47a1.527,1.527,0,0,0-1.035-.37C91.84,172.111,91.419,172.566,91.419,173.455Z" transform="translate(-68.504 -126.468)" fill="#fff"/>
    <path id="Path_13" data-name="Path 13" d="M111.93,183.943a2,2,0,0,1-1.365.47,1.661,1.661,0,0,1-1.337-.476,1.628,1.628,0,0,1-.388-.611,1.667,1.667,0,0,1-.089-.724v-4.367H107.53v-.55h1.221V176.23h.635v1.457h2.138v.55h-2.138v4.3c0,.858.4,1.331,1.24,1.331a1.5,1.5,0,0,0,1.035-.373Z" transform="translate(-80.994 -129.726)" fill="#fff"/>
    <path id="Path_14" data-name="Path 14" d="M138.268,181l-2.528,6.681h-.611l-2.247-5.8-2.263,5.8h-.577L127.51,181h.611l2.226,5.964L132.625,181h.531l2.269,5.942,2.26-5.942Z" transform="translate(-94.873 -133.039)" fill="#fff"/>
    <path id="Path_15" data-name="Path 15" d="M174.553,183.3v4.238h-.611v-1.2a2.565,2.565,0,0,1-2.409,1.237c-1.493,0-2.4-.773-2.4-1.887,0-1.011.641-1.881,2.492-1.881h2.293v-.537a1.746,1.746,0,0,0-2.006-1.909,3.423,3.423,0,0,0-2.293.849l-.321-.473a4.062,4.062,0,0,1,2.672-.941A2.286,2.286,0,0,1,174.553,183.3Zm-.638,2.269v-1.252h-2.278c-1.377,0-1.884.574-1.884,1.341,0,.87.678,1.414,1.851,1.414A2.287,2.287,0,0,0,173.915,185.571Z" transform="translate(-123.784 -132.899)" fill="#fff"/>
    <path id="Path_16" data-name="Path 16" d="M202.824,180.81v.611h-.165c-1.478,0-2.354.989-2.354,2.638v3.487h-.635v-6.678h.635v1.46A2.477,2.477,0,0,1,202.824,180.81Z" transform="translate(-144.998 -132.908)" fill="#fff"/>
    <path id="Path_17" data-name="Path 17" d="M223.826,184.414h-5.744a2.861,2.861,0,0,0,4.971,1.713l.373.4a3.225,3.225,0,0,1-2.5,1.118,3.3,3.3,0,0,1-3.438-3.115v-.247a3.189,3.189,0,0,1,3.209-3.393,3.155,3.155,0,0,1,3.182,3.359A.306.306,0,0,0,223.826,184.414Zm-5.713-.5h5.115a2.559,2.559,0,1,0-5.115,0Z" transform="translate(-157.376 -132.963)" fill="#fff"/>
    <path id="Path_18" data-name="Path 18" d="M267.323,183.3v4.242h-.611v-1.2a2.577,2.577,0,0,1-1.026.965,2.547,2.547,0,0,1-1.38.278c-1.493,0-2.406-.773-2.406-1.884,0-1.011.638-1.881,2.495-1.881h2.284v-.547a1.738,1.738,0,0,0-1.982-1.909,3.46,3.46,0,0,0-2.3.849l-.305-.473a4.025,4.025,0,0,1,2.666-.941A2.278,2.278,0,0,1,267.323,183.3Zm-.641,2.266v-1.252h-2.275c-1.38,0-1.884.574-1.884,1.344,0,.87.672,1.411,1.854,1.411a2.284,2.284,0,0,0,2.305-1.5Z" transform="translate(-188.225 -132.899)" fill="#fff"/>
    <path id="Path_19" data-name="Path 19" d="M295.632,180.81v.611h-.15c-1.484,0-2.357.989-2.357,2.638v3.487h-.635v-6.678h.611v1.46A2.526,2.526,0,0,1,295.632,180.81Z" transform="translate(-209.474 -132.908)" fill="#fff"/>
    <path id="Path_20" data-name="Path 20" d="M314.536,183.943a2.015,2.015,0,0,1-1.371.47,1.655,1.655,0,0,1-1.814-1.814v-4.364H310.13v-.55h1.221V176.23h.638v1.457h2.138v.55h-2.119v4.3c0,.858.4,1.331,1.24,1.331a1.527,1.527,0,0,0,1.041-.373Z" transform="translate(-221.727 -129.726)" fill="#fff"/>
    <path id="Path_21" data-name="Path 21" d="M333.909,172.805a.522.522,0,0,1,.528-.525.507.507,0,0,1,.284.092.519.519,0,0,1,.186.232.547.547,0,0,1,.027.305.531.531,0,0,1-.406.406.546.546,0,0,1-.305-.027.534.534,0,0,1-.232-.186.51.51,0,0,1-.082-.3Zm.208,2.138h.635v6.681h-.635Z" transform="translate(-238.245 -126.982)" fill="#fff"/>
    <path id="Path_22" data-name="Path 22" d="M346.47,186.729l.29-.513a3.875,3.875,0,0,0,2.406.806c1.414,0,1.97-.5,1.97-1.255,0-1.948-4.412-.513-4.412-3.136,0-1.014.843-1.832,2.528-1.832a4.135,4.135,0,0,1,2.29.65l-.305.51a3.441,3.441,0,0,0-2-.611c-1.3,0-1.884.537-1.884,1.252,0,2.006,4.409.589,4.409,3.136,0,1.09-.944,1.832-2.632,1.832a4.171,4.171,0,0,1-2.657-.84Z" transform="translate(-246.97 -132.899)" fill="#fff"/>
    <path id="Path_23" data-name="Path 23" d="M374.693,183.943a2.015,2.015,0,0,1-1.368.47,1.649,1.649,0,0,1-1.334-.479,1.624,1.624,0,0,1-.391-.611,1.655,1.655,0,0,1-.089-.721v-4.367H370.29v-.55h1.221V176.23h.641v1.457h2.119v.55h-2.119v4.3c0,.858.4,1.331,1.24,1.331a1.527,1.527,0,0,0,1.032-.373Z" transform="translate(-263.517 -129.726)" fill="#fff"/>
    <path id="Path_24" data-name="Path 24" d="M397.852,180.81v.611H397.7c-1.484,0-2.354.989-2.354,2.638v3.487h-.635v-6.678h.611v1.46A2.547,2.547,0,0,1,397.852,180.81Z" transform="translate(-280.48 -132.908)" fill="#fff"/>
    <path id="Path_25" data-name="Path 25" d="M417.516,180.972l-3.408,7.594c-.531,1.221-1.206,1.6-2.083,1.6a2.1,2.1,0,0,1-.834-.144,2.137,2.137,0,0,1-.711-.458l.305-.47a1.622,1.622,0,0,0,1.24.525c.611,0,1.06-.287,1.469-1.2l.357-.8-3-6.654h.708l2.672,5.976,2.672-5.976Z" transform="translate(-291.434 -133.012)" fill="#fff"/>
    <path id="Path_26" data-name="Path 26" d="M460.67,183.3v4.238h-.611v-1.2a2.571,2.571,0,0,1-2.4,1.243c-1.5,0-2.409-.773-2.409-1.884,0-1.014.635-1.884,2.492-1.884h2.29v-.544a1.738,1.738,0,0,0-1.982-1.909,3.435,3.435,0,0,0-2.3.849l-.321-.473a4.046,4.046,0,0,1,2.666-.941A2.278,2.278,0,0,1,460.67,183.3Zm-.638,2.266v-1.255h-2.278c-1.38,0-1.881.574-1.881,1.344,0,.87.675,1.411,1.85,1.411a2.281,2.281,0,0,0,2.309-1.5Z" transform="translate(-322.533 -132.899)" fill="#fff"/>
    <path id="Path_27" data-name="Path 27" d="M486.63,183.943a2.015,2.015,0,0,1-1.368.47,1.649,1.649,0,0,1-.721-.089,1.624,1.624,0,0,1-.611-.391,1.649,1.649,0,0,1-.479-1.334v-4.364H482.23v-.55h1.222V176.23h.641v1.457H486.2v.55H484.08v4.3c0,.858.421,1.331,1.237,1.331a1.527,1.527,0,0,0,1.035-.373Z" transform="translate(-341.274 -129.726)" fill="#fff"/>
    <path id="Path_28" data-name="Path 28" d="M520.9,172.805a.525.525,0,0,1,.528-.525.507.507,0,0,1,.284.092.5.5,0,0,1,.186.232.519.519,0,0,1,.027.305.524.524,0,0,1-.14.263.531.531,0,0,1-.263.143.555.555,0,0,1-.305-.027A.519.519,0,0,1,520.9,172.805Zm.208,2.138h.641v6.681h-.641Z" transform="translate(-368.136 -126.982)" fill="#fff"/>
    <path id="Path_29" data-name="Path 29" d="M537.473,183.943a2.006,2.006,0,0,1-1.377.461,1.649,1.649,0,0,1-1.338-.479,1.618,1.618,0,0,1-.388-.611,1.656,1.656,0,0,1-.088-.721v-4.358H533.06v-.55h1.221V176.23h.641v1.457h2.119v.55h-2.107v4.3c0,.858.418,1.331,1.221,1.331a1.508,1.508,0,0,0,1.032-.373Z" transform="translate(-376.583 -129.726)" fill="#fff"/>
    <path id="Path_30" data-name="Path 30" d="M554.3,186.729l.305-.513a3.869,3.869,0,0,0,2.406.806c1.414,0,1.97-.5,1.97-1.255,0-1.948-4.41-.513-4.41-3.136,0-1.014.84-1.832,2.529-1.832a4.129,4.129,0,0,1,2.29.65l-.305.51a3.451,3.451,0,0,0-2.006-.611c-1.3,0-1.884.537-1.884,1.252,0,2.006,4.409.589,4.409,3.136,0,1.09-.944,1.832-2.629,1.832a4.238,4.238,0,0,1-2.675-.84Z" transform="translate(-391.337 -132.899)" fill="#fff"/>
    <path id="Path_31" data-name="Path 31" d="M596.139,171.536a2.019,2.019,0,0,1,1.319.428l-.26.473a1.526,1.526,0,0,0-1.032-.37c-.834,0-1.252.47-1.252,1.344v.974h2.138v.583h-2.119v6.126h-.641v-6.126H593.07v-.55h1.221V173.4a1.682,1.682,0,0,1,1.518-1.857A1.127,1.127,0,0,1,596.139,171.536Zm4.08.712a.54.54,0,0,1-.324.492.553.553,0,0,1-.305.031.529.529,0,0,1-.415-.418.5.5,0,0,1,.031-.305.544.544,0,0,1,.2-.235.51.51,0,0,1,.305-.086.471.471,0,0,1,.2.034.48.48,0,0,1,.168.107.558.558,0,0,1,.116.165.549.549,0,0,1,.043.2Zm-.849,2.153h.647v6.694h-.666Z" transform="translate(-418.268 -126.458)" fill="#fff"/>
    <path id="Path_32" data-name="Path 32" d="M634.784,183.643v3.906h-.638V183.7a2.017,2.017,0,0,0-2.159-2.3,2.381,2.381,0,0,0-2.531,2.6v3.557h-.635v-6.675h.611v1.447a2.748,2.748,0,0,1,2.641-1.5A2.53,2.53,0,0,1,634.784,183.643Z" transform="translate(-443.101 -132.913)" fill="#fff"/>
    <path id="Path_33" data-name="Path 33" d="M665.195,184.317h-5.738a2.862,2.862,0,0,0,4.965,1.728l.372.4a3.21,3.21,0,0,1-2.519,1.09,3.3,3.3,0,0,1-3.435-3.112v-.281a3.186,3.186,0,0,1,3.209-3.393,3.147,3.147,0,0,1,3.176,3.359A1.632,1.632,0,0,0,665.195,184.317Zm-5.725-.5h5.13a2.556,2.556,0,0,0-5.109,0Z" transform="translate(-463.954 -132.866)" fill="#fff"/>
    <path id="Path_34" data-name="Path 34" d="M687.13,186.729l.305-.513a3.912,3.912,0,0,0,2.406.806c1.414,0,1.97-.5,1.97-1.255,0-1.948-4.41-.513-4.41-3.136,0-1.014.843-1.832,2.531-1.832a4.125,4.125,0,0,1,2.287.65l-.305.51a3.451,3.451,0,0,0-2.006-.611c-1.3,0-1.884.537-1.884,1.252,0,2.006,4.409.589,4.409,3.136,0,1.09-.943,1.832-2.629,1.832A4.244,4.244,0,0,1,687.13,186.729Z" transform="translate(-483.605 -132.899)" fill="#fff"/>
    <path id="Path_35" data-name="Path 35" d="M715.376,183.943a2.016,2.016,0,0,1-1.374.47,1.667,1.667,0,0,1-.724-.089,1.637,1.637,0,0,1-.611-.391,1.583,1.583,0,0,1-.388-.611,1.654,1.654,0,0,1-.089-.721v-4.367H710.97v-.55h1.221V176.23h.65v1.457h2.107v.55h-2.107v4.3c0,.858.4,1.331,1.24,1.331a1.526,1.526,0,0,0,1.035-.373Z" transform="translate(-500.166 -129.726)" fill="#fff"/>
    <path id="Path_36" data-name="Path 36" d="M26.545,71.656h-3.09c-1.86,0-2.825-.8-2.825-2.312,0-1.6.941-2.354,2.825-2.354h11.6c1.792,0,2.748.76,2.748,2.354,0,1.527-.944,2.312-2.748,2.312H31.938V87.281c0,1.667-.876,2.486-2.638,2.486-1.854,0-2.77-.818-2.77-2.486Z" transform="translate(-20.63 -53.844)" fill="#fff"/>
    <path id="Path_37" data-name="Path 37" d="M96.559,85.609h-8.62c-.339.763-.611,1.493-.916,2.2a2.852,2.852,0,0,1-1.112,1.45,2.886,2.886,0,0,1-1.753.467,2.262,2.262,0,0,1-2.568-2.315,3.081,3.081,0,0,1,.2-.965l7.1-17.39a3.635,3.635,0,0,1,6.565,0c7.475,17.684,7.536,18.081,7.536,18.386,0,1.319-.941,2.284-2.632,2.284a2.6,2.6,0,0,1-2.6-1.5ZM89.728,80.9H94.54c-.944-2.312-1.154-2.687-2.354-5.8Z" transform="translate(-62.975 -53.833)" fill="#fff"/>
    <path id="Path_38" data-name="Path 38" d="M165.8,69.2c0-1.606.916-2.354,2.7-2.354s2.748.763,2.748,2.354V87.245c0,1.6-.916,2.354-2.748,2.354s-2.7-.757-2.7-2.354Z" transform="translate(-121.47 -53.747)" fill="#fff"/>
    <path id="Path_39" data-name="Path 39" d="M200.34,69.2c0-1.606.916-2.354,2.666-2.354,1.884,0,2.748.763,2.748,2.354V84.952h8.477c1.863,0,2.748.8,2.748,2.312,0,1.6-.873,2.354-2.748,2.354H203.449c-2.1,0-3.109-1-3.109-2.9Z" transform="translate(-145.463 -53.747)" fill="#fff"/>
    <path id="Path_40" data-name="Path 40" d="M267.224,69.2c0-1.606.916-2.354,2.672-2.354,1.86,0,2.748.763,2.748,2.354V84.952h8.48c1.854,0,2.748.8,2.748,2.312,0,1.6-.883,2.354-2.748,2.354H270.3c-2.092,0-3.106-1-3.106-2.9Z" transform="translate(-191.9 -53.747)" fill="#fff"/>
    <path id="Path_41" data-name="Path 41" d="M333,69.2c0-1.606.916-2.354,2.706-2.354s2.748.763,2.748,2.354V87.245c0,1.6-.916,2.354-2.748,2.354S333,88.842,333,87.245Z" transform="translate(-237.614 -53.747)" fill="#fff"/>
    <path id="Path_42" data-name="Path 42" d="M375.724,69.62c-1.389,0-2.266.4-2.266,1.667,0,1.414,2.061,1.884,4.162,2.748,4.089,1.728,6.993,3.338,6.993,6.935,0,4.742-4.006,7.533-9.222,7.533A12.48,12.48,0,0,1,369.14,86.9a2.584,2.584,0,0,1-1.56-2.312c0-1.548.882-2.251,2.638-2.251a4.444,4.444,0,0,1,2.006.47,6.919,6.919,0,0,0,3.182.806c1.854,0,3.481-.852,3.481-2.519,0-1-.916-1.667-3.609-2.748-3.42-1.334-7.457-2.983-7.457-6.953,0-3.3,3.176-6.642,7.976-6.642a10.718,10.718,0,0,1,5.878,1.695,2.732,2.732,0,0,1,1.527,2.287,2.62,2.62,0,0,1-2.669,2.443,3.53,3.53,0,0,1-2.138-.727A4.693,4.693,0,0,0,375.724,69.62Z" transform="translate(-261.634 -52.287)" fill="#fff"/>
  </g>
</svg>
