<svg width="586" height="133" viewBox="0 0 586 133" fill="none" xmlns="http://www.w3.org/2000/svg">
<path d="M532.43 36.5811C529.791 30.3083 524.879 25.2646 518.679 22.461C512.478 19.6573 505.447 19.3009 498.995 21.4631L500.27 25.1171C503.45 24.0376 506.827 23.6662 510.166 24.0289C513.504 24.3917 516.723 25.4797 519.597 27.217C522.47 28.9542 524.93 31.2987 526.803 34.0861C528.675 36.8736 529.916 40.0368 530.438 43.3542C528.744 42.3344 526.935 41.5195 525.048 40.9264C524.632 40.7893 524.209 40.6739 523.781 40.5808C522.707 37.8896 520.981 35.5074 518.759 33.648C516.537 31.7886 513.888 30.5103 511.05 29.9277C508.211 29.3452 505.273 29.4767 502.498 30.3105C499.723 31.1443 497.199 32.6542 495.152 34.7047C494.706 35.1577 494.283 35.6328 493.884 36.1285V3.85974V0.0493795H490.041V47.7818C488.019 46.6949 486.125 45.3836 484.396 43.8726V0H480.496L480.496 3.80213V47.0575C480.501 51.0556 481.394 55.0027 483.109 58.614C484.824 62.2253 487.32 65.4109 490.415 67.941C493.511 70.4712 497.129 72.2827 501.009 73.245C504.89 74.2073 508.935 74.2964 512.854 73.5059C516.773 72.7154 520.467 71.0649 523.671 68.6735C526.875 66.2822 529.508 63.2095 531.381 59.6772C533.254 56.1449 534.319 52.241 534.501 48.247C534.682 44.2531 533.975 40.2687 532.43 36.5811ZM521.255 47.1069C521.243 50.2362 520.156 53.2663 518.176 55.6889C516.195 58.1115 513.442 59.7792 510.377 60.4122C507.313 61.0452 504.124 60.605 501.346 59.1653C498.568 57.7257 496.369 55.3743 495.119 52.5056C495.934 52.6456 496.76 52.7199 497.588 52.7278H497.76C499.831 52.7021 501.874 52.2454 503.758 51.3867C505.642 50.5281 507.327 49.2863 508.705 47.7406C510.164 46.0484 511.998 44.7207 514.062 43.8634C516.125 43.006 518.36 42.6429 520.588 42.8028C521.049 44.185 521.279 45.6335 521.271 47.0905L521.255 47.1069ZM493.975 47.1069C493.989 44.1413 494.969 41.2611 496.768 38.9032C498.566 36.5453 501.085 34.8385 503.941 34.0417C506.798 33.2449 509.836 33.4017 512.595 34.4883C515.354 35.5748 517.684 37.5318 519.23 40.0623C516.84 40.0975 514.483 40.6327 512.312 41.6333C510.141 42.634 508.203 44.078 506.623 45.8725C505.494 47.1631 504.103 48.1978 502.541 48.9074C500.98 49.617 499.286 49.9852 497.571 49.9873C496.408 49.9715 495.252 49.8055 494.131 49.4935C493.99 48.7003 493.918 47.8962 493.917 47.0905L493.975 47.1069ZM507.553 70.3147C501.499 70.301 495.691 67.9183 491.371 63.6765C487.051 59.4346 484.562 53.6705 484.437 47.6172C484.767 47.8723 485.096 48.1274 485.466 48.3661C487.048 49.5093 488.751 50.4753 490.543 51.2465C491.539 55.4188 494.032 59.0798 497.55 61.5334C501.068 63.987 505.365 65.062 509.624 64.554C513.883 64.046 517.807 61.9904 520.649 58.7781C523.491 55.5658 525.054 51.4209 525.04 47.1316C525.041 46.0273 524.939 44.9252 524.736 43.8397C526.854 44.5863 528.854 45.631 530.677 46.9423V47.181C530.675 53.3124 528.242 59.1928 523.913 63.5338C519.583 67.8747 513.709 70.322 507.578 70.3394L507.553 70.3147Z" fill="#263B58"/>
<path d="M402.769 62.3402V74.1251H368.256V70.6604H399.272V65.9119H368.256V11.5957H380.493V57.6081H376.987V15.0851H371.745V62.3319L402.769 62.3402Z" fill="#263B58"/>
<path d="M474.733 74.1251H461.962L456.283 58.5627H426.42L421.992 70.6603H427.284L429.958 63.3606H433.768L429.868 74.158H417.022L423.959 55.1144H458.801L464.397 70.6603H469.73L449.544 15.1426H442.211L430.691 46.8764H452.086L445.89 29.8985L441.389 42.1197H437.669L445.898 19.6361L457.073 50.3988H425.802L439.792 11.5874H452.054L474.733 74.1251Z" fill="#263B58"/>
<path d="M586 56.0693C586 67.953 576.668 74.1253 563.731 74.1253C556.266 74.1253 548.931 72.1674 542.459 68.4468L546.574 57.3366C552.161 60.2993 558.16 62.5707 563.698 62.5707C570.282 62.5707 573.985 60.6121 573.985 56.0363C573.985 48.1605 568.727 46.029 563.534 43.2227C558.341 40.4163 553.379 37.5112 553.379 29.5037C553.379 24.2285 556.959 19.2413 566.077 19.2413C570.298 19.2989 574.462 20.2203 578.314 21.9488L580.009 17.2497C576.38 15.6037 573.532 14.5997 566.019 14.5997C556.3 14.5997 548.252 19.6692 548.252 29.5531C548.252 38.433 553.19 43.593 559.502 46.4487L558.374 49.6501C549.734 45.7327 544.878 38.9514 544.878 29.5202C544.878 17.3484 554.753 11.1597 566.044 11.1597C575.54 11.1597 579.169 12.8961 584.296 15.4803L580.231 26.6069C575.891 24.2093 571.033 22.9043 566.077 22.8047C560.004 22.8047 556.868 25.3395 556.868 29.6189C556.868 35.9641 560.81 37.9474 565.27 40.3176C570.94 43.2885 577.425 46.35 577.425 56.061C577.425 59.7809 575.664 66.0272 563.723 66.0272C558.422 65.8396 553.225 64.503 548.491 62.1099L546.722 66.8091C552.01 69.4102 557.838 70.727 563.731 70.6523C569.492 70.6523 574.339 69.3109 577.63 66.8502C579.267 65.5834 580.571 63.9382 581.431 62.056C582.291 60.1738 582.681 58.1109 582.568 56.0446C582.568 46.819 578.248 40.6961 568.414 36.6553L569.566 33.4128C580.206 37.7746 586 44.7945 586 56.0693Z" fill="#263B58"/>
<path d="M8.61621 122.178L9.43913 120.903C11.6049 122.902 14.4579 123.99 17.405 123.94C22.219 123.94 24.3669 121.841 24.3669 119.216C24.3669 111.982 9.30746 116.319 9.30746 107.423C9.30746 104.007 11.9243 100.995 17.8494 100.995C20.4201 100.978 22.9378 101.726 25.0828 103.143L24.4245 104.55C22.4764 103.243 20.1872 102.536 17.8411 102.518C13.1752 102.518 11.0685 104.674 11.0685 107.357C11.0685 114.591 26.1197 110.328 26.1197 119.076C26.1197 122.483 23.3958 125.421 17.479 125.421C14.216 125.531 11.0379 124.368 8.61621 122.178Z" fill="#263B58"/>
<path d="M32.9496 116.245C32.9853 114.476 33.542 112.757 34.5501 111.304C35.5583 109.85 36.9729 108.727 38.6168 108.074C40.2607 107.421 42.0607 107.267 43.7914 107.633C45.522 107.999 47.1063 108.867 48.3456 110.129C49.585 111.391 50.4243 112.991 50.7585 114.728C51.0927 116.465 50.9068 118.262 50.2242 119.894C49.5415 121.526 48.3925 122.92 46.9211 123.902C45.4496 124.884 43.7212 125.409 41.9524 125.413C40.8016 125.443 39.6558 125.25 38.5784 124.845C36.9576 124.229 35.5563 123.145 34.5527 121.731C33.549 120.317 32.9882 118.637 32.9414 116.903C32.9414 116.689 32.9414 116.459 32.9496 116.245ZM49.1611 116.245C49.0894 114.829 48.6036 113.465 47.7639 112.322C46.9242 111.18 45.7676 110.309 44.4376 109.817C43.1082 109.327 41.6642 109.236 40.2837 109.556C38.9033 109.876 37.6468 110.594 36.6692 111.62C35.9406 112.388 35.389 113.307 35.0533 114.312C34.7175 115.317 34.6057 116.383 34.7257 117.435C34.8457 118.488 35.1946 119.501 35.7478 120.404C36.3011 121.308 37.0453 122.079 37.9283 122.664C39.1139 123.437 40.496 123.854 41.9112 123.865C42.9016 123.881 43.8846 123.693 44.7997 123.314C45.7115 122.939 46.5354 122.379 47.219 121.668C47.893 120.957 48.4164 120.117 48.7579 119.199C49.0994 118.254 49.2368 117.247 49.1611 116.245Z" fill="#263B58"/>
<path d="M61.7521 104.633V107.258H67.5125V108.756H61.7521V125.265H60.0651V108.739H56.7158V107.258H60.0651V104.501C60.0052 103.902 60.0667 103.298 60.2461 102.723C60.4131 102.147 60.6928 101.61 61.0691 101.143C61.8434 100.209 62.9553 99.6171 64.1632 99.4973C64.4503 99.4644 64.7402 99.4644 65.0273 99.4973C66.3255 99.4758 67.5869 99.9295 68.5741 100.773L67.8828 102.04C67.1088 101.374 66.1144 101.019 65.0931 101.045C62.8877 101.012 61.7521 102.238 61.7521 104.633Z" fill="#263B58"/>
<path d="M83.37 124.121C82.3444 124.987 81.0327 125.438 79.6915 125.388C79.0332 125.454 78.3685 125.373 77.7453 125.151C77.122 124.929 76.5557 124.571 76.0871 124.104C75.6197 123.641 75.2625 123.079 75.042 122.458C74.8196 121.834 74.7381 121.168 74.8034 120.508V108.739H71.5117V107.258H74.8034V103.333H76.5151V107.258H82.2755V108.739H76.5151V120.335C76.5151 122.648 77.5931 123.923 79.8561 123.923C80.8795 123.953 81.8763 123.595 82.6458 122.919L83.37 124.121Z" fill="#263B58"/>
<path d="M116.945 107.258L110.131 125.265H108.485L102.429 109.628L96.3309 125.265H94.7756L87.9536 107.258H89.5994L95.5985 123.331L101.737 107.258H103.169L109.284 123.273L115.373 107.258H116.945Z" fill="#263B58"/>
<path d="M136.819 113.842V125.265H135.173V122.03C134.509 123.136 133.549 124.035 132.402 124.624C131.255 125.213 129.965 125.469 128.68 125.363C124.656 125.363 122.204 123.281 122.204 120.277C122.204 117.553 123.932 115.208 128.919 115.208H135.099V113.759C135.099 110.402 133.272 108.616 129.692 108.616C127.421 108.591 125.22 109.406 123.512 110.904L122.648 109.628C124.666 107.946 127.222 107.047 129.849 107.093C134.325 107.11 136.819 109.389 136.819 113.842ZM135.099 119.956V116.582H128.96C125.248 116.582 123.882 118.129 123.882 120.195C123.882 122.54 125.709 124.005 128.869 124.005C130.207 124.1 131.538 123.756 132.663 123.025C133.787 122.294 134.642 121.217 135.099 119.956Z" fill="#263B58"/>
<path d="M155.836 107.102V108.748H155.392C151.409 108.748 149.047 111.414 149.047 115.858V125.256H147.335V107.258H149.047V111.192C150.076 108.55 152.479 107.102 155.836 107.102Z" fill="#263B58"/>
<path d="M179.076 116.665H163.596C163.711 118.158 164.254 119.587 165.16 120.779C165.846 121.677 166.721 122.413 167.724 122.935C168.726 123.457 169.83 123.753 170.959 123.801C172.088 123.849 173.214 123.648 174.257 123.213C175.299 122.777 176.234 122.118 176.994 121.281L177.998 122.36C177.165 123.325 176.13 124.095 174.967 124.615C173.804 125.136 172.54 125.394 171.266 125.372C168.927 125.475 166.642 124.651 164.908 123.079C163.173 121.508 162.128 119.315 162 116.977V116.311C162 110.92 165.695 107.167 170.649 107.167C175.603 107.167 179.224 110.904 179.224 116.22C179.132 116.351 179.081 116.505 179.076 116.665ZM163.679 115.315H177.463C177.495 114.39 177.34 113.468 177.008 112.603C176.676 111.739 176.174 110.951 175.53 110.285C174.887 109.619 174.117 109.09 173.265 108.728C172.413 108.367 171.496 108.18 170.571 108.18C169.645 108.18 168.729 108.367 167.877 108.728C167.025 109.09 166.254 109.619 165.611 110.285C164.968 110.951 164.465 111.739 164.133 112.603C163.801 113.468 163.647 114.39 163.679 115.315Z" fill="#263B58"/>
<path d="M213.16 113.842V125.273H211.515V122.03C210.852 123.137 209.895 124.038 208.75 124.631C207.605 125.225 206.316 125.485 205.03 125.38C201.006 125.38 198.545 123.298 198.545 120.302C198.545 117.578 200.265 115.233 205.269 115.233H211.424V113.759C211.424 110.402 209.597 108.616 206.083 108.616C203.808 108.597 201.604 109.41 199.887 110.904L199.064 109.628C201.073 107.942 203.626 107.042 206.248 107.093C210.667 107.102 213.16 109.389 213.16 113.842ZM211.432 119.948V116.574H205.302C201.582 116.574 200.224 118.121 200.224 120.195C200.224 122.541 202.035 123.997 205.219 123.997C206.552 124.091 207.879 123.748 209 123.02C210.121 122.293 210.975 121.22 211.432 119.965V119.948Z" fill="#263B58"/>
<path d="M232.186 107.102V108.748H231.783C227.783 108.748 225.43 111.414 225.43 115.858V125.256H223.718V107.258H225.364V111.192C226.5 108.55 228.82 107.102 232.186 107.102Z" fill="#263B58"/>
<path d="M250.11 124.121C249.078 124.987 247.761 125.439 246.415 125.388C245.756 125.452 245.092 125.37 244.469 125.148C243.846 124.926 243.28 124.57 242.81 124.104C242.343 123.636 241.986 123.069 241.764 122.446C241.542 121.823 241.461 121.158 241.527 120.5V108.739H238.235V107.258H241.527V103.333H243.246V107.258H249.007V108.739H243.296V120.335C243.296 122.648 244.374 123.923 246.637 123.923C247.665 123.951 248.666 123.593 249.443 122.919L250.11 124.121Z" fill="#263B58"/>
<path d="M257.804 101.497C257.802 101.31 257.839 101.125 257.91 100.952C257.981 100.779 258.086 100.623 258.219 100.491C258.351 100.359 258.509 100.255 258.682 100.185C258.855 100.115 259.04 100.079 259.227 100.082C259.501 100.085 259.768 100.171 259.993 100.329C260.217 100.484 260.392 100.701 260.494 100.954C260.597 101.216 260.623 101.501 260.569 101.777C260.51 102.045 260.376 102.291 260.182 102.485C259.988 102.679 259.742 102.813 259.474 102.872C259.198 102.926 258.913 102.9 258.651 102.797C258.399 102.693 258.182 102.519 258.026 102.295C257.871 102.059 257.794 101.78 257.804 101.497ZM258.363 107.258H260.075V125.265H258.363V107.258Z" fill="#263B58"/>
<path d="M268.14 123.075L268.922 121.693C270.778 123.124 273.062 123.89 275.406 123.866C279.217 123.866 280.714 122.516 280.714 120.483C280.714 115.233 268.823 119.101 268.823 112.031C268.823 109.299 271.094 107.093 275.637 107.093C277.822 107.06 279.968 107.669 281.809 108.846L280.986 110.221C279.401 109.124 277.514 108.549 275.588 108.575C272.074 108.575 270.51 110.023 270.51 111.949C270.51 117.356 282.393 113.537 282.393 120.401C282.393 123.339 279.85 125.339 275.3 125.339C272.724 125.427 270.197 124.628 268.14 123.075Z" fill="#263B58"/>
<path d="M299.608 124.121C298.578 124.985 297.265 125.437 295.922 125.388C295.264 125.454 294.6 125.372 293.977 125.148C293.355 124.925 292.791 124.565 292.325 124.096C291.855 123.634 291.495 123.071 291.272 122.45C291.05 121.828 290.968 121.165 291.033 120.508V108.739H287.742V107.258H291.033V103.333H292.762V107.258H298.473V108.739H292.762V120.335C292.762 122.648 293.84 123.923 296.103 123.923C297.122 123.945 298.113 123.587 298.884 122.919L299.608 124.121Z" fill="#263B58"/>
<path d="M316.305 107.102V108.748H315.894C311.894 108.748 309.549 111.414 309.549 115.858V125.256H307.837V107.258H309.483V111.192C310.611 108.55 313.014 107.102 316.305 107.102Z" fill="#263B58"/>
<path d="M339.775 107.258L330.591 127.725C329.159 131.017 327.341 132.038 324.979 132.038C324.212 132.062 323.447 131.931 322.732 131.651C322.017 131.371 321.365 130.952 320.815 130.416L321.638 129.149C322.061 129.611 322.578 129.976 323.155 130.22C323.731 130.464 324.353 130.582 324.979 130.565C326.625 130.565 327.834 129.791 328.937 127.322L329.9 125.158L321.802 107.225H323.712L330.912 123.331L338.113 107.225L339.775 107.258Z" fill="#263B58"/>
<path d="M372.264 113.842V125.265H370.618V122.03C369.957 123.134 369.002 124.032 367.859 124.624C366.717 125.215 365.432 125.477 364.15 125.38C360.109 125.38 357.657 123.298 357.657 120.302C357.657 117.57 359.368 115.224 364.372 115.224H370.544V113.76C370.544 110.402 368.717 108.616 365.203 108.616C362.926 108.591 360.72 109.405 359.006 110.904L358.142 109.628C360.154 107.947 362.705 107.047 365.326 107.094C369.795 107.11 372.264 109.39 372.264 113.842ZM370.544 119.948V116.566H364.405C360.685 116.566 359.335 118.113 359.335 120.187C359.335 122.532 361.154 123.989 364.322 123.989C365.657 124.086 366.986 123.744 368.109 123.016C369.232 122.289 370.087 121.214 370.544 119.957V119.948Z" fill="#263B58"/>
<path d="M391.718 124.121C390.688 124.985 389.374 125.437 388.031 125.388C387.374 125.454 386.71 125.372 386.089 125.15C385.468 124.927 384.905 124.567 384.443 124.096C383.974 123.631 383.614 123.066 383.391 122.444C383.167 121.822 383.085 121.158 383.151 120.5V108.739H379.859V107.258H383.151V103.333H384.879V107.258H390.557V108.739H384.846V120.335C384.846 122.648 385.982 123.923 388.179 123.923C389.201 123.947 390.196 123.589 390.969 122.919L391.718 124.121Z" fill="#263B58"/>
<path d="M411.681 101.497C411.681 101.31 411.718 101.126 411.79 100.953C411.861 100.781 411.966 100.625 412.099 100.493C412.231 100.362 412.388 100.258 412.561 100.187C412.733 100.116 412.918 100.08 413.105 100.082C413.379 100.085 413.646 100.171 413.87 100.328C414.097 100.481 414.272 100.699 414.372 100.954C414.479 101.215 414.505 101.501 414.446 101.777C414.391 102.044 414.259 102.29 414.068 102.485C413.874 102.679 413.628 102.813 413.36 102.871C413.084 102.924 412.799 102.899 412.537 102.797C412.282 102.69 412.064 102.509 411.912 102.277C411.759 102.046 411.679 101.774 411.681 101.497ZM412.241 107.258H413.969V125.265H412.241V107.258Z" fill="#263B58"/>
<path d="M433.579 124.121C432.541 124.984 431.217 125.427 429.868 125.363C429.209 125.43 428.543 125.349 427.919 125.126C427.296 124.902 426.73 124.542 426.263 124.071C425.795 123.609 425.438 123.046 425.218 122.425C424.996 121.804 424.914 121.14 424.98 120.483V108.739H421.688V107.258H424.98V103.333H426.708V107.258H432.419V108.739H426.741V120.335C426.741 122.648 427.868 123.923 430.032 123.923C431.053 123.95 432.046 123.591 432.814 122.919L433.579 124.121Z" fill="#263B58"/>
<path d="M439.167 123.076L439.989 121.693C441.845 123.126 444.13 123.891 446.474 123.866C450.284 123.866 451.782 122.516 451.782 120.483C451.782 115.233 439.899 119.101 439.899 112.031C439.899 109.299 442.162 107.093 446.713 107.093C448.897 107.059 451.044 107.669 452.885 108.846L452.062 110.221C450.474 109.124 448.584 108.549 446.655 108.575C443.149 108.575 441.578 110.023 441.578 111.949C441.578 117.356 453.461 113.537 453.461 120.401C453.461 123.339 450.918 125.339 446.375 125.339C443.785 125.424 441.243 124.626 439.167 123.076Z" fill="#263B58"/>
<path d="M479.342 99.4892C480.625 99.4413 481.885 99.8495 482.897 100.641L482.197 101.917C481.425 101.252 480.434 100.897 479.416 100.921C477.169 100.921 476.042 102.189 476.042 104.542V107.167H481.802V108.739H476.091V125.248H474.363V108.739H471.071V107.258H474.363V104.501C474.305 103.903 474.363 103.299 474.536 102.723C474.706 102.149 474.986 101.613 475.359 101.143C476.133 100.209 477.245 99.6171 478.453 99.4974C478.747 99.4511 479.047 99.4483 479.342 99.4892ZM490.336 101.407C490.334 101.688 490.251 101.963 490.096 102.198C489.941 102.433 489.721 102.619 489.463 102.732C489.202 102.836 488.917 102.865 488.641 102.814C488.363 102.759 488.108 102.622 487.909 102.421C487.71 102.22 487.575 101.964 487.521 101.686C487.462 101.41 487.491 101.122 487.604 100.864C487.715 100.606 487.898 100.386 488.13 100.23C488.373 100.068 488.661 99.9868 488.953 99.9994C489.133 99.9918 489.313 100.023 489.48 100.09C489.649 100.153 489.804 100.251 489.933 100.378C490.063 100.506 490.169 100.656 490.245 100.822C490.316 100.989 490.355 101.168 490.36 101.349L490.336 101.407ZM488.048 107.209H489.793V125.248H487.999L488.048 107.209Z" fill="#263B58"/>
<path d="M516.562 114.722V125.248H514.842V114.862C514.842 110.797 512.686 108.665 509.024 108.665C504.795 108.665 502.202 111.381 502.202 115.661V125.248H500.491V107.258H502.137V111.159C502.796 109.862 503.822 108.788 505.088 108.071C506.354 107.353 507.803 107.025 509.255 107.126C513.641 107.11 516.562 109.727 516.562 114.722Z" fill="#263B58"/>
<path d="M542.319 116.665H526.857C526.964 118.167 527.509 119.606 528.424 120.802C529.34 121.998 530.586 122.9 532.008 123.396C533.432 123.898 534.972 123.969 536.435 123.6C537.899 123.231 539.221 122.439 540.237 121.323L541.241 122.401C540.397 123.362 539.351 124.124 538.177 124.632C537.003 125.14 535.731 125.382 534.452 125.339C532.117 125.435 529.838 124.61 528.106 123.041C526.374 121.473 525.328 119.286 525.194 116.953V116.195C525.194 110.797 528.881 107.052 533.843 107.052C538.805 107.052 542.402 110.78 542.402 116.105C542.362 116.29 542.335 116.476 542.319 116.665ZM526.89 115.315H540.715C540.653 113.53 539.901 111.839 538.616 110.599C537.332 109.358 535.616 108.665 533.831 108.665C532.045 108.665 530.33 109.358 529.045 110.599C527.761 111.839 527.009 113.53 526.947 115.315H526.89Z" fill="#263B58"/>
<path d="M548.475 123.075L549.298 121.693C551.158 123.118 553.439 123.882 555.782 123.866C559.592 123.866 561.09 122.516 561.09 120.483C561.09 115.233 549.207 119.101 549.207 112.031C549.207 109.299 551.478 107.093 556.029 107.093C558.211 107.06 560.355 107.67 562.193 108.846L561.37 110.221C559.782 109.124 557.892 108.549 555.963 108.575C552.458 108.575 550.886 110.023 550.886 111.949C550.886 117.356 562.769 113.537 562.769 120.401C562.769 123.339 560.226 125.339 555.683 125.339C553.093 125.423 550.552 124.625 548.475 123.075Z" fill="#263B58"/>
<path d="M579.968 124.121C578.934 124.989 577.613 125.441 576.264 125.388C575.605 125.453 574.939 125.372 574.314 125.15C573.694 124.926 573.131 124.566 572.668 124.096C572.197 123.636 571.84 123.072 571.623 122.45C571.401 121.828 571.319 121.165 571.384 120.508V108.739H568.093V107.258H571.384V103.333H573.137V107.258H578.815V108.739H573.137V120.335C573.137 122.648 574.215 123.923 576.478 123.923C577.501 123.947 578.495 123.589 579.268 122.919L579.968 124.121Z" fill="#263B58"/>
<path d="M15.9399 26.0059H7.61199C2.60042 26.0059 0 23.8497 0 19.776C0 15.4554 2.53459 13.4309 7.61199 13.4309H38.8829C43.7134 13.4309 46.2891 15.4801 46.2891 19.776C46.2891 23.8909 43.7463 26.0059 38.8829 26.0059H30.4727V68.1174C30.4727 72.6108 28.1109 74.8164 23.3626 74.8164C18.3675 74.8164 15.8988 72.6108 15.8988 68.1174L15.9399 26.0059Z" fill="#D94427"/>
<path d="M90.5045 63.6405H67.2735C66.3601 65.6979 65.6277 67.6648 64.8048 69.5659C64.262 71.1622 63.2095 72.5358 61.8093 73.475C60.4111 74.3916 58.7547 74.8332 57.0858 74.7342C52.1483 74.7342 50.165 71.7221 50.165 68.496C50.208 67.6052 50.3942 66.7271 50.7164 65.8955L69.841 19.0272C70.5363 17.2755 71.7703 15.7902 73.3649 14.7857C74.9595 13.7813 76.832 13.3098 78.7121 13.4392C80.5842 13.3192 82.4463 13.7953 84.0311 14.7992C85.616 15.8031 86.8421 17.2832 87.5338 19.0272C107.679 66.6855 107.843 67.7554 107.843 68.5784C107.843 72.1336 105.309 74.7342 100.75 74.7342C97.2936 74.7342 94.9071 73.3022 93.7468 70.6934L90.5045 63.6405ZM72.0958 50.9421H85.065C82.5222 44.7122 81.9544 43.6999 78.7203 35.3056L72.0958 50.9421Z" fill="#D94427"/>
<path d="M119.463 19.6608C119.463 15.332 121.932 13.3157 126.746 13.3157C131.56 13.3157 134.152 15.3731 134.152 19.6608V68.282C134.152 72.5944 131.683 74.6271 126.746 74.6271C121.808 74.6271 119.463 72.5861 119.463 68.282V19.6608Z" fill="#D94427"/>
<path d="M147.887 19.6608C147.887 15.332 150.355 13.3157 155.071 13.3157C160.148 13.3157 162.477 15.3731 162.477 19.6608V62.1015H185.321C190.341 62.1015 192.728 64.2577 192.728 68.3314C192.728 72.652 190.374 74.6765 185.321 74.6765H156.264C150.611 74.6765 147.887 71.9854 147.887 66.8583V19.6608Z" fill="#D94427"/>
<path d="M202.989 19.6608C202.989 15.332 205.458 13.3157 210.19 13.3157C215.202 13.3157 217.596 15.3731 217.596 19.6608V62.1015H240.449C245.444 62.1015 247.855 64.2577 247.855 68.3314C247.855 72.652 245.477 74.6765 240.449 74.6765H211.268C205.631 74.6765 202.899 71.9854 202.899 66.8583L202.989 19.6608Z" fill="#D94427"/>
<path d="M257.055 19.6608C257.055 15.332 259.523 13.3157 264.346 13.3157C269.168 13.3157 271.752 15.3731 271.752 19.6608V68.282C271.752 72.5944 269.283 74.6271 264.346 74.6271C259.408 74.6271 257.055 72.5861 257.055 68.282V19.6608Z" fill="#D94427"/>
<path d="M307.458 24.7139C303.714 24.7139 301.352 25.792 301.352 29.2074C301.352 33.0177 306.907 34.2851 312.569 36.6141C323.588 41.2721 331.414 45.6092 331.414 55.3038C331.414 68.0846 320.617 75.6065 306.561 75.6065C300.664 75.6656 294.855 74.1727 289.716 71.2777C286.886 69.7058 285.511 67.6484 285.511 65.0478C285.511 60.8753 287.889 58.9825 292.621 58.9825C294.498 58.9754 296.35 59.4095 298.028 60.2499C300.67 61.6514 303.611 62.3966 306.603 62.4225C311.598 62.4225 315.984 60.1264 315.984 55.633C315.984 52.9501 313.515 51.1396 306.257 48.2262C297.04 44.6299 286.161 40.1858 286.161 29.4872C286.161 20.5991 294.72 11.5875 307.656 11.5875C313.268 11.5386 318.773 13.1258 323.497 16.155C326.147 17.801 327.612 19.8666 327.612 22.3191C327.489 24.1308 326.674 25.8258 325.334 27.0519C323.995 28.278 322.235 28.9408 320.419 28.9029C318.337 28.8982 316.313 28.2101 314.659 26.9442C312.541 25.4862 310.03 24.7082 307.458 24.7139Z" fill="#D94427"/>
</svg>
