<svg width="297" height="58" viewBox="0 0 297 58" fill="none" xmlns="http://www.w3.org/2000/svg">
<path d="M284.64 30.8272C283.538 30.8272 282.38 30.7446 281.168 30.5792C279.983 30.4414 278.853 30.2209 277.778 29.9178C276.703 29.6146 275.739 29.2564 274.884 28.843C274.14 28.4847 273.616 28.0162 273.313 27.4374C273.01 26.8311 272.9 26.1973 272.983 25.5358C273.065 24.8744 273.3 24.2957 273.685 23.7996C274.071 23.276 274.581 22.9315 275.215 22.7661C275.849 22.5732 276.565 22.6559 277.365 23.0141C278.412 23.5102 279.597 23.8961 280.92 24.1716C282.243 24.4472 283.483 24.585 284.64 24.585C286.459 24.585 287.727 24.3508 288.443 23.8823C289.188 23.3862 289.56 22.7799 289.56 22.0633C289.56 21.4295 289.298 20.9196 288.774 20.5338C288.278 20.148 287.382 19.8173 286.087 19.5417L281.25 18.5082C278.605 17.957 276.634 16.9924 275.339 15.6144C274.044 14.2365 273.396 12.4589 273.396 10.2817C273.396 8.8486 273.685 7.5533 274.264 6.39581C274.87 5.21075 275.711 4.20483 276.786 3.37805C277.888 2.55126 279.183 1.9174 280.672 1.47645C282.187 1.00794 283.869 0.773682 285.715 0.773682C287.148 0.773682 288.595 0.939038 290.056 1.26975C291.544 1.57291 292.825 2.04142 293.9 2.67528C294.534 3.006 294.989 3.46073 295.264 4.03948C295.54 4.61822 295.65 5.22453 295.595 5.8584C295.54 6.4647 295.32 7.00211 294.934 7.47063C294.575 7.93914 294.079 8.25607 293.446 8.42143C292.839 8.55922 292.109 8.44899 291.255 8.09071C290.455 7.73244 289.546 7.47062 288.526 7.30527C287.534 7.11235 286.569 7.0159 285.632 7.0159C284.613 7.0159 283.745 7.13991 283.028 7.38795C282.311 7.60842 281.76 7.93914 281.374 8.38009C281.016 8.82104 280.837 9.33089 280.837 9.90963C280.837 10.4884 281.071 10.9845 281.54 11.3978C282.036 11.7837 282.932 12.1144 284.227 12.39L289.022 13.4235C291.695 14.0022 293.694 14.953 295.016 16.2759C296.339 17.5987 297.001 19.3212 297.001 21.4433C297.001 22.8764 296.711 24.1716 296.133 25.3291C295.554 26.4866 294.727 27.4788 293.652 28.3056C292.577 29.1048 291.282 29.7249 289.766 30.1658C288.251 30.6068 286.542 30.8272 284.64 30.8272Z" fill="white"/>
<path d="M246.899 30.3724C245.604 30.3724 244.612 30.0417 243.923 29.3802C243.261 28.6913 242.931 27.7129 242.931 26.4452V5.15549C242.931 3.88776 243.261 2.92318 243.923 2.26175C244.612 1.57277 245.604 1.22827 246.899 1.22827H256.986C259.08 1.22827 260.858 1.5452 262.319 2.17907C263.807 2.78538 264.937 3.6535 265.709 4.78344C266.48 5.91338 266.866 7.23623 266.866 8.752C266.866 10.4607 266.37 11.9213 265.378 13.1339C264.413 14.3466 263.09 15.1733 261.409 15.6143V14.9529C263.394 15.3111 264.923 16.1104 265.998 17.3505C267.1 18.5907 267.651 20.1754 267.651 22.1045C267.651 24.6676 266.728 26.6932 264.882 28.1814C263.063 29.6421 260.569 30.3724 257.399 30.3724H246.899ZM250.206 24.7916H256.366C257.771 24.7916 258.791 24.5298 259.425 24.0061C260.086 23.455 260.417 22.642 260.417 21.5671C260.417 20.4923 260.086 19.6931 259.425 19.1695C258.791 18.6458 257.771 18.384 256.366 18.384H250.206V24.7916ZM250.206 12.8032H255.622C257 12.8032 258.006 12.5552 258.64 12.0591C259.301 11.5631 259.632 10.8052 259.632 9.78548C259.632 8.76578 259.301 8.02167 258.64 7.55316C258.006 7.05709 257 6.80906 255.622 6.80906H250.206V12.8032Z" fill="white"/>
<path d="M210.725 30.7444C209.871 30.7444 209.154 30.5515 208.576 30.1657C207.997 29.7523 207.638 29.2011 207.501 28.5121C207.363 27.7956 207.487 26.9963 207.873 26.1144L218.166 3.95664C218.662 2.88182 219.269 2.09638 219.985 1.60031C220.729 1.10424 221.57 0.856201 222.507 0.856201C223.444 0.856201 224.257 1.10424 224.946 1.60031C225.662 2.09638 226.282 2.88182 226.806 3.95664L237.1 26.1144C237.54 26.9963 237.692 27.7956 237.554 28.5121C237.444 29.2286 237.1 29.7798 236.521 30.1657C235.97 30.5515 235.281 30.7444 234.454 30.7444C233.351 30.7444 232.497 30.4964 231.891 30.0003C231.312 29.5042 230.788 28.705 230.32 27.6026L228.088 22.3526L230.981 24.4609H213.95L216.885 22.3526L214.652 27.6026C214.156 28.705 213.646 29.5042 213.123 30.0003C212.599 30.4964 211.8 30.7444 210.725 30.7444ZM222.424 9.16537L217.629 20.6163L216.471 18.632H228.501L227.343 20.6163L222.507 9.16537H222.424Z" fill="white"/>
<path d="M185.271 30.3725C184.059 30.3725 183.108 30.0417 182.419 29.3803C181.757 28.6913 181.427 27.7405 181.427 26.5279V5.03155C181.427 3.79138 181.757 2.84058 182.419 2.17915C183.08 1.51772 184.017 1.18701 185.23 1.18701C186.47 1.18701 187.407 1.51772 188.041 2.17915C188.702 2.84058 189.033 3.79138 189.033 5.03155V24.0476H199.12C200.167 24.0476 200.966 24.3232 201.518 24.8743C202.096 25.398 202.386 26.1696 202.386 27.1893C202.386 28.209 202.096 28.9945 201.518 29.5457C200.966 30.0969 200.167 30.3725 199.12 30.3725H185.271Z" fill="white"/>
<path d="M152.939 30.8272C151.837 30.8272 150.679 30.7446 149.467 30.5792C148.282 30.4414 147.152 30.2209 146.077 29.9178C145.002 29.6146 144.037 29.2564 143.183 28.843C142.439 28.4847 141.915 28.0162 141.612 27.4374C141.309 26.8311 141.199 26.1973 141.281 25.5358C141.364 24.8744 141.598 24.2957 141.984 23.7996C142.37 23.276 142.88 22.9315 143.514 22.7661C144.148 22.5732 144.864 22.6559 145.663 23.0141C146.711 23.5102 147.896 23.8961 149.219 24.1716C150.541 24.4472 151.782 24.585 152.939 24.585C154.758 24.585 156.026 24.3508 156.742 23.8823C157.486 23.3862 157.858 22.7799 157.858 22.0633C157.858 21.4295 157.597 20.9196 157.073 20.5338C156.577 20.148 155.681 19.8173 154.386 19.5417L149.549 18.5082C146.904 17.957 144.933 16.9924 143.638 15.6144C142.343 14.2365 141.695 12.4589 141.695 10.2817C141.695 8.8486 141.984 7.5533 142.563 6.39581C143.169 5.21075 144.01 4.20483 145.085 3.37805C146.187 2.55126 147.482 1.9174 148.971 1.47645C150.486 1.00794 152.167 0.773682 154.014 0.773682C155.447 0.773682 156.894 0.939038 158.355 1.26975C159.843 1.57291 161.124 2.04142 162.199 2.67528C162.833 3.006 163.288 3.46073 163.563 4.03948C163.839 4.61822 163.949 5.22453 163.894 5.8584C163.839 6.4647 163.618 7.00211 163.233 7.47063C162.874 7.93914 162.378 8.25607 161.744 8.42143C161.138 8.55922 160.408 8.44899 159.553 8.09071C158.754 7.73244 157.845 7.47062 156.825 7.30527C155.833 7.11235 154.868 7.0159 153.931 7.0159C152.912 7.0159 152.043 7.13991 151.327 7.38795C150.61 7.60842 150.059 7.93914 149.673 8.38009C149.315 8.82104 149.136 9.33089 149.136 9.90963C149.136 10.4884 149.37 10.9845 149.839 11.3978C150.335 11.7837 151.23 12.1144 152.526 12.39L157.321 13.4235C159.994 14.0022 161.992 14.953 163.315 16.2759C164.638 17.5987 165.3 19.3212 165.3 21.4433C165.3 22.8764 165.01 24.1716 164.431 25.3291C163.853 26.4866 163.026 27.4788 161.951 28.3056C160.876 29.1048 159.581 29.7249 158.065 30.1658C156.549 30.6068 154.841 30.8272 152.939 30.8272Z" fill="white"/>
<path d="M132.774 30.7444C131.562 30.7444 130.625 30.4137 129.963 29.7523C129.302 29.0633 128.971 28.0987 128.971 26.8585V4.74208C128.971 3.47435 129.302 2.50977 129.963 1.84834C130.625 1.18691 131.562 0.856201 132.774 0.856201C134.015 0.856201 134.952 1.18691 135.585 1.84834C136.247 2.50977 136.578 3.47435 136.578 4.74208V26.8585C136.578 28.0987 136.261 29.0633 135.627 29.7523C134.993 30.4137 134.042 30.7444 132.774 30.7444Z" fill="white"/>
<path d="M107.567 30.3725C106.355 30.3725 105.404 30.0417 104.715 29.3803C104.053 28.6913 103.723 27.7405 103.723 26.5279V5.03155C103.723 3.79138 104.053 2.84058 104.715 2.17915C105.376 1.51772 106.313 1.18701 107.526 1.18701C108.766 1.18701 109.703 1.51772 110.337 2.17915C110.998 2.84058 111.329 3.79138 111.329 5.03155V24.0476H121.416C122.463 24.0476 123.262 24.3232 123.813 24.8743C124.392 25.398 124.682 26.1696 124.682 27.1893C124.682 28.209 124.392 28.9945 123.813 29.5457C123.262 30.0969 122.463 30.3725 121.416 30.3725H107.567Z" fill="white"/>
<path d="M82.3192 30.3725C81.1065 30.3725 80.1557 30.0417 79.4668 29.3803C78.8053 28.6913 78.4746 27.7405 78.4746 26.5279V5.03155C78.4746 3.79138 78.8053 2.84058 79.4668 2.17915C80.1282 1.51772 81.0652 1.18701 82.2778 1.18701C83.518 1.18701 84.455 1.51772 85.0889 2.17915C85.7503 2.84058 86.081 3.79138 86.081 5.03155V24.0476H96.1678C97.215 24.0476 98.0143 24.3232 98.5654 24.8743C99.1442 25.398 99.4336 26.1696 99.4336 27.1893C99.4336 28.209 99.1442 28.9945 98.5654 29.5457C98.0143 30.0969 97.215 30.3725 96.1678 30.3725H82.3192Z" fill="white"/>
<path d="M69.9946 30.7444C68.782 30.7444 67.845 30.4137 67.1835 29.7523C66.5221 29.0633 66.1914 28.0987 66.1914 26.8585V4.74208C66.1914 3.47435 66.5221 2.50977 67.1835 1.84834C67.845 1.18691 68.782 0.856201 69.9946 0.856201C71.2348 0.856201 72.1718 1.18691 72.8057 1.84834C73.4671 2.50977 73.7978 3.47435 73.7978 4.74208V26.8585C73.7978 28.0987 73.4809 29.0633 72.847 29.7523C72.2131 30.4137 71.2623 30.7444 69.9946 30.7444Z" fill="white"/>
<path d="M34.669 30.7444C33.8146 30.7444 33.0981 30.5515 32.5193 30.1657C31.9406 29.7523 31.5823 29.2011 31.4445 28.5121C31.3067 27.7956 31.4307 26.9963 31.8166 26.1144L42.11 3.95664C42.6061 2.88182 43.2124 2.09638 43.929 1.60031C44.6731 1.10424 45.5136 0.856201 46.4506 0.856201C47.3877 0.856201 48.2007 1.10424 48.8897 1.60031C49.6062 2.09638 50.2263 2.88182 50.7499 3.95664L61.0434 26.1144C61.4843 26.9963 61.6359 27.7956 61.4981 28.5121C61.3879 29.2286 61.0434 29.7798 60.4646 30.1657C59.9134 30.5515 59.2244 30.7444 58.3977 30.7444C57.2953 30.7444 56.4409 30.4964 55.8346 30.0003C55.2559 29.5042 54.7323 28.705 54.2637 27.6026L52.0314 22.3526L54.9252 24.4609H37.8934L40.8285 22.3526L38.5962 27.6026C38.1001 28.705 37.5903 29.5042 37.0667 30.0003C36.543 30.4964 35.7438 30.7444 34.669 30.7444ZM46.368 9.16537L41.5726 20.6163L40.4151 18.632H52.4448L51.2873 20.6163L46.4506 9.16537H46.368Z" fill="white"/>
<path d="M13.4352 30.7444C12.2226 30.7444 11.2856 30.4137 10.6242 29.7523C9.96274 29.0633 9.63202 28.1125 9.63202 26.8999V7.42915H3.14178C2.12208 7.42915 1.33663 7.16733 0.785444 6.6437C0.261815 6.09251 0 5.32085 0 4.32871C0 3.30901 0.261815 2.53734 0.785444 2.01371C1.33663 1.49009 2.12208 1.22827 3.14178 1.22827H23.7287C24.7484 1.22827 25.52 1.49009 26.0437 2.01371C26.5949 2.53734 26.8705 3.30901 26.8705 4.32871C26.8705 5.32085 26.5949 6.09251 26.0437 6.6437C25.52 7.16733 24.7484 7.42915 23.7287 7.42915H17.2384V26.8999C17.2384 28.1125 16.9215 29.0633 16.2876 29.7523C15.6538 30.4137 14.703 30.7444 13.4352 30.7444Z" fill="white"/>
<path d="M4.51074 53.0012L4.92783 52.3547C6.02552 53.3681 7.47159 53.9194 8.96529 53.8939C11.4053 53.8939 12.4939 52.8302 12.4939 51.4996C12.4939 47.8331 4.8611 50.0313 4.8611 45.5223C4.8611 43.7912 6.18746 42.2645 9.19052 42.2645C10.4935 42.256 11.7696 42.635 12.8568 43.3532L12.5231 44.0665C11.5357 43.4038 10.3755 43.0455 9.18635 43.0362C6.82144 43.0362 5.75368 44.1291 5.75368 45.4889C5.75368 49.1554 13.3823 46.9947 13.3823 51.4287C13.3823 53.1556 12.0017 54.6447 9.00283 54.6447C7.34897 54.7005 5.73819 54.1111 4.51074 53.0012Z" fill="white"/>
<path d="M16.8445 49.9937C16.8626 49.0973 17.1448 48.2262 17.6557 47.4894C18.1667 46.7527 18.8837 46.1832 19.7169 45.8522C20.5501 45.5213 21.4624 45.4436 22.3396 45.6289C23.2168 45.8142 24.0197 46.2542 24.6479 46.8939C25.2761 47.5336 25.7015 48.3445 25.8709 49.2249C26.0402 50.1054 25.946 51.0162 25.6 51.8433C25.254 52.6705 24.6717 53.3771 23.9259 53.8746C23.1801 54.3722 22.304 54.6386 21.4075 54.6404C20.8242 54.6559 20.2435 54.5582 19.6974 54.3526C18.8759 54.0404 18.1657 53.4911 17.657 52.7744C17.1483 52.0577 16.864 51.206 16.8403 50.3274C16.8403 50.2189 16.8403 50.1021 16.8445 49.9937ZM25.0612 49.9937C25.0249 49.2759 24.7787 48.5846 24.3531 48.0055C23.9275 47.4264 23.3413 46.985 22.6671 46.736C21.9933 46.4872 21.2614 46.4412 20.5618 46.6035C19.8621 46.7658 19.2252 47.1294 18.7298 47.6495C18.3605 48.0392 18.0809 48.5049 17.9107 49.0141C17.7406 49.5233 17.6839 50.0636 17.7447 50.5971C17.8055 51.1305 17.9823 51.6441 18.2627 52.102C18.5432 52.5598 18.9204 52.9507 19.3679 53.2472C19.9688 53.639 20.6694 53.8503 21.3866 53.8562C21.8886 53.8641 22.3869 53.769 22.8506 53.5768C23.3128 53.3867 23.7304 53.1026 24.0769 52.7425C24.4185 52.3822 24.6838 51.9565 24.8569 51.4912C25.0299 51.012 25.0996 50.5017 25.0612 49.9937Z" fill="white"/>
<path d="M31.4418 44.1087V45.4394H34.3614V46.1985H31.4418V54.566H30.5867V46.1902H28.8892V45.4394H30.5867V44.042C30.5564 43.7386 30.5876 43.4321 30.6785 43.141C30.7631 42.8491 30.9049 42.5768 31.0956 42.3402C31.4881 41.8664 32.0516 41.5666 32.6638 41.5059C32.8094 41.4892 32.9563 41.4892 33.1018 41.5059C33.7598 41.495 34.3991 41.7249 34.8995 42.1524L34.5491 42.7948C34.1568 42.4569 33.6528 42.277 33.1352 42.2901C32.0174 42.2734 31.4418 42.8949 31.4418 44.1087Z" fill="white"/>
<path d="M42.399 53.9859C41.8792 54.4247 41.2143 54.6538 40.5346 54.6283C40.2009 54.6616 39.864 54.6205 39.5481 54.508C39.2322 54.3954 38.9452 54.2143 38.7077 53.9776C38.4708 53.7428 38.2898 53.4576 38.178 53.1433C38.0652 52.8268 38.0239 52.4892 38.057 52.1548V46.1899H36.3887V45.4391H38.057V43.4495H38.9246V45.4391H41.8442V46.1899H38.9246V52.0672C38.9246 53.2393 39.471 53.8858 40.618 53.8858C41.1367 53.9011 41.6419 53.7192 42.0319 53.3769L42.399 53.9859Z" fill="white"/>
<path d="M59.4159 45.4395L55.9623 54.566H55.1281L52.0583 46.6408L48.9677 54.566H48.1794L44.7217 45.4395H45.5559L48.5965 53.5858L51.708 45.4395H52.4337L55.5327 53.5566L58.6192 45.4395H59.4159Z" fill="white"/>
<path d="M69.4881 48.7758V54.5654H68.6539V52.9261C68.3176 53.4867 67.8312 53.942 67.2496 54.2405C66.6681 54.539 66.0146 54.6689 65.3631 54.6154C63.3235 54.6154 62.0806 53.5601 62.0806 52.0376C62.0806 50.657 62.9565 49.4682 65.484 49.4682H68.6164V48.734C68.6164 47.0322 67.6905 46.127 65.8761 46.127C64.7248 46.1147 63.6095 46.5276 62.7437 47.2866L62.3058 46.6401C63.3287 45.7877 64.6241 45.3317 65.9554 45.3554C68.2243 45.3637 69.4881 46.5191 69.4881 48.7758ZM68.6164 51.875V50.1648H65.5049C63.6238 50.1648 62.9314 50.9489 62.9314 51.9959C62.9314 53.1847 63.8574 53.9272 65.459 53.9272C66.1369 53.9751 66.8119 53.8006 67.3817 53.4303C67.9514 53.06 68.3849 52.5139 68.6164 51.875Z" fill="white"/>
<path d="M79.1279 45.3594V46.1936H78.9027C76.8839 46.1936 75.6869 47.5451 75.6869 49.7975V54.561H74.8193V45.4386H75.6869V47.4325C76.2083 46.0935 77.4262 45.3594 79.1279 45.3594Z" fill="white"/>
<path d="M90.9076 50.2069H83.0621C83.1201 50.9638 83.3953 51.688 83.8546 52.2925C84.2024 52.7475 84.6459 53.1206 85.1539 53.3852C85.6618 53.6498 86.2217 53.7996 86.7939 53.8239C87.3661 53.8481 87.9367 53.7463 88.4652 53.5257C88.9937 53.305 89.4673 52.9709 89.8524 52.5469L90.3612 53.0934C89.9392 53.5824 89.4149 53.9727 88.8253 54.2366C88.2357 54.5004 87.5952 54.6313 86.9494 54.62C85.7641 54.6723 84.6059 54.2548 83.7266 53.4582C82.8473 52.6616 82.3177 51.5502 82.2529 50.3654V50.0275C82.2529 47.2954 84.1257 45.3933 86.6366 45.3933C89.1475 45.3933 90.9827 47.287 90.9827 49.9816C90.9364 50.0479 90.9103 50.1261 90.9076 50.2069ZM83.1038 49.5228H90.0901C90.1063 49.0539 90.0279 48.5865 89.8597 48.1485C89.6914 47.7105 89.4367 47.3109 89.1108 46.9735C88.7848 46.636 88.3942 46.3676 87.9624 46.1844C87.5305 46.0011 87.0661 45.9066 86.5969 45.9066C86.1278 45.9066 85.6634 46.0011 85.2315 46.1844C84.7997 46.3676 84.4091 46.636 84.0831 46.9735C83.7572 47.3109 83.5025 47.7105 83.3342 48.1485C83.166 48.5865 83.0876 49.0539 83.1038 49.5228Z" fill="white"/>
<path d="M108.182 48.7759V54.5697H107.348V52.9263C107.013 53.4873 106.527 53.9437 105.947 54.2444C105.367 54.5456 104.713 54.6771 104.062 54.624C102.022 54.624 100.775 53.5687 100.775 52.0503C100.775 50.6697 101.647 49.4809 104.183 49.4809H107.302V48.7342C107.302 47.0324 106.376 46.1272 104.595 46.1272C103.442 46.1175 102.325 46.5299 101.455 47.2868L101.038 46.6403C102.056 45.7858 103.35 45.3294 104.679 45.3556C106.919 45.3597 108.182 46.5193 108.182 48.7759ZM107.307 51.871V50.1608H104.199C102.314 50.1608 101.626 50.945 101.626 51.9961C101.626 53.1849 102.543 53.9232 104.158 53.9232C104.833 53.9705 105.506 53.7967 106.074 53.4279C106.642 53.0592 107.075 52.5157 107.307 51.8793V51.871Z" fill="white"/>
<path d="M117.827 45.3594V46.1936H117.623C115.596 46.1936 114.403 47.5451 114.403 49.7975V54.561H113.535V45.4386H114.369V47.4325C114.945 46.0935 116.121 45.3594 117.827 45.3594Z" fill="white"/>
<path d="M126.911 53.9859C126.388 54.4249 125.72 54.6538 125.038 54.6283C124.704 54.6607 124.368 54.6192 124.052 54.5067C123.736 54.3942 123.449 54.2136 123.211 53.9776C122.974 53.7401 122.793 53.453 122.681 53.1371C122.568 52.8212 122.527 52.4843 122.56 52.1506V46.1899H120.892V45.4391H122.56V43.4495H123.432V45.4391H126.352V46.1899H123.457V52.0672C123.457 53.2393 124.004 53.8858 125.151 53.8858C125.672 53.8999 126.179 53.7183 126.573 53.3769L126.911 53.9859Z" fill="white"/>
<path d="M130.81 42.5193C130.809 42.4245 130.828 42.3306 130.864 42.2431C130.9 42.1555 130.953 42.076 131.02 42.0092C131.088 41.9424 131.167 41.8897 131.255 41.8541C131.343 41.8185 131.437 41.8007 131.532 41.8018C131.67 41.8037 131.806 41.8473 131.919 41.9269C132.033 42.0055 132.122 42.1157 132.174 42.244C132.226 42.3766 132.239 42.5213 132.211 42.6611C132.182 42.797 132.114 42.9215 132.015 43.0199C131.917 43.1182 131.793 43.1863 131.657 43.2158C131.517 43.2434 131.372 43.2304 131.24 43.1783C131.112 43.1252 131.002 43.037 130.923 42.9239C130.844 42.8038 130.805 42.6625 130.81 42.5193ZM131.094 45.4391H131.961V54.5657H131.094V45.4391Z" fill="white"/>
<path d="M136.049 53.4561L136.445 52.7554C137.386 53.4809 138.544 53.8688 139.732 53.8565C141.663 53.8565 142.422 53.1725 142.422 52.1422C142.422 49.481 136.395 51.4414 136.395 47.8584C136.395 46.4735 137.546 45.3556 139.849 45.3556C140.956 45.3387 142.044 45.6476 142.977 46.2441L142.56 46.9407C141.756 46.3851 140.8 46.0935 139.824 46.1065C138.043 46.1065 137.25 46.8406 137.25 47.8167C137.25 50.5571 143.273 48.6217 143.273 52.1005C143.273 53.5896 141.984 54.6032 139.678 54.6032C138.372 54.6481 137.091 54.2431 136.049 53.4561Z" fill="white"/>
<path d="M151.997 53.9859C151.475 54.4239 150.81 54.6528 150.129 54.6283C149.795 54.6616 149.459 54.6201 149.143 54.5068C148.828 54.3935 148.542 54.2113 148.306 53.9734C148.068 53.7391 147.885 53.4539 147.772 53.1392C147.66 52.824 147.618 52.4878 147.651 52.1548V46.1899H145.983V45.4391H147.651V43.4495H148.527V45.4391H151.422V46.1899H148.527V52.0672C148.527 53.2393 149.074 53.8858 150.221 53.8858C150.737 53.8968 151.24 53.7154 151.63 53.3769L151.997 53.9859Z" fill="white"/>
<path d="M160.462 45.3594V46.1936H160.253C158.226 46.1936 157.037 47.5451 157.037 49.7975V54.561H156.17V45.4386H157.004V47.4325C157.576 46.0935 158.793 45.3594 160.462 45.3594Z" fill="white"/>
<path d="M172.358 45.439L167.703 55.8128C166.977 57.4813 166.056 57.9985 164.859 57.9985C164.47 58.011 164.082 57.9443 163.72 57.8025C163.357 57.6608 163.027 57.448 162.748 57.1768L163.165 56.5344C163.38 56.7684 163.642 56.9535 163.934 57.0773C164.226 57.201 164.541 57.2606 164.859 57.2519C165.693 57.2519 166.306 56.8598 166.865 55.6084L167.353 54.5114L163.249 45.4224H164.216L167.866 53.5854L171.515 45.4224L172.358 45.439Z" fill="white"/>
<path d="M188.823 48.7757V54.5654H187.989V52.9261C187.654 53.4855 187.17 53.9406 186.591 54.2405C186.012 54.5403 185.36 54.673 184.71 54.6238C182.662 54.6238 181.419 53.5685 181.419 52.0501C181.419 50.6653 182.287 49.4765 184.823 49.4765H187.951V48.734C187.951 47.0322 187.025 46.127 185.244 46.127C184.09 46.1142 182.972 46.527 182.103 47.2866L181.666 46.6401C182.685 45.788 183.978 45.3318 185.307 45.3554C187.572 45.3637 188.823 46.5191 188.823 48.7757ZM187.951 51.8708V50.1564H184.84C182.954 50.1564 182.27 50.9406 182.27 51.9917C182.27 53.1805 183.192 53.9188 184.798 53.9188C185.474 53.9678 186.148 53.7946 186.717 53.4258C187.286 53.0569 187.72 52.5124 187.951 51.8749V51.8708Z" fill="white"/>
<path d="M198.684 53.9859C198.162 54.4239 197.496 54.6528 196.816 54.6283C196.483 54.6616 196.146 54.6203 195.831 54.5073C195.516 54.3945 195.231 54.212 194.997 53.9734C194.759 53.7374 194.577 53.4513 194.464 53.136C194.35 52.8207 194.309 52.484 194.342 52.1506V46.1899H192.674V45.4391H194.342V43.4495H195.218V45.4391H198.096V46.1899H195.201V52.0672C195.201 53.2393 195.777 53.8858 196.891 53.8858C197.409 53.8978 197.913 53.7164 198.305 53.3769L198.684 53.9859Z" fill="white"/>
<path d="M208.802 42.5192C208.802 42.4246 208.82 42.331 208.857 42.2437C208.893 42.1564 208.946 42.0771 209.013 42.0104C209.08 41.9437 209.16 41.891 209.248 41.8552C209.335 41.8194 209.429 41.8012 209.523 41.8018C209.662 41.8036 209.797 41.8472 209.911 41.9269C210.026 42.0042 210.115 42.1148 210.166 42.2439C210.22 42.376 210.233 42.5214 210.203 42.661C210.175 42.7966 210.109 42.9212 210.011 43.0198C209.913 43.1181 209.789 43.1862 209.653 43.2158C209.513 43.2427 209.368 43.2296 209.236 43.1783C209.106 43.1237 208.996 43.032 208.919 42.9146C208.841 42.7973 208.801 42.6597 208.802 42.5192ZM209.085 45.4391H209.961V54.5657H209.085V45.4391Z" fill="white"/>
<path d="M219.902 53.9859C219.376 54.4234 218.705 54.6481 218.021 54.6158C217.687 54.6497 217.35 54.6085 217.034 54.4952C216.718 54.3819 216.431 54.1993 216.195 53.9609C215.957 53.7263 215.776 53.4411 215.665 53.1267C215.552 52.8115 215.511 52.4753 215.544 52.1423V46.1899H213.875V45.4391H215.544V43.4495H216.42V45.4391H219.314V46.1899H216.436V52.0672C216.436 53.2393 217.008 53.8858 218.105 53.8858C218.622 53.8992 219.125 53.7175 219.515 53.3769L219.902 53.9859Z" fill="white"/>
<path d="M222.733 53.4562L223.15 52.7554C224.091 53.4816 225.248 53.8695 226.437 53.8566C228.368 53.8566 229.127 53.1725 229.127 52.1422C229.127 49.481 223.104 51.4415 223.104 47.8584C223.104 46.4736 224.251 45.3557 226.558 45.3557C227.665 45.3382 228.753 45.6472 229.686 46.2441L229.269 46.9407C228.464 46.3851 227.506 46.0935 226.528 46.1065C224.752 46.1065 223.955 46.8406 223.955 47.8167C223.955 50.5572 229.978 48.6217 229.978 52.1005C229.978 53.5896 228.689 54.6032 226.387 54.6032C225.074 54.6465 223.785 54.242 222.733 53.4562Z" fill="white"/>
<path d="M243.096 41.5019C243.747 41.4776 244.385 41.6845 244.898 42.0858L244.543 42.7324C244.152 42.3954 243.65 42.2155 243.134 42.2276C241.995 42.2276 241.424 42.87 241.424 44.063V45.3936H244.343V46.1903H241.449V54.5577H240.573V46.1903H238.904V45.4395H240.573V44.0421C240.543 43.7389 240.573 43.4329 240.66 43.1411C240.747 42.8499 240.888 42.5781 241.077 42.3403C241.47 41.8665 242.033 41.5667 242.646 41.506C242.795 41.4826 242.947 41.4811 243.096 41.5019ZM248.668 42.4737C248.668 42.6164 248.625 42.7558 248.547 42.875C248.468 42.9942 248.357 43.0881 248.226 43.1453C248.094 43.1983 247.949 43.2128 247.809 43.187C247.669 43.1589 247.54 43.0896 247.438 42.9878C247.337 42.886 247.269 42.7564 247.242 42.6156C247.212 42.4756 247.226 42.3297 247.284 42.1984C247.34 42.068 247.433 41.9566 247.551 41.8773C247.674 41.795 247.82 41.7541 247.968 41.7605C248.059 41.7566 248.15 41.7723 248.235 41.8064C248.32 41.8384 248.399 41.8882 248.464 41.9523C248.53 42.0172 248.584 42.0935 248.623 42.1776C248.658 42.2623 248.678 42.3527 248.681 42.4446L248.668 42.4737ZM247.509 45.4144H248.393V54.5577H247.484L247.509 45.4144Z" fill="white"/>
<path d="M261.961 49.2227V54.5576H261.09V49.2936C261.09 47.233 259.997 46.1527 258.141 46.1527C255.997 46.1527 254.683 47.5292 254.683 49.6982V54.5576H253.815V45.4394H254.65V47.4165C254.984 46.7591 255.504 46.2147 256.146 45.8512C256.787 45.4877 257.522 45.3213 258.257 45.3726C260.481 45.3643 261.961 46.6908 261.961 49.2227Z" fill="white"/>
<path d="M275.016 50.2067H267.178C267.233 50.9683 267.509 51.6973 267.973 52.3037C268.437 52.9101 269.069 53.3672 269.789 53.6187C270.511 53.8729 271.292 53.9088 272.033 53.7218C272.775 53.5349 273.445 53.1334 273.96 52.5676L274.469 53.114C274.041 53.6013 273.511 53.9875 272.916 54.245C272.321 54.5025 271.676 54.6248 271.028 54.6031C269.845 54.6522 268.69 54.234 267.812 53.4388C266.934 52.6436 266.404 51.5352 266.336 50.3527V49.9689C266.336 47.2326 268.204 45.3347 270.72 45.3347C273.235 45.3347 275.057 47.2243 275.057 49.923C275.037 50.0166 275.023 50.1113 275.016 50.2067ZM267.195 49.5226H274.202C274.171 48.6181 273.79 47.7611 273.139 47.1322C272.488 46.5034 271.618 46.152 270.713 46.152C269.808 46.152 268.939 46.5034 268.288 47.1322C267.637 47.7611 267.256 48.6181 267.224 49.5226H267.195Z" fill="white"/>
<path d="M278.135 53.4561L278.552 52.7553C279.495 53.4775 280.651 53.8649 281.839 53.8565C283.77 53.8565 284.529 53.1725 284.529 52.1422C284.529 49.481 278.506 51.4414 278.506 47.8584C278.506 46.4735 279.657 45.3556 281.964 45.3556C283.07 45.3387 284.156 45.6477 285.088 46.2441L284.671 46.9407C283.866 46.385 282.908 46.0935 281.93 46.1065C280.153 46.1065 279.357 46.8406 279.357 47.8166C279.357 50.5571 285.38 48.6217 285.38 52.1005C285.38 53.5896 284.091 54.6032 281.789 54.6032C280.476 54.6457 279.188 54.2413 278.135 53.4561Z" fill="white"/>
<path d="M294.098 53.9859C293.574 54.4259 292.905 54.6549 292.221 54.6283C291.886 54.6614 291.549 54.6201 291.232 54.5073C290.918 54.394 290.633 54.2115 290.398 53.9734C290.16 53.74 289.978 53.4544 289.868 53.1392C289.756 52.824 289.714 52.4878 289.747 52.1548V46.1899H288.079V45.4391H289.747V43.4495H290.636V45.4391H293.514V46.1899H290.636V52.0672C290.636 53.2393 291.182 53.8858 292.329 53.8858C292.847 53.8978 293.352 53.7164 293.743 53.3769L294.098 53.9859Z" fill="white"/>
</svg>
