<svg id="Group_34910" data-name="Group 34910" xmlns="http://www.w3.org/2000/svg" width="202.207" height="53.15" viewBox="0 0 202.207 53.15">
  <g id="logo1" transform="translate(0 0)">
    <g id="Group_31764" data-name="Group 31764" transform="translate(163.611)">
      <path id="Path_1" data-name="Path 1" d="M616.713,39.947a1.3,1.3,0,1,0-1.3-1.3A1.3,1.3,0,0,0,616.713,39.947Z" transform="translate(-610.128 -33.535)" fill="#263b58"/>
      <path id="Path_2" data-name="Path 2" d="M601.589,26.188a.829.829,0,1,0-.829-.829A.829.829,0,0,0,601.589,26.188Z" transform="translate(-599.638 -24.362)" fill="#263b58"/>
      <path id="Path_3" data-name="Path 3" d="M602.551,38.013a1.227,1.227,0,1,1,.46-2.36,1.2,1.2,0,0,1,.551.449,1.224,1.224,0,0,1-.145,1.548,1.191,1.191,0,0,1-.395.264,1.269,1.269,0,0,1-.469.1Zm0-2.01a.806.806,0,0,0-.44.131.786.786,0,0,0-.284.352.813.813,0,0,0-.048.457.8.8,0,0,0,.216.4.775.775,0,0,0,.4.219.787.787,0,0,0,.457-.043.8.8,0,0,0,.355-.284.769.769,0,0,0,.133-.437.732.732,0,0,0-.054-.3.772.772,0,0,0-.165-.258.785.785,0,0,0-.256-.173.829.829,0,0,0-.3-.065Z" transform="translate(-600.035 -32.26)" fill="#263b58"/>
      <path id="Path_4" data-name="Path 4" d="M610.568,31.636a.568.568,0,1,0-.568-.568A.568.568,0,0,0,610.568,31.636Z" transform="translate(-606.254 -28.637)" fill="#263b58"/>
      <path id="Path_5" data-name="Path 5" d="M615.379,25.686a.852.852,0,0,1-.486-.148.875.875,0,0,1-.133-1.349.851.851,0,0,1,.451-.233.877.877,0,0,1,.505.048.911.911,0,0,1,.395.324.852.852,0,0,1,.148.486.883.883,0,0,1-.877.877Zm0-1.315a.44.44,0,0,0-.244.074.429.429,0,0,0-.185.449.434.434,0,0,0,.344.344.426.426,0,0,0,.253-.023.454.454,0,0,0,.2-.162.449.449,0,0,0,.074-.244A.437.437,0,0,0,615.379,24.371Z" transform="translate(-609.479 -23.939)" fill="#263b58"/>
      <path id="Path_6" data-name="Path 6" d="M616.92,63.292a9.308,9.308,0,0,0-11.537-5.216l.44,1.261a7.951,7.951,0,0,1,10.41,6.293,8.62,8.62,0,0,0-1.86-.838,4.357,4.357,0,0,0-.437-.119,6.037,6.037,0,0,0-9.879-2.027,6.481,6.481,0,0,0-.437.491V52H605.2V50.687h-2.9v16.47a10.548,10.548,0,0,1-1.948-1.349V50.67H596.81v1.312H599V66.907a9.322,9.322,0,1,0,17.921-3.615Zm-3.856,3.632a4.705,4.705,0,0,1-9.018,1.863,5.341,5.341,0,0,0,.852.077h.06a5.146,5.146,0,0,0,3.777-1.721,4.946,4.946,0,0,1,4.1-1.7,4.6,4.6,0,0,1,.236,1.479Zm-9.413,0a4.7,4.7,0,0,1,8.715-2.431,5.912,5.912,0,0,0-4.35,2,4.157,4.157,0,0,1-3.124,1.42,4.662,4.662,0,0,1-1.187-.17,4.751,4.751,0,0,1-.074-.829Zm4.685,8.008a8,8,0,0,1-7.976-7.832c.114.088.227.176.355.258a9.19,9.19,0,0,0,1.752.994,6.034,6.034,0,0,0,11.9-1.42,6.134,6.134,0,0,0-.105-1.136,8.151,8.151,0,0,1,2.05,1.071v.082a7.993,7.993,0,0,1-7.971,7.991Z" transform="translate(-596.81 -43.08)" fill="#263b58"/>
    </g>
    <path id="Path_7" data-name="Path 7" d="M480.039,82.269v4.066H468.13v-1.2h10.7V83.5h-10.7V64.76h4.222V80.636h-1.21V65.964h-1.809v16.3Z" transform="translate(-341.058 -53.169)" fill="#263b58"/>
    <path id="Path_8" data-name="Path 8" d="M547.3,86.328H542.9l-1.959-5.37h-10.3l-1.528,4.174h1.826l.923-2.519h1.315l-1.346,3.726H527.39l2.394-6.571h12.023l1.931,5.364h1.84l-6.966-19.156h-2.53l-3.975,10.949h7.383l-2.138-5.858L535.8,75.285h-1.284l2.84-7.758,3.856,10.614H530.42l4.827-13.392h4.231Z" transform="translate(-383.491 -53.161)" fill="#263b58"/>
    <path id="Path_9" data-name="Path 9" d="M694.844,79.726c0,4.1-3.22,6.23-7.684,6.23A14.729,14.729,0,0,1,679.82,84l1.42-3.833a13.248,13.248,0,0,0,5.909,1.806c2.272,0,3.55-.676,3.55-2.255,0-2.717-1.814-3.453-3.606-4.421s-3.5-1.971-3.5-4.734c0-1.82,1.235-3.541,4.382-3.541a10.668,10.668,0,0,1,4.222.934l.585-1.621a9.787,9.787,0,0,0-4.827-.914c-3.354,0-6.131,1.749-6.131,5.16a6.057,6.057,0,0,0,3.882,5.83l-.389,1.1a7.255,7.255,0,0,1-4.657-6.946c0-4.2,3.407-6.335,7.3-6.335a11.485,11.485,0,0,1,6.3,1.491l-1.4,3.839a10.538,10.538,0,0,0-4.884-1.312c-2.1,0-3.178.875-3.178,2.351,0,2.189,1.36,2.874,2.9,3.691,1.956,1.025,4.194,2.081,4.194,5.432,0,1.284-.608,3.439-4.728,3.439A12.641,12.641,0,0,1,681.9,81.81l-.611,1.621a12.929,12.929,0,0,0,5.869,1.326,8.031,8.031,0,0,0,4.8-1.312,4.41,4.41,0,0,0,1.7-3.728c0-3.183-1.491-5.3-4.884-6.69l.4-1.119C692.845,73.413,694.844,75.835,694.844,79.726Z" transform="translate(-492.637 -52.789)" fill="#263b58"/>
    <path id="Path_10" data-name="Path 10" d="M31.1,180.7l.284-.44a3.953,3.953,0,0,0,2.749,1.048c1.661,0,2.4-.724,2.4-1.63,0-2.5-5.2-1-5.2-4.069,0-1.178.9-2.218,2.947-2.218a4.475,4.475,0,0,1,2.5.741l-.227.486a4.134,4.134,0,0,0-2.272-.7c-1.61,0-2.337.744-2.337,1.67,0,2.5,5.194,1.025,5.194,4.044,0,1.176-.94,2.189-2.982,2.189A4.342,4.342,0,0,1,31.1,180.7Z" transform="translate(-28.127 -130.952)" fill="#263b58"/>
    <path id="Path_11" data-name="Path 11" d="M60.663,184.258a3.019,3.019,0,1,1,1.942,2.967,3.018,3.018,0,0,1-1.945-2.74C60.66,184.412,60.66,184.332,60.663,184.258Zm5.594,0a2.5,2.5,0,1,0-3.876,2.215,2.556,2.556,0,0,0,1.374.415,2.5,2.5,0,0,0,1-.19,2.454,2.454,0,0,0,.835-.568,2.51,2.51,0,0,0,.531-.852A2.456,2.456,0,0,0,66.257,184.258Z" transform="translate(-49.293 -136.559)" fill="#263b58"/>
    <path id="Path_12" data-name="Path 12" d="M91.288,173.32v.906h1.988v.517H91.288v5.7h-.582v-5.7H89.55v-.511h1.156v-.951a1.542,1.542,0,0,1,.062-.613,1.562,1.562,0,0,1,.284-.545,1.59,1.59,0,0,1,1.068-.568,1.306,1.306,0,0,1,.3,0,1.837,1.837,0,0,1,1.224.44l-.239.437a1.42,1.42,0,0,0-.963-.344C91.68,172.071,91.288,172.494,91.288,173.32Z" transform="translate(-69.98 -129.627)" fill="#263b58"/>
    <path id="Path_13" data-name="Path 13" d="M111.622,183.4a1.86,1.86,0,0,1-1.269.437,1.545,1.545,0,0,1-1.244-.443,1.514,1.514,0,0,1-.361-.568,1.551,1.551,0,0,1-.082-.673V178.1H107.53v-.511h1.136V176.23h.591v1.354h1.988v.511h-1.988v4c0,.8.372,1.238,1.153,1.238a1.4,1.4,0,0,0,.963-.346Z" transform="translate(-82.854 -132.986)" fill="#263b58"/>
    <path id="Path_14" data-name="Path 14" d="M137.514,181l-2.351,6.213h-.568l-2.09-5.4-2.1,5.4h-.537L127.51,181h.568l2.07,5.546L132.266,181h.494l2.11,5.526,2.1-5.526Z" transform="translate(-97.16 -136.401)" fill="#263b58"/>
    <path id="Path_15" data-name="Path 15" d="M174.173,183.127v3.941h-.568v-1.116a2.385,2.385,0,0,1-2.24,1.15c-1.389,0-2.235-.718-2.235-1.755,0-.94.6-1.749,2.317-1.749h2.133v-.5a1.624,1.624,0,0,0-1.866-1.775,3.183,3.183,0,0,0-2.133.789l-.3-.44a3.777,3.777,0,0,1,2.485-.875A2.126,2.126,0,0,1,174.173,183.127Zm-.593,2.11v-1.164h-2.118c-1.281,0-1.752.534-1.752,1.247,0,.809.63,1.315,1.721,1.315A2.127,2.127,0,0,0,173.58,185.237Z" transform="translate(-126.962 -136.256)" fill="#263b58"/>
    <path id="Path_16" data-name="Path 16" d="M202.6,180.81v.568h-.153c-1.374,0-2.189.92-2.189,2.453v3.243h-.591v-6.21h.591v1.357A2.3,2.3,0,0,1,202.6,180.81Z" transform="translate(-148.83 -136.265)" fill="#263b58"/>
    <path id="Path_17" data-name="Path 17" d="M223.382,184.167h-5.341a2.661,2.661,0,0,0,4.623,1.593l.346.372a3,3,0,0,1-2.323,1.039,3.067,3.067,0,0,1-3.2-2.9v-.23a2.966,2.966,0,0,1,2.984-3.155,2.934,2.934,0,0,1,2.959,3.124A.284.284,0,0,0,223.382,184.167Zm-5.313-.466h4.756a2.38,2.38,0,1,0-4.756,0Z" transform="translate(-161.59 -136.322)" fill="#263b58"/>
    <path id="Path_18" data-name="Path 18" d="M266.943,183.127v3.944h-.568v-1.119a2.4,2.4,0,0,1-.954.9,2.368,2.368,0,0,1-1.284.258c-1.389,0-2.238-.718-2.238-1.752,0-.94.594-1.749,2.32-1.749h2.124V183.1a1.616,1.616,0,0,0-1.843-1.775,3.217,3.217,0,0,0-2.138.789l-.284-.44a3.743,3.743,0,0,1,2.479-.875A2.118,2.118,0,0,1,266.943,183.127Zm-.6,2.107v-1.164h-2.116c-1.283,0-1.752.534-1.752,1.249,0,.809.625,1.312,1.724,1.312a2.124,2.124,0,0,0,2.144-1.391Z" transform="translate(-193.389 -136.256)" fill="#263b58"/>
    <path id="Path_19" data-name="Path 19" d="M295.412,180.81v.568h-.139c-1.38,0-2.192.92-2.192,2.453v3.243h-.591v-6.21h.568v1.357A2.349,2.349,0,0,1,295.412,180.81Z" transform="translate(-215.293 -136.265)" fill="#263b58"/>
    <path id="Path_20" data-name="Path 20" d="M314.228,183.4a1.874,1.874,0,0,1-1.275.437,1.539,1.539,0,0,1-1.687-1.687V178.1H310.13v-.511h1.136V176.23h.593v1.354h1.988v.511h-1.971v4c0,.8.372,1.238,1.153,1.238a1.42,1.42,0,0,0,.968-.346Z" transform="translate(-227.924 -132.986)" fill="#263b58"/>
    <path id="Path_21" data-name="Path 21" d="M333.909,172.768a.486.486,0,0,1,.491-.488.471.471,0,0,1,.264.085.482.482,0,0,1,.173.216.508.508,0,0,1,.026.284.494.494,0,0,1-.378.378.508.508,0,0,1-.284-.026.5.5,0,0,1-.216-.173A.474.474,0,0,1,333.909,172.768Zm.193,1.988h.591v6.213H334.1Z" transform="translate(-244.951 -130.157)" fill="#263b58"/>
    <path id="Path_22" data-name="Path 22" d="M346.47,186.313l.27-.477a3.6,3.6,0,0,0,2.238.75c1.315,0,1.832-.466,1.832-1.167,0-1.812-4.1-.477-4.1-2.916,0-.943.784-1.7,2.351-1.7a3.845,3.845,0,0,1,2.13.6l-.284.474a3.2,3.2,0,0,0-1.863-.568c-1.213,0-1.752.5-1.752,1.164,0,1.866,4.1.548,4.1,2.916,0,1.014-.877,1.7-2.448,1.7A3.879,3.879,0,0,1,346.47,186.313Z" transform="translate(-253.945 -136.257)" fill="#263b58"/>
    <path id="Path_23" data-name="Path 23" d="M374.385,183.4a1.874,1.874,0,0,1-1.272.437,1.533,1.533,0,0,1-1.241-.446,1.511,1.511,0,0,1-.363-.568,1.539,1.539,0,0,1-.082-.67V178.1H370.29v-.511h1.136V176.23h.6v1.354h1.971v.511h-1.971v4c0,.8.372,1.238,1.153,1.238a1.42,1.42,0,0,0,.96-.346Z" transform="translate(-271.001 -132.986)" fill="#263b58"/>
    <path id="Path_24" data-name="Path 24" d="M397.632,180.81v.568h-.142c-1.38,0-2.189.92-2.189,2.453v3.243h-.591v-6.21h.568v1.357A2.369,2.369,0,0,1,397.632,180.81Z" transform="translate(-288.487 -136.265)" fill="#263b58"/>
    <path id="Path_25" data-name="Path 25" d="M417.022,180.971l-3.169,7.062c-.494,1.136-1.122,1.488-1.937,1.488a1.957,1.957,0,0,1-.775-.133,1.988,1.988,0,0,1-.662-.426l.284-.437a1.508,1.508,0,0,0,1.153.488c.568,0,.985-.267,1.366-1.119l.332-.747-2.794-6.187h.659l2.485,5.557,2.485-5.557Z" transform="translate(-299.779 -136.373)" fill="#263b58"/>
    <path id="Path_26" data-name="Path 26" d="M460.29,183.127v3.941h-.568v-1.116a2.391,2.391,0,0,1-2.232,1.156c-1.394,0-2.24-.718-2.24-1.752,0-.943.591-1.752,2.317-1.752h2.13V183.1a1.616,1.616,0,0,0-1.843-1.775,3.2,3.2,0,0,0-2.138.789l-.3-.44a3.762,3.762,0,0,1,2.479-.875A2.118,2.118,0,0,1,460.29,183.127Zm-.593,2.107v-1.167h-2.118c-1.284,0-1.749.534-1.749,1.249,0,.809.628,1.312,1.721,1.312a2.121,2.121,0,0,0,2.147-1.391Z" transform="translate(-331.836 -136.256)" fill="#263b58"/>
    <path id="Path_27" data-name="Path 27" d="M486.322,183.4a1.874,1.874,0,0,1-1.272.437,1.533,1.533,0,0,1-.67-.082,1.51,1.51,0,0,1-.568-.363,1.533,1.533,0,0,1-.446-1.241V178.1H482.23v-.511h1.136V176.23h.6v1.354h1.959v.511h-1.971v4c0,.8.392,1.238,1.15,1.238a1.42,1.42,0,0,0,.963-.346Z" transform="translate(-351.155 -132.986)" fill="#263b58"/>
    <path id="Path_28" data-name="Path 28" d="M520.9,172.768a.488.488,0,0,1,.491-.488.472.472,0,0,1,.264.085.462.462,0,0,1,.173.216.482.482,0,0,1,.026.284.488.488,0,0,1-.131.244.494.494,0,0,1-.244.133.517.517,0,0,1-.284-.026A.483.483,0,0,1,520.9,172.768Zm.193,1.988h.6v6.213h-.6Z" transform="translate(-378.844 -130.157)" fill="#263b58"/>
    <path id="Path_29" data-name="Path 29" d="M537.163,183.4a1.865,1.865,0,0,1-1.281.429,1.534,1.534,0,0,1-1.244-.446,1.506,1.506,0,0,1-.361-.568,1.541,1.541,0,0,1-.082-.67V178.1H533.06v-.511H534.2V176.23h.6v1.354h1.971v.511H534.8v4c0,.8.389,1.238,1.136,1.238a1.4,1.4,0,0,0,.96-.346Z" transform="translate(-387.551 -132.986)" fill="#263b58"/>
    <path id="Path_30" data-name="Path 30" d="M554.3,186.313l.284-.477a3.6,3.6,0,0,0,2.238.75c1.315,0,1.832-.466,1.832-1.167,0-1.812-4.1-.477-4.1-2.916,0-.943.781-1.7,2.351-1.7a3.839,3.839,0,0,1,2.13.6l-.284.474a3.209,3.209,0,0,0-1.865-.568c-1.21,0-1.752.5-1.752,1.164,0,1.866,4.1.548,4.1,2.916,0,1.014-.877,1.7-2.445,1.7a3.941,3.941,0,0,1-2.487-.781Z" transform="translate(-402.76 -136.257)" fill="#263b58"/>
    <path id="Path_31" data-name="Path 31" d="M595.924,171.535a1.877,1.877,0,0,1,1.227.4l-.241.44a1.419,1.419,0,0,0-.96-.344c-.775,0-1.164.437-1.164,1.249v.906h1.988v.542H594.8v5.7h-.6v-5.7H593.07v-.511h1.136v-.951a1.564,1.564,0,0,1,1.411-1.726A1.049,1.049,0,0,1,595.924,171.535Zm3.794.662a.5.5,0,0,1-.3.457.514.514,0,0,1-.284.028.491.491,0,0,1-.386-.389.466.466,0,0,1,.028-.284.506.506,0,0,1,.182-.219.473.473,0,0,1,.284-.079.436.436,0,0,1,.182.031.446.446,0,0,1,.156.1.471.471,0,0,1,.148.335Zm-.789,2h.6v6.224h-.619Z" transform="translate(-430.521 -129.617)" fill="#263b58"/>
    <path id="Path_32" data-name="Path 32" d="M634.366,183.445v3.632h-.594v-3.584a1.875,1.875,0,0,0-2.008-2.138,2.214,2.214,0,0,0-2.354,2.414v3.308h-.591V180.87h.568v1.346a2.556,2.556,0,0,1,2.456-1.391A2.353,2.353,0,0,1,634.366,183.445Z" transform="translate(-456.119 -136.271)" fill="#263b58"/>
    <path id="Path_33" data-name="Path 33" d="M664.749,184.067h-5.336a2.661,2.661,0,0,0,4.617,1.607l.346.372a2.984,2.984,0,0,1-2.343,1.014,3.072,3.072,0,0,1-3.195-2.894V183.9a2.962,2.962,0,0,1,2.984-3.155,2.926,2.926,0,0,1,2.953,3.124A1.515,1.515,0,0,0,664.749,184.067Zm-5.324-.466H664.2a2.377,2.377,0,0,0-4.751,0Z" transform="translate(-477.615 -136.222)" fill="#263b58"/>
    <path id="Path_34" data-name="Path 34" d="M687.13,186.313l.284-.477a3.637,3.637,0,0,0,2.238.75c1.315,0,1.832-.466,1.832-1.167,0-1.812-4.1-.477-4.1-2.916,0-.943.784-1.7,2.354-1.7a3.837,3.837,0,0,1,2.127.6l-.284.474a3.209,3.209,0,0,0-1.866-.568c-1.21,0-1.752.5-1.752,1.164,0,1.866,4.1.548,4.1,2.916,0,1.014-.877,1.7-2.445,1.7A3.948,3.948,0,0,1,687.13,186.313Z" transform="translate(-497.871 -136.257)" fill="#263b58"/>
    <path id="Path_35" data-name="Path 35" d="M715.068,183.4a1.874,1.874,0,0,1-1.278.437,1.551,1.551,0,0,1-.673-.082,1.523,1.523,0,0,1-.568-.363,1.47,1.47,0,0,1-.361-.568,1.539,1.539,0,0,1-.082-.67V178.1H710.97v-.511h1.136V176.23h.6v1.354h1.959v.511h-1.959v4c0,.8.372,1.238,1.153,1.238a1.42,1.42,0,0,0,.963-.346Z" transform="translate(-514.942 -132.986)" fill="#263b58"/>
    <path id="Path_36" data-name="Path 36" d="M26.13,71.329H23.257c-1.729,0-2.627-.744-2.627-2.15,0-1.491.875-2.189,2.627-2.189h10.79c1.667,0,2.556.707,2.556,2.189,0,1.42-.877,2.15-2.556,2.15h-2.9v14.53c0,1.55-.815,2.311-2.453,2.311-1.724,0-2.576-.761-2.576-2.311Z" transform="translate(-20.63 -54.765)" fill="#d94427"/>
    <path id="Path_37" data-name="Path 37" d="M95.51,84.3H87.494c-.315.71-.568,1.389-.852,2.045A2.652,2.652,0,0,1,85.608,87.7a2.684,2.684,0,0,1-1.63.434,2.1,2.1,0,0,1-2.388-2.152,2.865,2.865,0,0,1,.19-.9l6.6-16.171a3.38,3.38,0,0,1,6.105,0c6.951,16.444,7.008,16.813,7.008,17.1,0,1.227-.875,2.124-2.448,2.124a2.42,2.42,0,0,1-2.416-1.394Zm-6.352-4.381h4.475c-.877-2.15-1.073-2.5-2.189-5.4Z" transform="translate(-64.28 -54.754)" fill="#d94427"/>
    <path id="Path_38" data-name="Path 38" d="M165.8,69.039c0-1.494.852-2.189,2.513-2.189s2.556.71,2.556,2.189V85.816c0,1.488-.852,2.189-2.556,2.189s-2.513-.7-2.513-2.189Z" transform="translate(-124.578 -54.665)" fill="#d94427"/>
    <path id="Path_39" data-name="Path 39" d="M200.34,69.039c0-1.494.852-2.189,2.479-2.189,1.752,0,2.556.71,2.556,2.189V83.683h7.883c1.732,0,2.556.744,2.556,2.15,0,1.491-.812,2.189-2.556,2.189H203.231c-1.951,0-2.891-.929-2.891-2.7Z" transform="translate(-149.31 -54.665)" fill="#d94427"/>
    <path id="Path_40" data-name="Path 40" d="M267.221,69.039c0-1.494.852-2.189,2.485-2.189,1.729,0,2.556.71,2.556,2.189V83.683h7.886c1.724,0,2.556.744,2.556,2.15,0,1.491-.821,2.189-2.556,2.189H270.078c-1.945,0-2.888-.929-2.888-2.7Z" transform="translate(-197.177 -54.665)" fill="#d94427"/>
    <path id="Path_41" data-name="Path 41" d="M333,69.039c0-1.494.852-2.189,2.516-2.189s2.556.71,2.556,2.189V85.816c0,1.488-.852,2.189-2.556,2.189S333,87.3,333,85.816Z" transform="translate(-244.3 -54.665)" fill="#d94427"/>
    <path id="Path_42" data-name="Path 42" d="M375.153,69.278c-1.292,0-2.107.372-2.107,1.55,0,1.315,1.917,1.752,3.87,2.556,3.8,1.607,6.5,3.1,6.5,6.449,0,4.41-3.726,7.005-8.576,7.005a11.605,11.605,0,0,1-5.813-1.494,2.4,2.4,0,0,1-1.451-2.15c0-1.44.821-2.093,2.453-2.093a4.132,4.132,0,0,1,1.866.437,6.434,6.434,0,0,0,2.959.75c1.724,0,3.237-.792,3.237-2.343,0-.926-.852-1.55-3.356-2.556-3.18-1.241-6.934-2.774-6.934-6.466,0-3.067,2.953-6.176,7.417-6.176a9.967,9.967,0,0,1,5.466,1.576,2.54,2.54,0,0,1,1.42,2.127,2.436,2.436,0,0,1-2.482,2.272,3.283,3.283,0,0,1-1.988-.676A4.364,4.364,0,0,0,375.153,69.278Z" transform="translate(-269.061 -53.16)" fill="#d94427"/>
  </g>
</svg>
