<svg width="87" height="80" viewBox="0 0 87 80" fill="none" xmlns="http://www.w3.org/2000/svg">
<path d="M69.4866 79.4192C72.7652 79.4192 75.9702 78.447 78.6963 76.6255C81.4224 74.8039 83.5472 72.215 84.8018 69.1859C86.0565 66.1568 86.3849 62.8237 85.7453 59.608C85.1057 56.3924 83.5267 53.4386 81.2083 51.1202C78.89 48.8019 75.9362 47.2231 72.7205 46.5834C69.5049 45.9438 66.1718 46.2721 63.1427 47.5268C60.1136 48.7814 57.5246 50.9062 55.7031 53.6323C53.8816 56.3584 52.9093 59.5634 52.9093 62.8421C52.9093 67.2386 54.656 71.4551 57.7648 74.5639C60.8736 77.6727 65.09 79.4192 69.4866 79.4192Z" fill="#365177" fill-opacity="0.2"/>
<path d="M10.5458 21.0916C12.6315 21.0916 14.6704 20.4731 16.4047 19.3144C18.1389 18.1556 19.4907 16.5085 20.2889 14.5815C21.0871 12.6545 21.2959 10.5341 20.8889 8.48844C20.482 6.44275 19.4777 4.56366 18.0028 3.0888C16.5279 1.61394 14.6488 0.609553 12.6031 0.20264C10.5574 -0.204273 8.43706 0.00456829 6.51006 0.802756C4.58307 1.60094 2.93614 2.95263 1.77736 4.68688C0.618566 6.42113 0 8.46006 0 10.5458C0 13.3428 1.11099 16.0251 3.08871 18.0028C5.06644 19.9806 7.74883 21.0916 10.5458 21.0916Z" fill="#365177" fill-opacity="0.2"/>
<path d="M40.5941 36.0083C42.0227 36.0083 43.4193 35.5847 44.6071 34.791C45.795 33.9973 46.7208 32.8692 47.2675 31.5494C47.8142 30.2295 47.9571 28.7772 47.6784 27.376C47.3997 25.9748 46.7118 24.6878 45.7016 23.6776C44.6914 22.6675 43.4045 21.9795 42.0034 21.7008C40.6022 21.4221 39.1498 21.5651 37.8299 22.1118C36.51 22.6585 35.3819 23.5844 34.5882 24.7722C33.7945 25.96 33.371 27.3566 33.371 28.7852C33.371 30.7009 34.1321 32.5381 35.4867 33.8927C36.8413 35.2473 38.6784 36.0083 40.5941 36.0083Z" fill="#365177" fill-opacity="0.2"/>
</svg>
