<svg width="110" height="102" viewBox="0 0 110 102" fill="none" xmlns="http://www.w3.org/2000/svg">
<path d="M88.4812 101.52C92.6561 101.52 96.7372 100.282 100.208 97.9623C103.68 95.6429 106.385 92.3462 107.983 88.4891C109.581 84.632 109.999 80.3877 109.184 76.293C108.37 72.1984 106.359 68.4372 103.407 65.4851C100.455 62.533 96.6939 60.5226 92.5992 59.7081C88.5045 58.8936 84.2603 59.3116 80.4032 60.9093C76.5461 62.507 73.2494 65.2125 70.9299 68.6838C68.6105 72.1551 67.3724 76.2363 67.3724 80.4111C67.3724 86.0095 69.5966 91.3786 73.5552 95.3372C77.5138 99.2959 82.8828 101.52 88.4812 101.52Z" fill="#1A2F4D"/>
<path d="M13.4285 27.2483C16.0844 27.2483 18.6807 26.4607 20.889 24.9852C23.0973 23.5096 24.8187 21.4124 25.835 18.9586C26.8514 16.5049 27.1172 13.8048 26.5991 11.1999C26.0809 8.59503 24.802 6.20228 22.924 4.32426C21.046 2.44624 18.6531 1.16729 16.0482 0.649146C13.4433 0.131001 10.7434 0.39693 8.28963 1.41331C5.83588 2.42969 3.73876 4.15086 2.26321 6.35918C0.787655 8.5675 0 11.1638 0 13.8197C0 17.3812 1.41469 20.7968 3.93304 23.3152C6.45138 25.8335 9.86703 27.2483 13.4285 27.2483Z" fill="#1A2F4D"/>
<path d="M51.6908 46.2425C53.51 46.2425 55.2883 45.7031 56.8008 44.6924C58.3133 43.6818 59.4923 42.2453 60.1885 40.5646C60.8846 38.884 61.0666 37.0346 60.7117 35.2505C60.3568 33.4663 59.4807 31.8274 58.1944 30.5411C56.9081 29.2548 55.2695 28.3788 53.4853 28.0239C51.7011 27.669 49.8516 27.8512 48.171 28.5473C46.4903 29.2435 45.0538 30.4223 44.0431 31.9349C43.0325 33.4474 42.4932 35.2257 42.4932 37.0448C42.4932 39.4842 43.4623 41.8237 45.1872 43.5486C46.9121 45.2735 49.2515 46.2425 51.6908 46.2425Z" fill="#1A2F4D"/>
</svg>
