<?xml version="1.0" encoding="UTF-8"?>
<svg width="1281px" height="791px" viewBox="0 0 1281 791" version="1.1" xmlns="http://www.w3.org/2000/svg" xmlns:xlink="http://www.w3.org/1999/xlink">
    <!-- Generator: Sketch 63.1 (92452) - https://sketch.com -->
    <title>i1280_header_shapebg2</title>
    <desc>Created with Sketch.</desc>
    <g id="WWD" stroke="none" stroke-width="1" fill="none" fill-rule="evenodd">
        <g id="WWD_1920-Copy" transform="translate(-1279.000000, -125.000000)">
            <g id="1.-Главный-блок">
                <g id="Bg">
                    <g id="Group-14" transform="translate(-719.500000, -1030.482759)">
                        <g id="Group-15" transform="translate(101.500000, 13.482759)">
                            <g id="Shape-Copy">
                                <path d="M2724.33815,1319.13601 C2910.09245,1309.9841 3070.04159,1088.36739 3245.50352,1153.4711 C3420.78778,1218.50854 3538.92249,1431.13029 3553.75626,1626.88308 C3567.91587,1813.73661 3375.89708,1938.49601 3318.43113,2115.83024 C3262.49846,2288.42798 3362.37754,2529.82451 3225.24977,2640.60084 C3088.76694,2750.85747 2896.01558,2589.80124 2724.33815,2595.76495 C2543.03033,2602.06312 2344.66672,2790.43459 2198.92539,2676.24933 C2052.81558,2561.77334 2156.16568,2308.07633 2117.40757,2120.23999 C2084.30405,1959.80638 1967.80865,1821.88461 1989.0746,1659.22296 C2012.35943,1481.12204 2081.49087,1275.21397 2237.3087,1203.14233 C2393.59017,1130.85582 2553.93601,1327.53126 2724.33815,1319.13601 Z" id="Path" fill="#1D1E26"></path>
                                <path d="M2732.87574,1431.25887 C2884.27497,1423.79446 3014.64168,1243.04112 3157.6521,1296.14052 C3300.51772,1349.18586 3396.80353,1522.60279 3408.89381,1682.26119 C3420.43462,1834.66124 3263.9295,1936.41656 3217.09183,2081.05255 C3171.50385,2221.8254 3252.91039,2418.71141 3141.14426,2509.06195 C3029.90379,2598.98862 2872.8016,2467.62916 2732.87574,2472.49324 C2585.10061,2477.63011 2423.42415,2631.26821 2304.63753,2538.1373 C2185.55058,2444.76926 2269.78619,2237.85084 2238.19635,2084.6492 C2211.21529,1953.79755 2116.26559,1841.30686 2133.59843,1708.638 C2152.57675,1563.37669 2208.9224,1395.43551 2335.92189,1336.65299 C2463.29925,1277.69522 2593.9893,1438.10614 2732.87574,1431.25887 Z" id="Path-Copy-2" fill="#181921"></path>
                                <path d="M2739.11701,1513.91879 C2865.4015,1507.69845 2974.14243,1357.07067 3093.42969,1401.32016 C3212.59616,1445.52461 3292.90968,1590.03873 3302.99437,1723.08739 C3312.62074,1850.08743 3182.07735,1934.88353 3143.0093,2055.41353 C3104.98365,2172.72424 3172.88613,2336.7959 3079.66024,2412.08802 C2986.8728,2487.02692 2855.83138,2377.5607 2739.11701,2381.6141 C2615.85544,2385.89482 2480.99855,2513.92658 2381.91675,2436.31748 C2282.58444,2358.51078 2352.84669,2186.07876 2326.49711,2058.41073 C2303.99178,1949.36769 2224.79274,1855.62545 2239.25033,1745.06807 C2255.08045,1624.01697 2302.07925,1484.06599 2408.01153,1435.08056 C2514.259,1385.94908 2623.26963,1519.62485 2739.11701,1513.91879 Z" id="Path-Copy-3" fill="#14161C"></path>
                                <path d="M900.610099,338.339102 C1086.87244,331.722238 1244.53234,112.968235 1421.41499,180.231949 C1598.11855,247.427202 1719.36311,460.966359 1736.74406,656.296615 C1753.33507,842.746827 1562.262,964.518959 1506.86509,1140.51388 C1452.94618,1311.80806 1556.24079,1553.78419 1420.065,1662.35824 C1284.52969,1770.42293 1089.07534,1607.27866 916.896539,1610.90738 C735.059226,1614.73957 538.431533,1799.83584 390.743279,1684.04764 C242.681606,1567.96467 343.142828,1316.46886 301.858048,1128.70712 C266.596473,968.337224 147.949709,829.282569 167.212054,667.4252 C188.303101,490.204904 255.040222,285.884396 410.462715,216.144075 C566.347658,146.195814 729.7419,344.408827 900.610099,338.339102 Z" id="Path-Copy" fill="#1D1E26" transform="translate(951.436465, 944.745201) rotate(14.000000) translate(-951.436465, -944.745201) "></path>
                            </g>
                        </g>
                    </g>
                </g>
            </g>
        </g>
    </g>
</svg>