<?xml version="1.0" encoding="UTF-8"?>
<svg width="900px" height="690px" viewBox="0 0 900 690" version="1.1" xmlns="http://www.w3.org/2000/svg" xmlns:xlink="http://www.w3.org/1999/xlink">
    <!-- Generator: Sketch 63.1 (92452) - https://sketch.com -->
    <title>i900_header_shapebg1</title>
    <desc>Created with Sketch.</desc>
    <g id="WWD" stroke="none" stroke-width="1" fill="none" fill-rule="evenodd">
        <g id="WWD_1920-Copy" transform="translate(0.000000, -90.000000)">
            <g id="1.-Главный-блок">
                <g id="Bg">
                    <g id="Group-14" transform="translate(-719.500000, -1030.482759)">
                        <g id="Shape">
                            <path d="M900.610099,338.339102 C1086.87244,331.722238 1244.53234,112.968235 1421.41499,180.231949 C1598.11855,247.427202 1719.36311,460.966359 1736.74406,656.296615 C1753.33507,842.746827 1562.262,964.518959 1506.86509,1140.51388 C1452.94618,1311.80806 1556.24079,1553.78419 1420.065,1662.35824 C1284.52969,1770.42293 1089.07534,1607.27866 916.896539,1610.90738 C735.059226,1614.73957 538.431533,1799.83584 390.743279,1684.04764 C242.681606,1567.96467 343.142828,1316.46886 301.858048,1128.70712 C266.596473,968.337224 147.949709,829.282569 167.212054,667.4252 C188.303101,490.204904 255.040222,285.884396 410.462715,216.144075 C566.347658,146.195814 729.7419,344.408827 900.610099,338.339102 Z" id="Path-Copy" fill="#1D1E26" transform="translate(951.436465, 944.745201) rotate(14.000000) translate(-951.436465, -944.745201) "></path>
                            <path d="M909.266742,435.644916 C1065.594,430.086434 1197.91413,246.367209 1346.36968,302.856557 C1494.67491,359.288409 1596.43523,538.625932 1611.0242,702.67169 C1624.95011,859.259649 1464.5861,961.530005 1418.09351,1109.33774 C1372.84136,1253.19761 1459.53676,1456.41773 1345.24714,1547.60341 C1231.49506,1638.36132 1067.45188,1501.34792 922.944721,1504.39674 C770.331306,1507.61652 605.30582,1663.06896 481.352374,1565.82666 C357.085519,1468.3368 441.399399,1257.12017 406.748348,1099.43093 C377.15268,964.746362 277.573173,847.963779 293.738637,712.029572 C311.438796,563.192971 367.448856,391.596229 497.892226,333.024461 C628.723722,274.278053 765.859562,440.743776 909.266742,435.644916 Z" id="Path-Copy-4" fill="#181921" transform="translate(951.927075, 944.927957) rotate(14.000000) translate(-951.927075, -944.927957) "></path>
                            <path d="M919.170357,547.668431 C1041.28625,543.331806 1144.65046,399.949652 1260.61676,444.038094 C1376.46564,488.081663 1455.95462,628.046347 1467.34939,756.075767 C1478.22627,878.284752 1352.95617,958.099985 1316.63691,1073.45589 C1281.28666,1185.73068 1349.00738,1344.33437 1259.72863,1415.49902 C1170.86979,1486.32982 1042.72786,1379.39635 929.845319,1381.77442 C810.630537,1384.28584 681.718625,1505.60692 584.892633,1429.71312 C487.821823,1353.62612 553.685952,1188.7832 526.619532,1065.71452 C503.501942,960.599857 425.715954,869.456109 438.344918,763.366601 C452.172834,647.207453 495.926931,513.285548 597.823969,467.574533 C700.024195,421.727224 807.147057,551.646467 919.170357,547.668431 Z" id="Path-Copy-5" fill="#14161C" transform="translate(952.492018, 945.137881) rotate(14.000000) translate(-952.492018, -945.137881) "></path>
                        </g>
                    </g>
                </g>
            </g>
        </g>
    </g>
</svg>