<svg width="405" height="92" viewBox="0 0 405 92" fill="none" xmlns="http://www.w3.org/2000/svg">
<path d="M367.087 25.2212C365.268 20.8963 361.881 17.4189 357.606 15.4859C353.331 13.5529 348.484 13.3072 344.035 14.7979L344.915 17.3172C347.107 16.5729 349.435 16.3169 351.737 16.567C354.039 16.8171 356.258 17.5672 358.239 18.765C360.221 19.9628 361.916 21.5791 363.207 23.501C364.499 25.4229 365.354 27.6037 365.714 29.8909C364.546 29.1879 363.299 28.626 361.998 28.2171C361.711 28.1226 361.419 28.043 361.124 27.9788C360.384 26.1234 359.194 24.4809 357.662 23.1989C356.13 21.917 354.303 21.0356 352.346 20.6339C350.39 20.2323 348.364 20.323 346.451 20.8979C344.537 21.4727 342.797 22.5138 341.386 23.9275C341.078 24.2398 340.786 24.5674 340.512 24.9091V2.66113H343.666V0.0340451H337.862V32.9436C336.468 32.1942 335.162 31.2902 333.97 30.2484V0H326.906V2.62142H331.281V32.4443C331.284 35.2008 331.9 37.9221 333.082 40.412C334.265 42.9018 335.986 45.0982 338.12 46.8426C340.254 48.587 342.749 49.836 345.424 50.4994C348.099 51.1629 350.888 51.2244 353.59 50.6793C356.292 50.1343 358.84 48.9963 361.049 47.3476C363.257 45.6989 365.073 43.5804 366.364 41.145C367.655 38.7096 368.39 36.018 368.515 33.2644C368.64 30.5107 368.152 27.7636 367.087 25.2212ZM359.382 32.4783C359.375 34.6358 358.625 36.7249 357.26 38.3952C355.894 40.0655 353.996 41.2153 351.883 41.6518C349.77 42.0882 347.572 41.7846 345.656 40.7921C343.741 39.7995 342.225 38.1783 341.363 36.2005C341.925 36.297 342.494 36.3482 343.065 36.3537H343.184C344.612 36.336 346.02 36.0211 347.319 35.4291C348.618 34.8371 349.78 33.9809 350.73 32.9152C351.736 31.7485 353.001 30.8331 354.423 30.242C355.845 29.6509 357.386 29.4005 358.923 29.5108C359.24 30.4638 359.399 31.4624 359.394 32.467L359.382 32.4783ZM340.574 32.4783C340.583 30.4336 341.259 28.4478 342.499 26.8221C343.74 25.1965 345.476 24.0197 347.445 23.4704C349.415 22.921 351.51 23.0291 353.412 23.7783C355.314 24.5274 356.921 25.8766 357.987 27.6213C356.339 27.6456 354.714 28.0146 353.217 28.7045C351.72 29.3944 350.384 30.39 349.295 31.6272C348.516 32.517 347.557 33.2304 346.48 33.7197C345.404 34.2089 344.236 34.4628 343.054 34.4642C342.252 34.4533 341.455 34.3389 340.682 34.1238C340.585 33.5769 340.535 33.0225 340.534 32.467L340.574 32.4783ZM349.936 48.4791C345.762 48.4697 341.757 46.8269 338.779 43.9023C335.8 40.9777 334.084 37.0036 333.998 32.8301C334.225 33.006 334.452 33.1819 334.708 33.3464C335.798 34.1347 336.972 34.8006 338.208 35.3324C338.894 38.209 340.614 40.7331 343.039 42.4248C345.465 44.1164 348.427 44.8576 351.364 44.5073C354.3 44.1571 357.005 42.7398 358.965 40.5251C360.925 38.3104 362.002 35.4526 361.992 32.4953C361.993 31.7339 361.923 30.9741 361.782 30.2257C363.243 30.7404 364.622 31.4607 365.879 32.3648V32.5294C365.877 36.7567 364.2 40.811 361.215 43.8039C358.23 46.7968 354.18 48.4842 349.953 48.4962L349.936 48.4791Z" fill="white"/>
<path d="M277.693 42.9814V51.1066H253.897V48.7178H275.282V45.4439H253.897V7.99512H262.334V39.7188H259.917V10.4009H256.303V42.9757L277.693 42.9814Z" fill="white"/>
<path d="M327.31 51.1064H318.504L314.589 40.3768H293.999L290.947 48.7176H294.595L296.439 43.6848H299.066L296.377 51.1291H287.52L292.303 37.9993H316.325L320.183 48.7176H323.86L309.942 10.4405H304.887L296.944 32.3196H311.696L307.423 20.614L304.32 29.04H301.755L307.429 13.5385L315.134 34.7481H293.574L303.219 7.98926H311.673L327.31 51.1064Z" fill="white"/>
<path d="M404.023 38.6577C404.023 46.851 397.589 51.1065 388.67 51.1065C383.523 51.1066 378.466 49.7567 374.003 47.1914L376.84 39.5315C380.693 41.5741 384.829 43.1402 388.647 43.1402C393.186 43.1402 395.739 41.7897 395.739 38.635C395.739 33.2049 392.114 31.7353 388.534 29.8005C384.954 27.8656 381.532 25.8627 381.532 20.3418C381.532 16.7047 384 13.2663 390.287 13.2663C393.197 13.306 396.068 13.9413 398.724 15.133L399.892 11.8931C397.39 10.7583 395.427 10.0661 390.247 10.0661C383.547 10.0661 377.998 13.5613 377.998 20.3759C377.998 26.4982 381.402 30.0558 385.754 32.0247L384.976 34.2319C379.019 31.531 375.671 26.8556 375.671 20.3532C375.671 11.9612 382.48 7.69434 390.264 7.69434C396.812 7.69434 399.314 8.89156 402.848 10.6732L400.046 18.3445C397.054 16.6915 393.704 15.7918 390.287 15.7231C386.1 15.7231 383.938 17.4707 383.938 20.4212C383.938 24.7959 386.656 26.1634 389.731 27.7975C393.64 29.8459 398.111 31.9566 398.111 38.652C398.111 41.2167 396.897 45.5233 388.664 45.5233C385.009 45.3939 381.426 44.4724 378.162 42.8224L376.942 46.0623C380.589 47.8557 384.607 48.7636 388.67 48.7121C392.641 48.7121 395.983 47.7872 398.253 46.0907C399.381 45.2173 400.28 44.083 400.873 42.7853C401.466 41.4876 401.735 40.0653 401.657 38.6406C401.657 32.28 398.678 28.0585 391.898 25.2726L392.693 23.037C400.029 26.0442 404.023 30.8842 404.023 38.6577Z" fill="white"/>
<path d="M5.94092 84.2371L6.50829 83.3576C8.00146 84.7361 9.96853 85.486 12.0004 85.4513C15.3195 85.4513 16.8004 84.0044 16.8004 82.1944C16.8004 77.2069 6.41751 80.1971 6.41751 74.0635C6.41751 71.7087 8.22174 69.632 12.3068 69.632C14.0792 69.6204 15.8151 70.1359 17.294 71.113L16.8401 72.0832C15.4969 71.1817 13.9187 70.6944 12.3011 70.6817C9.08414 70.6817 7.63168 72.1683 7.63168 74.0181C7.63168 79.0056 18.0088 76.0664 18.0088 82.0979C18.0088 84.447 16.1309 86.4726 12.0515 86.4726C9.80174 86.5485 7.6106 85.7469 5.94092 84.2371Z" fill="white"/>
<path d="M22.7176 80.1459C22.7422 78.9266 23.126 77.7416 23.8211 76.7394C24.5161 75.7373 25.4915 74.9626 26.6249 74.5123C27.7583 74.0621 28.9993 73.9564 30.1925 74.2085C31.3857 74.4606 32.478 75.0592 33.3325 75.9294C34.187 76.7995 34.7657 77.9025 34.9961 79.1002C35.2265 80.2979 35.0983 81.5369 34.6277 82.662C34.157 83.7871 33.3648 84.7483 32.3503 85.4252C31.3358 86.102 30.1441 86.4644 28.9246 86.4668C28.1312 86.488 27.3412 86.355 26.5984 86.0753C25.4809 85.6506 24.5148 84.9034 23.8228 83.9285C23.1308 82.9536 22.7442 81.795 22.7119 80.5999C22.7119 80.4523 22.7119 80.2935 22.7176 80.1459ZM33.8947 80.1459C33.8453 79.1696 33.5104 78.2292 32.9314 77.4414C32.3525 76.6537 31.5551 76.0532 30.638 75.7145C29.7215 75.3761 28.7259 75.3135 27.7741 75.5343C26.8224 75.7551 25.9561 76.2497 25.2821 76.9571C24.7797 77.4872 24.3995 78.1208 24.168 78.8135C23.9365 79.5061 23.8594 80.2411 23.9421 80.9667C24.0248 81.6923 24.2654 82.391 24.6468 83.0138C25.0283 83.6366 25.5414 84.1683 26.1502 84.5717C26.9676 85.1046 27.9205 85.392 28.8962 85.4001C29.579 85.4108 30.2568 85.2814 30.8877 85.02C31.5164 84.7614 32.0844 84.375 32.5558 83.8851C33.0204 83.395 33.3813 82.816 33.6167 82.1829C33.8522 81.5312 33.9469 80.8369 33.8947 80.1459Z" fill="white"/>
<path d="M42.5753 72.1401V73.9502H46.5469V74.9829H42.5753V86.365H41.4122V74.9715H39.103V73.9502H41.4122V72.0494C41.3709 71.6366 41.4133 71.2197 41.537 70.8238C41.6521 70.4266 41.845 70.0563 42.1044 69.7343C42.6383 69.0899 43.4049 68.6821 44.2377 68.5995C44.4356 68.5768 44.6355 68.5768 44.8334 68.5995C45.7285 68.5847 46.5982 68.8975 47.2788 69.479L46.8022 70.3528C46.2685 69.8931 45.583 69.6484 44.8788 69.6663C43.3583 69.6436 42.5753 70.489 42.5753 72.1401Z" fill="white"/>
<path d="M57.4805 85.5763C56.7734 86.1732 55.869 86.4848 54.9443 86.4501C54.4904 86.4954 54.0322 86.4395 53.6025 86.2864C53.1728 86.1334 52.7823 85.887 52.4593 85.565C52.137 85.2456 51.8907 84.8577 51.7387 84.4302C51.5853 83.9995 51.5291 83.5403 51.5742 83.0854V74.9715H49.3047V73.9502H51.5742V71.2437H52.7543V73.9502H56.7259V74.9715H52.7543V82.9663C52.7543 84.5607 53.4975 85.4401 55.0578 85.4401C55.7634 85.4609 56.4506 85.2136 56.9812 84.7479L57.4805 85.5763Z" fill="white"/>
<path d="M80.6285 73.9502L75.9307 86.365H74.796L70.6201 75.5843L66.4159 86.365H65.3436L60.6401 73.9502H61.7749L65.911 85.0316L70.1436 73.9502H71.1308L75.3463 84.9919L79.5449 73.9502H80.6285Z" fill="white"/>
<path d="M94.3304 78.4894V86.365H93.1956V84.1351C92.7381 84.8976 92.0764 85.5169 91.2853 85.923C90.4942 86.3291 89.6053 86.5058 88.7191 86.433C85.9447 86.433 84.2539 84.9975 84.2539 82.9265C84.2539 81.0484 85.4454 79.4313 88.8836 79.4313H93.1446V78.4326C93.1446 76.1176 91.885 74.8863 89.417 74.8863C87.8509 74.8696 86.3337 75.4312 85.156 76.4637L84.5603 75.5843C85.9518 74.4248 87.7138 73.8045 89.5248 73.8366C92.6112 73.848 94.3304 75.4197 94.3304 78.4894ZM93.1446 82.7052V80.3788H88.912C86.3532 80.3788 85.4113 81.4456 85.4113 82.8697C85.4113 84.4868 86.6709 85.4968 88.8496 85.4968C89.7717 85.562 90.6899 85.3247 91.4649 84.8209C92.24 84.3171 92.8297 83.5743 93.1446 82.7052Z" fill="white"/>
<path d="M107.442 73.8418V74.9766H107.136C104.39 74.9766 102.762 76.815 102.762 79.879V86.3588H101.582V73.9496H102.762V76.6618C103.471 74.8404 105.128 73.8418 107.442 73.8418Z" fill="white"/>
<path d="M123.465 80.4356H112.793C112.872 81.4652 113.246 82.4503 113.871 83.2726C114.344 83.8916 114.948 84.399 115.639 84.759C116.329 85.119 117.091 85.3227 117.869 85.3557C118.648 85.3887 119.424 85.2503 120.143 84.9501C120.862 84.6499 121.506 84.1954 122.03 83.6187L122.722 84.362C122.148 85.0273 121.435 85.5582 120.633 85.9171C119.831 86.276 118.959 86.4541 118.081 86.4387C116.469 86.5099 114.893 85.9419 113.697 84.8583C112.501 83.7747 111.78 82.2628 111.692 80.6512V80.1916C111.692 76.4751 114.24 73.8877 117.655 73.8877C121.071 73.8877 123.567 76.4637 123.567 80.1292C123.504 80.2192 123.469 80.3257 123.465 80.4356ZM112.85 79.505H122.353C122.375 78.8671 122.269 78.2314 122.04 77.6356C121.811 77.0398 121.464 76.4962 121.021 76.0372C120.578 75.5781 120.046 75.2131 119.459 74.9637C118.871 74.7144 118.24 74.5859 117.602 74.5859C116.963 74.5859 116.332 74.7144 115.744 74.9637C115.157 75.2131 114.625 75.5781 114.182 76.0372C113.739 76.4962 113.392 77.0398 113.163 77.6356C112.934 78.2314 112.828 78.8671 112.85 79.505Z" fill="white"/>
<path d="M146.965 78.4896V86.3709H145.83V84.1353C145.374 84.8984 144.714 85.5193 143.924 85.9283C143.135 86.338 142.246 86.517 141.36 86.4447C138.585 86.4447 136.889 85.0091 136.889 82.9438C136.889 81.0656 138.074 79.4485 141.524 79.4485H145.768V78.4329C145.768 76.1179 144.508 74.8866 142.086 74.8866C140.517 74.8734 138.997 75.4344 137.813 76.464L137.246 75.5845C138.632 74.4222 140.391 73.8013 142.199 73.8369C145.246 73.8426 146.965 75.42 146.965 78.4896ZM145.774 82.6998V80.3734H141.547C138.982 80.3734 138.046 81.4401 138.046 82.87C138.046 84.4871 139.294 85.4914 141.49 85.4914C142.409 85.5557 143.324 85.3193 144.097 84.8177C144.87 84.3161 145.458 83.5767 145.774 82.7111V82.6998Z" fill="white"/>
<path d="M160.083 73.8418V74.9766H159.805C157.048 74.9766 155.425 76.815 155.425 79.879V86.3588H154.245V73.9496H155.38V76.6618C156.163 74.8404 157.763 73.8418 160.083 73.8418Z" fill="white"/>
<path d="M172.44 85.5763C171.729 86.1735 170.821 86.4849 169.893 86.4501C169.439 86.4942 168.981 86.4377 168.551 86.2848C168.122 86.1318 167.731 85.886 167.407 85.565C167.086 85.2419 166.839 84.8514 166.686 84.4217C166.533 83.992 166.477 83.5337 166.522 83.0797V74.9715H164.253V73.9502H166.522V71.2437H167.708V73.9502H171.68V74.9715H167.742V82.9663C167.742 84.5607 168.485 85.4401 170.046 85.4401C170.755 85.4593 171.445 85.2123 171.98 84.7479L172.44 85.5763Z" fill="white"/>
<path d="M177.745 69.9784C177.744 69.8496 177.769 69.7219 177.818 69.6028C177.868 69.4836 177.94 69.3755 178.031 69.2846C178.123 69.1938 178.231 69.122 178.351 69.0736C178.47 69.0252 178.598 69.001 178.727 69.0025C178.916 69.005 179.1 69.0643 179.254 69.1727C179.409 69.2796 179.53 69.4295 179.6 69.604C179.671 69.7843 179.689 69.9812 179.652 70.1714C179.611 70.3562 179.519 70.5257 179.385 70.6594C179.251 70.7932 179.082 70.8858 178.897 70.926C178.707 70.9635 178.51 70.9458 178.33 70.8749C178.156 70.8027 178.006 70.6827 177.898 70.5288C177.792 70.3655 177.738 70.1733 177.745 69.9784ZM178.131 73.9503H179.311V86.3651H178.131V73.9503Z" fill="white"/>
<path d="M184.872 84.8559L185.411 83.9026C186.691 84.8896 188.265 85.4172 189.881 85.4006C192.508 85.4006 193.541 84.47 193.541 83.0685C193.541 79.4485 185.342 82.1153 185.342 77.2413C185.342 75.3575 186.908 73.8368 190.04 73.8368C191.547 73.8137 193.026 74.234 194.296 75.0454L193.728 75.993C192.636 75.2372 191.335 74.8406 190.006 74.8582C187.584 74.8582 186.506 75.8568 186.506 77.1845C186.506 80.9124 194.698 78.2796 194.698 83.0118C194.698 85.0374 192.945 86.4162 189.808 86.4162C188.032 86.4773 186.289 85.9264 184.872 84.8559Z" fill="white"/>
<path d="M206.567 85.5763C205.857 86.1721 204.951 86.4835 204.025 86.4501C203.571 86.4954 203.113 86.439 202.685 86.2849C202.256 86.1307 201.866 85.8829 201.545 85.5593C201.221 85.2406 200.973 84.8527 200.819 84.4245C200.666 83.9958 200.61 83.5385 200.655 83.0854V74.9715H198.385V73.9502H200.655V71.2437H201.846V73.9502H205.784V74.9715H201.846V82.9663C201.846 84.5607 202.589 85.4401 204.15 85.4401C204.853 85.455 205.536 85.2083 206.067 84.7479L206.567 85.5763Z" fill="white"/>
<path d="M218.079 73.8418V74.9766H217.796C215.038 74.9766 213.421 76.815 213.421 79.879V86.3588H212.241V73.9496H213.376V76.6618C214.153 74.8404 215.81 73.8418 218.079 73.8418Z" fill="white"/>
<path d="M234.261 73.9499L227.929 88.0613C226.942 90.3309 225.688 91.0345 224.059 91.0345C223.53 91.0514 223.003 90.9607 222.51 90.7678C222.017 90.5751 221.568 90.2857 221.188 89.9167L221.756 89.0429C222.047 89.3611 222.404 89.6129 222.802 89.7813C223.199 89.9497 223.628 90.0307 224.059 90.0189C225.194 90.0189 226.028 89.4855 226.788 87.7833L227.452 86.291L221.869 73.9272H223.186L228.15 85.0314L233.115 73.9272L234.261 73.9499Z" fill="white"/>
<path d="M256.66 78.4894V86.3649H255.525V84.135C255.069 84.896 254.411 85.5151 253.623 85.923C252.835 86.3309 251.95 86.5114 251.065 86.4444C248.28 86.4444 246.589 85.0088 246.589 82.9435C246.589 81.0597 247.769 79.4426 251.219 79.4426H255.474V78.4326C255.474 76.1176 254.214 74.8863 251.792 74.8863C250.222 74.8689 248.701 75.4304 247.519 76.4637L246.924 75.5842C248.311 74.4251 250.069 73.8046 251.877 73.8366C254.958 73.848 256.66 75.4197 256.66 78.4894ZM255.474 82.6995V80.3675H251.241C248.677 80.3675 247.746 81.4342 247.746 82.8641C247.746 84.4812 249 85.4855 251.185 85.4855C252.105 85.552 253.021 85.3165 253.795 84.8148C254.57 84.313 255.159 83.5723 255.474 82.7052V82.6995Z" fill="white"/>
<path d="M270.073 85.5763C269.363 86.1721 268.458 86.4835 267.531 86.4501C267.078 86.4955 266.621 86.4392 266.192 86.2856C265.764 86.1321 265.376 85.8838 265.058 85.5593C264.734 85.2383 264.486 84.8491 264.332 84.4202C264.178 83.9912 264.122 83.5333 264.167 83.0797V74.9715H261.897V73.9502H264.167V71.2437H265.358V73.9502H269.273V74.9715H265.336V82.9663C265.336 84.5607 266.119 85.4401 267.634 85.4401C268.338 85.4564 269.024 85.2097 269.557 84.7479L270.073 85.5763Z" fill="white"/>
<path d="M283.837 69.9784C283.837 69.8498 283.863 69.7224 283.912 69.6036C283.962 69.4848 284.034 69.377 284.125 69.2863C284.216 69.1956 284.325 69.1238 284.444 69.0751C284.563 69.0264 284.69 69.0017 284.819 69.0025C285.008 69.005 285.192 69.0643 285.347 69.1727C285.503 69.2778 285.624 69.4282 285.693 69.6039C285.766 69.7836 285.784 69.9813 285.744 70.1713C285.706 70.3557 285.615 70.5252 285.483 70.6593C285.349 70.7931 285.18 70.8857 284.995 70.926C284.805 70.9625 284.608 70.9448 284.427 70.8749C284.251 70.8007 284.101 70.6759 283.996 70.5163C283.891 70.3567 283.836 70.1695 283.837 69.9784ZM284.223 73.9502H285.415V86.3651H284.223V73.9502Z" fill="white"/>
<path d="M298.935 85.5763C298.219 86.1715 297.306 86.4771 296.376 86.4331C295.922 86.4793 295.463 86.4232 295.033 86.2691C294.603 86.115 294.213 85.8666 293.891 85.5423C293.569 85.2232 293.322 84.8353 293.171 84.4075C293.018 83.9788 292.961 83.5214 293.006 83.0684V74.9715H290.737V73.9502H293.006V71.2437H294.198V73.9502H298.135V74.9715H294.22V82.9663C294.22 84.5607 294.998 85.4401 296.49 85.4401C297.193 85.4583 297.878 85.2112 298.408 84.7479L298.935 85.5763Z" fill="white"/>
<path d="M302.788 84.8559L303.355 83.9027C304.634 84.8905 306.21 85.4182 307.826 85.4006C310.453 85.4006 311.485 84.4701 311.485 83.0686C311.485 79.4485 303.293 82.1153 303.293 77.2413C303.293 75.3575 304.853 73.8369 307.99 73.8369C309.497 73.8131 310.977 74.2335 312.246 75.0455L311.678 75.993C310.584 75.2372 309.281 74.8406 307.951 74.8582C305.534 74.8582 304.45 75.8569 304.45 77.1846C304.45 80.9124 312.643 78.2797 312.643 83.0118C312.643 85.0375 310.89 86.4163 307.758 86.4163C305.972 86.4751 304.219 85.9248 302.788 84.8559Z" fill="white"/>
<path d="M330.486 68.594C331.371 68.561 332.24 68.8424 332.937 69.3884L332.455 70.2679C331.923 69.8095 331.239 69.5648 330.537 69.5813C328.988 69.5813 328.211 70.4551 328.211 72.0779V73.8879H332.183V74.9717H328.245V86.3538H327.054V74.9717H324.784V73.9503H327.054V72.0495C327.014 71.6371 327.054 71.2209 327.173 70.8239C327.29 70.4278 327.483 70.058 327.74 69.7345C328.274 69.09 329.041 68.6822 329.873 68.5997C330.076 68.5678 330.283 68.5658 330.486 68.594ZM338.066 69.9161C338.065 70.1102 338.008 70.2998 337.901 70.4619C337.794 70.624 337.643 70.7517 337.465 70.8296C337.285 70.9017 337.088 70.9214 336.897 70.8863C336.706 70.8481 336.531 70.7538 336.393 70.6153C336.256 70.4768 336.163 70.3006 336.126 70.109C336.085 69.9186 336.105 69.7201 336.183 69.5416C336.259 69.3642 336.385 69.2126 336.546 69.1047C336.713 68.9928 336.912 68.9371 337.113 68.9458C337.237 68.9406 337.361 68.9618 337.476 69.0082C337.593 69.0518 337.699 69.1195 337.788 69.2068C337.878 69.295 337.951 69.3988 338.004 69.5132C338.052 69.6284 338.079 69.7515 338.083 69.8764L338.066 69.9161ZM336.489 73.9163H337.692V86.3538H336.455L336.489 73.9163Z" fill="white"/>
<path d="M356.149 79.0967V86.3539H354.963V79.1932C354.963 76.3902 353.476 74.9206 350.951 74.9206C348.035 74.9206 346.248 76.7931 346.248 79.7436V86.3539H345.068V73.9504H346.203V76.6399C346.657 75.7456 347.365 75.005 348.238 74.5106C349.111 74.0161 350.11 73.7897 351.11 73.8596C354.134 73.8482 356.149 75.6526 356.149 79.0967Z" fill="white"/>
<path d="M373.907 80.4354H363.246C363.32 81.4714 363.696 82.4631 364.327 83.288C364.958 84.1128 365.817 84.7347 366.798 85.0768C367.779 85.4226 368.841 85.4714 369.85 85.217C370.859 84.9627 371.771 84.4166 372.472 83.6469L373.164 84.3902C372.582 85.053 371.86 85.5785 371.051 85.9288C370.241 86.279 369.364 86.4454 368.483 86.4159C366.873 86.4825 365.302 85.9137 364.108 84.832C362.914 83.7504 362.193 82.2426 362.1 80.634V80.112C362.1 76.3898 364.642 73.8081 368.063 73.8081C371.484 73.8081 373.964 76.3785 373.964 80.0496C373.937 80.1768 373.918 80.3057 373.907 80.4354ZM363.269 79.5049H372.801C372.758 78.2744 372.239 77.1087 371.354 76.2533C370.469 75.3979 369.286 74.9198 368.055 74.9198C366.824 74.9198 365.641 75.3979 364.755 76.2533C363.87 77.1087 363.351 78.2744 363.309 79.5049H363.269Z" fill="white"/>
<path d="M378.151 84.8559L378.718 83.9026C380.001 84.8849 381.574 85.412 383.189 85.4006C385.816 85.4006 386.849 84.47 386.849 83.0685C386.849 79.4485 378.656 82.1153 378.656 77.2413C378.656 75.3575 380.222 73.8368 383.359 73.8368C384.864 73.8138 386.342 74.2342 387.609 75.0454L387.042 75.993C385.947 75.2371 384.644 74.8405 383.314 74.8582C380.897 74.8582 379.813 75.8568 379.813 77.1845C379.813 80.9124 388.006 78.2796 388.006 83.0118C388.006 85.0374 386.253 86.4162 383.121 86.4162C381.335 86.4741 379.583 85.924 378.151 84.8559Z" fill="white"/>
<path d="M399.864 85.5763C399.152 86.1748 398.241 86.4863 397.311 86.4501C396.856 86.4952 396.397 86.439 395.967 86.2856C395.539 86.1314 395.151 85.8832 394.832 85.5593C394.507 85.2418 394.261 84.8534 394.111 84.4245C393.958 83.9958 393.902 83.5385 393.947 83.0854V74.9715H391.677V73.9502H393.947V71.2437H395.155V73.9502H399.07V74.9715H395.155V82.9663C395.155 84.5607 395.898 85.4401 397.459 85.4401C398.164 85.4564 398.849 85.2097 399.382 84.7479L399.864 85.5763Z" fill="white"/>
<path d="M10.9899 17.9297H5.24816C1.79288 17.9297 0 16.4431 0 13.6345C0 10.6556 1.74749 9.25977 5.24816 9.25977H26.8082C30.1386 9.25977 31.9145 10.6726 31.9145 13.6345C31.9145 16.4715 30.1613 17.9297 26.8082 17.9297H21.0097V46.9639C21.0097 50.0619 19.3813 51.5826 16.1076 51.5826C12.6637 51.5826 10.9616 50.0619 10.9616 46.9639L10.9899 17.9297Z" fill="white"/>
<path d="M62.3998 43.8772H46.383C45.7532 45.2957 45.2483 46.6518 44.6809 47.9625C44.3067 49.0631 43.581 50.0101 42.6157 50.6577C41.6516 51.2897 40.5096 51.5941 39.359 51.5258C35.9548 51.5258 34.5874 49.4491 34.5874 47.2249C34.617 46.6107 34.7454 46.0053 34.9675 45.4319L48.1532 13.1181C48.6325 11.9104 49.4834 10.8863 50.5827 10.1938C51.6821 9.50131 52.9732 9.1762 54.2694 9.26546C55.5602 9.18273 56.844 9.51099 57.9367 10.2031C59.0294 10.8953 59.8748 11.9157 60.3516 13.1181C74.2408 45.9766 74.3542 46.7142 74.3542 47.2816C74.3542 49.7328 72.6068 51.5258 69.4635 51.5258C67.0806 51.5258 65.4352 50.5386 64.6352 48.7399L62.3998 43.8772ZM49.7078 35.1221H58.6495C56.8963 30.8269 56.5048 30.129 54.2751 24.3414L49.7078 35.1221Z" fill="white"/>
<path d="M82.3647 13.5554C82.3647 10.5708 84.0668 9.18066 87.386 9.18066C90.7051 9.18066 92.4923 10.5992 92.4923 13.5554V47.0777C92.4923 50.0509 90.7902 51.4524 87.386 51.4524C83.9817 51.4524 82.3647 50.0452 82.3647 47.0777V13.5554Z" fill="white"/>
<path d="M101.962 13.5554C101.962 10.5708 103.664 9.18066 106.915 9.18066C110.416 9.18066 112.021 10.5992 112.021 13.5554V42.8165H127.772C131.232 42.8165 132.878 44.3031 132.878 47.1117C132.878 50.0906 131.255 51.4864 127.772 51.4864H107.738C103.84 51.4864 101.962 49.631 101.962 46.0961V13.5554Z" fill="white"/>
<path d="M139.953 13.5554C139.953 10.5708 141.655 9.18066 144.918 9.18066C148.373 9.18066 150.024 10.5992 150.024 13.5554V42.8165H165.78C169.224 42.8165 170.886 44.3031 170.886 47.1117C170.886 50.0906 169.246 51.4864 165.78 51.4864H145.661C141.774 51.4864 139.891 49.631 139.891 46.0961L139.953 13.5554Z" fill="white"/>
<path d="M177.229 13.5554C177.229 10.5708 178.931 9.18066 182.256 9.18066C185.581 9.18066 187.362 10.5992 187.362 13.5554V47.0777C187.362 50.0509 185.66 51.4524 182.256 51.4524C178.852 51.4524 177.229 50.0452 177.229 47.0777V13.5554Z" fill="white"/>
<path d="M211.98 17.0392C209.398 17.0392 207.77 17.7825 207.77 20.1372C207.77 22.7643 211.6 23.6381 215.503 25.2438C223.1 28.4554 228.496 31.4456 228.496 38.1296C228.496 46.9414 221.052 52.1275 211.361 52.1275C207.295 52.1683 203.29 51.139 199.747 49.143C197.796 48.0592 196.848 46.6407 196.848 44.8477C196.848 41.971 198.488 40.6659 201.75 40.6659C203.044 40.661 204.321 40.9604 205.478 41.5397C207.3 42.506 209.328 43.0198 211.39 43.0377C214.834 43.0377 217.858 41.4546 217.858 38.3566C217.858 36.5069 216.156 35.2586 211.152 33.2499C204.797 30.7704 197.296 27.7064 197.296 20.3301C197.296 14.2021 203.197 7.98904 212.116 7.98904C215.985 7.95533 219.78 9.04962 223.038 11.1381C224.865 12.273 225.875 13.6971 225.875 15.388C225.79 16.6371 225.228 17.8058 224.305 18.6511C223.381 19.4964 222.168 19.9534 220.916 19.9273C219.48 19.9241 218.085 19.4496 216.944 18.5768C215.484 17.5716 213.753 17.0352 211.98 17.0392Z" fill="white"/>
</svg>
