<svg xmlns="http://www.w3.org/2000/svg" width="836.991" height="390.455" viewBox="0 0 836.991 390.455">
  <g id="Group_35811" data-name="Group 35811" transform="translate(-254.091 -317.372)">
    <g id="bg_elements_left-e3a31d6b304e89f0628682fa75d8955f" transform="translate(377 133.372)" opacity="0.635">
      <path id="Path_38927" data-name="Path 38927" d="M81.374,184a.562.562,0,0,1,.562.562v2.249h2.249a.562.562,0,1,1,0,1.125H81.936v2.249a.562.562,0,0,1-1.125,0v-2.249H78.562a.562.562,0,1,1,0-1.125h2.249v-2.249A.562.562,0,0,1,81.374,184Z" fill="#d8d8d8" fill-rule="evenodd"/>
      <path id="Path_38928" data-name="Path 38928" d="M171.374,184a.562.562,0,0,1,.562.562v2.249h2.249a.562.562,0,1,1,0,1.125h-2.249v2.249a.562.562,0,0,1-1.125,0v-2.249h-2.249a.562.562,0,1,1,0-1.125h2.249v-2.249A.562.562,0,0,1,171.374,184Z" transform="translate(-39.393)" fill="#d8d8d8" fill-rule="evenodd"/>
      <path id="Path_38929" data-name="Path 38929" d="M261.374,184a.562.562,0,0,1,.562.562v2.249h2.249a.562.562,0,0,1,0,1.125h-2.249v2.249a.562.562,0,0,1-1.125,0v-2.249h-2.249a.562.562,0,1,1,0-1.125h2.249v-2.249A.562.562,0,0,1,261.374,184Z" transform="translate(-78.785)" fill="#d8d8d8" fill-rule="evenodd"/>
      <path id="Path_38930" data-name="Path 38930" d="M351.374,184a.562.562,0,0,1,.562.562v2.249h2.249a.562.562,0,1,1,0,1.125h-2.249v2.249a.562.562,0,0,1-1.125,0v-2.249h-2.249a.562.562,0,1,1,0-1.125h2.249v-2.249A.562.562,0,0,1,351.374,184Z" transform="translate(-118.178)" fill="#d8d8d8" fill-rule="evenodd"/>
      <path id="Path_38931" data-name="Path 38931" d="M441.374,184a.562.562,0,0,1,.562.562v2.249h2.249a.562.562,0,0,1,0,1.125h-2.249v2.249a.562.562,0,0,1-1.125,0v-2.249h-2.249a.562.562,0,1,1,0-1.125h2.249v-2.249A.562.562,0,0,1,441.374,184Z" transform="translate(-157.57)" fill="#d8d8d8" fill-rule="evenodd"/>
      <path id="Path_38932" data-name="Path 38932" d="M531.374,184a.562.562,0,0,1,.562.562v2.249h2.249a.562.562,0,0,1,0,1.125h-2.249v2.249a.562.562,0,1,1-1.125,0v-2.249h-2.249a.562.562,0,1,1,0-1.125h2.249v-2.249A.562.562,0,0,1,531.374,184Z" transform="translate(-196.963)" fill="#d8d8d8" fill-rule="evenodd"/>
      <path id="Path_38933" data-name="Path 38933" d="M621.374,184a.562.562,0,0,1,.562.562v2.249h2.249a.562.562,0,1,1,0,1.125h-2.249v2.249a.562.562,0,0,1-1.125,0v-2.249h-2.249a.562.562,0,0,1,0-1.125h2.249v-2.249A.562.562,0,0,1,621.374,184Z" transform="translate(-236.355)" fill="#d8d8d8" fill-rule="evenodd"/>
      <path id="Path_38934" data-name="Path 38934" d="M711.374,184a.562.562,0,0,1,.562.562v2.249h2.249a.562.562,0,1,1,0,1.125h-2.249v2.249a.562.562,0,0,1-1.125,0v-2.249h-2.249a.562.562,0,0,1,0-1.125h2.249v-2.249A.562.562,0,0,1,711.374,184Z" transform="translate(-275.748)" fill="#d8d8d8" fill-rule="evenodd"/>
      <path id="Path_38935" data-name="Path 38935" d="M81.374,276a.562.562,0,0,1,.562.562v2.249h2.249a.562.562,0,1,1,0,1.125H81.936v2.249a.562.562,0,1,1-1.125,0v-2.249H78.562a.562.562,0,1,1,0-1.125h2.249v-2.249A.562.562,0,0,1,81.374,276Z" transform="translate(0 -40.268)" fill="#d8d8d8" fill-rule="evenodd"/>
      <path id="Path_38936" data-name="Path 38936" d="M171.374,276a.562.562,0,0,1,.562.562v2.249h2.249a.562.562,0,1,1,0,1.125h-2.249v2.249a.562.562,0,1,1-1.125,0v-2.249h-2.249a.562.562,0,1,1,0-1.125h2.249v-2.249A.562.562,0,0,1,171.374,276Z" transform="translate(-39.393 -40.268)" fill="#d8d8d8" fill-rule="evenodd"/>
      <path id="Path_38937" data-name="Path 38937" d="M261.374,276a.562.562,0,0,1,.562.562v2.249h2.249a.562.562,0,0,1,0,1.125h-2.249v2.249a.562.562,0,1,1-1.125,0v-2.249h-2.249a.562.562,0,1,1,0-1.125h2.249v-2.249A.562.562,0,0,1,261.374,276Z" transform="translate(-78.785 -40.268)" fill="#d8d8d8" fill-rule="evenodd"/>
      <path id="Path_38938" data-name="Path 38938" d="M351.374,276a.562.562,0,0,1,.562.562v2.249h2.249a.562.562,0,1,1,0,1.125h-2.249v2.249a.562.562,0,1,1-1.125,0v-2.249h-2.249a.562.562,0,1,1,0-1.125h2.249v-2.249A.562.562,0,0,1,351.374,276Z" transform="translate(-118.178 -40.268)" fill="#d8d8d8" fill-rule="evenodd"/>
      <path id="Path_38939" data-name="Path 38939" d="M441.374,276a.562.562,0,0,1,.562.562v2.249h2.249a.562.562,0,0,1,0,1.125h-2.249v2.249a.562.562,0,1,1-1.125,0v-2.249h-2.249a.562.562,0,1,1,0-1.125h2.249v-2.249A.562.562,0,0,1,441.374,276Z" transform="translate(-157.57 -40.268)" fill="#d8d8d8" fill-rule="evenodd"/>
      <path id="Path_38940" data-name="Path 38940" d="M531.374,276a.562.562,0,0,1,.562.562v2.249h2.249a.562.562,0,0,1,0,1.125h-2.249v2.249a.562.562,0,1,1-1.125,0v-2.249h-2.249a.562.562,0,1,1,0-1.125h2.249v-2.249A.562.562,0,0,1,531.374,276Z" transform="translate(-196.963 -40.268)" fill="#d8d8d8" fill-rule="evenodd"/>
      <path id="Path_38941" data-name="Path 38941" d="M621.374,276a.562.562,0,0,1,.562.562v2.249h2.249a.562.562,0,1,1,0,1.125h-2.249v2.249a.562.562,0,1,1-1.125,0v-2.249h-2.249a.562.562,0,0,1,0-1.125h2.249v-2.249A.562.562,0,0,1,621.374,276Z" transform="translate(-236.355 -40.268)" fill="#d8d8d8" fill-rule="evenodd"/>
      <path id="Path_38942" data-name="Path 38942" d="M711.374,276a.562.562,0,0,1,.562.562v2.249h2.249a.562.562,0,1,1,0,1.125h-2.249v2.249a.562.562,0,1,1-1.125,0v-2.249h-2.249a.562.562,0,0,1,0-1.125h2.249v-2.249A.562.562,0,0,1,711.374,276Z" transform="translate(-275.748 -40.268)" fill="#d8d8d8" fill-rule="evenodd"/>
      <path id="Path_38943" data-name="Path 38943" d="M81.374,368a.562.562,0,0,1,.562.562v2.249h2.249a.562.562,0,1,1,0,1.125H81.936v2.249a.562.562,0,1,1-1.125,0v-2.249H78.562a.562.562,0,1,1,0-1.125h2.249v-2.249A.562.562,0,0,1,81.374,368Z" transform="translate(0 -80.536)" fill="#d8d8d8" fill-rule="evenodd"/>
      <path id="Path_38944" data-name="Path 38944" d="M171.374,368a.562.562,0,0,1,.562.562v2.249h2.249a.562.562,0,1,1,0,1.125h-2.249v2.249a.562.562,0,1,1-1.125,0v-2.249h-2.249a.562.562,0,1,1,0-1.125h2.249v-2.249A.562.562,0,0,1,171.374,368Z" transform="translate(-39.393 -80.536)" fill="#d8d8d8" fill-rule="evenodd"/>
      <path id="Path_38945" data-name="Path 38945" d="M261.374,368a.562.562,0,0,1,.562.562v2.249h2.249a.562.562,0,0,1,0,1.125h-2.249v2.249a.562.562,0,1,1-1.125,0v-2.249h-2.249a.562.562,0,1,1,0-1.125h2.249v-2.249A.562.562,0,0,1,261.374,368Z" transform="translate(-78.785 -80.536)" fill="#d8d8d8" fill-rule="evenodd"/>
      <path id="Path_38946" data-name="Path 38946" d="M351.374,368a.562.562,0,0,1,.562.562v2.249h2.249a.562.562,0,1,1,0,1.125h-2.249v2.249a.562.562,0,1,1-1.125,0v-2.249h-2.249a.562.562,0,1,1,0-1.125h2.249v-2.249A.562.562,0,0,1,351.374,368Z" transform="translate(-118.178 -80.536)" fill="#d8d8d8" fill-rule="evenodd"/>
      <path id="Path_38947" data-name="Path 38947" d="M441.374,368a.562.562,0,0,1,.562.562v2.249h2.249a.562.562,0,0,1,0,1.125h-2.249v2.249a.562.562,0,1,1-1.125,0v-2.249h-2.249a.562.562,0,1,1,0-1.125h2.249v-2.249A.562.562,0,0,1,441.374,368Z" transform="translate(-157.57 -80.536)" fill="#d8d8d8" fill-rule="evenodd"/>
      <path id="Path_38948" data-name="Path 38948" d="M531.374,368a.562.562,0,0,1,.562.562v2.249h2.249a.562.562,0,0,1,0,1.125h-2.249v2.249a.562.562,0,1,1-1.125,0v-2.249h-2.249a.562.562,0,1,1,0-1.125h2.249v-2.249A.562.562,0,0,1,531.374,368Z" transform="translate(-196.963 -80.536)" fill="#d8d8d8" fill-rule="evenodd"/>
      <path id="Path_38949" data-name="Path 38949" d="M621.374,368a.562.562,0,0,1,.562.562v2.249h2.249a.562.562,0,1,1,0,1.125h-2.249v2.249a.562.562,0,1,1-1.125,0v-2.249h-2.249a.562.562,0,0,1,0-1.125h2.249v-2.249A.562.562,0,0,1,621.374,368Z" transform="translate(-236.355 -80.536)" fill="#d8d8d8" fill-rule="evenodd"/>
      <path id="Path_38950" data-name="Path 38950" d="M711.374,368a.562.562,0,0,1,.562.562v2.249h2.249a.562.562,0,1,1,0,1.125h-2.249v2.249a.562.562,0,1,1-1.125,0v-2.249h-2.249a.562.562,0,0,1,0-1.125h2.249v-2.249A.562.562,0,0,1,711.374,368Z" transform="translate(-275.748 -80.536)" fill="#d8d8d8" fill-rule="evenodd"/>
      <path id="Path_38951" data-name="Path 38951" d="M81.374,460a.562.562,0,0,1,.562.562v2.249h2.249a.562.562,0,1,1,0,1.125H81.936v2.249a.562.562,0,0,1-1.125,0v-2.249H78.562a.562.562,0,1,1,0-1.125h2.249v-2.249A.562.562,0,0,1,81.374,460Z" transform="translate(0 -120.804)" fill="#d8d8d8" fill-rule="evenodd"/>
      <path id="Path_38952" data-name="Path 38952" d="M171.374,460a.562.562,0,0,1,.562.562v2.249h2.249a.562.562,0,1,1,0,1.125h-2.249v2.249a.562.562,0,0,1-1.125,0v-2.249h-2.249a.562.562,0,1,1,0-1.125h2.249v-2.249A.562.562,0,0,1,171.374,460Z" transform="translate(-39.393 -120.804)" fill="#d8d8d8" fill-rule="evenodd"/>
      <path id="Path_38953" data-name="Path 38953" d="M261.374,460a.562.562,0,0,1,.562.562v2.249h2.249a.562.562,0,0,1,0,1.125h-2.249v2.249a.562.562,0,0,1-1.125,0v-2.249h-2.249a.562.562,0,1,1,0-1.125h2.249v-2.249A.562.562,0,0,1,261.374,460Z" transform="translate(-78.785 -120.804)" fill="#d8d8d8" fill-rule="evenodd"/>
      <path id="Path_38954" data-name="Path 38954" d="M351.374,460a.562.562,0,0,1,.562.562v2.249h2.249a.562.562,0,1,1,0,1.125h-2.249v2.249a.562.562,0,0,1-1.125,0v-2.249h-2.249a.562.562,0,1,1,0-1.125h2.249v-2.249A.562.562,0,0,1,351.374,460Z" transform="translate(-118.178 -120.804)" fill="#d8d8d8" fill-rule="evenodd"/>
      <path id="Path_38955" data-name="Path 38955" d="M441.374,460a.562.562,0,0,1,.562.562v2.249h2.249a.562.562,0,0,1,0,1.125h-2.249v2.249a.562.562,0,0,1-1.125,0v-2.249h-2.249a.562.562,0,1,1,0-1.125h2.249v-2.249A.562.562,0,0,1,441.374,460Z" transform="translate(-157.57 -120.804)" fill="#d8d8d8" fill-rule="evenodd"/>
      <path id="Path_38956" data-name="Path 38956" d="M531.374,460a.562.562,0,0,1,.562.562v2.249h2.249a.562.562,0,0,1,0,1.125h-2.249v2.249a.562.562,0,1,1-1.125,0v-2.249h-2.249a.562.562,0,1,1,0-1.125h2.249v-2.249A.562.562,0,0,1,531.374,460Z" transform="translate(-196.963 -120.804)" fill="#d8d8d8" fill-rule="evenodd"/>
      <path id="Path_38957" data-name="Path 38957" d="M621.374,460a.562.562,0,0,1,.562.562v2.249h2.249a.562.562,0,1,1,0,1.125h-2.249v2.249a.562.562,0,0,1-1.125,0v-2.249h-2.249a.562.562,0,0,1,0-1.125h2.249v-2.249A.562.562,0,0,1,621.374,460Z" transform="translate(-236.355 -120.804)" fill="#d8d8d8" fill-rule="evenodd"/>
      <path id="Path_38958" data-name="Path 38958" d="M711.374,460a.562.562,0,0,1,.562.562v2.249h2.249a.562.562,0,1,1,0,1.125h-2.249v2.249a.562.562,0,0,1-1.125,0v-2.249h-2.249a.562.562,0,0,1,0-1.125h2.249v-2.249A.562.562,0,0,1,711.374,460Z" transform="translate(-275.748 -120.804)" fill="#d8d8d8" fill-rule="evenodd"/>
    </g>
    <g id="Group_35488" data-name="Group 35488" transform="translate(233.148 164.388)">
      <g id="Group_35487" data-name="Group 35487" transform="translate(125.165 189.285)">
        <g id="Group_35484" data-name="Group 35484">
          <g id="Group_35480" data-name="Group 35480" transform="translate(0 6.014)">
            <path id="Path_42029" data-name="Path 42029" d="M125.165,395.484V193.569h70v199.4c0,46.827,26.252,79.053,76.326,79.053s75.838-32.226,75.838-79.053v-199.4h70.491V394.98c0,83.584-47.641,140.483-146.329,140.483S125.165,478.06,125.165,395.484Z" transform="translate(-125.165 -193.569)" fill="#d94427"/>
          </g>
          <g id="Group_35483" data-name="Group 35483" transform="translate(52.907)">
            <rect id="Rectangle_19409" data-name="Rectangle 19409" width="9.549" height="9.549" transform="translate(164.077 0.412)" fill="none" stroke="#fff" stroke-miterlimit="10" stroke-width="1"/>
            <rect id="Rectangle_19410" data-name="Rectangle 19410" width="9.549" height="9.549" transform="translate(233.916)" fill="none" stroke="#fff" stroke-miterlimit="10" stroke-width="1"/>
            <line id="Line_200" data-name="Line 200" x2="61.104" transform="translate(173.453 5.186)" fill="none" stroke="#fff" stroke-miterlimit="10" stroke-width="1"/>
            <line id="Line_201" data-name="Line 201" y2="203.884" transform="translate(168.851 9.961)" fill="none" stroke="#fff" stroke-miterlimit="10" stroke-width="1"/>
            <line id="Line_202" data-name="Line 202" y2="204.295" transform="translate(239.293 9.549)" fill="none" stroke="#fff" stroke-miterlimit="10" stroke-width="1"/>
            <rect id="Rectangle_19411" data-name="Rectangle 19411" width="9.549" height="9.549" transform="translate(234.308 213.844)" fill="none" stroke="#fff" stroke-miterlimit="10" stroke-width="1"/>
            <rect id="Rectangle_19412" data-name="Rectangle 19412" width="9.549" height="9.549" transform="translate(164.077 213.844)" fill="none" stroke="#fff" stroke-miterlimit="10" stroke-width="1"/>
            <line id="Line_203" data-name="Line 203" y2="42.654" transform="translate(168.851 223.394)" fill="none" stroke="#fff" stroke-miterlimit="10" stroke-width="1"/>
            <line id="Line_204" data-name="Line 204" y2="72.537" transform="translate(239.082 223.07)" fill="none" stroke="#fff" stroke-miterlimit="10" stroke-width="1"/>
            <g id="Group_35481" data-name="Group 35481" transform="translate(27.539 280.209)">
              <rect id="Rectangle_19413" data-name="Rectangle 19413" width="9.549" height="9.549" transform="translate(58.671)" fill="none" stroke="#fff" stroke-miterlimit="10" stroke-width="1"/>
              <line id="Line_205" data-name="Line 205" x2="53.321" transform="translate(5.35 4.775)" fill="none" stroke="#fff" stroke-miterlimit="10" stroke-width="1"/>
              <line id="Line_206" data-name="Line 206" x2="49.897" transform="translate(68.22 4.775)" fill="none" stroke="#fff" stroke-miterlimit="10" stroke-width="1"/>
              <circle id="Ellipse_576" data-name="Ellipse 576" cx="2.86" cy="2.86" r="2.86" transform="translate(0 2.333)" fill="none" stroke="#fff" stroke-miterlimit="10" stroke-width="1"/>
              <circle id="Ellipse_577" data-name="Ellipse 577" cx="2.86" cy="2.86" r="2.86" transform="translate(118.117 1.914)" fill="none" stroke="#fff" stroke-miterlimit="10" stroke-width="1"/>
            </g>
            <g id="Group_35482" data-name="Group 35482" transform="translate(0 342.823)">
              <rect id="Rectangle_19414" data-name="Rectangle 19414" width="9.549" height="9.549" transform="translate(86.209)" fill="none" stroke="#fff" stroke-miterlimit="10" stroke-width="1"/>
              <line id="Line_207" data-name="Line 207" x1="85.689" transform="translate(95.759 4.775)" fill="none" stroke="#fff" stroke-miterlimit="10" stroke-width="1"/>
              <line id="Line_208" data-name="Line 208" x1="80.488" transform="translate(5.721 4.775)" fill="none" stroke="#fff" stroke-miterlimit="10" stroke-width="1"/>
              <circle id="Ellipse_578" data-name="Ellipse 578" cx="2.86" cy="2.86" r="2.86" transform="translate(181.123 1.914)" fill="none" stroke="#fff" stroke-miterlimit="10" stroke-width="1"/>
              <circle id="Ellipse_579" data-name="Ellipse 579" cx="2.86" cy="2.86" r="2.86" transform="translate(0 1.914)" fill="none" stroke="#fff" stroke-miterlimit="10" stroke-width="1"/>
            </g>
            <circle id="Ellipse_580" data-name="Ellipse 580" cx="2.86" cy="2.86" r="2.86" transform="translate(165.991 265.964)" fill="none" stroke="#fff" stroke-miterlimit="10" stroke-width="1"/>
            <circle id="Ellipse_581" data-name="Ellipse 581" cx="2.86" cy="2.86" r="2.86" transform="translate(236.222 296.241)" fill="none" stroke="#fff" stroke-miterlimit="10" stroke-width="1"/>
          </g>
        </g>
        <g id="Group_35485" data-name="Group 35485" transform="translate(450.562 4.771)">
          <path id="Path_42030" data-name="Path 42030" d="M445.159,536.066V193.235h70V536.066Z" transform="translate(-445.159 -193.235)" fill="#d94427"/>
        </g>
        <g id="Group_35486" data-name="Group 35486" transform="translate(318.95 1.905)">
          <line id="Line_209" data-name="Line 209" x2="77.411" y2="0.122" transform="translate(17.066 4.713)" fill="none" stroke="#fff" stroke-miterlimit="10" stroke-width="1"/>
          <line id="Line_210" data-name="Line 210" x2="102.186" y2="152.989" transform="translate(15.859 10.013)" fill="none" stroke="#fff" stroke-miterlimit="10" stroke-width="1"/>
          <line id="Line_211" data-name="Line 211" x1="112.881" y2="170.195" transform="translate(6.502 172.283)" fill="none" stroke="#fff" stroke-miterlimit="10" stroke-width="1"/>
          <line id="Line_212" data-name="Line 212" x2="73.778" y2="0.238" transform="translate(9.925 348.637)" fill="none" stroke="#fff" stroke-miterlimit="10" stroke-width="1"/>
          <line id="Line_213" data-name="Line 213" y1="52.159" x2="29.417" transform="translate(129.277 231.954)" fill="none" stroke="#fff" stroke-miterlimit="10" stroke-width="1"/>
          <line id="Line_214" data-name="Line 214" x2="33.226" y2="53.034" transform="translate(167.507 231.954)" fill="none" stroke="#fff" stroke-miterlimit="10" stroke-width="1"/>
          <line id="Line_215" data-name="Line 215" x2="34.274" y2="57.043" transform="translate(200.733 284.987)" fill="none" stroke="#fff" stroke-miterlimit="10" stroke-width="1"/>
          <line id="Line_216" data-name="Line 216" x2="77.202" transform="translate(244.438 348.756)" fill="none" stroke="#fff" stroke-miterlimit="10" stroke-width="1"/>
          <line id="Line_217" data-name="Line 217" x1="113.969" y1="169.425" transform="translate(211.475 172.775)" fill="none" stroke="#fff" stroke-miterlimit="10" stroke-width="1"/>
          <line id="Line_218" data-name="Line 218" y1="153.104" x2="102.792" transform="translate(212.777 10.129)" fill="none" stroke="#fff" stroke-miterlimit="10" stroke-width="1"/>
          <line id="Line_219" data-name="Line 219" x1="74.6" transform="translate(240.535 4.775)" fill="none" stroke="#fff" stroke-miterlimit="10" stroke-width="1"/>
          <line id="Line_220" data-name="Line 220" x1="27.985" y1="47.347" transform="translate(102.744 9.971)" fill="none" stroke="#fff" stroke-miterlimit="10" stroke-width="1"/>
          <line id="Line_221" data-name="Line 221" x2="32.843" y2="54.663" transform="translate(130.729 57.319)" fill="none" stroke="#fcfcfc" stroke-miterlimit="10" stroke-width="1"/>
          <line id="Line_222" data-name="Line 222" x1="30.055" y2="48.591" transform="translate(170.909 63.391)" fill="none" stroke="#fcfcfc" stroke-miterlimit="10" stroke-width="1"/>
          <rect id="Rectangle_19415" data-name="Rectangle 19415" width="9.549" height="9.549" transform="translate(7.915)" fill="none" stroke="#fff" stroke-miterlimit="10" stroke-width="1"/>
          <rect id="Rectangle_19416" data-name="Rectangle 19416" width="9.549" height="9.549" transform="translate(93.879 0.068)" fill="none" stroke="#fff" stroke-miterlimit="10" stroke-width="1"/>
          <rect id="Rectangle_19417" data-name="Rectangle 19417" width="9.549" height="9.549" transform="translate(162.273 111.377)" fill="none" stroke="#fff" stroke-miterlimit="10" stroke-width="1"/>
          <rect id="Rectangle_19418" data-name="Rectangle 19418" width="9.549" height="9.549" transform="translate(205.636 163.276)" fill="none" stroke="#fff" stroke-miterlimit="10" stroke-width="1"/>
          <rect id="Rectangle_19419" data-name="Rectangle 19419" width="9.549" height="9.549" transform="translate(158.695 222.404)" fill="none" stroke="#fff" stroke-miterlimit="10" stroke-width="1"/>
          <rect id="Rectangle_19420" data-name="Rectangle 19420" width="9.549" height="9.549" transform="translate(117.556 163.064)" fill="none" stroke="#fff" stroke-miterlimit="10" stroke-width="1"/>
          <rect id="Rectangle_19421" data-name="Rectangle 19421" width="9.549" height="9.549" transform="translate(234.52 341.735)" fill="none" stroke="#fff" stroke-miterlimit="10" stroke-width="1"/>
          <rect id="Rectangle_19422" data-name="Rectangle 19422" width="9.549" height="9.549" transform="translate(320.873 342.2)" fill="none" stroke="#fff" stroke-miterlimit="10" stroke-width="1"/>
          <rect id="Rectangle_19423" data-name="Rectangle 19423" width="9.549" height="9.549" transform="translate(0 342.069)" fill="none" stroke="#fff" stroke-miterlimit="10" stroke-width="1"/>
          <rect id="Rectangle_19424" data-name="Rectangle 19424" width="9.549" height="9.549" transform="translate(83.641 341.956)" fill="none" stroke="#fff" stroke-miterlimit="10" stroke-width="1"/>
          <rect id="Rectangle_19425" data-name="Rectangle 19425" width="9.549" height="9.549" transform="translate(232.394 0.617)" fill="none" stroke="#fff" stroke-miterlimit="10" stroke-width="1"/>
          <rect id="Rectangle_19426" data-name="Rectangle 19426" width="9.549" height="9.549" transform="translate(314.189 0.846)" fill="none" stroke="#fff" stroke-miterlimit="10" stroke-width="1"/>
          <line id="Line_223" data-name="Line 223" x1="32.019" y2="53.659" transform="translate(200.964 9.733)" fill="none" stroke="#fff" stroke-miterlimit="10" stroke-width="1"/>
          <line id="Line_224" data-name="Line 224" x1="38.27" y2="60.089" transform="translate(92.22 281.963)" fill="none" stroke="#fff" stroke-miterlimit="10" stroke-width="1"/>
        </g>
      </g>
    </g>
    <g id="Group_35800" data-name="Group 35800" transform="translate(-106.246 191.25)">
      <path id="Path_42106" data-name="Path 42106" d="M418.951,431.8s-1.915,2.8-2.042,3.948a85.755,85.755,0,0,1-4.835,12.226C410.927,449.877,397.048,464,397.048,464l-1.4,7.939H375.921l4.97-9.981s-1.021-14.993-.38-18.317,2.784-12.327,4.438-14.082,4.708,0,4.708,0,1.147-2.852,3.695-2.472,2.675,1.78,2.675,1.78,1.4-1.848,3.181-1.814,3.189,2.531,3.189,2.531l3.569-4.6a6.952,6.952,0,0,1,2.531-2.025h0a6.947,6.947,0,0,1,3.021-.692h5.543s.641,2.675-1.527,3.569-4.455,1.78-4.455,1.78l-2.8,6.624s-1.148,4.353,1.527,5.906c0,0,3.822-9.121,5.222-10.015S419.457,429.121,418.951,431.8Z" fill="#fafafa"/>
      <path id="Path_42107" data-name="Path 42107" d="M424.637,441.642c-.067-.262-1.923-3.771-1.923-3.771l1.923-.33-5.357-2.649L419,440.123l1.266-1.257,1.856,3.966Z" fill="#fafafa"/>
      <path id="Path_42108" data-name="Path 42108" d="M408.826,412.576c.068.27,1.915,3.771,1.915,3.771l-1.915.338,5.358,2.641.27-5.223L413.2,415.36l-1.857-3.974Z" fill="#fafafa"/>
      <path id="Path_42109" data-name="Path 42109" d="M433.294,483.7a8.105,8.105,0,0,0,.844-.067,9.713,9.713,0,0,0,.978-.144,10.426,10.426,0,0,0,1.308-.4,9.212,9.212,0,0,0,3.181-2.042,9.091,9.091,0,0,0,2.422-4.514,15.353,15.353,0,0,0,.177-3.1V410.576a8.7,8.7,0,0,0-8.463-8.395h-64.1a8.808,8.808,0,0,0-6.817,3.274,8.9,8.9,0,0,0-1.688,3.451,16.427,16.427,0,0,0-.4,3.847V474.37a9.669,9.669,0,0,0,.456,3.122,8.742,8.742,0,0,0,3.763,4.758,9.016,9.016,0,0,0,2.792,1.1,15.317,15.317,0,0,0,2.987.177h17l33.386.068,9.07.042h0l-9.07.042-33.386.177H370.766a14.934,14.934,0,0,1-3.054-.168,9.286,9.286,0,0,1-2.911-1.14,9.063,9.063,0,0,1-3.957-4.918,10.062,10.062,0,0,1-.481-3.249V412.753a16.647,16.647,0,0,1,.253-3.974,9.17,9.17,0,0,1,8.893-6.994h64.106a9.085,9.085,0,0,1,8.833,8.791c.043,1.1,0,2.169,0,3.24V473.45a15.115,15.115,0,0,1-.194,3.13,9.051,9.051,0,0,1-7.062,6.978c-.4.051-.725.118-.987.127C433.6,483.7,433.294,483.7,433.294,483.7Z" fill="#fafafa"/>
    </g>
    <g id="Group_35805" data-name="Group 35805" transform="translate(184.118 349.232)">
      <path id="Path_42161" data-name="Path 42161" d="M507.9,149.562a1.868,1.868,0,0,1,0-1.073,4.244,4.244,0,0,1,1.546-2.5,4.474,4.474,0,0,1,4.286-.708,4.558,4.558,0,0,1,0,8.584,4.5,4.5,0,0,1-4.286-.709,4.276,4.276,0,0,1-1.546-2.5,1.968,1.968,0,0,1,0-1.087,3.165,3.165,0,0,0,.248,1.029,4.285,4.285,0,0,0,1.546,2.207,4.084,4.084,0,0,0,3.837.532,4.014,4.014,0,0,0,0-7.522,4.118,4.118,0,0,0-3.837.521,4.26,4.26,0,0,0-1.546,2.184C507.956,149.185,507.944,149.562,507.9,149.562Z" transform="translate(5.566 2.522)" fill="#fff"/>
      <path id="Path_42162" data-name="Path 42162" d="M528.531,198.725,526.406,194l-11.949-9.233-6.871-14.97s-.413-2.184,1.062-2.892,3.318,1.18,4.026,2.065,5.62,10.06,5.62,10.06V176.67l-7.52-27.155a2,2,0,0,1,1.384-2.46l.08-.02h0a2.008,2.008,0,0,1,2.362,1.181l6.942,16.8s-.414-3.543,2.538-3.837a4.072,4.072,0,0,1,4.085,2.361s-.591-2.361,2.421-2.656,4.026,3.364,4.026,3.364c-.178-2.007,2.137-2.243,2.137-2.243a3.789,3.789,0,0,1,3.364,1.418c5.124,9.728,3.011,26.529,3.011,26.529l2.739,7.9.083.249" transform="translate(5.452 3.302)" fill="#fff"/>
      <path id="Path_42163" data-name="Path 42163" d="M545.957,198.272a3.865,3.865,0,0,1-.213-.532l-.579-1.594L543,190.125v-.059a77.736,77.736,0,0,0,.284-11.429,53.354,53.354,0,0,0-.838-7.226,27.948,27.948,0,0,0-2.538-7.745h0a3.427,3.427,0,0,0-3.129-1.322h0a2.791,2.791,0,0,0-1.381.591,1.548,1.548,0,0,0-.508,1.381l.213,2.362-.732-2.362a4.224,4.224,0,0,0-2.94-3.128,3.427,3.427,0,0,0-2.208.389,1.747,1.747,0,0,0-.779,1.889l.5,2.361-1.027-2.2a4.242,4.242,0,0,0-1.488-1.711,3.47,3.47,0,0,0-2.245-.532,2.359,2.359,0,0,0-1.9,1.181,4.179,4.179,0,0,0-.437,2.361l.141,1.865-.708-1.711L516.8,154.292q-1.18-2.775-2.361-5.631a2.121,2.121,0,0,0-.756-1.181,1.677,1.677,0,0,0-1.252-.271,1.7,1.7,0,0,0-1.444,1.921,1.547,1.547,0,0,0,.052.239c2.656,9.574,5.194,18.772,7.557,27.285V180.2l-.532-1c-1.676-3.116-3.294-6.128-4.923-8.973-.2-.343-.414-.708-.627-1a7.8,7.8,0,0,0-.791-.875,4.723,4.723,0,0,0-1.865-1.18,1.476,1.476,0,0,0-1.724.637,3.226,3.226,0,0,0-.283,2.032v-.06c2.562,5.656,4.84,10.627,6.812,15v-.071l11.889,9.3h0c.673,1.57,1.181,2.75,1.548,3.542.165.378.283.673.378.9a1.165,1.165,0,0,1,.1.3,2.207,2.207,0,0,1-.153-.271l-.425-.875-1.641-3.542h0l-12.007-9.15h0c-1.984-4.309-4.31-9.316-6.907-14.947h0a3.658,3.658,0,0,1,.343-2.361,1.97,1.97,0,0,1,2.3-.875,5.3,5.3,0,0,1,2.1,1.335,9.135,9.135,0,0,1,.838.932c.259.367.448.708.673,1.062,1.653,2.858,3.27,5.9,4.958,8.974l-.543.141v-2.232c-2.361-8.536-4.923-17.709-7.592-27.332a2.361,2.361,0,0,1,3.6-2.278,2.752,2.752,0,0,1,.968,1.392q1.182,2.846,2.362,5.632l4.45,10.8-.567.141a4.8,4.8,0,0,1,.521-2.739,2.88,2.88,0,0,1,2.361-1.429,4.122,4.122,0,0,1,2.61.626,4.726,4.726,0,0,1,1.7,1.984l-.532.176a2.552,2.552,0,0,1,.106-1.429,2.228,2.228,0,0,1,.921-1.075,3.972,3.972,0,0,1,2.61-.46,3.648,3.648,0,0,1,2.184,1.346,6.607,6.607,0,0,1,1.18,2.184l-.519.1a2.1,2.1,0,0,1,.7-1.819,3.248,3.248,0,0,1,1.664-.708h0a3.544,3.544,0,0,1,2.078.306,4.609,4.609,0,0,1,1.535,1.181h0a28.127,28.127,0,0,1,2.456,7.828,54.294,54.294,0,0,1,.792,7.309,74.5,74.5,0,0,1-.414,11.476h0c.886,2.608,1.57,4.639,2.043,6.056l.519,1.581A3,3,0,0,1,545.957,198.272Z" transform="translate(5.395 3.295)" fill="#263238"/>
      <path id="Path_42164" data-name="Path 42164" d="M560.5,210.812a6.063,6.063,0,0,1,.71-.083,5.346,5.346,0,0,0,1.948-.708,5.268,5.268,0,0,0,2.172-2.5c.591-1.181.367-2.821.4-4.582,0-7.084-.059-17.225-.106-29.776V144.08a5.049,5.049,0,0,0-.9-2.6,5.121,5.121,0,0,0-2.161-1.772,6.308,6.308,0,0,0-2.845-.413h-60.3a5.065,5.065,0,0,0-4.912,3.872,18.327,18.327,0,0,0-.141,3.448v58.514a5.4,5.4,0,0,0,.578,2.669,5.08,5.08,0,0,0,4.334,2.727h20.555l29.788.106h0l-29.788.094H499.26a5.631,5.631,0,0,1-4.723-3,5.832,5.832,0,0,1-.649-2.916V144.894a7.681,7.681,0,0,1,.153-1.842,5.657,5.657,0,0,1,5.515-4.332h60.237a6.908,6.908,0,0,1,3.07.472,5.764,5.764,0,0,1,2.361,1.961,5.6,5.6,0,0,1,.981,2.869v29.115c-.178,12.575-.178,22.763-.178,29.847v2.492a5.384,5.384,0,0,1-2.739,4.721,4.944,4.944,0,0,1-2.008.662A3.938,3.938,0,0,1,560.5,210.812Z" transform="translate(0 0)" fill="#fff"/>
    </g>
    <g id="Group_35807" data-name="Group 35807" transform="translate(528.804 274.528)">
      <path id="Path_42153" data-name="Path 42153" d="M519.588,347.476a3.6,3.6,0,0,1-.446.67,9.984,9.984,0,0,1-1.552,1.53,12.551,12.551,0,0,1-13.644,1.374,11.068,11.068,0,0,1-1.832-1.173c-.39-.335-.581-.536-.558-.569a25.331,25.331,0,0,0,2.569,1.374,13.118,13.118,0,0,0,13.219-1.341A23.912,23.912,0,0,0,519.588,347.476Z" transform="translate(2.481 7.132)" fill="#fff"/>
      <path id="Path_42154" data-name="Path 42154" d="M504.676,348.632a9.267,9.267,0,0,1-3.238.236h0l.3-.291a9.06,9.06,0,0,1-.29,3.183,9.029,9.029,0,0,1-.291-3.183v-.3h.335A8.863,8.863,0,0,1,504.676,348.632Z" transform="translate(2.342 7.383)" fill="#fff"/>
      <path id="Path_42155" data-name="Path 42155" d="M499.252,343.532a1.916,1.916,0,0,1,.146-.793,10.806,10.806,0,0,1,.836-2.009,12.551,12.551,0,0,1,12-6.61,10.362,10.362,0,0,1,2.156.368c.491.146.748.257.737.3a28.56,28.56,0,0,0-2.9-.257,13.12,13.12,0,0,0-11.635,6.4C499.665,342.472,499.353,343.567,499.252,343.532Z" transform="translate(1.736 2.802)" fill="#fff"/>
      <path id="Path_42156" data-name="Path 42156" d="M509.309,336.828a9.036,9.036,0,0,1,2.881-1.485h0l-.156.38a8.924,8.924,0,0,1-.983-3.037,8.954,8.954,0,0,1,1.519,2.814l.111.267-.279.112h0A9.372,9.372,0,0,1,509.309,336.828Z" transform="translate(4.989 2.349)" fill="#fff"/>
      <path id="Path_42157" data-name="Path 42157" d="M538.353,378.784l-1.821-2.713s4.411-10.541,4.411-12.7V353.158s-.76-1.407-1.832-1.294a8.628,8.628,0,0,0-1.931.435s-.435-3.127-2.156-3.228a2.434,2.434,0,0,0-2.366,1.184s-.324-2.914-1.943-2.8a4.826,4.826,0,0,0-2.9,1.832l-2.144-8.508-5.818-8.487a2.736,2.736,0,0,0-1.507,3.35,57.4,57.4,0,0,0,2.234,5.415l1.284,9.682-.324,4.2s-1.719,3.35-3.226,3.226-6.777-6.352-9.892-6.565a2.636,2.636,0,0,0-3,2.215c-.007.05-.013.1-.019.152a36.368,36.368,0,0,1,6.778,5.705c2.233,2.635,3.551,6.343,5.058,8.286s5.806,8.073,5.806,8.073l1.832,4.912" transform="translate(3.726 2.22)" fill="#fff"/>
      <path id="Path_42158" data-name="Path 42158" d="M524.941,380.973a1.242,1.242,0,0,1-.144-.312l-.38-.928-1.407-3.639h0l-2.992-4.087-1.776-2.479c-.625-.883-1.374-1.787-1.988-2.848a54.894,54.894,0,0,0-4.042-6.7,32.622,32.622,0,0,0-6.845-5.762l-.134-.089v-.146a2.945,2.945,0,0,1,1.329-2.233,3.438,3.438,0,0,1,2.612-.291,14.526,14.526,0,0,1,4.466,2.758c1.374,1.117,2.69,2.379,4.154,3.351.38.234.68.378,1.038.212a2.907,2.907,0,0,0,1.006-.748,11.407,11.407,0,0,0,1.551-2.234v.113c.1-1.318.213-2.747.324-4.2v.056l-1.3-9.681v.09c-.379-.8-.77-1.675-1.116-2.569a23.06,23.06,0,0,1-1.251-3.35,2.676,2.676,0,0,1,.38-1.887,3.535,3.535,0,0,1,1.407-1.251l.222-.111.146.212,5.8,8.5h0l2.144,8.508-.48-.1a6.415,6.415,0,0,1,1.429-1.318,3.229,3.229,0,0,1,1.865-.6,1.527,1.527,0,0,1,.971.435,3.014,3.014,0,0,1,.558.815,6.675,6.675,0,0,1,.491,1.775l-.491-.089a2.646,2.646,0,0,1,1.54-1.206,2.779,2.779,0,0,1,.95-.112,1.678,1.678,0,0,1,.949.291,3.181,3.181,0,0,1,1.116,1.485,7.2,7.2,0,0,1,.458,1.674l-.323-.2a7.743,7.743,0,0,1,2.233-.435,2.57,2.57,0,0,1,1.787,1.419h0v9.736a6.411,6.411,0,0,1-.2,1.731c-.279,1.117-.625,2.1-.959,3.048-1.351,3.774-2.569,6.633-3.351,8.5v-.078l1.318,2.166.312.513c.068.111.1.167.09.167l-.123-.144-.357-.491c-.324-.47-.793-1.117-1.407-2.033h0c.737-1.875,1.91-4.756,3.216-8.541.312-.95.647-1.955.916-3.016a15.649,15.649,0,0,0,.156-3.438v-7.783a2.238,2.238,0,0,0-1.429-1.117,6.963,6.963,0,0,0-2.055.425l-.267.089v-.278a4.468,4.468,0,0,0-1.341-2.815,1.834,1.834,0,0,0-1.485-.1,2.127,2.127,0,0,0-1.216.95l-.392.67-.1-.76a5.719,5.719,0,0,0-.458-1.608,1.407,1.407,0,0,0-1.116-.949,4.064,4.064,0,0,0-2.825,1.719l-.345.435-.135-.524c-.7-2.747-1.417-5.583-2.166-8.5v.09l-5.816-8.5.357.1a2.434,2.434,0,0,0-1.464,2.524,26.127,26.127,0,0,0,1.218,3.26c.368.871.76,1.743,1.117,2.546h0c.446,3.35.881,6.588,1.3,9.693v.056c-.112,1.452-.224,2.88-.324,4.2v.111a11.516,11.516,0,0,1-1.653,2.368,3.49,3.49,0,0,1-1.206.893,1.407,1.407,0,0,1-.838.067,2.561,2.561,0,0,1-.7-.335c-1.564-1.117-2.826-2.323-4.187-3.429a14.37,14.37,0,0,0-4.244-2.68,2.948,2.948,0,0,0-2.233.236,2.445,2.445,0,0,0-1.117,1.8l-.111-.224a32.55,32.55,0,0,1,6.923,5.908,53.362,53.362,0,0,1,4.019,6.788c.593,1.039,1.307,1.932,1.932,2.836l1.8,2.524L523.166,376h0c.558,1.575,1,2.8,1.306,3.674.134.4.246.715.324.961A1.272,1.272,0,0,1,524.941,380.973Z" transform="translate(3.671 2.13)" fill="#263238"/>
      <path id="Path_42159" data-name="Path 42159" d="M556.884,393.622a4.4,4.4,0,0,0,.671-.078,4.989,4.989,0,0,0,1.842-.659,5.09,5.09,0,0,0,2.054-2.368c.558-1.116.347-2.68.38-4.331,0-6.7-.056-16.291-.1-28.171v-27.5a4.778,4.778,0,0,0-2.892-4.121,5.984,5.984,0,0,0-2.69-.39H499.124a4.792,4.792,0,0,0-4.645,3.663,17.435,17.435,0,0,0-.134,3.271v55.337a5.117,5.117,0,0,0,.547,2.524,4.845,4.845,0,0,0,4.1,2.579H518.43l28.171.09,7.648.056h0l-7.648.056-28.171.1H498.968a5.326,5.326,0,0,1-4.466-2.836,5.5,5.5,0,0,1-.614-2.747V331.283a7.171,7.171,0,0,1,.144-1.731,5.371,5.371,0,0,1,5.216-4.109h56.967a6.551,6.551,0,0,1,2.9.435,5.451,5.451,0,0,1,2.232,1.854,5.348,5.348,0,0,1,.928,2.725V357.98c0,11.88-.068,21.495-.09,28.171V388.5a5.092,5.092,0,0,1-2.59,4.466,4.8,4.8,0,0,1-1.9.614A3.734,3.734,0,0,1,556.884,393.622Z" fill="#fff"/>
    </g>
  </g>
</svg>
