<svg xmlns="http://www.w3.org/2000/svg" width="507.155" height="293.779" viewBox="0 0 507.155 293.779">
  <g id="WWD" opacity="0.1">
    <g id="WWD_1920-Copy" transform="translate(0 0)">
      <g id="_3.-Cutting-edge" data-name="3.-Cutting-edge" transform="translate(0 0)">
        <g id="Bg" transform="translate(0 0)">
          <g id="Group-11" transform="translate(0)">
            <g id="Плюсы" transform="translate(0)">
              <g id="Group" transform="translate(0 0)">
                <path id="Path" d="M4.639,92.92a.73.73,0,0,1,.773.773v3.092H8.5a.773.773,0,1,1,0,1.546H5.412v3.092a.73.73,0,0,1-.773.773.73.73,0,0,1-.773-.773V98.332H.773a.773.773,0,1,1,0-1.546H3.866V93.693A.73.73,0,0,1,4.639,92.92Z" transform="translate(0 -92.92)" fill="#989cb4"/>
                <path id="Path-2" data-name="Path" d="M190.479,92.92a.73.73,0,0,1,.773.773v3.092h3.092a.773.773,0,1,1,0,1.546h-3.092v3.092a.773.773,0,0,1-1.546,0V98.332h-3.092a.773.773,0,0,1,0-1.546h3.092V93.693A.73.73,0,0,1,190.479,92.92Z" transform="translate(-43.589 -92.92)" fill="#989cb4"/>
                <path id="Path-3" data-name="Path" d="M376.319,92.92a.73.73,0,0,1,.773.773v3.092h3.092a.773.773,0,1,1,0,1.546h-3.092v3.092a.773.773,0,1,1-1.546,0V98.332h-3.092a.773.773,0,0,1,0-1.546h3.092V93.693A.73.73,0,0,1,376.319,92.92Z" transform="translate(-87.178 -92.92)" fill="#989cb4"/>
                <path id="Path-4" data-name="Path" d="M562.159,92.92a.73.73,0,0,1,.773.773v3.092h3.092a.773.773,0,1,1,0,1.546h-3.092v3.092a.773.773,0,0,1-1.546,0V98.332h-3.092a.773.773,0,0,1,0-1.546h3.092V93.693A.73.73,0,0,1,562.159,92.92Z" transform="translate(-130.768 -92.92)" fill="#989cb4"/>
                <path id="Path-5" data-name="Path" d="M97.559,185.84a.73.73,0,0,1,.773.773v3.092h3.092a.773.773,0,1,1,0,1.546H98.332v3.092a.773.773,0,0,1-1.546,0v-3.092H93.693a.773.773,0,1,1,0-1.546h3.092v-3.092A.73.73,0,0,1,97.559,185.84Z" transform="translate(-21.795 -114.715)" fill="#989cb4"/>
                <path id="Path-6" data-name="Path" d="M283.4,185.84a.73.73,0,0,1,.773.773v3.092h3.092a.773.773,0,1,1,0,1.546h-3.092v3.092a.773.773,0,1,1-1.546,0v-3.092h-3.092a.773.773,0,0,1,0-1.546h3.092v-3.092A.73.73,0,0,1,283.4,185.84Z" transform="translate(-65.384 -114.715)" fill="#989cb4"/>
                <path id="Path-7" data-name="Path" d="M469.239,185.84a.73.73,0,0,1,.773.773v3.092H473.1a.773.773,0,1,1,0,1.546h-3.092v3.092a.773.773,0,0,1-1.546,0v-3.092h-3.092a.773.773,0,0,1,0-1.546h3.092v-3.092A.73.73,0,0,1,469.239,185.84Z" transform="translate(-108.973 -114.715)" fill="#989cb4"/>
                <path id="Path-8" data-name="Path" d="M655.079,185.84a.73.73,0,0,1,.773.773v3.092h3.092a.773.773,0,1,1,0,1.546h-3.092v3.092a.773.773,0,1,1-1.546,0v-3.092h-3.092a.773.773,0,1,1,0-1.546h3.092v-3.092A.73.73,0,0,1,655.079,185.84Z" transform="translate(-152.562 -114.715)" fill="#989cb4"/>
                <path id="Path-9" data-name="Path" d="M4.639,278.76a.73.73,0,0,1,.773.773v3.092H8.5a.773.773,0,1,1,0,1.546H5.412v3.092a.73.73,0,0,1-.773.773.73.73,0,0,1-.773-.773v-3.092H.773a.773.773,0,1,1,0-1.546H3.866v-3.092A.73.73,0,0,1,4.639,278.76Z" transform="translate(0 -136.509)" fill="#989cb4"/>
                <path id="Path-10" data-name="Path" d="M190.479,278.76a.73.73,0,0,1,.773.773v3.092h3.092a.773.773,0,0,1,0,1.546h-3.092v3.092a.773.773,0,1,1-1.546,0v-3.092h-3.092a.773.773,0,1,1,0-1.546h3.092v-3.092A.73.73,0,0,1,190.479,278.76Z" transform="translate(-43.589 -136.509)" fill="#989cb4"/>
                <path id="Path-11" data-name="Path" d="M376.319,278.76a.73.73,0,0,1,.773.773v3.092h3.092a.773.773,0,1,1,0,1.546h-3.092v3.092a.773.773,0,0,1-1.546,0v-3.092h-3.092a.773.773,0,0,1,0-1.546h3.092v-3.092A.73.73,0,0,1,376.319,278.76Z" transform="translate(-87.178 -136.509)" fill="#989cb4"/>
                <path id="Path-12" data-name="Path" d="M562.159,278.76a.73.73,0,0,1,.773.773v3.092h3.092a.773.773,0,1,1,0,1.546h-3.092v3.092a.773.773,0,0,1-1.546,0v-3.092h-3.092a.773.773,0,0,1,0-1.546h3.092v-3.092A.73.73,0,0,1,562.159,278.76Z" transform="translate(-130.768 -136.509)" fill="#989cb4"/>
                <path id="Path-13" data-name="Path" d="M97.559,371.68a.73.73,0,0,1,.773.773v3.092h3.092a.773.773,0,1,1,0,1.546H98.332v3.092a.773.773,0,1,1-1.546,0v-3.092H93.693a.773.773,0,1,1,0-1.546h3.092v-3.092A.73.73,0,0,1,97.559,371.68Z" transform="translate(-21.795 -158.304)" fill="#989cb4"/>
                <path id="Path-14" data-name="Path" d="M283.4,371.68a.73.73,0,0,1,.773.773v3.092h3.092a.773.773,0,1,1,0,1.546h-3.092v3.092a.773.773,0,1,1-1.546,0v-3.092h-3.092a.773.773,0,0,1,0-1.546h3.092v-3.092A.73.73,0,0,1,283.4,371.68Z" transform="translate(-65.384 -158.304)" fill="#989cb4"/>
                <path id="Path-15" data-name="Path" d="M469.239,371.68a.73.73,0,0,1,.773.773v3.092H473.1a.773.773,0,1,1,0,1.546h-3.092v3.092a.773.773,0,0,1-1.546,0v-3.092h-3.092a.773.773,0,0,1,0-1.546h3.092v-3.092A.73.73,0,0,1,469.239,371.68Z" transform="translate(-108.973 -158.304)" fill="#989cb4"/>
                <path id="Path-16" data-name="Path" d="M655.079,371.68a.73.73,0,0,1,.773.773v3.092h3.092a.773.773,0,1,1,0,1.546h-3.092v3.092a.773.773,0,1,1-1.546,0v-3.092h-3.092a.773.773,0,1,1,0-1.546h3.092v-3.092A.73.73,0,0,1,655.079,371.68Z" transform="translate(-152.562 -158.304)" fill="#989cb4"/>
                <path id="Path-17" data-name="Path" d="M4.639,464.6a.73.73,0,0,1,.773.773v3.092H8.5a.773.773,0,0,1,0,1.546H5.412V473.1a.73.73,0,0,1-.773.773.73.73,0,0,1-.773-.773v-3.092H.773a.773.773,0,0,1,0-1.546H3.866v-3.092A.73.73,0,0,1,4.639,464.6Z" transform="translate(0 -180.098)" fill="#989cb4"/>
                <path id="Path-18" data-name="Path" d="M190.479,464.6a.73.73,0,0,1,.773.773v3.092h3.092a.773.773,0,0,1,0,1.546h-3.092V473.1a.773.773,0,1,1-1.546,0v-3.092h-3.092a.773.773,0,0,1,0-1.546h3.092v-3.092A.73.73,0,0,1,190.479,464.6Z" transform="translate(-43.589 -180.098)" fill="#989cb4"/>
                <path id="Path-19" data-name="Path" d="M376.319,464.6a.73.73,0,0,1,.773.773v3.092h3.092a.773.773,0,0,1,0,1.546h-3.092V473.1a.773.773,0,1,1-1.546,0v-3.092h-3.092a.773.773,0,0,1,0-1.546h3.092v-3.092A.73.73,0,0,1,376.319,464.6Z" transform="translate(-87.178 -180.098)" fill="#989cb4"/>
                <path id="Path-20" data-name="Path" d="M562.159,464.6a.73.73,0,0,1,.773.773v3.092h3.092a.773.773,0,1,1,0,1.546h-3.092V473.1a.773.773,0,1,1-1.546,0v-3.092h-3.092a.773.773,0,0,1,0-1.546h3.092v-3.092A.73.73,0,0,1,562.159,464.6Z" transform="translate(-130.768 -180.098)" fill="#989cb4"/>
              </g>
              <g id="Group-2" data-name="Group" transform="translate(2.511 1.102)">
                <path id="Path-21" data-name="Path" d="M96.593,92a.723.723,0,0,1,.765.765v3.062h3.062a.765.765,0,0,1,0,1.531H97.358v3.062a.765.765,0,1,1-1.531,0V97.358H92.765a.765.765,0,0,1,0-1.531h3.062V92.765A.723.723,0,0,1,96.593,92Z" transform="translate(-21.579 -92)" fill="#989cb4"/>
                <path id="Path-22" data-name="Path" d="M280.593,92a.723.723,0,0,1,.765.765v3.062h3.062a.765.765,0,0,1,0,1.531h-3.062v3.062a.765.765,0,1,1-1.531,0V97.358h-3.062a.765.765,0,0,1,0-1.531h3.062V92.765A.723.723,0,0,1,280.593,92Z" transform="translate(-64.736 -92)" fill="#989cb4"/>
                <path id="Path-23" data-name="Path" d="M464.593,92a.723.723,0,0,1,.766.765v3.062h3.062a.765.765,0,0,1,0,1.531h-3.062v3.062a.765.765,0,0,1-1.531,0V97.358h-3.062a.765.765,0,0,1,0-1.531h3.062V92.765A.723.723,0,0,1,464.593,92Z" transform="translate(-107.894 -92)" fill="#989cb4"/>
                <path id="Path-24" data-name="Path" d="M648.593,92a.723.723,0,0,1,.766.765v3.062h3.062a.765.765,0,0,1,0,1.531h-3.062v3.062a.765.765,0,0,1-1.531,0V97.358h-3.062a.765.765,0,0,1,0-1.531h3.062V92.765A.723.723,0,0,1,648.593,92Z" transform="translate(-151.052 -92)" fill="#989cb4"/>
                <path id="Path-25" data-name="Path" d="M4.593,184a.723.723,0,0,1,.765.765v3.062H8.42a.765.765,0,0,1,0,1.531H5.358v3.062a.723.723,0,0,1-.765.765.723.723,0,0,1-.765-.765v-3.062H.765a.765.765,0,0,1,0-1.531H3.827v-3.062A.723.723,0,0,1,4.593,184Z" transform="translate(0 -113.579)" fill="#989cb4"/>
                <path id="Path-26" data-name="Path" d="M188.593,184a.723.723,0,0,1,.765.765v3.062h3.062a.765.765,0,0,1,0,1.531h-3.062v3.062a.765.765,0,1,1-1.531,0v-3.062h-3.062a.765.765,0,0,1,0-1.531h3.062v-3.062A.723.723,0,0,1,188.593,184Z" transform="translate(-43.158 -113.579)" fill="#989cb4"/>
                <path id="Path-27" data-name="Path" d="M372.593,184a.723.723,0,0,1,.766.765v3.062h3.062a.765.765,0,0,1,0,1.531h-3.062v3.062a.765.765,0,0,1-1.531,0v-3.062h-3.062a.765.765,0,0,1,0-1.531h3.062v-3.062A.723.723,0,0,1,372.593,184Z" transform="translate(-86.315 -113.579)" fill="#989cb4"/>
                <path id="Path-28" data-name="Path" d="M556.593,184a.723.723,0,0,1,.765.765v3.062h3.062a.765.765,0,0,1,0,1.531h-3.062v3.062a.765.765,0,0,1-1.531,0v-3.062h-3.062a.765.765,0,0,1,0-1.531h3.062v-3.062A.723.723,0,0,1,556.593,184Z" transform="translate(-129.473 -113.579)" fill="#989cb4"/>
                <path id="Path-29" data-name="Path" d="M96.593,276a.723.723,0,0,1,.765.765v3.062h3.062a.765.765,0,0,1,0,1.531H97.358v3.062a.765.765,0,1,1-1.531,0v-3.062H92.765a.765.765,0,0,1,0-1.531h3.062v-3.062A.723.723,0,0,1,96.593,276Z" transform="translate(-21.579 -135.158)" fill="#989cb4"/>
                <path id="Path-30" data-name="Path" d="M280.593,276a.723.723,0,0,1,.765.765v3.062h3.062a.765.765,0,0,1,0,1.531h-3.062v3.062a.765.765,0,0,1-1.531,0v-3.062h-3.062a.765.765,0,0,1,0-1.531h3.062v-3.062A.723.723,0,0,1,280.593,276Z" transform="translate(-64.736 -135.158)" fill="#989cb4"/>
                <path id="Path-31" data-name="Path" d="M464.593,276a.723.723,0,0,1,.766.765v3.062h3.062a.765.765,0,0,1,0,1.531h-3.062v3.062a.765.765,0,0,1-1.531,0v-3.062h-3.062a.765.765,0,0,1,0-1.531h3.062v-3.062A.723.723,0,0,1,464.593,276Z" transform="translate(-107.894 -135.158)" fill="#989cb4"/>
                <path id="Path-32" data-name="Path" d="M648.593,276a.723.723,0,0,1,.766.765v3.062h3.062a.765.765,0,0,1,0,1.531h-3.062v3.062a.765.765,0,0,1-1.531,0v-3.062h-3.062a.765.765,0,0,1,0-1.531h3.062v-3.062A.723.723,0,0,1,648.593,276Z" transform="translate(-151.052 -135.158)" fill="#989cb4"/>
                <path id="Path-33" data-name="Path" d="M4.593,368a.723.723,0,0,1,.765.765v3.062H8.42a.765.765,0,0,1,0,1.531H5.358v3.062a.723.723,0,0,1-.765.765.723.723,0,0,1-.765-.765v-3.062H.765a.765.765,0,0,1,0-1.531H3.827v-3.062A.723.723,0,0,1,4.593,368Z" transform="translate(0 -156.736)" fill="#989cb4"/>
                <path id="Path-34" data-name="Path" d="M188.593,368a.723.723,0,0,1,.765.765v3.062h3.062a.765.765,0,0,1,0,1.531h-3.062v3.062a.765.765,0,1,1-1.531,0v-3.062h-3.062a.765.765,0,0,1,0-1.531h3.062v-3.062A.723.723,0,0,1,188.593,368Z" transform="translate(-43.158 -156.736)" fill="#989cb4"/>
                <path id="Path-35" data-name="Path" d="M372.593,368a.723.723,0,0,1,.766.765v3.062h3.062a.765.765,0,0,1,0,1.531h-3.062v3.062a.765.765,0,1,1-1.531,0v-3.062h-3.062a.765.765,0,0,1,0-1.531h3.062v-3.062A.723.723,0,0,1,372.593,368Z" transform="translate(-86.315 -156.736)" fill="#989cb4"/>
                <path id="Path-36" data-name="Path" d="M556.593,368a.723.723,0,0,1,.765.765v3.062h3.062a.765.765,0,0,1,0,1.531h-3.062v3.062a.765.765,0,1,1-1.531,0v-3.062h-3.062a.765.765,0,0,1,0-1.531h3.062v-3.062A.723.723,0,0,1,556.593,368Z" transform="translate(-129.473 -156.736)" fill="#989cb4"/>
                <path id="Path-37" data-name="Path" d="M96.593,460a.723.723,0,0,1,.765.765v3.062h3.062a.765.765,0,0,1,0,1.531H97.358v3.062a.765.765,0,1,1-1.531,0v-3.062H92.765a.765.765,0,0,1,0-1.531h3.062v-3.062A.723.723,0,0,1,96.593,460Z" transform="translate(-21.579 -178.315)" fill="#989cb4"/>
                <path id="Path-38" data-name="Path" d="M280.593,460a.723.723,0,0,1,.765.765v3.062h3.062a.765.765,0,0,1,0,1.531h-3.062v3.062a.765.765,0,1,1-1.531,0v-3.062h-3.062a.765.765,0,0,1,0-1.531h3.062v-3.062A.723.723,0,0,1,280.593,460Z" transform="translate(-64.736 -178.315)" fill="#989cb4"/>
                <path id="Path-39" data-name="Path" d="M464.593,460a.723.723,0,0,1,.766.765v3.062h3.062a.765.765,0,0,1,0,1.531h-3.062v3.062a.765.765,0,1,1-1.531,0v-3.062h-3.062a.765.765,0,0,1,0-1.531h3.062v-3.062A.723.723,0,0,1,464.593,460Z" transform="translate(-107.894 -178.315)" fill="#989cb4"/>
                <path id="Path-40" data-name="Path" d="M648.593,460a.723.723,0,0,1,.766.765v3.062h3.062a.765.765,0,0,1,0,1.531h-3.062v3.062a.765.765,0,1,1-1.531,0v-3.062h-3.062a.765.765,0,0,1,0-1.531h3.062v-3.062A.723.723,0,0,1,648.593,460Z" transform="translate(-151.052 -178.315)" fill="#989cb4"/>
              </g>
            </g>
          </g>
        </g>
      </g>
    </g>
  </g>
</svg>
