<svg xmlns="http://www.w3.org/2000/svg" width="946.912" height="1180.629" viewBox="0 0 946.912 1180.629">
  <g id="Group_34984" data-name="Group 34984" transform="translate(-878.705 -700.678)">
    <path id="Path-Copy" d="M486.988,93.52,717.1,1012.953s-137.512-52.26-204.022-50.858c-124.1,2.616-258.3,128.941-359.091,49.917C52.94,932.787,121.5,761.145,93.327,633,69.262,523.551-11.713,428.649,1.433,318.184c14.394-120.95,59.941-260.4,166.015-307.992C267.454-34.683,370.54,82.525,479.979,93.3,486.543,93.952,486.988,93.52,486.988,93.52Z" transform="translate(1129.812 700.678) rotate(14)" fill="#1d1e26" fill-rule="evenodd"/>
    <path id="Path-Copy-4" d="M417.074,79.415,610.564,852.77s-121.158-46.116-179.938-44.876c-104.156,2.2-216.783,108.291-301.38,41.925-84.81-66.535-27.267-210.687-50.916-318.307-20.2-91.92-88.16-171.622-77.127-264.4C13.283,165.537,51.509,48.425,140.534,8.451c84.558-37.969,137.831,63.925,265.265,70.5C412.71,79.312,417.074,79.415,417.074,79.415Z" transform="translate(1194.143 800.635) rotate(14)" fill="#181921" fill-rule="evenodd"/>
    <path id="Path-Copy-5" d="M336.837,59.718l152.93,608.809s-103.079-38.679-153.386-37.619c-81.362,1.714-169.342,84.513-235.425,32.717C34.707,611.7,79.658,499.195,61.186,415.2,45.408,343.463-7.679,281.259.94,208.855c9.437-79.277,39.3-170.676,108.842-201.873C179.532-24.308,336.837,59.718,336.837,59.718Z" transform="translate(1267.635 915.012) rotate(14)" fill="#14161c" fill-rule="evenodd"/>
  </g>
</svg>
