<svg xmlns="http://www.w3.org/2000/svg" width="356" height="360" viewBox="0 0 356 360">
  <g id="Group_37758" data-name="Group 37758" transform="translate(-14791.618 8136.667)">
    <g id="Group_33885" data-name="Group 33885" transform="translate(3538.618 -6307.667)">
      <g id="Group_33880" data-name="Group 33880" transform="translate(-197 -134)">
        <g id="Group_33878" data-name="Group 33878" transform="translate(-513 -2600)">
          <rect id="process-01" width="356" height="360" rx="7" transform="translate(11963 905)" fill="#1d1e27"/>
        </g>
      </g>
    </g>
    <g id="card3" transform="translate(14846.823 -8076.806)">
      <path id="Path_42513" data-name="Path 42513" d="M225.688,1.795H14.589A12.794,12.794,0,0,0,1.795,14.589v211.1a12.794,12.794,0,0,0,12.794,12.794h211.1a12.794,12.794,0,0,0,12.794-12.794V14.589A12.794,12.794,0,0,0,225.688,1.795Z" transform="translate(0 0)" fill="none" stroke="#d0d0d0" stroke-width="2"/>
      <path id="Path_42514" data-name="Path 42514" d="M4.487,15.256H228.381" transform="translate(6.903 34.516)" fill="none" stroke="#d0d0d0" stroke-linecap="square" stroke-width="2"/>
      <path id="Path_42515" data-name="Path 42515" d="M62.355,53.787,44.262,35.693" transform="translate(108.885 86.916)" fill="none" stroke="#d0d0d0" stroke-linecap="round" stroke-width="2"/>
      <path id="Path_42516" data-name="Path 42516" d="M62.355,41.078,44.262,59.171" transform="translate(108.885 100.723)" fill="none" stroke="#d0d0d0" stroke-linecap="round" stroke-width="2"/>
      <path id="Path_42517" data-name="Path 42517" d="M20.641,41.073,38.735,59.166" transform="translate(48.322 100.71)" fill="none" stroke="#d0d0d0" stroke-linecap="round" stroke-width="2"/>
      <path id="Path_42518" data-name="Path 42518" d="M20.641,53.782,38.735,35.688" transform="translate(48.322 86.904)" fill="none" stroke="#d0d0d0" stroke-linecap="round" stroke-width="2"/>
      <path id="Path_42519" data-name="Path 42519" d="M52.319,30.513,32.452,104.661" transform="translate(78.605 73.633)" fill="none" stroke="#cb4f34" stroke-linecap="round" stroke-width="2"/>
    </g>
  </g>
</svg>
