<svg xmlns="http://www.w3.org/2000/svg" width="356" height="360" viewBox="0 0 356 360">
  <g id="Group_33890" data-name="Group 33890" transform="translate(-11253 1829)">
    <g id="Group_33880" data-name="Group 33880" transform="translate(-197 -134)">
      <g id="Group_33878" data-name="Group 33878" transform="translate(-513 -2600)">
        <rect id="process-01" width="356" height="360" rx="7" transform="translate(11963 905)" fill="#1d1e27"/>
      </g>
    </g>
    <g id="page" transform="translate(11304.114 -1786.948)">
      <path id="Path_36773" data-name="Path 36773" d="M61.187,77.033l-17.8,17.858,17.8,17.858" transform="translate(89.043 162.412)" fill="none" stroke="#d0d0d0" stroke-width="2" fill-rule="evenodd"/>
      <path id="Path_36774" data-name="Path 36774" d="M63.623,257.3H164.5a17.831,17.831,0,0,0,17.8-17.858V132.3M33.957,37.053,51.758,19.2,33.954,1.338" transform="translate(68.805 0)" fill="none" stroke="#d0d0d0" stroke-width="2" fill-rule="evenodd"/>
      <path id="Path_36775" data-name="Path 36775" d="M120.563,7.015H19.687a17.831,17.831,0,0,0-17.8,17.858V132.021" transform="translate(0 12.181)" fill="none" stroke="#d0d0d0" stroke-width="2" fill-rule="evenodd"/>
      <path id="Path_36776" data-name="Path 36776" d="M13.205,175.029h178.01V20.262H13.2ZM31.006,38.12H42.871m5.936,0H60.672M13.2,55.977h178.01" transform="translate(24.286 40.603)" fill="none" stroke="#cb4f34" stroke-width="2" fill-rule="evenodd"/>
      <path id="Path_36777" data-name="Path 36777" d="M61.225,134.982h59.339V63.548H61.225Zm77.14-71.434H197.7M138.364,87.361H197.7M138.364,111.17h35.6m77.143-47.621v-11.9m0-11.906V27.83M1.886,134.982V123.076m0-11.906v-11.9" transform="translate(0 56.841)" fill="none" stroke="#d0d0d0" stroke-width="2" fill-rule="evenodd"/>
    </g>
  </g>
</svg>
